M48
; DRILL file {KiCad 9.0.3-9.0.3-0~ubuntu24.04.1} date 2025-08-28T08:20:27-0400
; FORMAT={-:-/ absolute / metric / decimal}
; #@! TF.CreationDate,2025-08-28T08:20:27-04:00
; #@! TF.GenerationSoftware,Kicad,Pcbnew,9.0.3-9.0.3-0~ubuntu24.04.1
; #@! TF.FileFunction,Plated,1,2,PTH
FMAT,2
METRIC
; #@! TA.AperFunction,Plated,PTH,ViaDrill
T1C0.300
; #@! TA.AperFunction,Plated,PTH,ComponentDrill
T2C0.600
; #@! TA.AperFunction,Plated,PTH,ComponentDrill
T3C0.950
; #@! TA.AperFunction,Plated,PTH,ComponentDrill
T4C1.000
; #@! TA.AperFunction,Plated,PTH,ComponentDrill
T5C1.020
; #@! TA.AperFunction,Plated,PTH,ComponentDrill
T6C1.300
; #@! TA.AperFunction,Plated,PTH,ComponentDrill
T7C1.800
; #@! TA.AperFunction,Plated,PTH,ComponentDrill
T8C2.100
; #@! TA.AperFunction,Plated,PTH,ComponentDrill
T9C2.200
%
G90
G05
T1
X113.624Y-39.36
X113.624Y-120.64
X113.624Y-128.26
X113.624Y-130.8
X113.624Y-133.34
X113.624Y-135.88
X116.164Y-39.36
X116.164Y-120.64
X116.164Y-125.72
X116.164Y-130.8
X116.164Y-133.34
X116.164Y-135.88
X118.62Y-129.55
X118.704Y-39.36
X118.704Y-77.46
X118.704Y-80.0
X118.704Y-82.54
X118.704Y-85.08
X118.704Y-87.62
X118.704Y-90.16
X118.704Y-92.7
X118.704Y-120.64
X118.704Y-123.18
X118.704Y-125.72
X118.704Y-130.8
X118.704Y-135.88
X119.625Y-127.324
X119.825Y-126.124
X120.719Y-127.049
X121.22Y-129.65
X121.244Y-80.0
X121.244Y-82.54
X121.244Y-87.62
X121.244Y-90.16
X121.244Y-120.64
X121.244Y-123.18
X121.244Y-130.8
X121.244Y-135.88
X122.22Y-128.45
X123.784Y-52.06
X123.784Y-87.62
X123.784Y-105.4
X123.784Y-120.64
X123.784Y-123.18
X123.784Y-130.8
X123.784Y-133.34
X123.784Y-135.88
X126.324Y-49.52
X126.324Y-52.06
X126.324Y-67.3
X126.324Y-87.62
X126.324Y-105.4
X126.324Y-123.18
X126.324Y-135.88
X126.8Y-73.7
X126.8Y-75.4
X127.245Y-129.525
X127.439Y-48.485
X127.439Y-64.485
X127.529Y-101.505
X127.529Y-117.505
X128.225Y-127.15
X128.425Y-125.95
X128.864Y-87.62
X128.864Y-123.18
X128.864Y-130.8
X128.864Y-135.88
X129.32Y-126.85
X129.845Y-129.525
X130.82Y-128.45
X131.404Y-44.44
X131.404Y-54.6
X131.404Y-59.68
X131.404Y-62.22
X131.404Y-80.0
X131.404Y-87.62
X131.404Y-90.16
X131.404Y-97.78
X131.404Y-107.94
X131.404Y-113.02
X131.404Y-123.18
X131.404Y-130.8
X131.404Y-133.34
X131.404Y-135.88
X132.309Y-39.965
X132.309Y-40.765
X132.309Y-41.565
X132.309Y-55.965
X132.309Y-56.765
X132.309Y-57.565
X132.399Y-92.985
X132.399Y-93.785
X132.399Y-94.585
X132.399Y-108.985
X132.399Y-109.785
X132.399Y-110.585
X133.309Y-39.965
X133.309Y-40.765
X133.309Y-41.565
X133.309Y-55.965
X133.309Y-56.765
X133.309Y-57.565
X133.399Y-92.985
X133.399Y-93.785
X133.399Y-94.585
X133.399Y-108.985
X133.399Y-109.785
X133.399Y-110.585
X133.944Y-80.0
X133.944Y-87.62
X133.944Y-90.16
X133.944Y-123.18
X133.944Y-135.88
X134.309Y-39.965
X134.309Y-40.765
X134.309Y-41.565
X134.309Y-55.965
X134.309Y-56.765
X134.309Y-57.565
X134.399Y-92.985
X134.399Y-93.785
X134.399Y-94.585
X134.399Y-108.985
X134.399Y-109.785
X134.399Y-110.585
X135.309Y-39.965
X135.309Y-40.765
X135.309Y-41.565
X135.309Y-55.965
X135.309Y-56.765
X135.309Y-57.565
X135.399Y-92.985
X135.399Y-93.785
X135.399Y-94.585
X135.399Y-108.985
X135.399Y-109.785
X135.399Y-110.585
X135.995Y-129.525
X136.425Y-71.525
X136.475Y-76.525
X136.484Y-105.4
X136.484Y-107.94
X136.484Y-113.02
X136.484Y-123.18
X136.484Y-130.8
X136.484Y-135.88
X136.725Y-38.025
X137.025Y-127.324
X137.225Y-126.124
X137.301Y-79.199
X137.325Y-53.025
X137.475Y-80.775
X137.5Y-84.775
X137.902Y-127.032
X137.925Y-63.225
X137.939Y-46.235
X137.939Y-47.735
X137.939Y-62.235
X138.029Y-99.255
X138.029Y-100.755
X138.029Y-115.255
X138.029Y-116.755
X138.314Y-70.976
X138.425Y-54.525
X138.595Y-129.525
X138.68Y-75.72
X138.68Y-77.47
X138.725Y-89.625
X138.725Y-101.525
X138.975Y-65.35
X139.024Y-39.36
X139.024Y-41.9
X139.024Y-44.44
X139.024Y-57.14
X139.024Y-95.24
X139.024Y-123.18
X139.024Y-130.8
X139.024Y-135.88
X139.225Y-92.625
X139.53Y-69.03
X139.72Y-128.45
X140.125Y-88.225
X140.225Y-73.525
X140.451Y-68.499
X140.475Y-82.249
X140.525Y-100.6
X140.625Y-81.325
X140.68Y-78.97
X140.7Y-74.45
X140.725Y-87.125
X140.876Y-60.275
X140.925Y-80.425
X141.088Y-69.725
X141.475Y-46.275
X141.564Y-41.9
X141.564Y-52.06
X141.564Y-54.6
X141.564Y-118.1
X141.564Y-120.64
X141.564Y-123.18
X141.564Y-130.8
X141.564Y-133.34
X141.564Y-135.88
X141.625Y-90.325
X141.963Y-56.55
X142.225Y-46.275
X142.338Y-69.975
X142.425Y-83.525
X142.725Y-62.775
X143.112Y-80.05
X143.329Y-52.35
X143.425Y-85.225
X143.575Y-66.235
X143.763Y-50.874
X143.935Y-59.583
X143.975Y-47.775
X144.025Y-79.425
X144.025Y-84.2
X144.104Y-39.36
X144.104Y-41.9
X144.104Y-102.86
X144.104Y-105.4
X144.104Y-107.94
X144.104Y-110.48
X144.104Y-115.56
X144.104Y-118.1
X144.104Y-123.18
X144.104Y-130.8
X144.104Y-135.88
X144.125Y-52.275
X144.325Y-91.225
X144.475Y-73.275
X144.625Y-83.6
X144.715Y-129.525
X145.325Y-92.925
X145.425Y-58.725
X145.475Y-52.525
X145.475Y-73.3
X145.525Y-88.125
X145.725Y-47.275
X145.825Y-127.324
X146.025Y-126.124
X146.225Y-56.025
X146.625Y-51.125
X146.644Y-39.36
X146.644Y-41.9
X146.644Y-130.8
X146.644Y-135.88
X146.773Y-126.903
X146.775Y-66.725
X147.315Y-129.525
X147.475Y-46.025
X147.925Y-74.325
X148.0Y-67.5
X148.025Y-73.325
X148.075Y-86.325
X148.225Y-46.025
X148.52Y-128.45
X148.8Y-67.5
X148.949Y-73.649
X149.07Y-80.17
X149.17Y-81.55
X149.184Y-41.9
X149.184Y-49.52
X149.184Y-125.72
X149.184Y-130.8
X149.184Y-133.34
X149.184Y-135.88
X149.475Y-65.925
X149.475Y-66.725
X149.675Y-63.825
X149.675Y-64.725
X150.075Y-77.16
X150.275Y-73.275
X150.375Y-63.825
X150.375Y-64.725
X150.48Y-81.9
X150.5Y-78.9
X150.66Y-72.57
X151.075Y-67.025
X151.075Y-68.625
X151.225Y-53.625
X151.275Y-65.725
X151.644Y-76.896
X151.724Y-135.88
X151.825Y-71.225
X151.825Y-73.325
X152.075Y-65.725
X152.56Y-76.54
X152.775Y-65.725
X152.925Y-86.525
X153.125Y-62.125
X153.425Y-77.125
X153.435Y-129.525
X153.525Y-87.425
X153.575Y-65.725
X153.625Y-99.125
X153.83Y-79.99
X153.87Y-78.98
X154.225Y-126.124
X154.264Y-46.98
X154.264Y-49.52
X154.264Y-52.06
X154.264Y-90.16
X154.264Y-92.7
X154.264Y-95.24
X154.264Y-97.78
X154.264Y-105.4
X154.264Y-107.94
X154.264Y-110.48
X154.264Y-113.02
X154.264Y-115.56
X154.264Y-118.1
X154.264Y-120.64
X154.264Y-130.8
X154.264Y-135.88
X154.425Y-54.125
X154.425Y-127.324
X154.475Y-44.275
X154.713Y-77.143
X154.725Y-84.525
X155.225Y-43.275
X155.433Y-126.963
X156.035Y-129.525
X156.3Y-58.625
X156.4Y-48.325
X156.5Y-52.775
X156.5Y-53.475
X156.575Y-65.225
X156.575Y-65.925
X156.725Y-43.275
X156.804Y-41.9
X156.804Y-85.08
X156.804Y-87.62
X156.804Y-97.78
X156.804Y-110.48
X156.804Y-113.02
X156.804Y-115.56
X156.804Y-118.1
X156.804Y-120.64
X156.804Y-130.8
X156.804Y-135.88
X157.1Y-76.02
X157.12Y-128.45
X157.151Y-74.251
X157.275Y-65.225
X157.275Y-65.925
X157.3Y-46.225
X157.3Y-46.925
X157.3Y-47.625
X157.3Y-48.325
X157.4Y-52.775
X157.4Y-53.475
X157.716Y-73.685
X157.925Y-93.425
X157.925Y-95.925
X157.975Y-65.225
X157.975Y-65.925
X158.06Y-76.43
X158.225Y-43.275
X158.3Y-49.225
X158.3Y-50.425
X158.3Y-51.025
X158.3Y-51.925
X158.3Y-54.125
X158.475Y-72.025
X158.625Y-74.525
X158.625Y-89.225
X158.675Y-65.225
X158.675Y-65.925
X158.708Y-75.321
X159.325Y-97.025
X159.344Y-39.36
X159.344Y-41.9
X159.344Y-44.44
X159.344Y-77.46
X159.344Y-80.0
X159.344Y-85.08
X159.344Y-87.62
X159.344Y-100.32
X159.344Y-102.86
X159.344Y-113.02
X159.344Y-115.56
X159.344Y-118.1
X159.344Y-120.64
X159.344Y-130.8
X159.344Y-133.34
X159.344Y-135.88
X159.4Y-54.225
X159.4Y-65.225
X159.4Y-65.925
X159.425Y-111.125
X159.57Y-91.12
X159.6Y-52.025
X159.725Y-43.275
X159.725Y-93.325
X159.825Y-69.525
X159.825Y-75.525
X160.225Y-82.025
X160.505Y-92.305
X161.025Y-68.325
X161.1Y-52.025
X161.475Y-111.025
X161.884Y-72.38
X161.884Y-74.92
X161.884Y-115.56
X161.884Y-118.1
X161.884Y-120.64
X161.884Y-130.8
X161.884Y-135.88
X162.025Y-90.825
X162.105Y-129.525
X162.2Y-42.705
X162.2Y-44.205
X162.2Y-58.705
X162.2Y-60.205
X162.2Y-95.755
X162.2Y-97.255
X162.2Y-111.755
X162.2Y-113.255
X162.725Y-53.775
X163.025Y-126.124
X163.225Y-127.324
X164.168Y-126.898
X164.424Y-46.98
X164.424Y-52.06
X164.424Y-62.22
X164.424Y-82.54
X164.424Y-85.08
X164.424Y-90.16
X164.424Y-100.32
X164.424Y-105.4
X164.424Y-115.56
X164.424Y-120.64
X164.424Y-125.72
X164.424Y-130.8
X164.424Y-135.88
X164.625Y-69.625
X164.705Y-129.525
X164.83Y-48.875
X164.83Y-49.675
X164.83Y-50.475
X164.83Y-64.875
X164.83Y-65.675
X164.83Y-66.475
X164.83Y-101.925
X164.83Y-102.725
X164.83Y-103.525
X164.83Y-117.925
X164.83Y-118.725
X164.83Y-119.525
X165.225Y-58.775
X165.83Y-48.875
X165.83Y-49.675
X165.83Y-50.475
X165.83Y-64.875
X165.83Y-65.675
X165.83Y-66.475
X165.83Y-101.925
X165.83Y-102.725
X165.83Y-103.525
X165.83Y-117.925
X165.83Y-118.725
X165.83Y-119.525
X165.92Y-128.25
X166.2Y-96.14
X166.83Y-48.875
X166.83Y-49.675
X166.83Y-50.475
X166.83Y-64.875
X166.83Y-65.675
X166.83Y-66.475
X166.83Y-101.925
X166.83Y-102.725
X166.83Y-103.525
X166.83Y-117.925
X166.83Y-118.725
X166.83Y-119.525
X166.964Y-69.84
X166.964Y-123.18
X166.964Y-130.8
X166.964Y-133.34
X166.964Y-135.88
X167.83Y-48.875
X167.83Y-49.675
X167.83Y-50.475
X167.83Y-64.875
X167.83Y-65.675
X167.83Y-66.475
X167.83Y-101.925
X167.83Y-102.725
X167.83Y-103.525
X167.83Y-117.925
X167.83Y-118.725
X167.83Y-119.525
X169.504Y-69.84
X169.504Y-80.0
X169.504Y-123.18
X169.504Y-135.88
X170.775Y-129.525
X171.625Y-126.124
X171.825Y-127.324
X172.044Y-69.84
X172.044Y-123.18
X172.044Y-130.8
X172.044Y-135.88
X172.7Y-41.955
X172.7Y-57.955
X172.7Y-95.005
X172.7Y-111.005
X172.837Y-126.9
X173.375Y-129.525
X174.52Y-128.25
X174.584Y-69.84
X174.584Y-72.38
X174.584Y-74.92
X174.584Y-123.18
X174.584Y-130.8
X174.584Y-133.34
X174.584Y-135.88
X177.124Y-39.36
X177.124Y-69.84
X177.124Y-72.38
X177.124Y-77.46
X177.124Y-123.18
X177.124Y-130.8
X177.124Y-133.34
X177.124Y-135.88
X179.445Y-129.525
X179.664Y-39.36
X179.664Y-69.84
X179.664Y-72.38
X179.664Y-74.92
X179.664Y-77.46
X179.664Y-80.0
X179.664Y-123.18
X179.664Y-130.8
X179.664Y-135.88
X180.225Y-126.05
X180.537Y-127.337
X181.667Y-126.74
X182.045Y-129.525
X182.204Y-39.36
X182.204Y-120.64
X182.204Y-123.18
X182.204Y-130.8
X182.204Y-135.88
X183.12Y-128.25
X184.744Y-39.36
X184.744Y-120.64
X184.744Y-130.8
X184.744Y-133.34
X184.744Y-135.88
X187.284Y-39.36
X187.284Y-120.64
X187.284Y-128.26
X187.284Y-130.8
X187.284Y-133.34
T3
X156.225Y-100.125
X156.225Y-102.625
X156.225Y-105.125
X156.225Y-107.625
T4
X118.37Y-134.025
X120.87Y-134.025
X126.995Y-134.025
X129.495Y-134.025
X135.745Y-134.025
X138.245Y-134.025
X144.465Y-134.025
X146.965Y-134.025
X153.185Y-134.025
X153.975Y-40.025
X155.685Y-134.025
X156.475Y-40.025
X161.855Y-134.025
X164.355Y-134.025
X170.525Y-134.025
X173.025Y-134.025
X179.195Y-134.025
X181.695Y-134.025
T5
X115.999Y-45.485
X115.999Y-61.485
X116.089Y-98.505
X116.089Y-114.505
X118.999Y-45.485
X118.999Y-61.485
X119.089Y-98.505
X119.089Y-114.505
X181.14Y-44.955
X181.14Y-60.955
X181.14Y-98.005
X181.14Y-114.005
X184.14Y-44.955
X184.14Y-60.955
X184.14Y-98.005
X184.14Y-114.005
T6
X143.9Y-112.89
X143.9Y-120.51
T7
X129.659Y-74.825
X129.659Y-84.625
X133.059Y-74.825
X133.059Y-84.625
X166.975Y-74.875
X166.975Y-84.675
X170.375Y-74.875
X170.375Y-84.675
T8
X123.109Y-74.965
X123.109Y-84.465
X176.975Y-75.025
X176.975Y-84.525
T9
X114.125Y-53.225
X114.125Y-124.025
X186.025Y-53.225
X186.025Y-124.025
T2
G00X141.155Y-40.35
M15
G01X141.155Y-39.55
M16
G05
G00X141.155Y-44.7
M15
G01X141.155Y-43.6
M16
G05
G00X149.795Y-40.35
M15
G01X149.795Y-39.55
M16
G05
G00X149.795Y-44.7
M15
G01X149.795Y-43.6
M16
G05
M30
