%TF.GenerationSoftware,KiCad,Pcbnew,9.0.3-9.0.3-0~ubuntu24.04.1*%
%TF.CreationDate,2025-08-15T16:19:55-04:00*%
%TF.ProjectId,power distribution,706f7765-7220-4646-9973-747269627574,rev?*%
%TF.SameCoordinates,Original*%
%TF.FileFunction,Legend,Top*%
%TF.FilePolarity,Positive*%
%FSLAX46Y46*%
G04 Gerber Fmt 4.6, Leading zero omitted, Abs format (unit mm)*
G04 Created by KiCad (PCBNEW 9.0.3-9.0.3-0~ubuntu24.04.1) date 2025-08-15 16:19:55*
%MOMM*%
%LPD*%
G01*
G04 APERTURE LIST*
%ADD10C,0.150000*%
%ADD11C,0.120000*%
%ADD12C,0.250000*%
G04 APERTURE END LIST*
D10*
X163990476Y-96604819D02*
X163990476Y-95604819D01*
X163990476Y-95604819D02*
X164323809Y-96319104D01*
X164323809Y-96319104D02*
X164657142Y-95604819D01*
X164657142Y-95604819D02*
X164657142Y-96604819D01*
X165085714Y-95700057D02*
X165133333Y-95652438D01*
X165133333Y-95652438D02*
X165228571Y-95604819D01*
X165228571Y-95604819D02*
X165466666Y-95604819D01*
X165466666Y-95604819D02*
X165561904Y-95652438D01*
X165561904Y-95652438D02*
X165609523Y-95700057D01*
X165609523Y-95700057D02*
X165657142Y-95795295D01*
X165657142Y-95795295D02*
X165657142Y-95890533D01*
X165657142Y-95890533D02*
X165609523Y-96033390D01*
X165609523Y-96033390D02*
X165038095Y-96604819D01*
X165038095Y-96604819D02*
X165657142Y-96604819D01*
X163990476Y-25804819D02*
X163990476Y-24804819D01*
X163990476Y-24804819D02*
X164323809Y-25519104D01*
X164323809Y-25519104D02*
X164657142Y-24804819D01*
X164657142Y-24804819D02*
X164657142Y-25804819D01*
X165085714Y-24900057D02*
X165133333Y-24852438D01*
X165133333Y-24852438D02*
X165228571Y-24804819D01*
X165228571Y-24804819D02*
X165466666Y-24804819D01*
X165466666Y-24804819D02*
X165561904Y-24852438D01*
X165561904Y-24852438D02*
X165609523Y-24900057D01*
X165609523Y-24900057D02*
X165657142Y-24995295D01*
X165657142Y-24995295D02*
X165657142Y-25090533D01*
X165657142Y-25090533D02*
X165609523Y-25233390D01*
X165609523Y-25233390D02*
X165038095Y-25804819D01*
X165038095Y-25804819D02*
X165657142Y-25804819D01*
X92090476Y-25804819D02*
X92090476Y-24804819D01*
X92090476Y-24804819D02*
X92423809Y-25519104D01*
X92423809Y-25519104D02*
X92757142Y-24804819D01*
X92757142Y-24804819D02*
X92757142Y-25804819D01*
X93185714Y-24900057D02*
X93233333Y-24852438D01*
X93233333Y-24852438D02*
X93328571Y-24804819D01*
X93328571Y-24804819D02*
X93566666Y-24804819D01*
X93566666Y-24804819D02*
X93661904Y-24852438D01*
X93661904Y-24852438D02*
X93709523Y-24900057D01*
X93709523Y-24900057D02*
X93757142Y-24995295D01*
X93757142Y-24995295D02*
X93757142Y-25090533D01*
X93757142Y-25090533D02*
X93709523Y-25233390D01*
X93709523Y-25233390D02*
X93138095Y-25804819D01*
X93138095Y-25804819D02*
X93757142Y-25804819D01*
X92090476Y-96604819D02*
X92090476Y-95604819D01*
X92090476Y-95604819D02*
X92423809Y-96319104D01*
X92423809Y-96319104D02*
X92757142Y-95604819D01*
X92757142Y-95604819D02*
X92757142Y-96604819D01*
X93185714Y-95700057D02*
X93233333Y-95652438D01*
X93233333Y-95652438D02*
X93328571Y-95604819D01*
X93328571Y-95604819D02*
X93566666Y-95604819D01*
X93566666Y-95604819D02*
X93661904Y-95652438D01*
X93661904Y-95652438D02*
X93709523Y-95700057D01*
X93709523Y-95700057D02*
X93757142Y-95795295D01*
X93757142Y-95795295D02*
X93757142Y-95890533D01*
X93757142Y-95890533D02*
X93709523Y-96033390D01*
X93709523Y-96033390D02*
X93138095Y-96604819D01*
X93138095Y-96604819D02*
X93757142Y-96604819D01*
D11*
%TO.C,R11*%
X109986946Y-26050000D02*
X111441074Y-26050000D01*
X109986946Y-27870000D02*
X111441074Y-27870000D01*
%TO.C,C56*%
X157710000Y-103084420D02*
X157710000Y-103365580D01*
X158730000Y-103084420D02*
X158730000Y-103365580D01*
%TO.C,R22*%
X104736946Y-40800000D02*
X106191074Y-40800000D01*
X104736946Y-42620000D02*
X106191074Y-42620000D01*
%TO.C,C1*%
X142615580Y-70220000D02*
X142334420Y-70220000D01*
X142615580Y-71240000D02*
X142334420Y-71240000D01*
%TO.C,C42*%
X121102500Y-46565580D02*
X121102500Y-46284420D01*
X122122500Y-46565580D02*
X122122500Y-46284420D01*
%TO.C,D25*%
X134700000Y-47735000D02*
X136985000Y-47735000D01*
X136985000Y-46265000D02*
X134700000Y-46265000D01*
X136985000Y-47735000D02*
X136985000Y-46265000D01*
%TO.C,R7*%
X152952064Y-66820000D02*
X151497936Y-66820000D01*
X152952064Y-68640000D02*
X151497936Y-68640000D01*
%TO.C,F1*%
X126540000Y-23088748D02*
X126540000Y-25411252D01*
X129960000Y-23088748D02*
X129960000Y-25411252D01*
%TO.C,D14*%
X122925000Y-67715000D02*
X122925000Y-70000000D01*
X124395000Y-67715000D02*
X122925000Y-67715000D01*
X124395000Y-70000000D02*
X124395000Y-67715000D01*
%TO.C,J2*%
X92194010Y-16775000D02*
X97944010Y-16775000D01*
X92194010Y-18195000D02*
X92194010Y-16775000D01*
X92194010Y-22725000D02*
X92694010Y-22725000D01*
X92194010Y-24145000D02*
X92194010Y-22725000D01*
X92694010Y-18195000D02*
X92194010Y-18195000D01*
X92694010Y-22725000D02*
X92694010Y-18195000D01*
X97944010Y-24145000D02*
X92194010Y-24145000D01*
X99484010Y-24145000D02*
X99784010Y-24145000D01*
X99784010Y-16775000D02*
X99484010Y-16775000D01*
X99784010Y-24145000D02*
X99784010Y-16775000D01*
%TO.C,R77*%
X152556492Y-35157500D02*
X153031008Y-35157500D01*
X152556492Y-36202500D02*
X153031008Y-36202500D01*
%TO.C,D21*%
X151540000Y-102812500D02*
X151540000Y-102162500D01*
X151540000Y-102812500D02*
X151540000Y-103462500D01*
X154660000Y-102812500D02*
X154660000Y-102162500D01*
X154660000Y-102812500D02*
X154660000Y-103462500D01*
X151590000Y-103975000D02*
X151260000Y-104215000D01*
X151260000Y-103735000D01*
X151590000Y-103975000D01*
G36*
X151590000Y-103975000D02*
G01*
X151260000Y-104215000D01*
X151260000Y-103735000D01*
X151590000Y-103975000D01*
G37*
%TO.C,R83*%
X156197500Y-103412258D02*
X156197500Y-102937742D01*
X157242500Y-103412258D02*
X157242500Y-102937742D01*
%TO.C,R42*%
X111531074Y-92570000D02*
X110076946Y-92570000D01*
X111531074Y-94390000D02*
X110076946Y-94390000D01*
%TO.C,R78*%
X146247936Y-31020000D02*
X147702064Y-31020000D01*
X146247936Y-32840000D02*
X147702064Y-32840000D01*
D10*
%TO.C,SW1*%
X115960000Y-62540000D02*
X115960000Y-66600000D01*
X115960000Y-66600000D02*
X116620000Y-66600000D01*
X119040000Y-62540000D02*
X119040000Y-66600000D01*
X119040000Y-66600000D02*
X118380000Y-66600000D01*
D12*
X118400000Y-64570000D02*
G75*
G02*
X116600000Y-64570000I-900000J0D01*
G01*
X116600000Y-64570000D02*
G75*
G02*
X118400000Y-64570000I900000J0D01*
G01*
D11*
%TO.C,R44*%
X94265000Y-103346359D02*
X94265000Y-103653641D01*
X95025000Y-103346359D02*
X95025000Y-103653641D01*
D10*
%TO.C,Q8*%
X147055000Y-37110000D02*
X147055000Y-43800000D01*
X153025000Y-37110000D02*
X147055000Y-37110000D01*
X153025000Y-43800000D02*
X147055000Y-43800000D01*
D11*
%TO.C,C3*%
X122240000Y-49890580D02*
X122240000Y-49609420D01*
X123260000Y-49890580D02*
X123260000Y-49609420D01*
%TO.C,U10*%
X115941510Y-76720000D02*
X115141510Y-76720000D01*
X115941510Y-76720000D02*
X116741510Y-76720000D01*
X115941510Y-79840000D02*
X115141510Y-79840000D01*
X115941510Y-79840000D02*
X116741510Y-79840000D01*
X114641510Y-76770000D02*
X114401510Y-76440000D01*
X114881510Y-76440000D01*
X114641510Y-76770000D01*
G36*
X114641510Y-76770000D02*
G01*
X114401510Y-76440000D01*
X114881510Y-76440000D01*
X114641510Y-76770000D01*
G37*
D12*
%TO.C,J17*%
X89984010Y-44440000D02*
X89984010Y-64940000D01*
X89984010Y-64940000D02*
X106184010Y-64940000D01*
X106184010Y-44440000D02*
X89984010Y-44440000D01*
X106184010Y-64940000D02*
X106184010Y-44440000D01*
D11*
%TO.C,R33*%
X104826946Y-77820000D02*
X106281074Y-77820000D01*
X104826946Y-79640000D02*
X106281074Y-79640000D01*
%TO.C,R1*%
X152556492Y-72207500D02*
X153031008Y-72207500D01*
X152556492Y-73252500D02*
X153031008Y-73252500D01*
%TO.C,U8*%
X120978000Y-24712000D02*
X120978000Y-23912000D01*
X120978000Y-24712000D02*
X120978000Y-25512000D01*
X124098000Y-24712000D02*
X124098000Y-23912000D01*
X124098000Y-24712000D02*
X124098000Y-25512000D01*
X124378000Y-23652000D02*
X124048000Y-23412000D01*
X124378000Y-23172000D01*
X124378000Y-23652000D01*
G36*
X124378000Y-23652000D02*
G01*
X124048000Y-23412000D01*
X124378000Y-23172000D01*
X124378000Y-23652000D01*
G37*
%TO.C,C25*%
X135584420Y-24290000D02*
X135865580Y-24290000D01*
X135584420Y-25310000D02*
X135865580Y-25310000D01*
%TO.C,R43*%
X104826946Y-93820000D02*
X106281074Y-93820000D01*
X104826946Y-95640000D02*
X106281074Y-95640000D01*
%TO.C,C11*%
X131440000Y-39059420D02*
X131440000Y-39340580D01*
X132460000Y-39059420D02*
X132460000Y-39340580D01*
%TO.C,C23*%
X137765000Y-30840580D02*
X137765000Y-30559420D01*
X138785000Y-30840580D02*
X138785000Y-30559420D01*
%TO.C,R68*%
X152952064Y-13770000D02*
X151497936Y-13770000D01*
X152952064Y-15590000D02*
X151497936Y-15590000D01*
%TO.C,J13*%
X157905000Y-16245000D02*
X157905000Y-23615000D01*
X157905000Y-23615000D02*
X158205000Y-23615000D01*
X158205000Y-16245000D02*
X157905000Y-16245000D01*
X159745000Y-16245000D02*
X165495000Y-16245000D01*
X164995000Y-17665000D02*
X164995000Y-22195000D01*
X164995000Y-22195000D02*
X165495000Y-22195000D01*
X165495000Y-16245000D02*
X165495000Y-17665000D01*
X165495000Y-17665000D02*
X164995000Y-17665000D01*
X165495000Y-22195000D02*
X165495000Y-23615000D01*
X165495000Y-23615000D02*
X159745000Y-23615000D01*
%TO.C,C44*%
X131700000Y-103084420D02*
X131700000Y-103365580D01*
X132720000Y-103084420D02*
X132720000Y-103365580D01*
%TO.C,J3*%
X157905000Y-85295000D02*
X157905000Y-92665000D01*
X157905000Y-92665000D02*
X158205000Y-92665000D01*
X158205000Y-85295000D02*
X157905000Y-85295000D01*
X159745000Y-85295000D02*
X165495000Y-85295000D01*
X164995000Y-86715000D02*
X164995000Y-91245000D01*
X164995000Y-91245000D02*
X165495000Y-91245000D01*
X165495000Y-85295000D02*
X165495000Y-86715000D01*
X165495000Y-86715000D02*
X164995000Y-86715000D01*
X165495000Y-91245000D02*
X165495000Y-92665000D01*
X165495000Y-92665000D02*
X159745000Y-92665000D01*
%TO.C,R45*%
X98265000Y-103346359D02*
X98265000Y-103653641D01*
X99025000Y-103346359D02*
X99025000Y-103653641D01*
%TO.C,C38*%
X115163430Y-91220000D02*
X115444590Y-91220000D01*
X115163430Y-92240000D02*
X115444590Y-92240000D01*
%TO.C,C30*%
X124490000Y-32390580D02*
X124490000Y-32109420D01*
X125510000Y-32390580D02*
X125510000Y-32109420D01*
%TO.C,R17*%
X105132518Y-36187500D02*
X104658002Y-36187500D01*
X105132518Y-37232500D02*
X104658002Y-37232500D01*
%TO.C,U9*%
X120890000Y-30750000D02*
X120890000Y-29250000D01*
X120890000Y-30750000D02*
X120890000Y-32250000D01*
X124110000Y-30750000D02*
X124110000Y-29250000D01*
X124110000Y-30750000D02*
X124110000Y-32250000D01*
X124265000Y-28777500D02*
X123935000Y-28537500D01*
X124265000Y-28297500D01*
X124265000Y-28777500D01*
G36*
X124265000Y-28777500D02*
G01*
X123935000Y-28537500D01*
X124265000Y-28297500D01*
X124265000Y-28777500D01*
G37*
%TO.C,C40*%
X114740000Y-49609420D02*
X114740000Y-49890580D01*
X115760000Y-49609420D02*
X115760000Y-49890580D01*
%TO.C,C53*%
X114260000Y-103084420D02*
X114260000Y-103365580D01*
X115280000Y-103084420D02*
X115280000Y-103365580D01*
%TO.C,J14*%
X103210000Y-105490000D02*
X103210000Y-111460000D01*
X103210000Y-111460000D02*
X110830000Y-111460000D01*
X103220000Y-109200000D02*
X103970000Y-109200000D01*
X103220000Y-110700000D02*
X103220000Y-111450000D01*
X103220000Y-111450000D02*
X105020000Y-111450000D01*
X103970000Y-106250000D02*
X107020000Y-106250000D01*
X103970000Y-109200000D02*
X103970000Y-106250000D01*
X105020000Y-110700000D02*
X103220000Y-110700000D01*
X105020000Y-111450000D02*
X105020000Y-110700000D01*
X106520000Y-110700000D02*
X106520000Y-111450000D01*
X106520000Y-111450000D02*
X107520000Y-111450000D01*
X107520000Y-110700000D02*
X106520000Y-110700000D01*
X107520000Y-111450000D02*
X107520000Y-110700000D01*
X109020000Y-110700000D02*
X109020000Y-111450000D01*
X109020000Y-111450000D02*
X110820000Y-111450000D01*
X109870000Y-111750000D02*
X111120000Y-111750000D01*
X110070000Y-106250000D02*
X107020000Y-106250000D01*
X110070000Y-109200000D02*
X110070000Y-106250000D01*
X110820000Y-109200000D02*
X110070000Y-109200000D01*
X110820000Y-110700000D02*
X109020000Y-110700000D01*
X110820000Y-111450000D02*
X110820000Y-110700000D01*
X110830000Y-105490000D02*
X103210000Y-105490000D01*
X110830000Y-111460000D02*
X110830000Y-105490000D01*
X111120000Y-111750000D02*
X111120000Y-110500000D01*
%TO.C,J15*%
X138070000Y-105490000D02*
X138070000Y-111460000D01*
X138070000Y-111460000D02*
X145690000Y-111460000D01*
X138080000Y-109200000D02*
X138830000Y-109200000D01*
X138080000Y-110700000D02*
X138080000Y-111450000D01*
X138080000Y-111450000D02*
X139880000Y-111450000D01*
X138830000Y-106250000D02*
X141880000Y-106250000D01*
X138830000Y-109200000D02*
X138830000Y-106250000D01*
X139880000Y-110700000D02*
X138080000Y-110700000D01*
X139880000Y-111450000D02*
X139880000Y-110700000D01*
X141380000Y-110700000D02*
X141380000Y-111450000D01*
X141380000Y-111450000D02*
X142380000Y-111450000D01*
X142380000Y-110700000D02*
X141380000Y-110700000D01*
X142380000Y-111450000D02*
X142380000Y-110700000D01*
X143880000Y-110700000D02*
X143880000Y-111450000D01*
X143880000Y-111450000D02*
X145680000Y-111450000D01*
X144730000Y-111750000D02*
X145980000Y-111750000D01*
X144930000Y-106250000D02*
X141880000Y-106250000D01*
X144930000Y-109200000D02*
X144930000Y-106250000D01*
X145680000Y-109200000D02*
X144930000Y-109200000D01*
X145680000Y-110700000D02*
X143880000Y-110700000D01*
X145680000Y-111450000D02*
X145680000Y-110700000D01*
X145690000Y-105490000D02*
X138070000Y-105490000D01*
X145690000Y-111460000D02*
X145690000Y-105490000D01*
X145980000Y-111750000D02*
X145980000Y-110500000D01*
%TO.C,C21*%
X115073430Y-38200000D02*
X115354590Y-38200000D01*
X115073430Y-39220000D02*
X115354590Y-39220000D01*
%TO.C,J10*%
X94585000Y-105490000D02*
X94585000Y-111460000D01*
X94585000Y-111460000D02*
X102205000Y-111460000D01*
X94595000Y-109200000D02*
X95345000Y-109200000D01*
X94595000Y-110700000D02*
X94595000Y-111450000D01*
X94595000Y-111450000D02*
X96395000Y-111450000D01*
X95345000Y-106250000D02*
X98395000Y-106250000D01*
X95345000Y-109200000D02*
X95345000Y-106250000D01*
X96395000Y-110700000D02*
X94595000Y-110700000D01*
X96395000Y-111450000D02*
X96395000Y-110700000D01*
X97895000Y-110700000D02*
X97895000Y-111450000D01*
X97895000Y-111450000D02*
X98895000Y-111450000D01*
X98895000Y-110700000D02*
X97895000Y-110700000D01*
X98895000Y-111450000D02*
X98895000Y-110700000D01*
X100395000Y-110700000D02*
X100395000Y-111450000D01*
X100395000Y-111450000D02*
X102195000Y-111450000D01*
X101245000Y-111750000D02*
X102495000Y-111750000D01*
X101445000Y-106250000D02*
X98395000Y-106250000D01*
X101445000Y-109200000D02*
X101445000Y-106250000D01*
X102195000Y-109200000D02*
X101445000Y-109200000D01*
X102195000Y-110700000D02*
X100395000Y-110700000D01*
X102195000Y-111450000D02*
X102195000Y-110700000D01*
X102205000Y-105490000D02*
X94585000Y-105490000D01*
X102205000Y-111460000D02*
X102205000Y-105490000D01*
X102495000Y-111750000D02*
X102495000Y-110500000D01*
%TO.C,C7*%
X119990000Y-56359420D02*
X119990000Y-56640580D01*
X121010000Y-56359420D02*
X121010000Y-56640580D01*
%TO.C,R61*%
X102890000Y-103346359D02*
X102890000Y-103653641D01*
X103650000Y-103346359D02*
X103650000Y-103653641D01*
%TO.C,R87*%
X159090000Y-103346359D02*
X159090000Y-103653641D01*
X159850000Y-103346359D02*
X159850000Y-103653641D01*
%TO.C,C33*%
X117609420Y-55240000D02*
X117890580Y-55240000D01*
X117609420Y-56260000D02*
X117890580Y-56260000D01*
%TO.C,R16*%
X152556492Y-88207500D02*
X153031008Y-88207500D01*
X152556492Y-89252500D02*
X153031008Y-89252500D01*
%TO.C,C8*%
X115073430Y-22200000D02*
X115354590Y-22200000D01*
X115073430Y-23220000D02*
X115354590Y-23220000D01*
%TO.C,C54*%
X149040000Y-103084420D02*
X149040000Y-103365580D01*
X150060000Y-103084420D02*
X150060000Y-103365580D01*
%TO.C,U15*%
X141837500Y-29570000D02*
X141037500Y-29570000D01*
X141837500Y-29570000D02*
X142637500Y-29570000D01*
X141837500Y-32690000D02*
X141037500Y-32690000D01*
X141837500Y-32690000D02*
X142637500Y-32690000D01*
X143377500Y-32970000D02*
X142897500Y-32970000D01*
X143137500Y-32640000D01*
X143377500Y-32970000D01*
G36*
X143377500Y-32970000D02*
G01*
X142897500Y-32970000D01*
X143137500Y-32640000D01*
X143377500Y-32970000D01*
G37*
%TO.C,C14*%
X131615580Y-41490000D02*
X131334420Y-41490000D01*
X131615580Y-42510000D02*
X131334420Y-42510000D01*
%TO.C,D20*%
X116760000Y-102812500D02*
X116760000Y-102162500D01*
X116760000Y-102812500D02*
X116760000Y-103462500D01*
X119880000Y-102812500D02*
X119880000Y-102162500D01*
X119880000Y-102812500D02*
X119880000Y-103462500D01*
X116810000Y-103975000D02*
X116480000Y-104215000D01*
X116480000Y-103735000D01*
X116810000Y-103975000D01*
G36*
X116810000Y-103975000D02*
G01*
X116480000Y-104215000D01*
X116480000Y-103735000D01*
X116810000Y-103975000D01*
G37*
%TO.C,R32*%
X111531074Y-76570000D02*
X110076946Y-76570000D01*
X111531074Y-78390000D02*
X110076946Y-78390000D01*
%TO.C,C17*%
X122990000Y-38807836D02*
X122990000Y-38592164D01*
X123710000Y-38807836D02*
X123710000Y-38592164D01*
%TO.C,C15*%
X117259420Y-68190000D02*
X117540580Y-68190000D01*
X117259420Y-69210000D02*
X117540580Y-69210000D01*
%TO.C,R40*%
X130187500Y-103412258D02*
X130187500Y-102937742D01*
X131232500Y-103412258D02*
X131232500Y-102937742D01*
%TO.C,C27*%
X139365000Y-25334420D02*
X139365000Y-25615580D01*
X140385000Y-25334420D02*
X140385000Y-25615580D01*
%TO.C,R58*%
X103997500Y-103412258D02*
X103997500Y-102937742D01*
X105042500Y-103412258D02*
X105042500Y-102937742D01*
%TO.C,R12*%
X121970000Y-38853641D02*
X121970000Y-38546359D01*
X122730000Y-38853641D02*
X122730000Y-38546359D01*
%TO.C,C12*%
X129940000Y-39059420D02*
X129940000Y-39340580D01*
X130960000Y-39059420D02*
X130960000Y-39340580D01*
%TO.C,D24*%
X160210000Y-102812500D02*
X160210000Y-102162500D01*
X160210000Y-102812500D02*
X160210000Y-103462500D01*
X163330000Y-102812500D02*
X163330000Y-102162500D01*
X163330000Y-102812500D02*
X163330000Y-103462500D01*
X160260000Y-103975000D02*
X159930000Y-104215000D01*
X159930000Y-103735000D01*
X160260000Y-103975000D01*
G36*
X160260000Y-103975000D02*
G01*
X159930000Y-104215000D01*
X159930000Y-103735000D01*
X160260000Y-103975000D01*
G37*
%TO.C,U12*%
X117112500Y-44890000D02*
X116312500Y-44890000D01*
X117112500Y-44890000D02*
X117912500Y-44890000D01*
X117112500Y-48010000D02*
X116312500Y-48010000D01*
X117112500Y-48010000D02*
X117912500Y-48010000D01*
X115812500Y-44940000D02*
X115572500Y-44610000D01*
X116052500Y-44610000D01*
X115812500Y-44940000D01*
G36*
X115812500Y-44940000D02*
G01*
X115572500Y-44610000D01*
X116052500Y-44610000D01*
X115812500Y-44940000D01*
G37*
%TO.C,C26*%
X137865000Y-25359420D02*
X137865000Y-25640580D01*
X138885000Y-25359420D02*
X138885000Y-25640580D01*
%TO.C,C19*%
X142615580Y-86220000D02*
X142334420Y-86220000D01*
X142615580Y-87240000D02*
X142334420Y-87240000D01*
%TO.C,R84*%
X120360000Y-103346359D02*
X120360000Y-103653641D01*
X121120000Y-103346359D02*
X121120000Y-103653641D01*
%TO.C,R75*%
X146420000Y-103346359D02*
X146420000Y-103653641D01*
X147180000Y-103346359D02*
X147180000Y-103653641D01*
%TO.C,D9*%
X134200000Y-102812500D02*
X134200000Y-102162500D01*
X134200000Y-102812500D02*
X134200000Y-103462500D01*
X137320000Y-102812500D02*
X137320000Y-102162500D01*
X137320000Y-102812500D02*
X137320000Y-103462500D01*
X134250000Y-103975000D02*
X133920000Y-104215000D01*
X133920000Y-103735000D01*
X134250000Y-103975000D01*
G36*
X134250000Y-103975000D02*
G01*
X133920000Y-104215000D01*
X133920000Y-103735000D01*
X134250000Y-103975000D01*
G37*
D10*
%TO.C,Q1*%
X147055000Y-74160000D02*
X147055000Y-80850000D01*
X153025000Y-74160000D02*
X147055000Y-74160000D01*
X153025000Y-80850000D02*
X147055000Y-80850000D01*
D11*
%TO.C,R59*%
X138857500Y-103412258D02*
X138857500Y-102937742D01*
X139902500Y-103412258D02*
X139902500Y-102937742D01*
%TO.C,C55*%
X122980000Y-103084420D02*
X122980000Y-103365580D01*
X124000000Y-103084420D02*
X124000000Y-103365580D01*
%TO.C,R50*%
X110076946Y-95070000D02*
X111531074Y-95070000D01*
X110076946Y-96890000D02*
X111531074Y-96890000D01*
%TO.C,C4*%
X123740000Y-49890580D02*
X123740000Y-49609420D01*
X124760000Y-49890580D02*
X124760000Y-49609420D01*
%TO.C,C39*%
X117359420Y-48490000D02*
X117640580Y-48490000D01*
X117359420Y-49510000D02*
X117640580Y-49510000D01*
%TO.C,C51*%
X142615580Y-33170000D02*
X142334420Y-33170000D01*
X142615580Y-34190000D02*
X142334420Y-34190000D01*
%TO.C,R39*%
X95372500Y-103412258D02*
X95372500Y-102937742D01*
X96417500Y-103412258D02*
X96417500Y-102937742D01*
%TO.C,U6*%
X141837500Y-82620000D02*
X141037500Y-82620000D01*
X141837500Y-82620000D02*
X142637500Y-82620000D01*
X141837500Y-85740000D02*
X141037500Y-85740000D01*
X141837500Y-85740000D02*
X142637500Y-85740000D01*
X143377500Y-86020000D02*
X142897500Y-86020000D01*
X143137500Y-85690000D01*
X143377500Y-86020000D01*
G36*
X143377500Y-86020000D02*
G01*
X142897500Y-86020000D01*
X143137500Y-85690000D01*
X143377500Y-86020000D01*
G37*
%TO.C,C43*%
X96885000Y-103084420D02*
X96885000Y-103365580D01*
X97905000Y-103084420D02*
X97905000Y-103365580D01*
%TO.C,J19*%
X157905000Y-32245000D02*
X157905000Y-39615000D01*
X157905000Y-39615000D02*
X158205000Y-39615000D01*
X158205000Y-32245000D02*
X157905000Y-32245000D01*
X159745000Y-32245000D02*
X165495000Y-32245000D01*
X164995000Y-33665000D02*
X164995000Y-38195000D01*
X164995000Y-38195000D02*
X165495000Y-38195000D01*
X165495000Y-32245000D02*
X165495000Y-33665000D01*
X165495000Y-33665000D02*
X164995000Y-33665000D01*
X165495000Y-38195000D02*
X165495000Y-39615000D01*
X165495000Y-39615000D02*
X159745000Y-39615000D01*
%TO.C,D5*%
X129860000Y-27400000D02*
X127200000Y-27400000D01*
X129860000Y-29100000D02*
X127200000Y-29100000D01*
X129860000Y-29100000D02*
X129860000Y-27400000D01*
%TO.C,C29*%
X119477500Y-32665580D02*
X119477500Y-32384420D01*
X120497500Y-32665580D02*
X120497500Y-32384420D01*
%TO.C,D13*%
X133665000Y-69712500D02*
X133665000Y-71997500D01*
X133665000Y-71997500D02*
X135135000Y-71997500D01*
X135135000Y-71997500D02*
X135135000Y-69712500D01*
%TO.C,D8*%
X99385000Y-102812500D02*
X99385000Y-102162500D01*
X99385000Y-102812500D02*
X99385000Y-103462500D01*
X102505000Y-102812500D02*
X102505000Y-102162500D01*
X102505000Y-102812500D02*
X102505000Y-103462500D01*
X99435000Y-103975000D02*
X99105000Y-104215000D01*
X99105000Y-103735000D01*
X99435000Y-103975000D01*
G36*
X99435000Y-103975000D02*
G01*
X99105000Y-104215000D01*
X99105000Y-103735000D01*
X99435000Y-103975000D01*
G37*
%TO.C,C47*%
X142615580Y-17170000D02*
X142334420Y-17170000D01*
X142615580Y-18190000D02*
X142334420Y-18190000D01*
%TO.C,U13*%
X115941510Y-92720000D02*
X115141510Y-92720000D01*
X115941510Y-92720000D02*
X116741510Y-92720000D01*
X115941510Y-95840000D02*
X115141510Y-95840000D01*
X115941510Y-95840000D02*
X116741510Y-95840000D01*
X114641510Y-92770000D02*
X114401510Y-92440000D01*
X114881510Y-92440000D01*
X114641510Y-92770000D01*
G36*
X114641510Y-92770000D02*
G01*
X114401510Y-92440000D01*
X114881510Y-92440000D01*
X114641510Y-92770000D01*
G37*
%TO.C,C36*%
X121490000Y-56665580D02*
X121490000Y-56384420D01*
X122510000Y-56665580D02*
X122510000Y-56384420D01*
%TO.C,C9*%
X115073430Y-20700000D02*
X115354590Y-20700000D01*
X115073430Y-21720000D02*
X115354590Y-21720000D01*
%TO.C,C28*%
X136182836Y-35240000D02*
X135967164Y-35240000D01*
X136182836Y-35960000D02*
X135967164Y-35960000D01*
%TO.C,R27*%
X136195000Y-33946359D02*
X136195000Y-34253641D01*
X136955000Y-33946359D02*
X136955000Y-34253641D01*
%TO.C,D12*%
X133665000Y-66712500D02*
X133665000Y-68997500D01*
X133665000Y-68997500D02*
X135135000Y-68997500D01*
X135135000Y-68997500D02*
X135135000Y-66712500D01*
%TO.C,R6*%
X111441074Y-23550000D02*
X109986946Y-23550000D01*
X111441074Y-25370000D02*
X109986946Y-25370000D01*
%TO.C,R8*%
X104736946Y-24800000D02*
X106191074Y-24800000D01*
X104736946Y-26620000D02*
X106191074Y-26620000D01*
%TO.C,C24*%
X135584420Y-25990000D02*
X135865580Y-25990000D01*
X135584420Y-27010000D02*
X135865580Y-27010000D01*
%TO.C,R5*%
X146247936Y-68070000D02*
X147702064Y-68070000D01*
X146247936Y-69890000D02*
X147702064Y-69890000D01*
%TO.C,J22*%
X120680000Y-105490000D02*
X120680000Y-111460000D01*
X120680000Y-111460000D02*
X128300000Y-111460000D01*
X120690000Y-109200000D02*
X121440000Y-109200000D01*
X120690000Y-110700000D02*
X120690000Y-111450000D01*
X120690000Y-111450000D02*
X122490000Y-111450000D01*
X121440000Y-106250000D02*
X124490000Y-106250000D01*
X121440000Y-109200000D02*
X121440000Y-106250000D01*
X122490000Y-110700000D02*
X120690000Y-110700000D01*
X122490000Y-111450000D02*
X122490000Y-110700000D01*
X123990000Y-110700000D02*
X123990000Y-111450000D01*
X123990000Y-111450000D02*
X124990000Y-111450000D01*
X124990000Y-110700000D02*
X123990000Y-110700000D01*
X124990000Y-111450000D02*
X124990000Y-110700000D01*
X126490000Y-110700000D02*
X126490000Y-111450000D01*
X126490000Y-111450000D02*
X128290000Y-111450000D01*
X127340000Y-111750000D02*
X128590000Y-111750000D01*
X127540000Y-106250000D02*
X124490000Y-106250000D01*
X127540000Y-109200000D02*
X127540000Y-106250000D01*
X128290000Y-109200000D02*
X127540000Y-109200000D01*
X128290000Y-110700000D02*
X126490000Y-110700000D01*
X128290000Y-111450000D02*
X128290000Y-110700000D01*
X128300000Y-105490000D02*
X120680000Y-105490000D01*
X128300000Y-111460000D02*
X128300000Y-105490000D01*
X128590000Y-111750000D02*
X128590000Y-110500000D01*
%TO.C,R21*%
X137295000Y-33946359D02*
X137295000Y-34253641D01*
X138055000Y-33946359D02*
X138055000Y-34253641D01*
%TO.C,R29*%
X128235436Y-29840000D02*
X129689564Y-29840000D01*
X128235436Y-31660000D02*
X129689564Y-31660000D01*
%TO.C,R62*%
X106890000Y-103346359D02*
X106890000Y-103653641D01*
X107650000Y-103346359D02*
X107650000Y-103653641D01*
%TO.C,R30*%
X105222518Y-73207500D02*
X104748002Y-73207500D01*
X105222518Y-74252500D02*
X104748002Y-74252500D01*
%TO.C,C5*%
X136834420Y-56490000D02*
X137115580Y-56490000D01*
X136834420Y-57510000D02*
X137115580Y-57510000D01*
%TO.C,C16*%
X120582836Y-49065000D02*
X120367164Y-49065000D01*
X120582836Y-49785000D02*
X120367164Y-49785000D01*
%TO.C,R23*%
X147702064Y-81570000D02*
X146247936Y-81570000D01*
X147702064Y-83390000D02*
X146247936Y-83390000D01*
%TO.C,R88*%
X132262742Y-46477500D02*
X132737258Y-46477500D01*
X132262742Y-47522500D02*
X132737258Y-47522500D01*
D10*
%TO.C,Q2*%
X104664010Y-12590000D02*
X110634010Y-12590000D01*
X104664010Y-19280000D02*
X110634010Y-19280000D01*
X110634010Y-19280000D02*
X110634010Y-12590000D01*
%TO.C,SW2*%
X119210000Y-62540000D02*
X119870000Y-62540000D01*
X119210000Y-66600000D02*
X119210000Y-62540000D01*
X122290000Y-62540000D02*
X121630000Y-62540000D01*
X122290000Y-66600000D02*
X122290000Y-62540000D01*
D12*
X121650000Y-64570000D02*
G75*
G02*
X119850000Y-64570000I-900000J0D01*
G01*
X119850000Y-64570000D02*
G75*
G02*
X121650000Y-64570000I900000J0D01*
G01*
D11*
%TO.C,R71*%
X112747500Y-103412258D02*
X112747500Y-102937742D01*
X113792500Y-103412258D02*
X113792500Y-102937742D01*
%TO.C,C46*%
X142615580Y-18670000D02*
X142334420Y-18670000D01*
X142615580Y-19690000D02*
X142334420Y-19690000D01*
%TO.C,R2*%
X105132518Y-20187500D02*
X104658002Y-20187500D01*
X105132518Y-21232500D02*
X104658002Y-21232500D01*
%TO.C,R31*%
X128272936Y-32340000D02*
X129727064Y-32340000D01*
X128272936Y-34160000D02*
X129727064Y-34160000D01*
%TO.C,U11*%
X118275000Y-58190000D02*
X117475000Y-58190000D01*
X118275000Y-58190000D02*
X119075000Y-58190000D01*
X118275000Y-61310000D02*
X117475000Y-61310000D01*
X118275000Y-61310000D02*
X119075000Y-61310000D01*
X116975000Y-58240000D02*
X116735000Y-57910000D01*
X117215000Y-57910000D01*
X116975000Y-58240000D01*
G36*
X116975000Y-58240000D02*
G01*
X116735000Y-57910000D01*
X117215000Y-57910000D01*
X116975000Y-58240000D01*
G37*
D10*
%TO.C,Q7*%
X147055000Y-21110000D02*
X147055000Y-27800000D01*
X153025000Y-21110000D02*
X147055000Y-21110000D01*
X153025000Y-27800000D02*
X147055000Y-27800000D01*
D11*
%TO.C,R19*%
X111441074Y-39550000D02*
X109986946Y-39550000D01*
X111441074Y-41370000D02*
X109986946Y-41370000D01*
%TO.C,C18*%
X120582836Y-53565000D02*
X120367164Y-53565000D01*
X120582836Y-54285000D02*
X120367164Y-54285000D01*
%TO.C,J20*%
X111960000Y-105490000D02*
X111960000Y-111460000D01*
X111960000Y-111460000D02*
X119580000Y-111460000D01*
X111970000Y-109200000D02*
X112720000Y-109200000D01*
X111970000Y-110700000D02*
X111970000Y-111450000D01*
X111970000Y-111450000D02*
X113770000Y-111450000D01*
X112720000Y-106250000D02*
X115770000Y-106250000D01*
X112720000Y-109200000D02*
X112720000Y-106250000D01*
X113770000Y-110700000D02*
X111970000Y-110700000D01*
X113770000Y-111450000D02*
X113770000Y-110700000D01*
X115270000Y-110700000D02*
X115270000Y-111450000D01*
X115270000Y-111450000D02*
X116270000Y-111450000D01*
X116270000Y-110700000D02*
X115270000Y-110700000D01*
X116270000Y-111450000D02*
X116270000Y-110700000D01*
X117770000Y-110700000D02*
X117770000Y-111450000D01*
X117770000Y-111450000D02*
X119570000Y-111450000D01*
X118620000Y-111750000D02*
X119870000Y-111750000D01*
X118820000Y-106250000D02*
X115770000Y-106250000D01*
X118820000Y-109200000D02*
X118820000Y-106250000D01*
X119570000Y-109200000D02*
X118820000Y-109200000D01*
X119570000Y-110700000D02*
X117770000Y-110700000D01*
X119570000Y-111450000D02*
X119570000Y-110700000D01*
X119580000Y-105490000D02*
X111960000Y-105490000D01*
X119580000Y-111460000D02*
X119580000Y-105490000D01*
X119870000Y-111750000D02*
X119870000Y-110500000D01*
%TO.C,D2*%
X107195260Y-21445000D02*
X109480260Y-21445000D01*
X109480260Y-19975000D02*
X107195260Y-19975000D01*
X109480260Y-21445000D02*
X109480260Y-19975000D01*
%TO.C,R15*%
X120970000Y-38853641D02*
X120970000Y-38546359D01*
X121730000Y-38853641D02*
X121730000Y-38546359D01*
%TO.C,R79*%
X152952064Y-29770000D02*
X151497936Y-29770000D01*
X152952064Y-31590000D02*
X151497936Y-31590000D01*
%TO.C,J11*%
X129400000Y-105490000D02*
X129400000Y-111460000D01*
X129400000Y-111460000D02*
X137020000Y-111460000D01*
X129410000Y-109200000D02*
X130160000Y-109200000D01*
X129410000Y-110700000D02*
X129410000Y-111450000D01*
X129410000Y-111450000D02*
X131210000Y-111450000D01*
X130160000Y-106250000D02*
X133210000Y-106250000D01*
X130160000Y-109200000D02*
X130160000Y-106250000D01*
X131210000Y-110700000D02*
X129410000Y-110700000D01*
X131210000Y-111450000D02*
X131210000Y-110700000D01*
X132710000Y-110700000D02*
X132710000Y-111450000D01*
X132710000Y-111450000D02*
X133710000Y-111450000D01*
X133710000Y-110700000D02*
X132710000Y-110700000D01*
X133710000Y-111450000D02*
X133710000Y-110700000D01*
X135210000Y-110700000D02*
X135210000Y-111450000D01*
X135210000Y-111450000D02*
X137010000Y-111450000D01*
X136060000Y-111750000D02*
X137310000Y-111750000D01*
X136260000Y-106250000D02*
X133210000Y-106250000D01*
X136260000Y-109200000D02*
X136260000Y-106250000D01*
X137010000Y-109200000D02*
X136260000Y-109200000D01*
X137010000Y-110700000D02*
X135210000Y-110700000D01*
X137010000Y-111450000D02*
X137010000Y-110700000D01*
X137020000Y-105490000D02*
X129400000Y-105490000D01*
X137020000Y-111460000D02*
X137020000Y-105490000D01*
X137310000Y-111750000D02*
X137310000Y-110500000D01*
%TO.C,L1*%
X133340000Y-37840000D02*
X134740000Y-37840000D01*
X133340000Y-45160000D02*
X133340000Y-37840000D01*
X134740000Y-45160000D02*
X133340000Y-45160000D01*
X138760000Y-37840000D02*
X140160000Y-37840000D01*
X140160000Y-37840000D02*
X140160000Y-45160000D01*
X140160000Y-45160000D02*
X138760000Y-45160000D01*
%TO.C,J4*%
X132250000Y-84200000D02*
X132250000Y-85450000D01*
X132250000Y-85450000D02*
X133500000Y-85450000D01*
X132540000Y-72540000D02*
X132540000Y-85160000D01*
X132540000Y-85160000D02*
X138510000Y-85160000D01*
X132550000Y-72550000D02*
X132550000Y-74350000D01*
X132550000Y-74350000D02*
X133300000Y-74350000D01*
X132550000Y-75850000D02*
X132550000Y-81850000D01*
X132550000Y-81850000D02*
X133300000Y-81850000D01*
X132550000Y-83350000D02*
X132550000Y-85150000D01*
X132550000Y-85150000D02*
X133300000Y-85150000D01*
X133300000Y-72550000D02*
X132550000Y-72550000D01*
X133300000Y-74350000D02*
X133300000Y-72550000D01*
X133300000Y-75850000D02*
X132550000Y-75850000D01*
X133300000Y-81850000D02*
X133300000Y-75850000D01*
X133300000Y-83350000D02*
X132550000Y-83350000D01*
X133300000Y-85150000D02*
X133300000Y-83350000D01*
X134800000Y-72550000D02*
X134800000Y-73300000D01*
X134800000Y-73300000D02*
X137750000Y-73300000D01*
X134800000Y-84400000D02*
X137750000Y-84400000D01*
X134800000Y-85150000D02*
X134800000Y-84400000D01*
X137750000Y-73300000D02*
X137750000Y-78850000D01*
X137750000Y-84400000D02*
X137750000Y-78850000D01*
X138510000Y-72540000D02*
X132540000Y-72540000D01*
X138510000Y-85160000D02*
X138510000Y-72540000D01*
%TO.C,U4*%
X126640000Y-50640000D02*
X126640000Y-50940000D01*
X126640000Y-57860000D02*
X126640000Y-57560000D01*
X126940000Y-50640000D02*
X126640000Y-50640000D01*
X126940000Y-57860000D02*
X126640000Y-57860000D01*
X133560000Y-50640000D02*
X133860000Y-50640000D01*
X133560000Y-57860000D02*
X133860000Y-57860000D01*
X133860000Y-50640000D02*
X133860000Y-50940000D01*
X133860000Y-57860000D02*
X133860000Y-57560000D01*
X126037500Y-50940000D02*
X125697500Y-50470000D01*
X126377500Y-50470000D01*
X126037500Y-50940000D01*
G36*
X126037500Y-50940000D02*
G01*
X125697500Y-50470000D01*
X126377500Y-50470000D01*
X126037500Y-50940000D01*
G37*
%TO.C,J1*%
X157905000Y-69295000D02*
X157905000Y-76665000D01*
X157905000Y-76665000D02*
X158205000Y-76665000D01*
X158205000Y-69295000D02*
X157905000Y-69295000D01*
X159745000Y-69295000D02*
X165495000Y-69295000D01*
X164995000Y-70715000D02*
X164995000Y-75245000D01*
X164995000Y-75245000D02*
X165495000Y-75245000D01*
X165495000Y-69295000D02*
X165495000Y-70715000D01*
X165495000Y-70715000D02*
X164995000Y-70715000D01*
X165495000Y-75245000D02*
X165495000Y-76665000D01*
X165495000Y-76665000D02*
X159745000Y-76665000D01*
D12*
%TO.C,F2*%
X106704010Y-46580000D02*
X106704010Y-62830000D01*
X106704010Y-62830000D02*
X113564010Y-62830000D01*
X113564010Y-46580000D02*
X106704010Y-46580000D01*
X113564010Y-62830000D02*
X113564010Y-46580000D01*
D10*
%TO.C,Q6*%
X104754010Y-81610000D02*
X110724010Y-81610000D01*
X104754010Y-88300000D02*
X110724010Y-88300000D01*
X110724010Y-88300000D02*
X110724010Y-81610000D01*
D11*
%TO.C,R80*%
X147702064Y-28520000D02*
X146247936Y-28520000D01*
X147702064Y-30340000D02*
X146247936Y-30340000D01*
%TO.C,Y1*%
X121535000Y-49965000D02*
X117415000Y-49965000D01*
X121535000Y-53385000D02*
X121535000Y-49965000D01*
%TO.C,C31*%
X115163430Y-75220000D02*
X115444590Y-75220000D01*
X115163430Y-76240000D02*
X115444590Y-76240000D01*
%TO.C,D19*%
X148208750Y-18945000D02*
X148208750Y-20415000D01*
X148208750Y-20415000D02*
X150493750Y-20415000D01*
X150493750Y-18945000D02*
X148208750Y-18945000D01*
%TO.C,C52*%
X142615580Y-34670000D02*
X142334420Y-34670000D01*
X142615580Y-35690000D02*
X142334420Y-35690000D01*
%TO.C,D11*%
X133665000Y-63675000D02*
X133665000Y-65960000D01*
X133665000Y-65960000D02*
X135135000Y-65960000D01*
X135135000Y-65960000D02*
X135135000Y-63675000D01*
D10*
%TO.C,Q4*%
X104664010Y-28590000D02*
X110634010Y-28590000D01*
X104664010Y-35280000D02*
X110634010Y-35280000D01*
X110634010Y-35280000D02*
X110634010Y-28590000D01*
D11*
%TO.C,R81*%
X153187258Y-32357500D02*
X152712742Y-32357500D01*
X153187258Y-33402500D02*
X152712742Y-33402500D01*
%TO.C,D1*%
X148208750Y-71995000D02*
X148208750Y-73465000D01*
X148208750Y-73465000D02*
X150493750Y-73465000D01*
X150493750Y-71995000D02*
X148208750Y-71995000D01*
%TO.C,C32*%
X115163430Y-73720000D02*
X115444590Y-73720000D01*
X115163430Y-74740000D02*
X115444590Y-74740000D01*
%TO.C,C48*%
X105510000Y-103084420D02*
X105510000Y-103365580D01*
X106530000Y-103084420D02*
X106530000Y-103365580D01*
%TO.C,R25*%
X153187258Y-85407500D02*
X152712742Y-85407500D01*
X153187258Y-86452500D02*
X152712742Y-86452500D01*
D10*
%TO.C,Q3*%
X147055000Y-90160000D02*
X147055000Y-96850000D01*
X153025000Y-90160000D02*
X147055000Y-90160000D01*
X153025000Y-96850000D02*
X147055000Y-96850000D01*
D11*
%TO.C,R73*%
X111640000Y-103346359D02*
X111640000Y-103653641D01*
X112400000Y-103346359D02*
X112400000Y-103653641D01*
%TO.C,R63*%
X137750000Y-103346359D02*
X137750000Y-103653641D01*
X138510000Y-103346359D02*
X138510000Y-103653641D01*
%TO.C,R56*%
X121637500Y-73475242D02*
X121637500Y-73949758D01*
X122682500Y-73475242D02*
X122682500Y-73949758D01*
%TO.C,U3*%
X115851510Y-23700000D02*
X115051510Y-23700000D01*
X115851510Y-23700000D02*
X116651510Y-23700000D01*
X115851510Y-26820000D02*
X115051510Y-26820000D01*
X115851510Y-26820000D02*
X116651510Y-26820000D01*
X114551510Y-23750000D02*
X114311510Y-23420000D01*
X114791510Y-23420000D01*
X114551510Y-23750000D01*
G36*
X114551510Y-23750000D02*
G01*
X114311510Y-23420000D01*
X114791510Y-23420000D01*
X114551510Y-23750000D01*
G37*
%TO.C,R85*%
X124360000Y-103346359D02*
X124360000Y-103653641D01*
X125120000Y-103346359D02*
X125120000Y-103653641D01*
%TO.C,C13*%
X131615580Y-43090000D02*
X131334420Y-43090000D01*
X131615580Y-44110000D02*
X131334420Y-44110000D01*
%TO.C,R86*%
X155090000Y-103346359D02*
X155090000Y-103653641D01*
X155850000Y-103346359D02*
X155850000Y-103653641D01*
%TO.C,R47*%
X133080000Y-103346359D02*
X133080000Y-103653641D01*
X133840000Y-103346359D02*
X133840000Y-103653641D01*
%TO.C,J6*%
X92284010Y-69795000D02*
X98034010Y-69795000D01*
X92284010Y-71215000D02*
X92284010Y-69795000D01*
X92284010Y-75745000D02*
X92784010Y-75745000D01*
X92284010Y-77165000D02*
X92284010Y-75745000D01*
X92784010Y-71215000D02*
X92284010Y-71215000D01*
X92784010Y-75745000D02*
X92784010Y-71215000D01*
X98034010Y-77165000D02*
X92284010Y-77165000D01*
X99574010Y-77165000D02*
X99874010Y-77165000D01*
X99874010Y-69795000D02*
X99574010Y-69795000D01*
X99874010Y-77165000D02*
X99874010Y-69795000D01*
%TO.C,R3*%
X121970000Y-40853641D02*
X121970000Y-40546359D01*
X122730000Y-40853641D02*
X122730000Y-40546359D01*
%TO.C,C49*%
X140370000Y-103084420D02*
X140370000Y-103365580D01*
X141390000Y-103084420D02*
X141390000Y-103365580D01*
%TO.C,R37*%
X104591752Y-76007500D02*
X105066268Y-76007500D01*
X104591752Y-77052500D02*
X105066268Y-77052500D01*
%TO.C,R10*%
X122577500Y-64287742D02*
X122577500Y-64762258D01*
X123622500Y-64287742D02*
X123622500Y-64762258D01*
%TO.C,R46*%
X129080000Y-103346359D02*
X129080000Y-103653641D01*
X129840000Y-103346359D02*
X129840000Y-103653641D01*
%TO.C,U1*%
X126000000Y-37640000D02*
X125200000Y-37640000D01*
X126000000Y-37640000D02*
X126800000Y-37640000D01*
X126000000Y-40760000D02*
X125200000Y-40760000D01*
X126000000Y-40760000D02*
X126800000Y-40760000D01*
X127540000Y-41040000D02*
X127060000Y-41040000D01*
X127300000Y-40710000D01*
X127540000Y-41040000D01*
G36*
X127540000Y-41040000D02*
G01*
X127060000Y-41040000D01*
X127300000Y-40710000D01*
X127540000Y-41040000D01*
G37*
%TO.C,U2*%
X141837500Y-66620000D02*
X141037500Y-66620000D01*
X141837500Y-66620000D02*
X142637500Y-66620000D01*
X141837500Y-69740000D02*
X141037500Y-69740000D01*
X141837500Y-69740000D02*
X142637500Y-69740000D01*
X143377500Y-70020000D02*
X142897500Y-70020000D01*
X143137500Y-69690000D01*
X143377500Y-70020000D01*
G36*
X143377500Y-70020000D02*
G01*
X142897500Y-70020000D01*
X143137500Y-69690000D01*
X143377500Y-70020000D01*
G37*
%TO.C,C41*%
X119622500Y-46565580D02*
X119622500Y-46284420D01*
X120642500Y-46565580D02*
X120642500Y-46284420D01*
%TO.C,R76*%
X150420000Y-103346359D02*
X150420000Y-103653641D01*
X151180000Y-103346359D02*
X151180000Y-103653641D01*
%TO.C,R13*%
X153187258Y-69407500D02*
X152712742Y-69407500D01*
X153187258Y-70452500D02*
X152712742Y-70452500D01*
%TO.C,R57*%
X152556492Y-19157500D02*
X153031008Y-19157500D01*
X152556492Y-20202500D02*
X153031008Y-20202500D01*
%TO.C,R28*%
X135195000Y-34253641D02*
X135195000Y-33946359D01*
X135955000Y-34253641D02*
X135955000Y-33946359D01*
%TO.C,J9*%
X92284010Y-85795000D02*
X98034010Y-85795000D01*
X92284010Y-87215000D02*
X92284010Y-85795000D01*
X92284010Y-91745000D02*
X92784010Y-91745000D01*
X92284010Y-93165000D02*
X92284010Y-91745000D01*
X92784010Y-87215000D02*
X92284010Y-87215000D01*
X92784010Y-91745000D02*
X92784010Y-87215000D01*
X98034010Y-93165000D02*
X92284010Y-93165000D01*
X99574010Y-93165000D02*
X99874010Y-93165000D01*
X99874010Y-85795000D02*
X99574010Y-85795000D01*
X99874010Y-93165000D02*
X99874010Y-85795000D01*
%TO.C,U5*%
X134115000Y-31000000D02*
X134115000Y-30200000D01*
X134115000Y-31000000D02*
X134115000Y-31800000D01*
X137235000Y-31000000D02*
X137235000Y-30200000D01*
X137235000Y-31000000D02*
X137235000Y-31800000D01*
X137515000Y-29940000D02*
X137185000Y-29700000D01*
X137515000Y-29460000D01*
X137515000Y-29940000D01*
G36*
X137515000Y-29940000D02*
G01*
X137185000Y-29700000D01*
X137515000Y-29460000D01*
X137515000Y-29940000D01*
G37*
%TO.C,C34*%
X117609420Y-56740000D02*
X117890580Y-56740000D01*
X117609420Y-57760000D02*
X117890580Y-57760000D01*
%TO.C,R38*%
X105222518Y-89207500D02*
X104748002Y-89207500D01*
X105222518Y-90252500D02*
X104748002Y-90252500D01*
D12*
%TO.C,F3*%
X144020000Y-46620000D02*
X144020000Y-62870000D01*
X144020000Y-62870000D02*
X150880000Y-62870000D01*
X150880000Y-46620000D02*
X144020000Y-46620000D01*
X150880000Y-62870000D02*
X150880000Y-46620000D01*
D11*
%TO.C,J23*%
X155410000Y-105490000D02*
X155410000Y-111460000D01*
X155410000Y-111460000D02*
X163030000Y-111460000D01*
X155420000Y-109200000D02*
X156170000Y-109200000D01*
X155420000Y-110700000D02*
X155420000Y-111450000D01*
X155420000Y-111450000D02*
X157220000Y-111450000D01*
X156170000Y-106250000D02*
X159220000Y-106250000D01*
X156170000Y-109200000D02*
X156170000Y-106250000D01*
X157220000Y-110700000D02*
X155420000Y-110700000D01*
X157220000Y-111450000D02*
X157220000Y-110700000D01*
X158720000Y-110700000D02*
X158720000Y-111450000D01*
X158720000Y-111450000D02*
X159720000Y-111450000D01*
X159720000Y-110700000D02*
X158720000Y-110700000D01*
X159720000Y-111450000D02*
X159720000Y-110700000D01*
X161220000Y-110700000D02*
X161220000Y-111450000D01*
X161220000Y-111450000D02*
X163020000Y-111450000D01*
X162070000Y-111750000D02*
X163320000Y-111750000D01*
X162270000Y-106250000D02*
X159220000Y-106250000D01*
X162270000Y-109200000D02*
X162270000Y-106250000D01*
X163020000Y-109200000D02*
X162270000Y-109200000D01*
X163020000Y-110700000D02*
X161220000Y-110700000D01*
X163020000Y-111450000D02*
X163020000Y-110700000D01*
X163030000Y-105490000D02*
X155410000Y-105490000D01*
X163030000Y-111460000D02*
X163030000Y-105490000D01*
X163320000Y-111750000D02*
X163320000Y-110500000D01*
%TO.C,R52*%
X135377500Y-64712258D02*
X135377500Y-64237742D01*
X136422500Y-64712258D02*
X136422500Y-64237742D01*
%TO.C,J8*%
X119670000Y-12215000D02*
X128830000Y-12215000D01*
X119670000Y-13920000D02*
X119670000Y-12215000D01*
X119670000Y-15930000D02*
X119670000Y-17850000D01*
X128830000Y-12215000D02*
X128830000Y-13920000D01*
X128830000Y-17850000D02*
X128830000Y-15930000D01*
D12*
%TO.C,J18*%
X151450000Y-44500000D02*
X151450000Y-65000000D01*
X151450000Y-65000000D02*
X167650000Y-65000000D01*
X167650000Y-44500000D02*
X151450000Y-44500000D01*
X167650000Y-65000000D02*
X167650000Y-44500000D01*
D11*
%TO.C,R24*%
X109986946Y-42050000D02*
X111441074Y-42050000D01*
X109986946Y-43870000D02*
X111441074Y-43870000D01*
%TO.C,D3*%
X148208750Y-87995000D02*
X148208750Y-89465000D01*
X148208750Y-89465000D02*
X150493750Y-89465000D01*
X150493750Y-87995000D02*
X148208750Y-87995000D01*
%TO.C,D15*%
X122925000Y-72227500D02*
X122925000Y-74512500D01*
X124395000Y-72227500D02*
X122925000Y-72227500D01*
X124395000Y-74512500D02*
X124395000Y-72227500D01*
%TO.C,C37*%
X115163430Y-89720000D02*
X115444590Y-89720000D01*
X115163430Y-90740000D02*
X115444590Y-90740000D01*
%TO.C,R53*%
X135377500Y-67749758D02*
X135377500Y-67275242D01*
X136422500Y-67749758D02*
X136422500Y-67275242D01*
%TO.C,C10*%
X124634420Y-41190000D02*
X124915580Y-41190000D01*
X124634420Y-42210000D02*
X124915580Y-42210000D01*
%TO.C,D6*%
X107285260Y-74465000D02*
X109570260Y-74465000D01*
X109570260Y-72995000D02*
X107285260Y-72995000D01*
X109570260Y-74465000D02*
X109570260Y-72995000D01*
%TO.C,R55*%
X121637500Y-68962742D02*
X121637500Y-69437258D01*
X122682500Y-68962742D02*
X122682500Y-69437258D01*
%TO.C,R9*%
X147702064Y-65570000D02*
X146247936Y-65570000D01*
X147702064Y-67390000D02*
X146247936Y-67390000D01*
%TO.C,R14*%
X104501752Y-22987500D02*
X104976268Y-22987500D01*
X104501752Y-24032500D02*
X104976268Y-24032500D01*
%TO.C,R18*%
X146247936Y-84070000D02*
X147702064Y-84070000D01*
X146247936Y-85890000D02*
X147702064Y-85890000D01*
%TO.C,R69*%
X147702064Y-12990000D02*
X146247936Y-12990000D01*
X147702064Y-14810000D02*
X146247936Y-14810000D01*
%TO.C,J5*%
X92194010Y-32775000D02*
X97944010Y-32775000D01*
X92194010Y-34195000D02*
X92194010Y-32775000D01*
X92194010Y-38725000D02*
X92694010Y-38725000D01*
X92194010Y-40145000D02*
X92194010Y-38725000D01*
X92694010Y-34195000D02*
X92194010Y-34195000D01*
X92694010Y-38725000D02*
X92694010Y-34195000D01*
X97944010Y-40145000D02*
X92194010Y-40145000D01*
X99484010Y-40145000D02*
X99784010Y-40145000D01*
X99784010Y-32775000D02*
X99484010Y-32775000D01*
X99784010Y-40145000D02*
X99784010Y-32775000D01*
%TO.C,R34*%
X124658000Y-23558359D02*
X124658000Y-23865641D01*
X125418000Y-23558359D02*
X125418000Y-23865641D01*
%TO.C,D23*%
X125480000Y-102812500D02*
X125480000Y-102162500D01*
X125480000Y-102812500D02*
X125480000Y-103462500D01*
X128600000Y-102812500D02*
X128600000Y-102162500D01*
X128600000Y-102812500D02*
X128600000Y-103462500D01*
X125530000Y-103975000D02*
X125200000Y-104215000D01*
X125200000Y-103735000D01*
X125530000Y-103975000D01*
G36*
X125530000Y-103975000D02*
G01*
X125200000Y-104215000D01*
X125200000Y-103735000D01*
X125530000Y-103975000D01*
G37*
%TO.C,R74*%
X115640000Y-103346359D02*
X115640000Y-103653641D01*
X116400000Y-103346359D02*
X116400000Y-103653641D01*
%TO.C,R67*%
X146272936Y-15490000D02*
X147727064Y-15490000D01*
X146272936Y-17310000D02*
X147727064Y-17310000D01*
%TO.C,R4*%
X120777500Y-59762742D02*
X120777500Y-60237258D01*
X121822500Y-59762742D02*
X121822500Y-60237258D01*
%TO.C,D4*%
X107195260Y-37445000D02*
X109480260Y-37445000D01*
X109480260Y-35975000D02*
X107195260Y-35975000D01*
X109480260Y-37445000D02*
X109480260Y-35975000D01*
%TO.C,D16*%
X108010000Y-102812500D02*
X108010000Y-102162500D01*
X108010000Y-102812500D02*
X108010000Y-103462500D01*
X111130000Y-102812500D02*
X111130000Y-102162500D01*
X111130000Y-102812500D02*
X111130000Y-103462500D01*
X108060000Y-103975000D02*
X107730000Y-104215000D01*
X107730000Y-103735000D01*
X108060000Y-103975000D01*
G36*
X108060000Y-103975000D02*
G01*
X107730000Y-104215000D01*
X107730000Y-103735000D01*
X108060000Y-103975000D01*
G37*
%TO.C,R35*%
X119658000Y-23548359D02*
X119658000Y-23855641D01*
X120418000Y-23548359D02*
X120418000Y-23855641D01*
%TO.C,D17*%
X142870000Y-102812500D02*
X142870000Y-102162500D01*
X142870000Y-102812500D02*
X142870000Y-103462500D01*
X145990000Y-102812500D02*
X145990000Y-102162500D01*
X145990000Y-102812500D02*
X145990000Y-103462500D01*
X142920000Y-103975000D02*
X142590000Y-104215000D01*
X142590000Y-103735000D01*
X142920000Y-103975000D01*
G36*
X142920000Y-103975000D02*
G01*
X142590000Y-104215000D01*
X142590000Y-103735000D01*
X142920000Y-103975000D01*
G37*
%TO.C,U7*%
X115851510Y-39700000D02*
X115051510Y-39700000D01*
X115851510Y-39700000D02*
X116651510Y-39700000D01*
X115851510Y-42820000D02*
X115051510Y-42820000D01*
X115851510Y-42820000D02*
X116651510Y-42820000D01*
X114551510Y-39750000D02*
X114311510Y-39420000D01*
X114791510Y-39420000D01*
X114551510Y-39750000D01*
G36*
X114551510Y-39750000D02*
G01*
X114311510Y-39420000D01*
X114791510Y-39420000D01*
X114551510Y-39750000D01*
G37*
%TO.C,R54*%
X135377500Y-70737258D02*
X135377500Y-70262742D01*
X136422500Y-70737258D02*
X136422500Y-70262742D01*
%TO.C,J7*%
X129900000Y-12250000D02*
X129900000Y-13500000D01*
X130190000Y-12540000D02*
X130190000Y-18510000D01*
X130190000Y-18510000D02*
X137810000Y-18510000D01*
X130200000Y-12550000D02*
X130200000Y-13300000D01*
X130200000Y-13300000D02*
X132000000Y-13300000D01*
X130200000Y-14800000D02*
X130950000Y-14800000D01*
X130950000Y-14800000D02*
X130950000Y-17750000D01*
X130950000Y-17750000D02*
X134000000Y-17750000D01*
X131150000Y-12250000D02*
X129900000Y-12250000D01*
X132000000Y-12550000D02*
X130200000Y-12550000D01*
X132000000Y-13300000D02*
X132000000Y-12550000D01*
X133500000Y-12550000D02*
X133500000Y-13300000D01*
X133500000Y-13300000D02*
X134500000Y-13300000D01*
X134500000Y-12550000D02*
X133500000Y-12550000D01*
X134500000Y-13300000D02*
X134500000Y-12550000D01*
X136000000Y-12550000D02*
X136000000Y-13300000D01*
X136000000Y-13300000D02*
X137800000Y-13300000D01*
X137050000Y-14800000D02*
X137050000Y-17750000D01*
X137050000Y-17750000D02*
X134000000Y-17750000D01*
X137800000Y-12550000D02*
X136000000Y-12550000D01*
X137800000Y-13300000D02*
X137800000Y-12550000D01*
X137800000Y-14800000D02*
X137050000Y-14800000D01*
X137810000Y-12540000D02*
X130190000Y-12540000D01*
X137810000Y-18510000D02*
X137810000Y-12540000D01*
%TO.C,R72*%
X147527500Y-103412258D02*
X147527500Y-102937742D01*
X148572500Y-103412258D02*
X148572500Y-102937742D01*
%TO.C,C6*%
X122990000Y-55059420D02*
X122990000Y-55340580D01*
X124010000Y-55059420D02*
X124010000Y-55340580D01*
%TO.C,D22*%
X148208750Y-34945000D02*
X148208750Y-36415000D01*
X148208750Y-36415000D02*
X150493750Y-36415000D01*
X150493750Y-34945000D02*
X148208750Y-34945000D01*
%TO.C,R64*%
X141750000Y-103346359D02*
X141750000Y-103653641D01*
X142510000Y-103346359D02*
X142510000Y-103653641D01*
%TO.C,C20*%
X142615580Y-87720000D02*
X142334420Y-87720000D01*
X142615580Y-88740000D02*
X142334420Y-88740000D01*
%TO.C,R26*%
X104501752Y-38987500D02*
X104976268Y-38987500D01*
X104501752Y-40032500D02*
X104976268Y-40032500D01*
%TO.C,L2*%
X134365000Y-19390000D02*
X138985000Y-19390000D01*
X134365000Y-20090000D02*
X134365000Y-19390000D01*
X134365000Y-23810000D02*
X134365000Y-23110000D01*
X138985000Y-19390000D02*
X138985000Y-20090000D01*
X138985000Y-23110000D02*
X138985000Y-23810000D01*
X138985000Y-23810000D02*
X134365000Y-23810000D01*
%TO.C,C22*%
X115073430Y-36700000D02*
X115354590Y-36700000D01*
X115073430Y-37720000D02*
X115354590Y-37720000D01*
%TO.C,R51*%
X104591752Y-92007500D02*
X105066268Y-92007500D01*
X104591752Y-93052500D02*
X105066268Y-93052500D01*
D10*
%TO.C,Q5*%
X104754010Y-65610000D02*
X110724010Y-65610000D01*
X104754010Y-72300000D02*
X110724010Y-72300000D01*
X110724010Y-72300000D02*
X110724010Y-65610000D01*
D11*
%TO.C,U14*%
X141837500Y-13570000D02*
X141037500Y-13570000D01*
X141837500Y-13570000D02*
X142637500Y-13570000D01*
X141837500Y-16690000D02*
X141037500Y-16690000D01*
X141837500Y-16690000D02*
X142637500Y-16690000D01*
X143377500Y-16970000D02*
X142897500Y-16970000D01*
X143137500Y-16640000D01*
X143377500Y-16970000D01*
G36*
X143377500Y-16970000D02*
G01*
X142897500Y-16970000D01*
X143137500Y-16640000D01*
X143377500Y-16970000D01*
G37*
%TO.C,R36*%
X110076946Y-79070000D02*
X111531074Y-79070000D01*
X110076946Y-80890000D02*
X111531074Y-80890000D01*
%TO.C,R82*%
X121467500Y-103412258D02*
X121467500Y-102937742D01*
X122512500Y-103412258D02*
X122512500Y-102937742D01*
%TO.C,J21*%
X146740000Y-105490000D02*
X146740000Y-111460000D01*
X146740000Y-111460000D02*
X154360000Y-111460000D01*
X146750000Y-109200000D02*
X147500000Y-109200000D01*
X146750000Y-110700000D02*
X146750000Y-111450000D01*
X146750000Y-111450000D02*
X148550000Y-111450000D01*
X147500000Y-106250000D02*
X150550000Y-106250000D01*
X147500000Y-109200000D02*
X147500000Y-106250000D01*
X148550000Y-110700000D02*
X146750000Y-110700000D01*
X148550000Y-111450000D02*
X148550000Y-110700000D01*
X150050000Y-110700000D02*
X150050000Y-111450000D01*
X150050000Y-111450000D02*
X151050000Y-111450000D01*
X151050000Y-110700000D02*
X150050000Y-110700000D01*
X151050000Y-111450000D02*
X151050000Y-110700000D01*
X152550000Y-110700000D02*
X152550000Y-111450000D01*
X152550000Y-111450000D02*
X154350000Y-111450000D01*
X153400000Y-111750000D02*
X154650000Y-111750000D01*
X153600000Y-106250000D02*
X150550000Y-106250000D01*
X153600000Y-109200000D02*
X153600000Y-106250000D01*
X154350000Y-109200000D02*
X153600000Y-109200000D01*
X154350000Y-110700000D02*
X152550000Y-110700000D01*
X154350000Y-111450000D02*
X154350000Y-110700000D01*
X154360000Y-105490000D02*
X146740000Y-105490000D01*
X154360000Y-111460000D02*
X154360000Y-105490000D01*
X154650000Y-111750000D02*
X154650000Y-110500000D01*
%TO.C,R20*%
X152952064Y-82820000D02*
X151497936Y-82820000D01*
X152952064Y-84640000D02*
X151497936Y-84640000D01*
%TO.C,C2*%
X142615580Y-71720000D02*
X142334420Y-71720000D01*
X142615580Y-72740000D02*
X142334420Y-72740000D01*
%TO.C,R70*%
X153187258Y-16357500D02*
X152712742Y-16357500D01*
X153187258Y-17402500D02*
X152712742Y-17402500D01*
%TO.C,D7*%
X107285260Y-90465000D02*
X109570260Y-90465000D01*
X109570260Y-88995000D02*
X107285260Y-88995000D01*
X109570260Y-90465000D02*
X109570260Y-88995000D01*
%TD*%
M02*
