%TF.GenerationSoftware,KiCad,Pcbnew,9.0.3-9.0.3-0~ubuntu24.04.1*%
%TF.CreationDate,2025-08-15T16:19:56-04:00*%
%TF.ProjectId,power distribution,706f7765-7220-4646-9973-747269627574,rev?*%
%TF.SameCoordinates,Original*%
%TF.FileFunction,Soldermask,Bot*%
%TF.FilePolarity,Negative*%
%FSLAX46Y46*%
G04 Gerber Fmt 4.6, Leading zero omitted, Abs format (unit mm)*
G04 Created by KiCad (PCBNEW 9.0.3-9.0.3-0~ubuntu24.04.1) date 2025-08-15 16:19:56*
%MOMM*%
%LPD*%
G01*
G04 APERTURE LIST*
G04 Aperture macros list*
%AMRoundRect*
0 Rectangle with rounded corners*
0 $1 Rounding radius*
0 $2 $3 $4 $5 $6 $7 $8 $9 X,Y pos of 4 corners*
0 Add a 4 corners polygon primitive as box body*
4,1,4,$2,$3,$4,$5,$6,$7,$8,$9,$2,$3,0*
0 Add four circle primitives for the rounded corners*
1,1,$1+$1,$2,$3*
1,1,$1+$1,$4,$5*
1,1,$1+$1,$6,$7*
1,1,$1+$1,$8,$9*
0 Add four rect primitives between the rounded corners*
20,1,$1+$1,$2,$3,$4,$5,0*
20,1,$1+$1,$4,$5,$6,$7,0*
20,1,$1+$1,$6,$7,$8,$9,0*
20,1,$1+$1,$8,$9,$2,$3,0*%
G04 Aperture macros list end*
%ADD10C,1.020000*%
%ADD11RoundRect,0.250001X0.499999X-0.499999X0.499999X0.499999X-0.499999X0.499999X-0.499999X-0.499999X0*%
%ADD12C,1.500000*%
%ADD13C,3.800000*%
%ADD14C,3.100000*%
%ADD15RoundRect,0.250001X-0.499999X0.499999X-0.499999X-0.499999X0.499999X-0.499999X0.499999X0.499999X0*%
%ADD16RoundRect,0.250000X0.600000X0.750000X-0.600000X0.750000X-0.600000X-0.750000X0.600000X-0.750000X0*%
%ADD17O,1.700000X2.000000*%
%ADD18RoundRect,0.250000X0.725000X-0.600000X0.725000X0.600000X-0.725000X0.600000X-0.725000X-0.600000X0*%
%ADD19O,1.950000X1.700000*%
%ADD20C,2.500000*%
%ADD21C,0.650000*%
%ADD22O,1.000000X2.100000*%
%ADD23O,1.000000X1.800000*%
%ADD24RoundRect,0.250000X-0.600000X-0.750000X0.600000X-0.750000X0.600000X0.750000X-0.600000X0.750000X0*%
G04 APERTURE END LIST*
D10*
%TO.C,J2*%
X98714010Y-23460000D03*
X98714010Y-17460000D03*
D11*
X94774010Y-20460000D03*
D12*
X97774010Y-20460000D03*
%TD*%
D13*
%TO.C,M2*%
X164800000Y-99000000D03*
%TD*%
D14*
%TO.C,J17*%
X101884010Y-49940000D03*
X101884010Y-59440000D03*
%TD*%
D13*
%TO.C,M2*%
X164800000Y-28200000D03*
%TD*%
D10*
%TO.C,J13*%
X158975000Y-16930000D03*
X158975000Y-22930000D03*
D15*
X162915000Y-19930000D03*
D12*
X159915000Y-19930000D03*
%TD*%
D10*
%TO.C,J3*%
X158975000Y-85980000D03*
X158975000Y-91980000D03*
D15*
X162915000Y-88980000D03*
D12*
X159915000Y-88980000D03*
%TD*%
D16*
%TO.C,J14*%
X108270000Y-109000000D03*
D17*
X105770000Y-109000000D03*
%TD*%
D16*
%TO.C,J15*%
X143130000Y-109000000D03*
D17*
X140630000Y-109000000D03*
%TD*%
D16*
%TO.C,J10*%
X99645000Y-109000000D03*
D17*
X97145000Y-109000000D03*
%TD*%
D10*
%TO.C,J19*%
X158975000Y-32930000D03*
X158975000Y-38930000D03*
D15*
X162915000Y-35930000D03*
D12*
X159915000Y-35930000D03*
%TD*%
D16*
%TO.C,J22*%
X125740000Y-109000000D03*
D17*
X123240000Y-109000000D03*
%TD*%
D16*
%TO.C,J20*%
X117020000Y-109000000D03*
D17*
X114520000Y-109000000D03*
%TD*%
D16*
%TO.C,J11*%
X134460000Y-109000000D03*
D17*
X131960000Y-109000000D03*
%TD*%
D18*
%TO.C,J4*%
X135000000Y-82600000D03*
D19*
X135000000Y-80100000D03*
X135000000Y-77600000D03*
X135000000Y-75100000D03*
%TD*%
D10*
%TO.C,J1*%
X158975000Y-69980000D03*
X158975000Y-75980000D03*
D15*
X162915000Y-72980000D03*
D12*
X159915000Y-72980000D03*
%TD*%
D13*
%TO.C,M2*%
X92900000Y-28200000D03*
%TD*%
D20*
%TO.C,F2*%
X111834010Y-49800000D03*
X108434010Y-49800000D03*
X111834010Y-59600000D03*
X108434010Y-59600000D03*
%TD*%
D13*
%TO.C,M2*%
X92900000Y-99000000D03*
%TD*%
D10*
%TO.C,J6*%
X98804010Y-76480000D03*
X98804010Y-70480000D03*
D11*
X94864010Y-73480000D03*
D12*
X97864010Y-73480000D03*
%TD*%
D10*
%TO.C,J9*%
X98804010Y-92480000D03*
X98804010Y-86480000D03*
D11*
X94864010Y-89480000D03*
D12*
X97864010Y-89480000D03*
%TD*%
D20*
%TO.C,F3*%
X145750000Y-59650000D03*
X149150000Y-59650000D03*
X145750000Y-49850000D03*
X149150000Y-49850000D03*
%TD*%
D16*
%TO.C,J23*%
X160470000Y-109000000D03*
D17*
X157970000Y-109000000D03*
%TD*%
D21*
%TO.C,J8*%
X127140000Y-18605000D03*
X121360000Y-18605000D03*
D22*
X128570000Y-19125000D03*
D23*
X128570000Y-14925000D03*
D22*
X119930000Y-19125000D03*
D23*
X119930000Y-14925000D03*
%TD*%
D14*
%TO.C,J18*%
X155750000Y-59500000D03*
X155750000Y-50000000D03*
%TD*%
D10*
%TO.C,J5*%
X98714010Y-39460000D03*
X98714010Y-33460000D03*
D11*
X94774010Y-36460000D03*
D12*
X97774010Y-36460000D03*
%TD*%
D24*
%TO.C,J7*%
X132750000Y-15000000D03*
D17*
X135250000Y-15000000D03*
%TD*%
D16*
%TO.C,J21*%
X151800000Y-109000000D03*
D17*
X149300000Y-109000000D03*
%TD*%
M02*
