%TF.GenerationSoftware,KiCad,Pcbnew,9.0.3-9.0.3-0~ubuntu24.04.1*%
%TF.CreationDate,2025-08-28T08:20:23-04:00*%
%TF.ProjectId,power distribution,706f7765-7220-4646-9973-747269627574,rev?*%
%TF.SameCoordinates,Original*%
%TF.FileFunction,Legend,Top*%
%TF.FilePolarity,Positive*%
%FSLAX46Y46*%
G04 Gerber Fmt 4.6, Leading zero omitted, Abs format (unit mm)*
G04 Created by KiCad (PCBNEW 9.0.3-9.0.3-0~ubuntu24.04.1) date 2025-08-28 08:20:23*
%MOMM*%
%LPD*%
G01*
G04 APERTURE LIST*
%ADD10C,0.150000*%
%ADD11C,0.200000*%
%ADD12C,0.250000*%
%ADD13C,0.120000*%
G04 APERTURE END LIST*
D10*
X151612969Y-93045342D02*
X150927255Y-93045342D01*
X151270112Y-93045342D02*
X151270112Y-91845342D01*
X151270112Y-91845342D02*
X151155826Y-92016771D01*
X151155826Y-92016771D02*
X151041541Y-92131057D01*
X151041541Y-92131057D02*
X150927255Y-92188200D01*
X152070112Y-91959628D02*
X152127255Y-91902485D01*
X152127255Y-91902485D02*
X152241541Y-91845342D01*
X152241541Y-91845342D02*
X152527255Y-91845342D01*
X152527255Y-91845342D02*
X152641541Y-91902485D01*
X152641541Y-91902485D02*
X152698683Y-91959628D01*
X152698683Y-91959628D02*
X152755826Y-92073914D01*
X152755826Y-92073914D02*
X152755826Y-92188200D01*
X152755826Y-92188200D02*
X152698683Y-92359628D01*
X152698683Y-92359628D02*
X152012969Y-93045342D01*
X152012969Y-93045342D02*
X152755826Y-93045342D01*
X153098683Y-91845342D02*
X153498683Y-93045342D01*
X153498683Y-93045342D02*
X153898683Y-91845342D01*
X152718200Y-105482744D02*
X152775342Y-105311316D01*
X152775342Y-105311316D02*
X152775342Y-105025601D01*
X152775342Y-105025601D02*
X152718200Y-104911316D01*
X152718200Y-104911316D02*
X152661057Y-104854173D01*
X152661057Y-104854173D02*
X152546771Y-104797030D01*
X152546771Y-104797030D02*
X152432485Y-104797030D01*
X152432485Y-104797030D02*
X152318200Y-104854173D01*
X152318200Y-104854173D02*
X152261057Y-104911316D01*
X152261057Y-104911316D02*
X152203914Y-105025601D01*
X152203914Y-105025601D02*
X152146771Y-105254173D01*
X152146771Y-105254173D02*
X152089628Y-105368458D01*
X152089628Y-105368458D02*
X152032485Y-105425601D01*
X152032485Y-105425601D02*
X151918200Y-105482744D01*
X151918200Y-105482744D02*
X151803914Y-105482744D01*
X151803914Y-105482744D02*
X151689628Y-105425601D01*
X151689628Y-105425601D02*
X151632485Y-105368458D01*
X151632485Y-105368458D02*
X151575342Y-105254173D01*
X151575342Y-105254173D02*
X151575342Y-104968458D01*
X151575342Y-104968458D02*
X151632485Y-104797030D01*
X151575342Y-104397030D02*
X152775342Y-104111316D01*
X152775342Y-104111316D02*
X151918200Y-103882744D01*
X151918200Y-103882744D02*
X152775342Y-103654173D01*
X152775342Y-103654173D02*
X151575342Y-103368459D01*
X152775342Y-102911315D02*
X151575342Y-102911315D01*
X151575342Y-102911315D02*
X151575342Y-102625601D01*
X151575342Y-102625601D02*
X151632485Y-102454172D01*
X151632485Y-102454172D02*
X151746771Y-102339887D01*
X151746771Y-102339887D02*
X151861057Y-102282744D01*
X151861057Y-102282744D02*
X152089628Y-102225601D01*
X152089628Y-102225601D02*
X152261057Y-102225601D01*
X152261057Y-102225601D02*
X152489628Y-102282744D01*
X152489628Y-102282744D02*
X152603914Y-102339887D01*
X152603914Y-102339887D02*
X152718200Y-102454172D01*
X152718200Y-102454172D02*
X152775342Y-102625601D01*
X152775342Y-102625601D02*
X152775342Y-102911315D01*
D11*
X179688720Y-57076028D02*
X179688720Y-55576028D01*
X179688720Y-56290314D02*
X180545863Y-56290314D01*
X180545863Y-57076028D02*
X180545863Y-55576028D01*
X181260149Y-56290314D02*
X181760149Y-56290314D01*
X181974435Y-57076028D02*
X181260149Y-57076028D01*
X181260149Y-57076028D02*
X181260149Y-55576028D01*
X181260149Y-55576028D02*
X181974435Y-55576028D01*
X182545864Y-56647457D02*
X183260150Y-56647457D01*
X182403007Y-57076028D02*
X182903007Y-55576028D01*
X182903007Y-55576028D02*
X183403007Y-57076028D01*
X183688721Y-55576028D02*
X184545864Y-55576028D01*
X184117292Y-57076028D02*
X184117292Y-55576028D01*
X185760149Y-55576028D02*
X185045863Y-55576028D01*
X185045863Y-55576028D02*
X184974435Y-56290314D01*
X184974435Y-56290314D02*
X185045863Y-56218885D01*
X185045863Y-56218885D02*
X185188721Y-56147457D01*
X185188721Y-56147457D02*
X185545863Y-56147457D01*
X185545863Y-56147457D02*
X185688721Y-56218885D01*
X185688721Y-56218885D02*
X185760149Y-56290314D01*
X185760149Y-56290314D02*
X185831578Y-56433171D01*
X185831578Y-56433171D02*
X185831578Y-56790314D01*
X185831578Y-56790314D02*
X185760149Y-56933171D01*
X185760149Y-56933171D02*
X185688721Y-57004600D01*
X185688721Y-57004600D02*
X185545863Y-57076028D01*
X185545863Y-57076028D02*
X185188721Y-57076028D01*
X185188721Y-57076028D02*
X185045863Y-57004600D01*
X185045863Y-57004600D02*
X184974435Y-56933171D01*
X179588720Y-110106028D02*
X179588720Y-108606028D01*
X179588720Y-109320314D02*
X180445863Y-109320314D01*
X180445863Y-110106028D02*
X180445863Y-108606028D01*
X181160149Y-109320314D02*
X181660149Y-109320314D01*
X181874435Y-110106028D02*
X181160149Y-110106028D01*
X181160149Y-110106028D02*
X181160149Y-108606028D01*
X181160149Y-108606028D02*
X181874435Y-108606028D01*
X182445864Y-109677457D02*
X183160150Y-109677457D01*
X182303007Y-110106028D02*
X182803007Y-108606028D01*
X182803007Y-108606028D02*
X183303007Y-110106028D01*
X183588721Y-108606028D02*
X184445864Y-108606028D01*
X184017292Y-110106028D02*
X184017292Y-108606028D01*
X184803006Y-108606028D02*
X185803006Y-108606028D01*
X185803006Y-108606028D02*
X185160149Y-110106028D01*
X128948885Y-81782707D02*
X128877457Y-81711279D01*
X128877457Y-81711279D02*
X128806028Y-81568422D01*
X128806028Y-81568422D02*
X128806028Y-81211279D01*
X128806028Y-81211279D02*
X128877457Y-81068422D01*
X128877457Y-81068422D02*
X128948885Y-80996993D01*
X128948885Y-80996993D02*
X129091742Y-80925564D01*
X129091742Y-80925564D02*
X129234600Y-80925564D01*
X129234600Y-80925564D02*
X129448885Y-80996993D01*
X129448885Y-80996993D02*
X130306028Y-81854136D01*
X130306028Y-81854136D02*
X130306028Y-80925564D01*
X128806028Y-79996993D02*
X128806028Y-79854136D01*
X128806028Y-79854136D02*
X128877457Y-79711279D01*
X128877457Y-79711279D02*
X128948885Y-79639851D01*
X128948885Y-79639851D02*
X129091742Y-79568422D01*
X129091742Y-79568422D02*
X129377457Y-79496993D01*
X129377457Y-79496993D02*
X129734600Y-79496993D01*
X129734600Y-79496993D02*
X130020314Y-79568422D01*
X130020314Y-79568422D02*
X130163171Y-79639851D01*
X130163171Y-79639851D02*
X130234600Y-79711279D01*
X130234600Y-79711279D02*
X130306028Y-79854136D01*
X130306028Y-79854136D02*
X130306028Y-79996993D01*
X130306028Y-79996993D02*
X130234600Y-80139851D01*
X130234600Y-80139851D02*
X130163171Y-80211279D01*
X130163171Y-80211279D02*
X130020314Y-80282708D01*
X130020314Y-80282708D02*
X129734600Y-80354136D01*
X129734600Y-80354136D02*
X129377457Y-80354136D01*
X129377457Y-80354136D02*
X129091742Y-80282708D01*
X129091742Y-80282708D02*
X128948885Y-80211279D01*
X128948885Y-80211279D02*
X128877457Y-80139851D01*
X128877457Y-80139851D02*
X128806028Y-79996993D01*
X129877457Y-78925565D02*
X129877457Y-78211280D01*
X130306028Y-79068422D02*
X128806028Y-78568422D01*
X128806028Y-78568422D02*
X130306028Y-78068422D01*
X184674435Y-67577457D02*
X184531578Y-67506028D01*
X184531578Y-67506028D02*
X184317292Y-67506028D01*
X184317292Y-67506028D02*
X184103006Y-67577457D01*
X184103006Y-67577457D02*
X183960149Y-67720314D01*
X183960149Y-67720314D02*
X183888720Y-67863171D01*
X183888720Y-67863171D02*
X183817292Y-68148885D01*
X183817292Y-68148885D02*
X183817292Y-68363171D01*
X183817292Y-68363171D02*
X183888720Y-68648885D01*
X183888720Y-68648885D02*
X183960149Y-68791742D01*
X183960149Y-68791742D02*
X184103006Y-68934600D01*
X184103006Y-68934600D02*
X184317292Y-69006028D01*
X184317292Y-69006028D02*
X184460149Y-69006028D01*
X184460149Y-69006028D02*
X184674435Y-68934600D01*
X184674435Y-68934600D02*
X184745863Y-68863171D01*
X184745863Y-68863171D02*
X184745863Y-68363171D01*
X184745863Y-68363171D02*
X184460149Y-68363171D01*
X185388720Y-69006028D02*
X185388720Y-67506028D01*
X185388720Y-67506028D02*
X186245863Y-69006028D01*
X186245863Y-69006028D02*
X186245863Y-67506028D01*
X186960149Y-69006028D02*
X186960149Y-67506028D01*
X186960149Y-67506028D02*
X187317292Y-67506028D01*
X187317292Y-67506028D02*
X187531578Y-67577457D01*
X187531578Y-67577457D02*
X187674435Y-67720314D01*
X187674435Y-67720314D02*
X187745864Y-67863171D01*
X187745864Y-67863171D02*
X187817292Y-68148885D01*
X187817292Y-68148885D02*
X187817292Y-68363171D01*
X187817292Y-68363171D02*
X187745864Y-68648885D01*
X187745864Y-68648885D02*
X187674435Y-68791742D01*
X187674435Y-68791742D02*
X187531578Y-68934600D01*
X187531578Y-68934600D02*
X187317292Y-69006028D01*
X187317292Y-69006028D02*
X186960149Y-69006028D01*
D10*
X155855826Y-111025342D02*
X155284398Y-111025342D01*
X155284398Y-111025342D02*
X155227255Y-111596771D01*
X155227255Y-111596771D02*
X155284398Y-111539628D01*
X155284398Y-111539628D02*
X155398684Y-111482485D01*
X155398684Y-111482485D02*
X155684398Y-111482485D01*
X155684398Y-111482485D02*
X155798684Y-111539628D01*
X155798684Y-111539628D02*
X155855826Y-111596771D01*
X155855826Y-111596771D02*
X155912969Y-111711057D01*
X155912969Y-111711057D02*
X155912969Y-111996771D01*
X155912969Y-111996771D02*
X155855826Y-112111057D01*
X155855826Y-112111057D02*
X155798684Y-112168200D01*
X155798684Y-112168200D02*
X155684398Y-112225342D01*
X155684398Y-112225342D02*
X155398684Y-112225342D01*
X155398684Y-112225342D02*
X155284398Y-112168200D01*
X155284398Y-112168200D02*
X155227255Y-112111057D01*
X156255826Y-111025342D02*
X156655826Y-112225342D01*
X156655826Y-112225342D02*
X157055826Y-111025342D01*
D11*
X182817292Y-90848885D02*
X182888720Y-90777457D01*
X182888720Y-90777457D02*
X183031578Y-90706028D01*
X183031578Y-90706028D02*
X183388720Y-90706028D01*
X183388720Y-90706028D02*
X183531578Y-90777457D01*
X183531578Y-90777457D02*
X183603006Y-90848885D01*
X183603006Y-90848885D02*
X183674435Y-90991742D01*
X183674435Y-90991742D02*
X183674435Y-91134600D01*
X183674435Y-91134600D02*
X183603006Y-91348885D01*
X183603006Y-91348885D02*
X182745863Y-92206028D01*
X182745863Y-92206028D02*
X183674435Y-92206028D01*
X184960149Y-91206028D02*
X184960149Y-92206028D01*
X184603006Y-90634600D02*
X184245863Y-91706028D01*
X184245863Y-91706028D02*
X185174434Y-91706028D01*
X185531577Y-90706028D02*
X186031577Y-92206028D01*
X186031577Y-92206028D02*
X186531577Y-90706028D01*
X187031576Y-91634600D02*
X188174434Y-91634600D01*
X187603005Y-92206028D02*
X187603005Y-91063171D01*
X112417292Y-67648885D02*
X112488720Y-67577457D01*
X112488720Y-67577457D02*
X112631578Y-67506028D01*
X112631578Y-67506028D02*
X112988720Y-67506028D01*
X112988720Y-67506028D02*
X113131578Y-67577457D01*
X113131578Y-67577457D02*
X113203006Y-67648885D01*
X113203006Y-67648885D02*
X113274435Y-67791742D01*
X113274435Y-67791742D02*
X113274435Y-67934600D01*
X113274435Y-67934600D02*
X113203006Y-68148885D01*
X113203006Y-68148885D02*
X112345863Y-69006028D01*
X112345863Y-69006028D02*
X113274435Y-69006028D01*
X114560149Y-68006028D02*
X114560149Y-69006028D01*
X114203006Y-67434600D02*
X113845863Y-68506028D01*
X113845863Y-68506028D02*
X114774434Y-68506028D01*
X115131577Y-67506028D02*
X115631577Y-69006028D01*
X115631577Y-69006028D02*
X116131577Y-67506028D01*
X116631576Y-68434600D02*
X117774434Y-68434600D01*
X117203005Y-69006028D02*
X117203005Y-67863171D01*
D10*
X161230112Y-103101057D02*
X161172969Y-103158200D01*
X161172969Y-103158200D02*
X161001541Y-103215342D01*
X161001541Y-103215342D02*
X160887255Y-103215342D01*
X160887255Y-103215342D02*
X160715826Y-103158200D01*
X160715826Y-103158200D02*
X160601541Y-103043914D01*
X160601541Y-103043914D02*
X160544398Y-102929628D01*
X160544398Y-102929628D02*
X160487255Y-102701057D01*
X160487255Y-102701057D02*
X160487255Y-102529628D01*
X160487255Y-102529628D02*
X160544398Y-102301057D01*
X160544398Y-102301057D02*
X160601541Y-102186771D01*
X160601541Y-102186771D02*
X160715826Y-102072485D01*
X160715826Y-102072485D02*
X160887255Y-102015342D01*
X160887255Y-102015342D02*
X161001541Y-102015342D01*
X161001541Y-102015342D02*
X161172969Y-102072485D01*
X161172969Y-102072485D02*
X161230112Y-102129628D01*
X162315826Y-103215342D02*
X161744398Y-103215342D01*
X161744398Y-103215342D02*
X161744398Y-102015342D01*
X162715827Y-103215342D02*
X162715827Y-102015342D01*
X163401541Y-103215342D02*
X162887255Y-102529628D01*
X163401541Y-102015342D02*
X162715827Y-102701057D01*
X141916771Y-96715601D02*
X141973914Y-96544173D01*
X141973914Y-96544173D02*
X142031057Y-96487030D01*
X142031057Y-96487030D02*
X142145342Y-96429887D01*
X142145342Y-96429887D02*
X142316771Y-96429887D01*
X142316771Y-96429887D02*
X142431057Y-96487030D01*
X142431057Y-96487030D02*
X142488200Y-96544173D01*
X142488200Y-96544173D02*
X142545342Y-96658458D01*
X142545342Y-96658458D02*
X142545342Y-97115601D01*
X142545342Y-97115601D02*
X141345342Y-97115601D01*
X141345342Y-97115601D02*
X141345342Y-96715601D01*
X141345342Y-96715601D02*
X141402485Y-96601316D01*
X141402485Y-96601316D02*
X141459628Y-96544173D01*
X141459628Y-96544173D02*
X141573914Y-96487030D01*
X141573914Y-96487030D02*
X141688200Y-96487030D01*
X141688200Y-96487030D02*
X141802485Y-96544173D01*
X141802485Y-96544173D02*
X141859628Y-96601316D01*
X141859628Y-96601316D02*
X141916771Y-96715601D01*
X141916771Y-96715601D02*
X141916771Y-97115601D01*
X141345342Y-95687030D02*
X141345342Y-95458458D01*
X141345342Y-95458458D02*
X141402485Y-95344173D01*
X141402485Y-95344173D02*
X141516771Y-95229887D01*
X141516771Y-95229887D02*
X141745342Y-95172744D01*
X141745342Y-95172744D02*
X142145342Y-95172744D01*
X142145342Y-95172744D02*
X142373914Y-95229887D01*
X142373914Y-95229887D02*
X142488200Y-95344173D01*
X142488200Y-95344173D02*
X142545342Y-95458458D01*
X142545342Y-95458458D02*
X142545342Y-95687030D01*
X142545342Y-95687030D02*
X142488200Y-95801316D01*
X142488200Y-95801316D02*
X142373914Y-95915601D01*
X142373914Y-95915601D02*
X142145342Y-95972744D01*
X142145342Y-95972744D02*
X141745342Y-95972744D01*
X141745342Y-95972744D02*
X141516771Y-95915601D01*
X141516771Y-95915601D02*
X141402485Y-95801316D01*
X141402485Y-95801316D02*
X141345342Y-95687030D01*
X141345342Y-94429887D02*
X141345342Y-94201315D01*
X141345342Y-94201315D02*
X141402485Y-94087030D01*
X141402485Y-94087030D02*
X141516771Y-93972744D01*
X141516771Y-93972744D02*
X141745342Y-93915601D01*
X141745342Y-93915601D02*
X142145342Y-93915601D01*
X142145342Y-93915601D02*
X142373914Y-93972744D01*
X142373914Y-93972744D02*
X142488200Y-94087030D01*
X142488200Y-94087030D02*
X142545342Y-94201315D01*
X142545342Y-94201315D02*
X142545342Y-94429887D01*
X142545342Y-94429887D02*
X142488200Y-94544173D01*
X142488200Y-94544173D02*
X142373914Y-94658458D01*
X142373914Y-94658458D02*
X142145342Y-94715601D01*
X142145342Y-94715601D02*
X141745342Y-94715601D01*
X141745342Y-94715601D02*
X141516771Y-94658458D01*
X141516771Y-94658458D02*
X141402485Y-94544173D01*
X141402485Y-94544173D02*
X141345342Y-94429887D01*
X141345342Y-93572744D02*
X141345342Y-92887030D01*
X142545342Y-93229887D02*
X141345342Y-93229887D01*
D11*
X179845863Y-123606028D02*
X180845863Y-123606028D01*
X180845863Y-123606028D02*
X180203006Y-125106028D01*
X113888720Y-57606028D02*
X113888720Y-56106028D01*
X113888720Y-56820314D02*
X114745863Y-56820314D01*
X114745863Y-57606028D02*
X114745863Y-56106028D01*
X115460149Y-56820314D02*
X115960149Y-56820314D01*
X116174435Y-57606028D02*
X115460149Y-57606028D01*
X115460149Y-57606028D02*
X115460149Y-56106028D01*
X115460149Y-56106028D02*
X116174435Y-56106028D01*
X116745864Y-57177457D02*
X117460150Y-57177457D01*
X116603007Y-57606028D02*
X117103007Y-56106028D01*
X117103007Y-56106028D02*
X117603007Y-57606028D01*
X117888721Y-56106028D02*
X118745864Y-56106028D01*
X118317292Y-57606028D02*
X118317292Y-56106028D01*
X120031578Y-57606028D02*
X119174435Y-57606028D01*
X119603006Y-57606028D02*
X119603006Y-56106028D01*
X119603006Y-56106028D02*
X119460149Y-56320314D01*
X119460149Y-56320314D02*
X119317292Y-56463171D01*
X119317292Y-56463171D02*
X119174435Y-56534600D01*
X113888720Y-41606028D02*
X113888720Y-40106028D01*
X113888720Y-40820314D02*
X114745863Y-40820314D01*
X114745863Y-41606028D02*
X114745863Y-40106028D01*
X115460149Y-40820314D02*
X115960149Y-40820314D01*
X116174435Y-41606028D02*
X115460149Y-41606028D01*
X115460149Y-41606028D02*
X115460149Y-40106028D01*
X115460149Y-40106028D02*
X116174435Y-40106028D01*
X116745864Y-41177457D02*
X117460150Y-41177457D01*
X116603007Y-41606028D02*
X117103007Y-40106028D01*
X117103007Y-40106028D02*
X117603007Y-41606028D01*
X117888721Y-40106028D02*
X118745864Y-40106028D01*
X118317292Y-41606028D02*
X118317292Y-40106028D01*
X119531578Y-40106028D02*
X119674435Y-40106028D01*
X119674435Y-40106028D02*
X119817292Y-40177457D01*
X119817292Y-40177457D02*
X119888721Y-40248885D01*
X119888721Y-40248885D02*
X119960149Y-40391742D01*
X119960149Y-40391742D02*
X120031578Y-40677457D01*
X120031578Y-40677457D02*
X120031578Y-41034600D01*
X120031578Y-41034600D02*
X119960149Y-41320314D01*
X119960149Y-41320314D02*
X119888721Y-41463171D01*
X119888721Y-41463171D02*
X119817292Y-41534600D01*
X119817292Y-41534600D02*
X119674435Y-41606028D01*
X119674435Y-41606028D02*
X119531578Y-41606028D01*
X119531578Y-41606028D02*
X119388721Y-41534600D01*
X119388721Y-41534600D02*
X119317292Y-41463171D01*
X119317292Y-41463171D02*
X119245863Y-41320314D01*
X119245863Y-41320314D02*
X119174435Y-41034600D01*
X119174435Y-41034600D02*
X119174435Y-40677457D01*
X119174435Y-40677457D02*
X119245863Y-40391742D01*
X119245863Y-40391742D02*
X119317292Y-40248885D01*
X119317292Y-40248885D02*
X119388721Y-40177457D01*
X119388721Y-40177457D02*
X119531578Y-40106028D01*
D12*
X179640663Y-118980333D02*
X181164473Y-118980333D01*
X180402568Y-119742238D02*
X180402568Y-118218428D01*
D11*
X145645863Y-123506028D02*
X146574435Y-123506028D01*
X146574435Y-123506028D02*
X146074435Y-124077457D01*
X146074435Y-124077457D02*
X146288720Y-124077457D01*
X146288720Y-124077457D02*
X146431578Y-124148885D01*
X146431578Y-124148885D02*
X146503006Y-124220314D01*
X146503006Y-124220314D02*
X146574435Y-124363171D01*
X146574435Y-124363171D02*
X146574435Y-124720314D01*
X146574435Y-124720314D02*
X146503006Y-124863171D01*
X146503006Y-124863171D02*
X146431578Y-124934600D01*
X146431578Y-124934600D02*
X146288720Y-125006028D01*
X146288720Y-125006028D02*
X145860149Y-125006028D01*
X145860149Y-125006028D02*
X145717292Y-124934600D01*
X145717292Y-124934600D02*
X145645863Y-124863171D01*
D10*
X152245342Y-48315601D02*
X153216771Y-48315601D01*
X153216771Y-48315601D02*
X153331057Y-48258458D01*
X153331057Y-48258458D02*
X153388200Y-48201316D01*
X153388200Y-48201316D02*
X153445342Y-48087030D01*
X153445342Y-48087030D02*
X153445342Y-47858458D01*
X153445342Y-47858458D02*
X153388200Y-47744173D01*
X153388200Y-47744173D02*
X153331057Y-47687030D01*
X153331057Y-47687030D02*
X153216771Y-47629887D01*
X153216771Y-47629887D02*
X152245342Y-47629887D01*
X153102485Y-47115601D02*
X153102485Y-46544173D01*
X153445342Y-47229887D02*
X152245342Y-46829887D01*
X152245342Y-46829887D02*
X153445342Y-46429887D01*
X153445342Y-45344173D02*
X152873914Y-45744173D01*
X153445342Y-46029887D02*
X152245342Y-46029887D01*
X152245342Y-46029887D02*
X152245342Y-45572744D01*
X152245342Y-45572744D02*
X152302485Y-45458459D01*
X152302485Y-45458459D02*
X152359628Y-45401316D01*
X152359628Y-45401316D02*
X152473914Y-45344173D01*
X152473914Y-45344173D02*
X152645342Y-45344173D01*
X152645342Y-45344173D02*
X152759628Y-45401316D01*
X152759628Y-45401316D02*
X152816771Y-45458459D01*
X152816771Y-45458459D02*
X152873914Y-45572744D01*
X152873914Y-45572744D02*
X152873914Y-46029887D01*
X152245342Y-45001316D02*
X152245342Y-44315602D01*
X153445342Y-44658459D02*
X152245342Y-44658459D01*
D11*
X113074435Y-90677457D02*
X112931578Y-90606028D01*
X112931578Y-90606028D02*
X112717292Y-90606028D01*
X112717292Y-90606028D02*
X112503006Y-90677457D01*
X112503006Y-90677457D02*
X112360149Y-90820314D01*
X112360149Y-90820314D02*
X112288720Y-90963171D01*
X112288720Y-90963171D02*
X112217292Y-91248885D01*
X112217292Y-91248885D02*
X112217292Y-91463171D01*
X112217292Y-91463171D02*
X112288720Y-91748885D01*
X112288720Y-91748885D02*
X112360149Y-91891742D01*
X112360149Y-91891742D02*
X112503006Y-92034600D01*
X112503006Y-92034600D02*
X112717292Y-92106028D01*
X112717292Y-92106028D02*
X112860149Y-92106028D01*
X112860149Y-92106028D02*
X113074435Y-92034600D01*
X113074435Y-92034600D02*
X113145863Y-91963171D01*
X113145863Y-91963171D02*
X113145863Y-91463171D01*
X113145863Y-91463171D02*
X112860149Y-91463171D01*
X113788720Y-92106028D02*
X113788720Y-90606028D01*
X113788720Y-90606028D02*
X114645863Y-92106028D01*
X114645863Y-92106028D02*
X114645863Y-90606028D01*
X115360149Y-92106028D02*
X115360149Y-90606028D01*
X115360149Y-90606028D02*
X115717292Y-90606028D01*
X115717292Y-90606028D02*
X115931578Y-90677457D01*
X115931578Y-90677457D02*
X116074435Y-90820314D01*
X116074435Y-90820314D02*
X116145864Y-90963171D01*
X116145864Y-90963171D02*
X116217292Y-91248885D01*
X116217292Y-91248885D02*
X116217292Y-91463171D01*
X116217292Y-91463171D02*
X116145864Y-91748885D01*
X116145864Y-91748885D02*
X116074435Y-91891742D01*
X116074435Y-91891742D02*
X115931578Y-92034600D01*
X115931578Y-92034600D02*
X115717292Y-92106028D01*
X115717292Y-92106028D02*
X115360149Y-92106028D01*
X119574435Y-123606028D02*
X119717292Y-123606028D01*
X119717292Y-123606028D02*
X119860149Y-123677457D01*
X119860149Y-123677457D02*
X119931578Y-123748885D01*
X119931578Y-123748885D02*
X120003006Y-123891742D01*
X120003006Y-123891742D02*
X120074435Y-124177457D01*
X120074435Y-124177457D02*
X120074435Y-124534600D01*
X120074435Y-124534600D02*
X120003006Y-124820314D01*
X120003006Y-124820314D02*
X119931578Y-124963171D01*
X119931578Y-124963171D02*
X119860149Y-125034600D01*
X119860149Y-125034600D02*
X119717292Y-125106028D01*
X119717292Y-125106028D02*
X119574435Y-125106028D01*
X119574435Y-125106028D02*
X119431578Y-125034600D01*
X119431578Y-125034600D02*
X119360149Y-124963171D01*
X119360149Y-124963171D02*
X119288720Y-124820314D01*
X119288720Y-124820314D02*
X119217292Y-124534600D01*
X119217292Y-124534600D02*
X119217292Y-124177457D01*
X119217292Y-124177457D02*
X119288720Y-123891742D01*
X119288720Y-123891742D02*
X119360149Y-123748885D01*
X119360149Y-123748885D02*
X119431578Y-123677457D01*
X119431578Y-123677457D02*
X119574435Y-123606028D01*
X166148885Y-81382707D02*
X166077457Y-81311279D01*
X166077457Y-81311279D02*
X166006028Y-81168422D01*
X166006028Y-81168422D02*
X166006028Y-80811279D01*
X166006028Y-80811279D02*
X166077457Y-80668422D01*
X166077457Y-80668422D02*
X166148885Y-80596993D01*
X166148885Y-80596993D02*
X166291742Y-80525564D01*
X166291742Y-80525564D02*
X166434600Y-80525564D01*
X166434600Y-80525564D02*
X166648885Y-80596993D01*
X166648885Y-80596993D02*
X167506028Y-81454136D01*
X167506028Y-81454136D02*
X167506028Y-80525564D01*
X166006028Y-79596993D02*
X166006028Y-79454136D01*
X166006028Y-79454136D02*
X166077457Y-79311279D01*
X166077457Y-79311279D02*
X166148885Y-79239851D01*
X166148885Y-79239851D02*
X166291742Y-79168422D01*
X166291742Y-79168422D02*
X166577457Y-79096993D01*
X166577457Y-79096993D02*
X166934600Y-79096993D01*
X166934600Y-79096993D02*
X167220314Y-79168422D01*
X167220314Y-79168422D02*
X167363171Y-79239851D01*
X167363171Y-79239851D02*
X167434600Y-79311279D01*
X167434600Y-79311279D02*
X167506028Y-79454136D01*
X167506028Y-79454136D02*
X167506028Y-79596993D01*
X167506028Y-79596993D02*
X167434600Y-79739851D01*
X167434600Y-79739851D02*
X167363171Y-79811279D01*
X167363171Y-79811279D02*
X167220314Y-79882708D01*
X167220314Y-79882708D02*
X166934600Y-79954136D01*
X166934600Y-79954136D02*
X166577457Y-79954136D01*
X166577457Y-79954136D02*
X166291742Y-79882708D01*
X166291742Y-79882708D02*
X166148885Y-79811279D01*
X166148885Y-79811279D02*
X166077457Y-79739851D01*
X166077457Y-79739851D02*
X166006028Y-79596993D01*
X167077457Y-78525565D02*
X167077457Y-77811280D01*
X167506028Y-78668422D02*
X166006028Y-78168422D01*
X166006028Y-78168422D02*
X167506028Y-77668422D01*
D10*
X152655826Y-94845342D02*
X152084398Y-94845342D01*
X152084398Y-94845342D02*
X152027255Y-95416771D01*
X152027255Y-95416771D02*
X152084398Y-95359628D01*
X152084398Y-95359628D02*
X152198684Y-95302485D01*
X152198684Y-95302485D02*
X152484398Y-95302485D01*
X152484398Y-95302485D02*
X152598684Y-95359628D01*
X152598684Y-95359628D02*
X152655826Y-95416771D01*
X152655826Y-95416771D02*
X152712969Y-95531057D01*
X152712969Y-95531057D02*
X152712969Y-95816771D01*
X152712969Y-95816771D02*
X152655826Y-95931057D01*
X152655826Y-95931057D02*
X152598684Y-95988200D01*
X152598684Y-95988200D02*
X152484398Y-96045342D01*
X152484398Y-96045342D02*
X152198684Y-96045342D01*
X152198684Y-96045342D02*
X152084398Y-95988200D01*
X152084398Y-95988200D02*
X152027255Y-95931057D01*
X153055826Y-94845342D02*
X153455826Y-96045342D01*
X153455826Y-96045342D02*
X153855826Y-94845342D01*
D12*
X179640663Y-102980333D02*
X181164473Y-102980333D01*
X180402568Y-103742238D02*
X180402568Y-102218428D01*
D10*
X138345342Y-96829887D02*
X137773914Y-97229887D01*
X138345342Y-97515601D02*
X137145342Y-97515601D01*
X137145342Y-97515601D02*
X137145342Y-97058458D01*
X137145342Y-97058458D02*
X137202485Y-96944173D01*
X137202485Y-96944173D02*
X137259628Y-96887030D01*
X137259628Y-96887030D02*
X137373914Y-96829887D01*
X137373914Y-96829887D02*
X137545342Y-96829887D01*
X137545342Y-96829887D02*
X137659628Y-96887030D01*
X137659628Y-96887030D02*
X137716771Y-96944173D01*
X137716771Y-96944173D02*
X137773914Y-97058458D01*
X137773914Y-97058458D02*
X137773914Y-97515601D01*
X138288200Y-96372744D02*
X138345342Y-96201316D01*
X138345342Y-96201316D02*
X138345342Y-95915601D01*
X138345342Y-95915601D02*
X138288200Y-95801316D01*
X138288200Y-95801316D02*
X138231057Y-95744173D01*
X138231057Y-95744173D02*
X138116771Y-95687030D01*
X138116771Y-95687030D02*
X138002485Y-95687030D01*
X138002485Y-95687030D02*
X137888200Y-95744173D01*
X137888200Y-95744173D02*
X137831057Y-95801316D01*
X137831057Y-95801316D02*
X137773914Y-95915601D01*
X137773914Y-95915601D02*
X137716771Y-96144173D01*
X137716771Y-96144173D02*
X137659628Y-96258458D01*
X137659628Y-96258458D02*
X137602485Y-96315601D01*
X137602485Y-96315601D02*
X137488200Y-96372744D01*
X137488200Y-96372744D02*
X137373914Y-96372744D01*
X137373914Y-96372744D02*
X137259628Y-96315601D01*
X137259628Y-96315601D02*
X137202485Y-96258458D01*
X137202485Y-96258458D02*
X137145342Y-96144173D01*
X137145342Y-96144173D02*
X137145342Y-95858458D01*
X137145342Y-95858458D02*
X137202485Y-95687030D01*
X137145342Y-95344173D02*
X137145342Y-94658459D01*
X138345342Y-95001316D02*
X137145342Y-95001316D01*
D11*
X128874435Y-125106028D02*
X128017292Y-125106028D01*
X128445863Y-125106028D02*
X128445863Y-123606028D01*
X128445863Y-123606028D02*
X128303006Y-123820314D01*
X128303006Y-123820314D02*
X128160149Y-123963171D01*
X128160149Y-123963171D02*
X128017292Y-124034600D01*
X163103006Y-123506028D02*
X162388720Y-123506028D01*
X162388720Y-123506028D02*
X162317292Y-124220314D01*
X162317292Y-124220314D02*
X162388720Y-124148885D01*
X162388720Y-124148885D02*
X162531578Y-124077457D01*
X162531578Y-124077457D02*
X162888720Y-124077457D01*
X162888720Y-124077457D02*
X163031578Y-124148885D01*
X163031578Y-124148885D02*
X163103006Y-124220314D01*
X163103006Y-124220314D02*
X163174435Y-124363171D01*
X163174435Y-124363171D02*
X163174435Y-124720314D01*
X163174435Y-124720314D02*
X163103006Y-124863171D01*
X163103006Y-124863171D02*
X163031578Y-124934600D01*
X163031578Y-124934600D02*
X162888720Y-125006028D01*
X162888720Y-125006028D02*
X162531578Y-125006028D01*
X162531578Y-125006028D02*
X162388720Y-124934600D01*
X162388720Y-124934600D02*
X162317292Y-124863171D01*
X113988720Y-94606028D02*
X113988720Y-93106028D01*
X113988720Y-93820314D02*
X114845863Y-93820314D01*
X114845863Y-94606028D02*
X114845863Y-93106028D01*
X115560149Y-93820314D02*
X116060149Y-93820314D01*
X116274435Y-94606028D02*
X115560149Y-94606028D01*
X115560149Y-94606028D02*
X115560149Y-93106028D01*
X115560149Y-93106028D02*
X116274435Y-93106028D01*
X116845864Y-94177457D02*
X117560150Y-94177457D01*
X116703007Y-94606028D02*
X117203007Y-93106028D01*
X117203007Y-93106028D02*
X117703007Y-94606028D01*
X117988721Y-93106028D02*
X118845864Y-93106028D01*
X118417292Y-94606028D02*
X118417292Y-93106028D01*
X119274435Y-93248885D02*
X119345863Y-93177457D01*
X119345863Y-93177457D02*
X119488721Y-93106028D01*
X119488721Y-93106028D02*
X119845863Y-93106028D01*
X119845863Y-93106028D02*
X119988721Y-93177457D01*
X119988721Y-93177457D02*
X120060149Y-93248885D01*
X120060149Y-93248885D02*
X120131578Y-93391742D01*
X120131578Y-93391742D02*
X120131578Y-93534600D01*
X120131578Y-93534600D02*
X120060149Y-93748885D01*
X120060149Y-93748885D02*
X119203006Y-94606028D01*
X119203006Y-94606028D02*
X120131578Y-94606028D01*
D12*
X118640663Y-119980333D02*
X120164473Y-119980333D01*
X119402568Y-120742238D02*
X119402568Y-119218428D01*
D10*
X146045342Y-98029887D02*
X146045342Y-97287030D01*
X146045342Y-97287030D02*
X146502485Y-97687030D01*
X146502485Y-97687030D02*
X146502485Y-97515601D01*
X146502485Y-97515601D02*
X146559628Y-97401316D01*
X146559628Y-97401316D02*
X146616771Y-97344173D01*
X146616771Y-97344173D02*
X146731057Y-97287030D01*
X146731057Y-97287030D02*
X147016771Y-97287030D01*
X147016771Y-97287030D02*
X147131057Y-97344173D01*
X147131057Y-97344173D02*
X147188200Y-97401316D01*
X147188200Y-97401316D02*
X147245342Y-97515601D01*
X147245342Y-97515601D02*
X147245342Y-97858458D01*
X147245342Y-97858458D02*
X147188200Y-97972744D01*
X147188200Y-97972744D02*
X147131057Y-98029887D01*
X146045342Y-96944173D02*
X147245342Y-96544173D01*
X147245342Y-96544173D02*
X146045342Y-96144173D01*
X146045342Y-95858459D02*
X146045342Y-95115602D01*
X146045342Y-95115602D02*
X146502485Y-95515602D01*
X146502485Y-95515602D02*
X146502485Y-95344173D01*
X146502485Y-95344173D02*
X146559628Y-95229888D01*
X146559628Y-95229888D02*
X146616771Y-95172745D01*
X146616771Y-95172745D02*
X146731057Y-95115602D01*
X146731057Y-95115602D02*
X147016771Y-95115602D01*
X147016771Y-95115602D02*
X147131057Y-95172745D01*
X147131057Y-95172745D02*
X147188200Y-95229888D01*
X147188200Y-95229888D02*
X147245342Y-95344173D01*
X147245342Y-95344173D02*
X147245342Y-95687030D01*
X147245342Y-95687030D02*
X147188200Y-95801316D01*
X147188200Y-95801316D02*
X147131057Y-95858459D01*
D12*
X179640663Y-65980333D02*
X181164473Y-65980333D01*
X180402568Y-66742238D02*
X180402568Y-65218428D01*
D10*
X150927255Y-88959628D02*
X150984398Y-88902485D01*
X150984398Y-88902485D02*
X151098684Y-88845342D01*
X151098684Y-88845342D02*
X151384398Y-88845342D01*
X151384398Y-88845342D02*
X151498684Y-88902485D01*
X151498684Y-88902485D02*
X151555826Y-88959628D01*
X151555826Y-88959628D02*
X151612969Y-89073914D01*
X151612969Y-89073914D02*
X151612969Y-89188200D01*
X151612969Y-89188200D02*
X151555826Y-89359628D01*
X151555826Y-89359628D02*
X150870112Y-90045342D01*
X150870112Y-90045342D02*
X151612969Y-90045342D01*
X152641541Y-89245342D02*
X152641541Y-90045342D01*
X152355826Y-88788200D02*
X152070112Y-89645342D01*
X152070112Y-89645342D02*
X152812969Y-89645342D01*
X153098683Y-88845342D02*
X153498683Y-90045342D01*
X153498683Y-90045342D02*
X153898683Y-88845342D01*
D12*
X118640663Y-103980333D02*
X120164473Y-103980333D01*
X119402568Y-104742238D02*
X119402568Y-103218428D01*
X118640663Y-66980333D02*
X120164473Y-66980333D01*
X119402568Y-67742238D02*
X119402568Y-66218428D01*
D10*
X152745342Y-60115601D02*
X153716771Y-60115601D01*
X153716771Y-60115601D02*
X153831057Y-60058458D01*
X153831057Y-60058458D02*
X153888200Y-60001316D01*
X153888200Y-60001316D02*
X153945342Y-59887030D01*
X153945342Y-59887030D02*
X153945342Y-59658458D01*
X153945342Y-59658458D02*
X153888200Y-59544173D01*
X153888200Y-59544173D02*
X153831057Y-59487030D01*
X153831057Y-59487030D02*
X153716771Y-59429887D01*
X153716771Y-59429887D02*
X152745342Y-59429887D01*
X153888200Y-58915601D02*
X153945342Y-58744173D01*
X153945342Y-58744173D02*
X153945342Y-58458458D01*
X153945342Y-58458458D02*
X153888200Y-58344173D01*
X153888200Y-58344173D02*
X153831057Y-58287030D01*
X153831057Y-58287030D02*
X153716771Y-58229887D01*
X153716771Y-58229887D02*
X153602485Y-58229887D01*
X153602485Y-58229887D02*
X153488200Y-58287030D01*
X153488200Y-58287030D02*
X153431057Y-58344173D01*
X153431057Y-58344173D02*
X153373914Y-58458458D01*
X153373914Y-58458458D02*
X153316771Y-58687030D01*
X153316771Y-58687030D02*
X153259628Y-58801315D01*
X153259628Y-58801315D02*
X153202485Y-58858458D01*
X153202485Y-58858458D02*
X153088200Y-58915601D01*
X153088200Y-58915601D02*
X152973914Y-58915601D01*
X152973914Y-58915601D02*
X152859628Y-58858458D01*
X152859628Y-58858458D02*
X152802485Y-58801315D01*
X152802485Y-58801315D02*
X152745342Y-58687030D01*
X152745342Y-58687030D02*
X152745342Y-58401315D01*
X152745342Y-58401315D02*
X152802485Y-58229887D01*
X153316771Y-57315601D02*
X153373914Y-57144173D01*
X153373914Y-57144173D02*
X153431057Y-57087030D01*
X153431057Y-57087030D02*
X153545342Y-57029887D01*
X153545342Y-57029887D02*
X153716771Y-57029887D01*
X153716771Y-57029887D02*
X153831057Y-57087030D01*
X153831057Y-57087030D02*
X153888200Y-57144173D01*
X153888200Y-57144173D02*
X153945342Y-57258458D01*
X153945342Y-57258458D02*
X153945342Y-57715601D01*
X153945342Y-57715601D02*
X152745342Y-57715601D01*
X152745342Y-57715601D02*
X152745342Y-57315601D01*
X152745342Y-57315601D02*
X152802485Y-57201316D01*
X152802485Y-57201316D02*
X152859628Y-57144173D01*
X152859628Y-57144173D02*
X152973914Y-57087030D01*
X152973914Y-57087030D02*
X153088200Y-57087030D01*
X153088200Y-57087030D02*
X153202485Y-57144173D01*
X153202485Y-57144173D02*
X153259628Y-57201316D01*
X153259628Y-57201316D02*
X153316771Y-57315601D01*
X153316771Y-57315601D02*
X153316771Y-57715601D01*
X154059628Y-56801316D02*
X154059628Y-55887030D01*
X153316771Y-55601315D02*
X153316771Y-55201315D01*
X153945342Y-55029887D02*
X153945342Y-55601315D01*
X153945342Y-55601315D02*
X152745342Y-55601315D01*
X152745342Y-55601315D02*
X152745342Y-55029887D01*
X153945342Y-54515601D02*
X152745342Y-54515601D01*
X152745342Y-54515601D02*
X153945342Y-53829887D01*
X153945342Y-53829887D02*
X152745342Y-53829887D01*
X161142969Y-99382485D02*
X161028684Y-99325342D01*
X161028684Y-99325342D02*
X160857255Y-99325342D01*
X160857255Y-99325342D02*
X160685826Y-99382485D01*
X160685826Y-99382485D02*
X160571541Y-99496771D01*
X160571541Y-99496771D02*
X160514398Y-99611057D01*
X160514398Y-99611057D02*
X160457255Y-99839628D01*
X160457255Y-99839628D02*
X160457255Y-100011057D01*
X160457255Y-100011057D02*
X160514398Y-100239628D01*
X160514398Y-100239628D02*
X160571541Y-100353914D01*
X160571541Y-100353914D02*
X160685826Y-100468200D01*
X160685826Y-100468200D02*
X160857255Y-100525342D01*
X160857255Y-100525342D02*
X160971541Y-100525342D01*
X160971541Y-100525342D02*
X161142969Y-100468200D01*
X161142969Y-100468200D02*
X161200112Y-100411057D01*
X161200112Y-100411057D02*
X161200112Y-100011057D01*
X161200112Y-100011057D02*
X160971541Y-100011057D01*
X161714398Y-100525342D02*
X161714398Y-99325342D01*
X161714398Y-99325342D02*
X162400112Y-100525342D01*
X162400112Y-100525342D02*
X162400112Y-99325342D01*
X162971541Y-100525342D02*
X162971541Y-99325342D01*
X162971541Y-99325342D02*
X163257255Y-99325342D01*
X163257255Y-99325342D02*
X163428684Y-99382485D01*
X163428684Y-99382485D02*
X163542969Y-99496771D01*
X163542969Y-99496771D02*
X163600112Y-99611057D01*
X163600112Y-99611057D02*
X163657255Y-99839628D01*
X163657255Y-99839628D02*
X163657255Y-100011057D01*
X163657255Y-100011057D02*
X163600112Y-100239628D01*
X163600112Y-100239628D02*
X163542969Y-100353914D01*
X163542969Y-100353914D02*
X163428684Y-100468200D01*
X163428684Y-100468200D02*
X163257255Y-100525342D01*
X163257255Y-100525342D02*
X162971541Y-100525342D01*
D11*
X146377457Y-117725564D02*
X146306028Y-117868422D01*
X146306028Y-117868422D02*
X146306028Y-118082707D01*
X146306028Y-118082707D02*
X146377457Y-118296993D01*
X146377457Y-118296993D02*
X146520314Y-118439850D01*
X146520314Y-118439850D02*
X146663171Y-118511279D01*
X146663171Y-118511279D02*
X146948885Y-118582707D01*
X146948885Y-118582707D02*
X147163171Y-118582707D01*
X147163171Y-118582707D02*
X147448885Y-118511279D01*
X147448885Y-118511279D02*
X147591742Y-118439850D01*
X147591742Y-118439850D02*
X147734600Y-118296993D01*
X147734600Y-118296993D02*
X147806028Y-118082707D01*
X147806028Y-118082707D02*
X147806028Y-117939850D01*
X147806028Y-117939850D02*
X147734600Y-117725564D01*
X147734600Y-117725564D02*
X147663171Y-117654136D01*
X147663171Y-117654136D02*
X147163171Y-117654136D01*
X147163171Y-117654136D02*
X147163171Y-117939850D01*
X147806028Y-117011279D02*
X146306028Y-117011279D01*
X146306028Y-117011279D02*
X147806028Y-116154136D01*
X147806028Y-116154136D02*
X146306028Y-116154136D01*
X147806028Y-115439850D02*
X146306028Y-115439850D01*
X146306028Y-115439850D02*
X146306028Y-115082707D01*
X146306028Y-115082707D02*
X146377457Y-114868421D01*
X146377457Y-114868421D02*
X146520314Y-114725564D01*
X146520314Y-114725564D02*
X146663171Y-114654135D01*
X146663171Y-114654135D02*
X146948885Y-114582707D01*
X146948885Y-114582707D02*
X147163171Y-114582707D01*
X147163171Y-114582707D02*
X147448885Y-114654135D01*
X147448885Y-114654135D02*
X147591742Y-114725564D01*
X147591742Y-114725564D02*
X147734600Y-114868421D01*
X147734600Y-114868421D02*
X147806028Y-115082707D01*
X147806028Y-115082707D02*
X147806028Y-115439850D01*
X179588720Y-94126028D02*
X179588720Y-92626028D01*
X179588720Y-93340314D02*
X180445863Y-93340314D01*
X180445863Y-94126028D02*
X180445863Y-92626028D01*
X181160149Y-93340314D02*
X181660149Y-93340314D01*
X181874435Y-94126028D02*
X181160149Y-94126028D01*
X181160149Y-94126028D02*
X181160149Y-92626028D01*
X181160149Y-92626028D02*
X181874435Y-92626028D01*
X182445864Y-93697457D02*
X183160150Y-93697457D01*
X182303007Y-94126028D02*
X182803007Y-92626028D01*
X182803007Y-92626028D02*
X183303007Y-94126028D01*
X183588721Y-92626028D02*
X184445864Y-92626028D01*
X184017292Y-94126028D02*
X184017292Y-92626028D01*
X185588721Y-92626028D02*
X185303006Y-92626028D01*
X185303006Y-92626028D02*
X185160149Y-92697457D01*
X185160149Y-92697457D02*
X185088721Y-92768885D01*
X185088721Y-92768885D02*
X184945863Y-92983171D01*
X184945863Y-92983171D02*
X184874435Y-93268885D01*
X184874435Y-93268885D02*
X184874435Y-93840314D01*
X184874435Y-93840314D02*
X184945863Y-93983171D01*
X184945863Y-93983171D02*
X185017292Y-94054600D01*
X185017292Y-94054600D02*
X185160149Y-94126028D01*
X185160149Y-94126028D02*
X185445863Y-94126028D01*
X185445863Y-94126028D02*
X185588721Y-94054600D01*
X185588721Y-94054600D02*
X185660149Y-93983171D01*
X185660149Y-93983171D02*
X185731578Y-93840314D01*
X185731578Y-93840314D02*
X185731578Y-93483171D01*
X185731578Y-93483171D02*
X185660149Y-93340314D01*
X185660149Y-93340314D02*
X185588721Y-93268885D01*
X185588721Y-93268885D02*
X185445863Y-93197457D01*
X185445863Y-93197457D02*
X185160149Y-93197457D01*
X185160149Y-93197457D02*
X185017292Y-93268885D01*
X185017292Y-93268885D02*
X184945863Y-93340314D01*
X184945863Y-93340314D02*
X184874435Y-93483171D01*
X154631578Y-124006028D02*
X154631578Y-125006028D01*
X154274435Y-123434600D02*
X153917292Y-124506028D01*
X153917292Y-124506028D02*
X154845863Y-124506028D01*
D12*
X118640663Y-50980333D02*
X120164473Y-50980333D01*
X119402568Y-51742238D02*
X119402568Y-50218428D01*
X179640663Y-49980333D02*
X181164473Y-49980333D01*
X180402568Y-50742238D02*
X180402568Y-49218428D01*
D11*
X136817292Y-123648885D02*
X136888720Y-123577457D01*
X136888720Y-123577457D02*
X137031578Y-123506028D01*
X137031578Y-123506028D02*
X137388720Y-123506028D01*
X137388720Y-123506028D02*
X137531578Y-123577457D01*
X137531578Y-123577457D02*
X137603006Y-123648885D01*
X137603006Y-123648885D02*
X137674435Y-123791742D01*
X137674435Y-123791742D02*
X137674435Y-123934600D01*
X137674435Y-123934600D02*
X137603006Y-124148885D01*
X137603006Y-124148885D02*
X136745863Y-125006028D01*
X136745863Y-125006028D02*
X137674435Y-125006028D01*
X113988720Y-110626028D02*
X113988720Y-109126028D01*
X113988720Y-109840314D02*
X114845863Y-109840314D01*
X114845863Y-110626028D02*
X114845863Y-109126028D01*
X115560149Y-109840314D02*
X116060149Y-109840314D01*
X116274435Y-110626028D02*
X115560149Y-110626028D01*
X115560149Y-110626028D02*
X115560149Y-109126028D01*
X115560149Y-109126028D02*
X116274435Y-109126028D01*
X116845864Y-110197457D02*
X117560150Y-110197457D01*
X116703007Y-110626028D02*
X117203007Y-109126028D01*
X117203007Y-109126028D02*
X117703007Y-110626028D01*
X117988721Y-109126028D02*
X118845864Y-109126028D01*
X118417292Y-110626028D02*
X118417292Y-109126028D01*
X119203006Y-109126028D02*
X120131578Y-109126028D01*
X120131578Y-109126028D02*
X119631578Y-109697457D01*
X119631578Y-109697457D02*
X119845863Y-109697457D01*
X119845863Y-109697457D02*
X119988721Y-109768885D01*
X119988721Y-109768885D02*
X120060149Y-109840314D01*
X120060149Y-109840314D02*
X120131578Y-109983171D01*
X120131578Y-109983171D02*
X120131578Y-110340314D01*
X120131578Y-110340314D02*
X120060149Y-110483171D01*
X120060149Y-110483171D02*
X119988721Y-110554600D01*
X119988721Y-110554600D02*
X119845863Y-110626028D01*
X119845863Y-110626028D02*
X119417292Y-110626028D01*
X119417292Y-110626028D02*
X119274435Y-110554600D01*
X119274435Y-110554600D02*
X119203006Y-110483171D01*
X171731578Y-123506028D02*
X171445863Y-123506028D01*
X171445863Y-123506028D02*
X171303006Y-123577457D01*
X171303006Y-123577457D02*
X171231578Y-123648885D01*
X171231578Y-123648885D02*
X171088720Y-123863171D01*
X171088720Y-123863171D02*
X171017292Y-124148885D01*
X171017292Y-124148885D02*
X171017292Y-124720314D01*
X171017292Y-124720314D02*
X171088720Y-124863171D01*
X171088720Y-124863171D02*
X171160149Y-124934600D01*
X171160149Y-124934600D02*
X171303006Y-125006028D01*
X171303006Y-125006028D02*
X171588720Y-125006028D01*
X171588720Y-125006028D02*
X171731578Y-124934600D01*
X171731578Y-124934600D02*
X171803006Y-124863171D01*
X171803006Y-124863171D02*
X171874435Y-124720314D01*
X171874435Y-124720314D02*
X171874435Y-124363171D01*
X171874435Y-124363171D02*
X171803006Y-124220314D01*
X171803006Y-124220314D02*
X171731578Y-124148885D01*
X171731578Y-124148885D02*
X171588720Y-124077457D01*
X171588720Y-124077457D02*
X171303006Y-124077457D01*
X171303006Y-124077457D02*
X171160149Y-124148885D01*
X171160149Y-124148885D02*
X171088720Y-124220314D01*
X171088720Y-124220314D02*
X171017292Y-124363171D01*
D10*
X160584398Y-105735342D02*
X160584398Y-104535342D01*
X161384398Y-104535342D02*
X161612970Y-104535342D01*
X161612970Y-104535342D02*
X161727255Y-104592485D01*
X161727255Y-104592485D02*
X161841541Y-104706771D01*
X161841541Y-104706771D02*
X161898684Y-104935342D01*
X161898684Y-104935342D02*
X161898684Y-105335342D01*
X161898684Y-105335342D02*
X161841541Y-105563914D01*
X161841541Y-105563914D02*
X161727255Y-105678200D01*
X161727255Y-105678200D02*
X161612970Y-105735342D01*
X161612970Y-105735342D02*
X161384398Y-105735342D01*
X161384398Y-105735342D02*
X161270113Y-105678200D01*
X161270113Y-105678200D02*
X161155827Y-105563914D01*
X161155827Y-105563914D02*
X161098684Y-105335342D01*
X161098684Y-105335342D02*
X161098684Y-104935342D01*
X161098684Y-104935342D02*
X161155827Y-104706771D01*
X161155827Y-104706771D02*
X161270113Y-104592485D01*
X161270113Y-104592485D02*
X161384398Y-104535342D01*
D11*
X179688720Y-41106028D02*
X179688720Y-39606028D01*
X179688720Y-40320314D02*
X180545863Y-40320314D01*
X180545863Y-41106028D02*
X180545863Y-39606028D01*
X181260149Y-40320314D02*
X181760149Y-40320314D01*
X181974435Y-41106028D02*
X181260149Y-41106028D01*
X181260149Y-41106028D02*
X181260149Y-39606028D01*
X181260149Y-39606028D02*
X181974435Y-39606028D01*
X182545864Y-40677457D02*
X183260150Y-40677457D01*
X182403007Y-41106028D02*
X182903007Y-39606028D01*
X182903007Y-39606028D02*
X183403007Y-41106028D01*
X183688721Y-39606028D02*
X184545864Y-39606028D01*
X184117292Y-41106028D02*
X184117292Y-39606028D01*
X185688721Y-40106028D02*
X185688721Y-41106028D01*
X185331578Y-39534600D02*
X184974435Y-40606028D01*
X184974435Y-40606028D02*
X185903006Y-40606028D01*
D10*
X185215476Y-121629819D02*
X185215476Y-120629819D01*
X185215476Y-120629819D02*
X185548809Y-121344104D01*
X185548809Y-121344104D02*
X185882142Y-120629819D01*
X185882142Y-120629819D02*
X185882142Y-121629819D01*
X186310714Y-120725057D02*
X186358333Y-120677438D01*
X186358333Y-120677438D02*
X186453571Y-120629819D01*
X186453571Y-120629819D02*
X186691666Y-120629819D01*
X186691666Y-120629819D02*
X186786904Y-120677438D01*
X186786904Y-120677438D02*
X186834523Y-120725057D01*
X186834523Y-120725057D02*
X186882142Y-120820295D01*
X186882142Y-120820295D02*
X186882142Y-120915533D01*
X186882142Y-120915533D02*
X186834523Y-121058390D01*
X186834523Y-121058390D02*
X186263095Y-121629819D01*
X186263095Y-121629819D02*
X186882142Y-121629819D01*
X185215476Y-50829819D02*
X185215476Y-49829819D01*
X185215476Y-49829819D02*
X185548809Y-50544104D01*
X185548809Y-50544104D02*
X185882142Y-49829819D01*
X185882142Y-49829819D02*
X185882142Y-50829819D01*
X186310714Y-49925057D02*
X186358333Y-49877438D01*
X186358333Y-49877438D02*
X186453571Y-49829819D01*
X186453571Y-49829819D02*
X186691666Y-49829819D01*
X186691666Y-49829819D02*
X186786904Y-49877438D01*
X186786904Y-49877438D02*
X186834523Y-49925057D01*
X186834523Y-49925057D02*
X186882142Y-50020295D01*
X186882142Y-50020295D02*
X186882142Y-50115533D01*
X186882142Y-50115533D02*
X186834523Y-50258390D01*
X186834523Y-50258390D02*
X186263095Y-50829819D01*
X186263095Y-50829819D02*
X186882142Y-50829819D01*
X113315476Y-50829819D02*
X113315476Y-49829819D01*
X113315476Y-49829819D02*
X113648809Y-50544104D01*
X113648809Y-50544104D02*
X113982142Y-49829819D01*
X113982142Y-49829819D02*
X113982142Y-50829819D01*
X114410714Y-49925057D02*
X114458333Y-49877438D01*
X114458333Y-49877438D02*
X114553571Y-49829819D01*
X114553571Y-49829819D02*
X114791666Y-49829819D01*
X114791666Y-49829819D02*
X114886904Y-49877438D01*
X114886904Y-49877438D02*
X114934523Y-49925057D01*
X114934523Y-49925057D02*
X114982142Y-50020295D01*
X114982142Y-50020295D02*
X114982142Y-50115533D01*
X114982142Y-50115533D02*
X114934523Y-50258390D01*
X114934523Y-50258390D02*
X114363095Y-50829819D01*
X114363095Y-50829819D02*
X114982142Y-50829819D01*
X113315476Y-121629819D02*
X113315476Y-120629819D01*
X113315476Y-120629819D02*
X113648809Y-121344104D01*
X113648809Y-121344104D02*
X113982142Y-120629819D01*
X113982142Y-120629819D02*
X113982142Y-121629819D01*
X114410714Y-120725057D02*
X114458333Y-120677438D01*
X114458333Y-120677438D02*
X114553571Y-120629819D01*
X114553571Y-120629819D02*
X114791666Y-120629819D01*
X114791666Y-120629819D02*
X114886904Y-120677438D01*
X114886904Y-120677438D02*
X114934523Y-120725057D01*
X114934523Y-120725057D02*
X114982142Y-120820295D01*
X114982142Y-120820295D02*
X114982142Y-120915533D01*
X114982142Y-120915533D02*
X114934523Y-121058390D01*
X114934523Y-121058390D02*
X114363095Y-121629819D01*
X114363095Y-121629819D02*
X114982142Y-121629819D01*
D13*
%TO.C,R11*%
X131211946Y-51075000D02*
X132666074Y-51075000D01*
X131211946Y-52895000D02*
X132666074Y-52895000D01*
%TO.C,C56*%
X178935000Y-128109420D02*
X178935000Y-128390580D01*
X179955000Y-128109420D02*
X179955000Y-128390580D01*
%TO.C,R22*%
X125961946Y-65825000D02*
X127416074Y-65825000D01*
X125961946Y-67645000D02*
X127416074Y-67645000D01*
%TO.C,C1*%
X163840580Y-95245000D02*
X163559420Y-95245000D01*
X163840580Y-96265000D02*
X163559420Y-96265000D01*
%TO.C,C42*%
X142327500Y-71590580D02*
X142327500Y-71309420D01*
X143347500Y-71590580D02*
X143347500Y-71309420D01*
%TO.C,D25*%
X155925000Y-72760000D02*
X158210000Y-72760000D01*
X158210000Y-71290000D02*
X155925000Y-71290000D01*
X158210000Y-72760000D02*
X158210000Y-71290000D01*
%TO.C,R7*%
X174177064Y-91845000D02*
X172722936Y-91845000D01*
X174177064Y-93665000D02*
X172722936Y-93665000D01*
%TO.C,F1*%
X147765000Y-48113748D02*
X147765000Y-50436252D01*
X151185000Y-48113748D02*
X151185000Y-50436252D01*
%TO.C,D14*%
X144150000Y-92740000D02*
X144150000Y-95025000D01*
X145620000Y-92740000D02*
X144150000Y-92740000D01*
X145620000Y-95025000D02*
X145620000Y-92740000D01*
%TO.C,J2*%
X113419010Y-41800000D02*
X119169010Y-41800000D01*
X113419010Y-43220000D02*
X113419010Y-41800000D01*
X113419010Y-47750000D02*
X113919010Y-47750000D01*
X113419010Y-49170000D02*
X113419010Y-47750000D01*
X113919010Y-43220000D02*
X113419010Y-43220000D01*
X113919010Y-47750000D02*
X113919010Y-43220000D01*
X119169010Y-49170000D02*
X113419010Y-49170000D01*
X120709010Y-49170000D02*
X121009010Y-49170000D01*
X121009010Y-41800000D02*
X120709010Y-41800000D01*
X121009010Y-49170000D02*
X121009010Y-41800000D01*
%TO.C,R77*%
X173781492Y-60182500D02*
X174256008Y-60182500D01*
X173781492Y-61227500D02*
X174256008Y-61227500D01*
%TO.C,D21*%
X172765000Y-127837500D02*
X172765000Y-127187500D01*
X172765000Y-127837500D02*
X172765000Y-128487500D01*
X175885000Y-127837500D02*
X175885000Y-127187500D01*
X175885000Y-127837500D02*
X175885000Y-128487500D01*
X172815000Y-129000000D02*
X172485000Y-129240000D01*
X172485000Y-128760000D01*
X172815000Y-129000000D01*
G36*
X172815000Y-129000000D02*
G01*
X172485000Y-129240000D01*
X172485000Y-128760000D01*
X172815000Y-129000000D01*
G37*
%TO.C,R83*%
X177422500Y-128437258D02*
X177422500Y-127962742D01*
X178467500Y-128437258D02*
X178467500Y-127962742D01*
%TO.C,R42*%
X132756074Y-117595000D02*
X131301946Y-117595000D01*
X132756074Y-119415000D02*
X131301946Y-119415000D01*
%TO.C,R78*%
X167472936Y-56045000D02*
X168927064Y-56045000D01*
X167472936Y-57865000D02*
X168927064Y-57865000D01*
D10*
%TO.C,SW1*%
X137185000Y-87565000D02*
X137185000Y-91625000D01*
X137185000Y-91625000D02*
X137845000Y-91625000D01*
X140265000Y-87565000D02*
X140265000Y-91625000D01*
X140265000Y-91625000D02*
X139605000Y-91625000D01*
D12*
X139625000Y-89595000D02*
G75*
G02*
X137825000Y-89595000I-900000J0D01*
G01*
X137825000Y-89595000D02*
G75*
G02*
X139625000Y-89595000I900000J0D01*
G01*
D13*
%TO.C,R44*%
X115490000Y-128371359D02*
X115490000Y-128678641D01*
X116250000Y-128371359D02*
X116250000Y-128678641D01*
D10*
%TO.C,Q8*%
X168280000Y-62135000D02*
X168280000Y-68825000D01*
X174250000Y-62135000D02*
X168280000Y-62135000D01*
X174250000Y-68825000D02*
X168280000Y-68825000D01*
D13*
%TO.C,C3*%
X143465000Y-74915580D02*
X143465000Y-74634420D01*
X144485000Y-74915580D02*
X144485000Y-74634420D01*
%TO.C,U10*%
X137166510Y-101745000D02*
X136366510Y-101745000D01*
X137166510Y-101745000D02*
X137966510Y-101745000D01*
X137166510Y-104865000D02*
X136366510Y-104865000D01*
X137166510Y-104865000D02*
X137966510Y-104865000D01*
X135866510Y-101795000D02*
X135626510Y-101465000D01*
X136106510Y-101465000D01*
X135866510Y-101795000D01*
G36*
X135866510Y-101795000D02*
G01*
X135626510Y-101465000D01*
X136106510Y-101465000D01*
X135866510Y-101795000D01*
G37*
D12*
%TO.C,J17*%
X111209010Y-69465000D02*
X111209010Y-89965000D01*
X111209010Y-89965000D02*
X127409010Y-89965000D01*
X127409010Y-69465000D02*
X111209010Y-69465000D01*
X127409010Y-89965000D02*
X127409010Y-69465000D01*
D13*
%TO.C,R33*%
X126051946Y-102845000D02*
X127506074Y-102845000D01*
X126051946Y-104665000D02*
X127506074Y-104665000D01*
%TO.C,R1*%
X173781492Y-97232500D02*
X174256008Y-97232500D01*
X173781492Y-98277500D02*
X174256008Y-98277500D01*
%TO.C,U8*%
X142203000Y-49737000D02*
X142203000Y-48937000D01*
X142203000Y-49737000D02*
X142203000Y-50537000D01*
X145323000Y-49737000D02*
X145323000Y-48937000D01*
X145323000Y-49737000D02*
X145323000Y-50537000D01*
X145603000Y-48677000D02*
X145273000Y-48437000D01*
X145603000Y-48197000D01*
X145603000Y-48677000D01*
G36*
X145603000Y-48677000D02*
G01*
X145273000Y-48437000D01*
X145603000Y-48197000D01*
X145603000Y-48677000D01*
G37*
%TO.C,C25*%
X156809420Y-49315000D02*
X157090580Y-49315000D01*
X156809420Y-50335000D02*
X157090580Y-50335000D01*
%TO.C,R43*%
X126051946Y-118845000D02*
X127506074Y-118845000D01*
X126051946Y-120665000D02*
X127506074Y-120665000D01*
%TO.C,C11*%
X152665000Y-64084420D02*
X152665000Y-64365580D01*
X153685000Y-64084420D02*
X153685000Y-64365580D01*
%TO.C,C23*%
X158990000Y-55865580D02*
X158990000Y-55584420D01*
X160010000Y-55865580D02*
X160010000Y-55584420D01*
%TO.C,R68*%
X174177064Y-38795000D02*
X172722936Y-38795000D01*
X174177064Y-40615000D02*
X172722936Y-40615000D01*
%TO.C,J13*%
X179130000Y-41270000D02*
X179130000Y-48640000D01*
X179130000Y-48640000D02*
X179430000Y-48640000D01*
X179430000Y-41270000D02*
X179130000Y-41270000D01*
X180970000Y-41270000D02*
X186720000Y-41270000D01*
X186220000Y-42690000D02*
X186220000Y-47220000D01*
X186220000Y-47220000D02*
X186720000Y-47220000D01*
X186720000Y-41270000D02*
X186720000Y-42690000D01*
X186720000Y-42690000D02*
X186220000Y-42690000D01*
X186720000Y-47220000D02*
X186720000Y-48640000D01*
X186720000Y-48640000D02*
X180970000Y-48640000D01*
%TO.C,C44*%
X152925000Y-128109420D02*
X152925000Y-128390580D01*
X153945000Y-128109420D02*
X153945000Y-128390580D01*
%TO.C,J3*%
X179130000Y-110320000D02*
X179130000Y-117690000D01*
X179130000Y-117690000D02*
X179430000Y-117690000D01*
X179430000Y-110320000D02*
X179130000Y-110320000D01*
X180970000Y-110320000D02*
X186720000Y-110320000D01*
X186220000Y-111740000D02*
X186220000Y-116270000D01*
X186220000Y-116270000D02*
X186720000Y-116270000D01*
X186720000Y-110320000D02*
X186720000Y-111740000D01*
X186720000Y-111740000D02*
X186220000Y-111740000D01*
X186720000Y-116270000D02*
X186720000Y-117690000D01*
X186720000Y-117690000D02*
X180970000Y-117690000D01*
%TO.C,R45*%
X119490000Y-128371359D02*
X119490000Y-128678641D01*
X120250000Y-128371359D02*
X120250000Y-128678641D01*
%TO.C,C38*%
X136388430Y-116245000D02*
X136669590Y-116245000D01*
X136388430Y-117265000D02*
X136669590Y-117265000D01*
%TO.C,C30*%
X145715000Y-57415580D02*
X145715000Y-57134420D01*
X146735000Y-57415580D02*
X146735000Y-57134420D01*
%TO.C,R17*%
X126357518Y-61212500D02*
X125883002Y-61212500D01*
X126357518Y-62257500D02*
X125883002Y-62257500D01*
%TO.C,U9*%
X142115000Y-55775000D02*
X142115000Y-54275000D01*
X142115000Y-55775000D02*
X142115000Y-57275000D01*
X145335000Y-55775000D02*
X145335000Y-54275000D01*
X145335000Y-55775000D02*
X145335000Y-57275000D01*
X145490000Y-53802500D02*
X145160000Y-53562500D01*
X145490000Y-53322500D01*
X145490000Y-53802500D01*
G36*
X145490000Y-53802500D02*
G01*
X145160000Y-53562500D01*
X145490000Y-53322500D01*
X145490000Y-53802500D01*
G37*
%TO.C,C40*%
X135965000Y-74634420D02*
X135965000Y-74915580D01*
X136985000Y-74634420D02*
X136985000Y-74915580D01*
%TO.C,C53*%
X135485000Y-128109420D02*
X135485000Y-128390580D01*
X136505000Y-128109420D02*
X136505000Y-128390580D01*
%TO.C,J14*%
X124435000Y-130515000D02*
X124435000Y-136485000D01*
X124435000Y-136485000D02*
X132055000Y-136485000D01*
X124445000Y-134225000D02*
X125195000Y-134225000D01*
X124445000Y-135725000D02*
X124445000Y-136475000D01*
X124445000Y-136475000D02*
X126245000Y-136475000D01*
X125195000Y-131275000D02*
X128245000Y-131275000D01*
X125195000Y-134225000D02*
X125195000Y-131275000D01*
X126245000Y-135725000D02*
X124445000Y-135725000D01*
X126245000Y-136475000D02*
X126245000Y-135725000D01*
X127745000Y-135725000D02*
X127745000Y-136475000D01*
X127745000Y-136475000D02*
X128745000Y-136475000D01*
X128745000Y-135725000D02*
X127745000Y-135725000D01*
X128745000Y-136475000D02*
X128745000Y-135725000D01*
X130245000Y-135725000D02*
X130245000Y-136475000D01*
X130245000Y-136475000D02*
X132045000Y-136475000D01*
X131095000Y-136775000D02*
X132345000Y-136775000D01*
X131295000Y-131275000D02*
X128245000Y-131275000D01*
X131295000Y-134225000D02*
X131295000Y-131275000D01*
X132045000Y-134225000D02*
X131295000Y-134225000D01*
X132045000Y-135725000D02*
X130245000Y-135725000D01*
X132045000Y-136475000D02*
X132045000Y-135725000D01*
X132055000Y-130515000D02*
X124435000Y-130515000D01*
X132055000Y-136485000D02*
X132055000Y-130515000D01*
X132345000Y-136775000D02*
X132345000Y-135525000D01*
%TO.C,J15*%
X159295000Y-130515000D02*
X159295000Y-136485000D01*
X159295000Y-136485000D02*
X166915000Y-136485000D01*
X159305000Y-134225000D02*
X160055000Y-134225000D01*
X159305000Y-135725000D02*
X159305000Y-136475000D01*
X159305000Y-136475000D02*
X161105000Y-136475000D01*
X160055000Y-131275000D02*
X163105000Y-131275000D01*
X160055000Y-134225000D02*
X160055000Y-131275000D01*
X161105000Y-135725000D02*
X159305000Y-135725000D01*
X161105000Y-136475000D02*
X161105000Y-135725000D01*
X162605000Y-135725000D02*
X162605000Y-136475000D01*
X162605000Y-136475000D02*
X163605000Y-136475000D01*
X163605000Y-135725000D02*
X162605000Y-135725000D01*
X163605000Y-136475000D02*
X163605000Y-135725000D01*
X165105000Y-135725000D02*
X165105000Y-136475000D01*
X165105000Y-136475000D02*
X166905000Y-136475000D01*
X165955000Y-136775000D02*
X167205000Y-136775000D01*
X166155000Y-131275000D02*
X163105000Y-131275000D01*
X166155000Y-134225000D02*
X166155000Y-131275000D01*
X166905000Y-134225000D02*
X166155000Y-134225000D01*
X166905000Y-135725000D02*
X165105000Y-135725000D01*
X166905000Y-136475000D02*
X166905000Y-135725000D01*
X166915000Y-130515000D02*
X159295000Y-130515000D01*
X166915000Y-136485000D02*
X166915000Y-130515000D01*
X167205000Y-136775000D02*
X167205000Y-135525000D01*
%TO.C,C21*%
X136298430Y-63225000D02*
X136579590Y-63225000D01*
X136298430Y-64245000D02*
X136579590Y-64245000D01*
%TO.C,J10*%
X115810000Y-130515000D02*
X115810000Y-136485000D01*
X115810000Y-136485000D02*
X123430000Y-136485000D01*
X115820000Y-134225000D02*
X116570000Y-134225000D01*
X115820000Y-135725000D02*
X115820000Y-136475000D01*
X115820000Y-136475000D02*
X117620000Y-136475000D01*
X116570000Y-131275000D02*
X119620000Y-131275000D01*
X116570000Y-134225000D02*
X116570000Y-131275000D01*
X117620000Y-135725000D02*
X115820000Y-135725000D01*
X117620000Y-136475000D02*
X117620000Y-135725000D01*
X119120000Y-135725000D02*
X119120000Y-136475000D01*
X119120000Y-136475000D02*
X120120000Y-136475000D01*
X120120000Y-135725000D02*
X119120000Y-135725000D01*
X120120000Y-136475000D02*
X120120000Y-135725000D01*
X121620000Y-135725000D02*
X121620000Y-136475000D01*
X121620000Y-136475000D02*
X123420000Y-136475000D01*
X122470000Y-136775000D02*
X123720000Y-136775000D01*
X122670000Y-131275000D02*
X119620000Y-131275000D01*
X122670000Y-134225000D02*
X122670000Y-131275000D01*
X123420000Y-134225000D02*
X122670000Y-134225000D01*
X123420000Y-135725000D02*
X121620000Y-135725000D01*
X123420000Y-136475000D02*
X123420000Y-135725000D01*
X123430000Y-130515000D02*
X115810000Y-130515000D01*
X123430000Y-136485000D02*
X123430000Y-130515000D01*
X123720000Y-136775000D02*
X123720000Y-135525000D01*
%TO.C,C7*%
X141215000Y-81384420D02*
X141215000Y-81665580D01*
X142235000Y-81384420D02*
X142235000Y-81665580D01*
%TO.C,R61*%
X124115000Y-128371359D02*
X124115000Y-128678641D01*
X124875000Y-128371359D02*
X124875000Y-128678641D01*
%TO.C,R87*%
X180315000Y-128371359D02*
X180315000Y-128678641D01*
X181075000Y-128371359D02*
X181075000Y-128678641D01*
%TO.C,C33*%
X138834420Y-80265000D02*
X139115580Y-80265000D01*
X138834420Y-81285000D02*
X139115580Y-81285000D01*
%TO.C,R16*%
X173781492Y-113232500D02*
X174256008Y-113232500D01*
X173781492Y-114277500D02*
X174256008Y-114277500D01*
%TO.C,C8*%
X136298430Y-47225000D02*
X136579590Y-47225000D01*
X136298430Y-48245000D02*
X136579590Y-48245000D01*
%TO.C,C54*%
X170265000Y-128109420D02*
X170265000Y-128390580D01*
X171285000Y-128109420D02*
X171285000Y-128390580D01*
%TO.C,U15*%
X163062500Y-54595000D02*
X162262500Y-54595000D01*
X163062500Y-54595000D02*
X163862500Y-54595000D01*
X163062500Y-57715000D02*
X162262500Y-57715000D01*
X163062500Y-57715000D02*
X163862500Y-57715000D01*
X164602500Y-57995000D02*
X164122500Y-57995000D01*
X164362500Y-57665000D01*
X164602500Y-57995000D01*
G36*
X164602500Y-57995000D02*
G01*
X164122500Y-57995000D01*
X164362500Y-57665000D01*
X164602500Y-57995000D01*
G37*
%TO.C,C14*%
X152840580Y-66515000D02*
X152559420Y-66515000D01*
X152840580Y-67535000D02*
X152559420Y-67535000D01*
%TO.C,D20*%
X137985000Y-127837500D02*
X137985000Y-127187500D01*
X137985000Y-127837500D02*
X137985000Y-128487500D01*
X141105000Y-127837500D02*
X141105000Y-127187500D01*
X141105000Y-127837500D02*
X141105000Y-128487500D01*
X138035000Y-129000000D02*
X137705000Y-129240000D01*
X137705000Y-128760000D01*
X138035000Y-129000000D01*
G36*
X138035000Y-129000000D02*
G01*
X137705000Y-129240000D01*
X137705000Y-128760000D01*
X138035000Y-129000000D01*
G37*
%TO.C,R32*%
X132756074Y-101595000D02*
X131301946Y-101595000D01*
X132756074Y-103415000D02*
X131301946Y-103415000D01*
%TO.C,C17*%
X144215000Y-63832836D02*
X144215000Y-63617164D01*
X144935000Y-63832836D02*
X144935000Y-63617164D01*
%TO.C,C15*%
X138484420Y-93215000D02*
X138765580Y-93215000D01*
X138484420Y-94235000D02*
X138765580Y-94235000D01*
%TO.C,R40*%
X151412500Y-128437258D02*
X151412500Y-127962742D01*
X152457500Y-128437258D02*
X152457500Y-127962742D01*
%TO.C,C27*%
X160590000Y-50359420D02*
X160590000Y-50640580D01*
X161610000Y-50359420D02*
X161610000Y-50640580D01*
%TO.C,R58*%
X125222500Y-128437258D02*
X125222500Y-127962742D01*
X126267500Y-128437258D02*
X126267500Y-127962742D01*
%TO.C,R12*%
X143195000Y-63878641D02*
X143195000Y-63571359D01*
X143955000Y-63878641D02*
X143955000Y-63571359D01*
%TO.C,C12*%
X151165000Y-64084420D02*
X151165000Y-64365580D01*
X152185000Y-64084420D02*
X152185000Y-64365580D01*
%TO.C,D24*%
X181435000Y-127837500D02*
X181435000Y-127187500D01*
X181435000Y-127837500D02*
X181435000Y-128487500D01*
X184555000Y-127837500D02*
X184555000Y-127187500D01*
X184555000Y-127837500D02*
X184555000Y-128487500D01*
X181485000Y-129000000D02*
X181155000Y-129240000D01*
X181155000Y-128760000D01*
X181485000Y-129000000D01*
G36*
X181485000Y-129000000D02*
G01*
X181155000Y-129240000D01*
X181155000Y-128760000D01*
X181485000Y-129000000D01*
G37*
%TO.C,U12*%
X138337500Y-69915000D02*
X137537500Y-69915000D01*
X138337500Y-69915000D02*
X139137500Y-69915000D01*
X138337500Y-73035000D02*
X137537500Y-73035000D01*
X138337500Y-73035000D02*
X139137500Y-73035000D01*
X137037500Y-69965000D02*
X136797500Y-69635000D01*
X137277500Y-69635000D01*
X137037500Y-69965000D01*
G36*
X137037500Y-69965000D02*
G01*
X136797500Y-69635000D01*
X137277500Y-69635000D01*
X137037500Y-69965000D01*
G37*
%TO.C,C26*%
X159090000Y-50384420D02*
X159090000Y-50665580D01*
X160110000Y-50384420D02*
X160110000Y-50665580D01*
%TO.C,C19*%
X163840580Y-111245000D02*
X163559420Y-111245000D01*
X163840580Y-112265000D02*
X163559420Y-112265000D01*
%TO.C,R84*%
X141585000Y-128371359D02*
X141585000Y-128678641D01*
X142345000Y-128371359D02*
X142345000Y-128678641D01*
%TO.C,R75*%
X167645000Y-128371359D02*
X167645000Y-128678641D01*
X168405000Y-128371359D02*
X168405000Y-128678641D01*
%TO.C,D9*%
X155425000Y-127837500D02*
X155425000Y-127187500D01*
X155425000Y-127837500D02*
X155425000Y-128487500D01*
X158545000Y-127837500D02*
X158545000Y-127187500D01*
X158545000Y-127837500D02*
X158545000Y-128487500D01*
X155475000Y-129000000D02*
X155145000Y-129240000D01*
X155145000Y-128760000D01*
X155475000Y-129000000D01*
G36*
X155475000Y-129000000D02*
G01*
X155145000Y-129240000D01*
X155145000Y-128760000D01*
X155475000Y-129000000D01*
G37*
D10*
%TO.C,Q1*%
X168280000Y-99185000D02*
X168280000Y-105875000D01*
X174250000Y-99185000D02*
X168280000Y-99185000D01*
X174250000Y-105875000D02*
X168280000Y-105875000D01*
D13*
%TO.C,R59*%
X160082500Y-128437258D02*
X160082500Y-127962742D01*
X161127500Y-128437258D02*
X161127500Y-127962742D01*
%TO.C,C55*%
X144205000Y-128109420D02*
X144205000Y-128390580D01*
X145225000Y-128109420D02*
X145225000Y-128390580D01*
%TO.C,R50*%
X131301946Y-120095000D02*
X132756074Y-120095000D01*
X131301946Y-121915000D02*
X132756074Y-121915000D01*
%TO.C,C4*%
X144965000Y-74915580D02*
X144965000Y-74634420D01*
X145985000Y-74915580D02*
X145985000Y-74634420D01*
%TO.C,C39*%
X138584420Y-73515000D02*
X138865580Y-73515000D01*
X138584420Y-74535000D02*
X138865580Y-74535000D01*
%TO.C,C51*%
X163840580Y-58195000D02*
X163559420Y-58195000D01*
X163840580Y-59215000D02*
X163559420Y-59215000D01*
%TO.C,R39*%
X116597500Y-128437258D02*
X116597500Y-127962742D01*
X117642500Y-128437258D02*
X117642500Y-127962742D01*
%TO.C,U6*%
X163062500Y-107645000D02*
X162262500Y-107645000D01*
X163062500Y-107645000D02*
X163862500Y-107645000D01*
X163062500Y-110765000D02*
X162262500Y-110765000D01*
X163062500Y-110765000D02*
X163862500Y-110765000D01*
X164602500Y-111045000D02*
X164122500Y-111045000D01*
X164362500Y-110715000D01*
X164602500Y-111045000D01*
G36*
X164602500Y-111045000D02*
G01*
X164122500Y-111045000D01*
X164362500Y-110715000D01*
X164602500Y-111045000D01*
G37*
%TO.C,C43*%
X118110000Y-128109420D02*
X118110000Y-128390580D01*
X119130000Y-128109420D02*
X119130000Y-128390580D01*
%TO.C,J19*%
X179130000Y-57270000D02*
X179130000Y-64640000D01*
X179130000Y-64640000D02*
X179430000Y-64640000D01*
X179430000Y-57270000D02*
X179130000Y-57270000D01*
X180970000Y-57270000D02*
X186720000Y-57270000D01*
X186220000Y-58690000D02*
X186220000Y-63220000D01*
X186220000Y-63220000D02*
X186720000Y-63220000D01*
X186720000Y-57270000D02*
X186720000Y-58690000D01*
X186720000Y-58690000D02*
X186220000Y-58690000D01*
X186720000Y-63220000D02*
X186720000Y-64640000D01*
X186720000Y-64640000D02*
X180970000Y-64640000D01*
%TO.C,D5*%
X151085000Y-52425000D02*
X148425000Y-52425000D01*
X151085000Y-54125000D02*
X148425000Y-54125000D01*
X151085000Y-54125000D02*
X151085000Y-52425000D01*
%TO.C,C29*%
X140702500Y-57690580D02*
X140702500Y-57409420D01*
X141722500Y-57690580D02*
X141722500Y-57409420D01*
%TO.C,D13*%
X154890000Y-94737500D02*
X154890000Y-97022500D01*
X154890000Y-97022500D02*
X156360000Y-97022500D01*
X156360000Y-97022500D02*
X156360000Y-94737500D01*
%TO.C,D8*%
X120610000Y-127837500D02*
X120610000Y-127187500D01*
X120610000Y-127837500D02*
X120610000Y-128487500D01*
X123730000Y-127837500D02*
X123730000Y-127187500D01*
X123730000Y-127837500D02*
X123730000Y-128487500D01*
X120660000Y-129000000D02*
X120330000Y-129240000D01*
X120330000Y-128760000D01*
X120660000Y-129000000D01*
G36*
X120660000Y-129000000D02*
G01*
X120330000Y-129240000D01*
X120330000Y-128760000D01*
X120660000Y-129000000D01*
G37*
%TO.C,C47*%
X163840580Y-42195000D02*
X163559420Y-42195000D01*
X163840580Y-43215000D02*
X163559420Y-43215000D01*
%TO.C,U13*%
X137166510Y-117745000D02*
X136366510Y-117745000D01*
X137166510Y-117745000D02*
X137966510Y-117745000D01*
X137166510Y-120865000D02*
X136366510Y-120865000D01*
X137166510Y-120865000D02*
X137966510Y-120865000D01*
X135866510Y-117795000D02*
X135626510Y-117465000D01*
X136106510Y-117465000D01*
X135866510Y-117795000D01*
G36*
X135866510Y-117795000D02*
G01*
X135626510Y-117465000D01*
X136106510Y-117465000D01*
X135866510Y-117795000D01*
G37*
%TO.C,C36*%
X142715000Y-81690580D02*
X142715000Y-81409420D01*
X143735000Y-81690580D02*
X143735000Y-81409420D01*
%TO.C,C9*%
X136298430Y-45725000D02*
X136579590Y-45725000D01*
X136298430Y-46745000D02*
X136579590Y-46745000D01*
%TO.C,C28*%
X157407836Y-60265000D02*
X157192164Y-60265000D01*
X157407836Y-60985000D02*
X157192164Y-60985000D01*
%TO.C,R27*%
X157420000Y-58971359D02*
X157420000Y-59278641D01*
X158180000Y-58971359D02*
X158180000Y-59278641D01*
%TO.C,D12*%
X154890000Y-91737500D02*
X154890000Y-94022500D01*
X154890000Y-94022500D02*
X156360000Y-94022500D01*
X156360000Y-94022500D02*
X156360000Y-91737500D01*
%TO.C,R6*%
X132666074Y-48575000D02*
X131211946Y-48575000D01*
X132666074Y-50395000D02*
X131211946Y-50395000D01*
%TO.C,R8*%
X125961946Y-49825000D02*
X127416074Y-49825000D01*
X125961946Y-51645000D02*
X127416074Y-51645000D01*
%TO.C,C24*%
X156809420Y-51015000D02*
X157090580Y-51015000D01*
X156809420Y-52035000D02*
X157090580Y-52035000D01*
%TO.C,R5*%
X167472936Y-93095000D02*
X168927064Y-93095000D01*
X167472936Y-94915000D02*
X168927064Y-94915000D01*
%TO.C,J22*%
X141905000Y-130515000D02*
X141905000Y-136485000D01*
X141905000Y-136485000D02*
X149525000Y-136485000D01*
X141915000Y-134225000D02*
X142665000Y-134225000D01*
X141915000Y-135725000D02*
X141915000Y-136475000D01*
X141915000Y-136475000D02*
X143715000Y-136475000D01*
X142665000Y-131275000D02*
X145715000Y-131275000D01*
X142665000Y-134225000D02*
X142665000Y-131275000D01*
X143715000Y-135725000D02*
X141915000Y-135725000D01*
X143715000Y-136475000D02*
X143715000Y-135725000D01*
X145215000Y-135725000D02*
X145215000Y-136475000D01*
X145215000Y-136475000D02*
X146215000Y-136475000D01*
X146215000Y-135725000D02*
X145215000Y-135725000D01*
X146215000Y-136475000D02*
X146215000Y-135725000D01*
X147715000Y-135725000D02*
X147715000Y-136475000D01*
X147715000Y-136475000D02*
X149515000Y-136475000D01*
X148565000Y-136775000D02*
X149815000Y-136775000D01*
X148765000Y-131275000D02*
X145715000Y-131275000D01*
X148765000Y-134225000D02*
X148765000Y-131275000D01*
X149515000Y-134225000D02*
X148765000Y-134225000D01*
X149515000Y-135725000D02*
X147715000Y-135725000D01*
X149515000Y-136475000D02*
X149515000Y-135725000D01*
X149525000Y-130515000D02*
X141905000Y-130515000D01*
X149525000Y-136485000D02*
X149525000Y-130515000D01*
X149815000Y-136775000D02*
X149815000Y-135525000D01*
%TO.C,R21*%
X158520000Y-58971359D02*
X158520000Y-59278641D01*
X159280000Y-58971359D02*
X159280000Y-59278641D01*
%TO.C,R29*%
X149460436Y-54865000D02*
X150914564Y-54865000D01*
X149460436Y-56685000D02*
X150914564Y-56685000D01*
%TO.C,R62*%
X128115000Y-128371359D02*
X128115000Y-128678641D01*
X128875000Y-128371359D02*
X128875000Y-128678641D01*
%TO.C,R30*%
X126447518Y-98232500D02*
X125973002Y-98232500D01*
X126447518Y-99277500D02*
X125973002Y-99277500D01*
%TO.C,C5*%
X158059420Y-81515000D02*
X158340580Y-81515000D01*
X158059420Y-82535000D02*
X158340580Y-82535000D01*
%TO.C,C16*%
X141807836Y-74090000D02*
X141592164Y-74090000D01*
X141807836Y-74810000D02*
X141592164Y-74810000D01*
%TO.C,R23*%
X168927064Y-106595000D02*
X167472936Y-106595000D01*
X168927064Y-108415000D02*
X167472936Y-108415000D01*
%TO.C,R88*%
X153487742Y-71502500D02*
X153962258Y-71502500D01*
X153487742Y-72547500D02*
X153962258Y-72547500D01*
D10*
%TO.C,Q2*%
X125889010Y-37615000D02*
X131859010Y-37615000D01*
X125889010Y-44305000D02*
X131859010Y-44305000D01*
X131859010Y-44305000D02*
X131859010Y-37615000D01*
%TO.C,SW2*%
X140435000Y-87565000D02*
X141095000Y-87565000D01*
X140435000Y-91625000D02*
X140435000Y-87565000D01*
X143515000Y-87565000D02*
X142855000Y-87565000D01*
X143515000Y-91625000D02*
X143515000Y-87565000D01*
D12*
X142875000Y-89595000D02*
G75*
G02*
X141075000Y-89595000I-900000J0D01*
G01*
X141075000Y-89595000D02*
G75*
G02*
X142875000Y-89595000I900000J0D01*
G01*
D13*
%TO.C,R71*%
X133972500Y-128437258D02*
X133972500Y-127962742D01*
X135017500Y-128437258D02*
X135017500Y-127962742D01*
%TO.C,TP1*%
X142300000Y-111210000D02*
X145500000Y-111210000D01*
X142300000Y-122110000D02*
X142300000Y-111210000D01*
X145500000Y-111210000D02*
X145500000Y-122110000D01*
X145500000Y-122110000D02*
X142300000Y-122110000D01*
%TO.C,C46*%
X163840580Y-43695000D02*
X163559420Y-43695000D01*
X163840580Y-44715000D02*
X163559420Y-44715000D01*
%TO.C,R2*%
X126357518Y-45212500D02*
X125883002Y-45212500D01*
X126357518Y-46257500D02*
X125883002Y-46257500D01*
%TO.C,R31*%
X149497936Y-57365000D02*
X150952064Y-57365000D01*
X149497936Y-59185000D02*
X150952064Y-59185000D01*
%TO.C,U11*%
X139500000Y-83215000D02*
X138700000Y-83215000D01*
X139500000Y-83215000D02*
X140300000Y-83215000D01*
X139500000Y-86335000D02*
X138700000Y-86335000D01*
X139500000Y-86335000D02*
X140300000Y-86335000D01*
X138200000Y-83265000D02*
X137960000Y-82935000D01*
X138440000Y-82935000D01*
X138200000Y-83265000D01*
G36*
X138200000Y-83265000D02*
G01*
X137960000Y-82935000D01*
X138440000Y-82935000D01*
X138200000Y-83265000D01*
G37*
D10*
%TO.C,Q7*%
X168280000Y-46135000D02*
X168280000Y-52825000D01*
X174250000Y-46135000D02*
X168280000Y-46135000D01*
X174250000Y-52825000D02*
X168280000Y-52825000D01*
D13*
%TO.C,R19*%
X132666074Y-64575000D02*
X131211946Y-64575000D01*
X132666074Y-66395000D02*
X131211946Y-66395000D01*
%TO.C,C18*%
X141807836Y-78590000D02*
X141592164Y-78590000D01*
X141807836Y-79310000D02*
X141592164Y-79310000D01*
%TO.C,J20*%
X133185000Y-130515000D02*
X133185000Y-136485000D01*
X133185000Y-136485000D02*
X140805000Y-136485000D01*
X133195000Y-134225000D02*
X133945000Y-134225000D01*
X133195000Y-135725000D02*
X133195000Y-136475000D01*
X133195000Y-136475000D02*
X134995000Y-136475000D01*
X133945000Y-131275000D02*
X136995000Y-131275000D01*
X133945000Y-134225000D02*
X133945000Y-131275000D01*
X134995000Y-135725000D02*
X133195000Y-135725000D01*
X134995000Y-136475000D02*
X134995000Y-135725000D01*
X136495000Y-135725000D02*
X136495000Y-136475000D01*
X136495000Y-136475000D02*
X137495000Y-136475000D01*
X137495000Y-135725000D02*
X136495000Y-135725000D01*
X137495000Y-136475000D02*
X137495000Y-135725000D01*
X138995000Y-135725000D02*
X138995000Y-136475000D01*
X138995000Y-136475000D02*
X140795000Y-136475000D01*
X139845000Y-136775000D02*
X141095000Y-136775000D01*
X140045000Y-131275000D02*
X136995000Y-131275000D01*
X140045000Y-134225000D02*
X140045000Y-131275000D01*
X140795000Y-134225000D02*
X140045000Y-134225000D01*
X140795000Y-135725000D02*
X138995000Y-135725000D01*
X140795000Y-136475000D02*
X140795000Y-135725000D01*
X140805000Y-130515000D02*
X133185000Y-130515000D01*
X140805000Y-136485000D02*
X140805000Y-130515000D01*
X141095000Y-136775000D02*
X141095000Y-135525000D01*
%TO.C,D2*%
X128420260Y-46470000D02*
X130705260Y-46470000D01*
X130705260Y-45000000D02*
X128420260Y-45000000D01*
X130705260Y-46470000D02*
X130705260Y-45000000D01*
%TO.C,R15*%
X142195000Y-63878641D02*
X142195000Y-63571359D01*
X142955000Y-63878641D02*
X142955000Y-63571359D01*
%TO.C,R79*%
X174177064Y-54795000D02*
X172722936Y-54795000D01*
X174177064Y-56615000D02*
X172722936Y-56615000D01*
%TO.C,J11*%
X150625000Y-130515000D02*
X150625000Y-136485000D01*
X150625000Y-136485000D02*
X158245000Y-136485000D01*
X150635000Y-134225000D02*
X151385000Y-134225000D01*
X150635000Y-135725000D02*
X150635000Y-136475000D01*
X150635000Y-136475000D02*
X152435000Y-136475000D01*
X151385000Y-131275000D02*
X154435000Y-131275000D01*
X151385000Y-134225000D02*
X151385000Y-131275000D01*
X152435000Y-135725000D02*
X150635000Y-135725000D01*
X152435000Y-136475000D02*
X152435000Y-135725000D01*
X153935000Y-135725000D02*
X153935000Y-136475000D01*
X153935000Y-136475000D02*
X154935000Y-136475000D01*
X154935000Y-135725000D02*
X153935000Y-135725000D01*
X154935000Y-136475000D02*
X154935000Y-135725000D01*
X156435000Y-135725000D02*
X156435000Y-136475000D01*
X156435000Y-136475000D02*
X158235000Y-136475000D01*
X157285000Y-136775000D02*
X158535000Y-136775000D01*
X157485000Y-131275000D02*
X154435000Y-131275000D01*
X157485000Y-134225000D02*
X157485000Y-131275000D01*
X158235000Y-134225000D02*
X157485000Y-134225000D01*
X158235000Y-135725000D02*
X156435000Y-135725000D01*
X158235000Y-136475000D02*
X158235000Y-135725000D01*
X158245000Y-130515000D02*
X150625000Y-130515000D01*
X158245000Y-136485000D02*
X158245000Y-130515000D01*
X158535000Y-136775000D02*
X158535000Y-135525000D01*
%TO.C,L1*%
X154565000Y-62865000D02*
X155965000Y-62865000D01*
X154565000Y-70185000D02*
X154565000Y-62865000D01*
X155965000Y-70185000D02*
X154565000Y-70185000D01*
X159985000Y-62865000D02*
X161385000Y-62865000D01*
X161385000Y-62865000D02*
X161385000Y-70185000D01*
X161385000Y-70185000D02*
X159985000Y-70185000D01*
%TO.C,J4*%
X153475000Y-109225000D02*
X153475000Y-110475000D01*
X153475000Y-110475000D02*
X154725000Y-110475000D01*
X153765000Y-97565000D02*
X153765000Y-110185000D01*
X153765000Y-110185000D02*
X159735000Y-110185000D01*
X153775000Y-97575000D02*
X153775000Y-99375000D01*
X153775000Y-99375000D02*
X154525000Y-99375000D01*
X153775000Y-100875000D02*
X153775000Y-106875000D01*
X153775000Y-106875000D02*
X154525000Y-106875000D01*
X153775000Y-108375000D02*
X153775000Y-110175000D01*
X153775000Y-110175000D02*
X154525000Y-110175000D01*
X154525000Y-97575000D02*
X153775000Y-97575000D01*
X154525000Y-99375000D02*
X154525000Y-97575000D01*
X154525000Y-100875000D02*
X153775000Y-100875000D01*
X154525000Y-106875000D02*
X154525000Y-100875000D01*
X154525000Y-108375000D02*
X153775000Y-108375000D01*
X154525000Y-110175000D02*
X154525000Y-108375000D01*
X156025000Y-97575000D02*
X156025000Y-98325000D01*
X156025000Y-98325000D02*
X158975000Y-98325000D01*
X156025000Y-109425000D02*
X158975000Y-109425000D01*
X156025000Y-110175000D02*
X156025000Y-109425000D01*
X158975000Y-98325000D02*
X158975000Y-103875000D01*
X158975000Y-109425000D02*
X158975000Y-103875000D01*
X159735000Y-97565000D02*
X153765000Y-97565000D01*
X159735000Y-110185000D02*
X159735000Y-97565000D01*
%TO.C,U4*%
X147865000Y-75665000D02*
X147865000Y-75965000D01*
X147865000Y-82885000D02*
X147865000Y-82585000D01*
X148165000Y-75665000D02*
X147865000Y-75665000D01*
X148165000Y-82885000D02*
X147865000Y-82885000D01*
X154785000Y-75665000D02*
X155085000Y-75665000D01*
X154785000Y-82885000D02*
X155085000Y-82885000D01*
X155085000Y-75665000D02*
X155085000Y-75965000D01*
X155085000Y-82885000D02*
X155085000Y-82585000D01*
X147262500Y-75965000D02*
X146922500Y-75495000D01*
X147602500Y-75495000D01*
X147262500Y-75965000D01*
G36*
X147262500Y-75965000D02*
G01*
X146922500Y-75495000D01*
X147602500Y-75495000D01*
X147262500Y-75965000D01*
G37*
%TO.C,J1*%
X179130000Y-94320000D02*
X179130000Y-101690000D01*
X179130000Y-101690000D02*
X179430000Y-101690000D01*
X179430000Y-94320000D02*
X179130000Y-94320000D01*
X180970000Y-94320000D02*
X186720000Y-94320000D01*
X186220000Y-95740000D02*
X186220000Y-100270000D01*
X186220000Y-100270000D02*
X186720000Y-100270000D01*
X186720000Y-94320000D02*
X186720000Y-95740000D01*
X186720000Y-95740000D02*
X186220000Y-95740000D01*
X186720000Y-100270000D02*
X186720000Y-101690000D01*
X186720000Y-101690000D02*
X180970000Y-101690000D01*
D12*
%TO.C,F2*%
X127929010Y-71605000D02*
X127929010Y-87855000D01*
X127929010Y-87855000D02*
X134789010Y-87855000D01*
X134789010Y-71605000D02*
X127929010Y-71605000D01*
X134789010Y-87855000D02*
X134789010Y-71605000D01*
D10*
%TO.C,Q6*%
X125979010Y-106635000D02*
X131949010Y-106635000D01*
X125979010Y-113325000D02*
X131949010Y-113325000D01*
X131949010Y-113325000D02*
X131949010Y-106635000D01*
D13*
%TO.C,R80*%
X168927064Y-53545000D02*
X167472936Y-53545000D01*
X168927064Y-55365000D02*
X167472936Y-55365000D01*
%TO.C,Y1*%
X142760000Y-74990000D02*
X138640000Y-74990000D01*
X142760000Y-78410000D02*
X142760000Y-74990000D01*
%TO.C,C31*%
X136388430Y-100245000D02*
X136669590Y-100245000D01*
X136388430Y-101265000D02*
X136669590Y-101265000D01*
%TO.C,D19*%
X169433750Y-43970000D02*
X169433750Y-45440000D01*
X169433750Y-45440000D02*
X171718750Y-45440000D01*
X171718750Y-43970000D02*
X169433750Y-43970000D01*
%TO.C,C52*%
X163840580Y-59695000D02*
X163559420Y-59695000D01*
X163840580Y-60715000D02*
X163559420Y-60715000D01*
%TO.C,D11*%
X154890000Y-88700000D02*
X154890000Y-90985000D01*
X154890000Y-90985000D02*
X156360000Y-90985000D01*
X156360000Y-90985000D02*
X156360000Y-88700000D01*
D10*
%TO.C,Q4*%
X125889010Y-53615000D02*
X131859010Y-53615000D01*
X125889010Y-60305000D02*
X131859010Y-60305000D01*
X131859010Y-60305000D02*
X131859010Y-53615000D01*
D13*
%TO.C,R81*%
X174412258Y-57382500D02*
X173937742Y-57382500D01*
X174412258Y-58427500D02*
X173937742Y-58427500D01*
%TO.C,D1*%
X169433750Y-97020000D02*
X169433750Y-98490000D01*
X169433750Y-98490000D02*
X171718750Y-98490000D01*
X171718750Y-97020000D02*
X169433750Y-97020000D01*
%TO.C,C32*%
X136388430Y-98745000D02*
X136669590Y-98745000D01*
X136388430Y-99765000D02*
X136669590Y-99765000D01*
%TO.C,C48*%
X126735000Y-128109420D02*
X126735000Y-128390580D01*
X127755000Y-128109420D02*
X127755000Y-128390580D01*
%TO.C,R25*%
X174412258Y-110432500D02*
X173937742Y-110432500D01*
X174412258Y-111477500D02*
X173937742Y-111477500D01*
D10*
%TO.C,Q3*%
X168280000Y-115185000D02*
X168280000Y-121875000D01*
X174250000Y-115185000D02*
X168280000Y-115185000D01*
X174250000Y-121875000D02*
X168280000Y-121875000D01*
D13*
%TO.C,R73*%
X132865000Y-128371359D02*
X132865000Y-128678641D01*
X133625000Y-128371359D02*
X133625000Y-128678641D01*
%TO.C,R63*%
X158975000Y-128371359D02*
X158975000Y-128678641D01*
X159735000Y-128371359D02*
X159735000Y-128678641D01*
%TO.C,R56*%
X142862500Y-98862742D02*
X142862500Y-99337258D01*
X143907500Y-98862742D02*
X143907500Y-99337258D01*
%TO.C,U3*%
X137076510Y-48725000D02*
X136276510Y-48725000D01*
X137076510Y-48725000D02*
X137876510Y-48725000D01*
X137076510Y-51845000D02*
X136276510Y-51845000D01*
X137076510Y-51845000D02*
X137876510Y-51845000D01*
X135776510Y-48775000D02*
X135536510Y-48445000D01*
X136016510Y-48445000D01*
X135776510Y-48775000D01*
G36*
X135776510Y-48775000D02*
G01*
X135536510Y-48445000D01*
X136016510Y-48445000D01*
X135776510Y-48775000D01*
G37*
%TO.C,R85*%
X145585000Y-128371359D02*
X145585000Y-128678641D01*
X146345000Y-128371359D02*
X146345000Y-128678641D01*
%TO.C,C13*%
X152840580Y-68115000D02*
X152559420Y-68115000D01*
X152840580Y-69135000D02*
X152559420Y-69135000D01*
%TO.C,R86*%
X176315000Y-128371359D02*
X176315000Y-128678641D01*
X177075000Y-128371359D02*
X177075000Y-128678641D01*
%TO.C,R47*%
X154305000Y-128371359D02*
X154305000Y-128678641D01*
X155065000Y-128371359D02*
X155065000Y-128678641D01*
%TO.C,J6*%
X113509010Y-94820000D02*
X119259010Y-94820000D01*
X113509010Y-96240000D02*
X113509010Y-94820000D01*
X113509010Y-100770000D02*
X114009010Y-100770000D01*
X113509010Y-102190000D02*
X113509010Y-100770000D01*
X114009010Y-96240000D02*
X113509010Y-96240000D01*
X114009010Y-100770000D02*
X114009010Y-96240000D01*
X119259010Y-102190000D02*
X113509010Y-102190000D01*
X120799010Y-102190000D02*
X121099010Y-102190000D01*
X121099010Y-94820000D02*
X120799010Y-94820000D01*
X121099010Y-102190000D02*
X121099010Y-94820000D01*
%TO.C,R3*%
X143195000Y-65878641D02*
X143195000Y-65571359D01*
X143955000Y-65878641D02*
X143955000Y-65571359D01*
%TO.C,C49*%
X161595000Y-128109420D02*
X161595000Y-128390580D01*
X162615000Y-128109420D02*
X162615000Y-128390580D01*
%TO.C,R37*%
X125816752Y-101032500D02*
X126291268Y-101032500D01*
X125816752Y-102077500D02*
X126291268Y-102077500D01*
%TO.C,R10*%
X143802500Y-89312742D02*
X143802500Y-89787258D01*
X144847500Y-89312742D02*
X144847500Y-89787258D01*
%TO.C,R46*%
X150305000Y-128371359D02*
X150305000Y-128678641D01*
X151065000Y-128371359D02*
X151065000Y-128678641D01*
%TO.C,U1*%
X147225000Y-62665000D02*
X146425000Y-62665000D01*
X147225000Y-62665000D02*
X148025000Y-62665000D01*
X147225000Y-65785000D02*
X146425000Y-65785000D01*
X147225000Y-65785000D02*
X148025000Y-65785000D01*
X148765000Y-66065000D02*
X148285000Y-66065000D01*
X148525000Y-65735000D01*
X148765000Y-66065000D01*
G36*
X148765000Y-66065000D02*
G01*
X148285000Y-66065000D01*
X148525000Y-65735000D01*
X148765000Y-66065000D01*
G37*
%TO.C,U2*%
X163062500Y-91645000D02*
X162262500Y-91645000D01*
X163062500Y-91645000D02*
X163862500Y-91645000D01*
X163062500Y-94765000D02*
X162262500Y-94765000D01*
X163062500Y-94765000D02*
X163862500Y-94765000D01*
X164602500Y-95045000D02*
X164122500Y-95045000D01*
X164362500Y-94715000D01*
X164602500Y-95045000D01*
G36*
X164602500Y-95045000D02*
G01*
X164122500Y-95045000D01*
X164362500Y-94715000D01*
X164602500Y-95045000D01*
G37*
%TO.C,C41*%
X140847500Y-71590580D02*
X140847500Y-71309420D01*
X141867500Y-71590580D02*
X141867500Y-71309420D01*
%TO.C,R76*%
X171645000Y-128371359D02*
X171645000Y-128678641D01*
X172405000Y-128371359D02*
X172405000Y-128678641D01*
%TO.C,R13*%
X174412258Y-94432500D02*
X173937742Y-94432500D01*
X174412258Y-95477500D02*
X173937742Y-95477500D01*
%TO.C,R57*%
X173781492Y-44182500D02*
X174256008Y-44182500D01*
X173781492Y-45227500D02*
X174256008Y-45227500D01*
%TO.C,R28*%
X156420000Y-59278641D02*
X156420000Y-58971359D01*
X157180000Y-59278641D02*
X157180000Y-58971359D01*
%TO.C,J9*%
X113509010Y-110820000D02*
X119259010Y-110820000D01*
X113509010Y-112240000D02*
X113509010Y-110820000D01*
X113509010Y-116770000D02*
X114009010Y-116770000D01*
X113509010Y-118190000D02*
X113509010Y-116770000D01*
X114009010Y-112240000D02*
X113509010Y-112240000D01*
X114009010Y-116770000D02*
X114009010Y-112240000D01*
X119259010Y-118190000D02*
X113509010Y-118190000D01*
X120799010Y-118190000D02*
X121099010Y-118190000D01*
X121099010Y-110820000D02*
X120799010Y-110820000D01*
X121099010Y-118190000D02*
X121099010Y-110820000D01*
%TO.C,U5*%
X155340000Y-56025000D02*
X155340000Y-55225000D01*
X155340000Y-56025000D02*
X155340000Y-56825000D01*
X158460000Y-56025000D02*
X158460000Y-55225000D01*
X158460000Y-56025000D02*
X158460000Y-56825000D01*
X158740000Y-54965000D02*
X158410000Y-54725000D01*
X158740000Y-54485000D01*
X158740000Y-54965000D01*
G36*
X158740000Y-54965000D02*
G01*
X158410000Y-54725000D01*
X158740000Y-54485000D01*
X158740000Y-54965000D01*
G37*
%TO.C,C34*%
X138834420Y-81765000D02*
X139115580Y-81765000D01*
X138834420Y-82785000D02*
X139115580Y-82785000D01*
%TO.C,R38*%
X126447518Y-114232500D02*
X125973002Y-114232500D01*
X126447518Y-115277500D02*
X125973002Y-115277500D01*
D12*
%TO.C,F3*%
X165245000Y-71645000D02*
X165245000Y-87895000D01*
X165245000Y-87895000D02*
X172105000Y-87895000D01*
X172105000Y-71645000D02*
X165245000Y-71645000D01*
X172105000Y-87895000D02*
X172105000Y-71645000D01*
D13*
%TO.C,J23*%
X176635000Y-130515000D02*
X176635000Y-136485000D01*
X176635000Y-136485000D02*
X184255000Y-136485000D01*
X176645000Y-134225000D02*
X177395000Y-134225000D01*
X176645000Y-135725000D02*
X176645000Y-136475000D01*
X176645000Y-136475000D02*
X178445000Y-136475000D01*
X177395000Y-131275000D02*
X180445000Y-131275000D01*
X177395000Y-134225000D02*
X177395000Y-131275000D01*
X178445000Y-135725000D02*
X176645000Y-135725000D01*
X178445000Y-136475000D02*
X178445000Y-135725000D01*
X179945000Y-135725000D02*
X179945000Y-136475000D01*
X179945000Y-136475000D02*
X180945000Y-136475000D01*
X180945000Y-135725000D02*
X179945000Y-135725000D01*
X180945000Y-136475000D02*
X180945000Y-135725000D01*
X182445000Y-135725000D02*
X182445000Y-136475000D01*
X182445000Y-136475000D02*
X184245000Y-136475000D01*
X183295000Y-136775000D02*
X184545000Y-136775000D01*
X183495000Y-131275000D02*
X180445000Y-131275000D01*
X183495000Y-134225000D02*
X183495000Y-131275000D01*
X184245000Y-134225000D02*
X183495000Y-134225000D01*
X184245000Y-135725000D02*
X182445000Y-135725000D01*
X184245000Y-136475000D02*
X184245000Y-135725000D01*
X184255000Y-130515000D02*
X176635000Y-130515000D01*
X184255000Y-136485000D02*
X184255000Y-130515000D01*
X184545000Y-136775000D02*
X184545000Y-135525000D01*
%TO.C,R52*%
X156602500Y-89737258D02*
X156602500Y-89262742D01*
X157647500Y-89737258D02*
X157647500Y-89262742D01*
%TO.C,J8*%
X140895000Y-37240000D02*
X150055000Y-37240000D01*
X140895000Y-38945000D02*
X140895000Y-37240000D01*
X140895000Y-40955000D02*
X140895000Y-42875000D01*
X150055000Y-37240000D02*
X150055000Y-38945000D01*
X150055000Y-42875000D02*
X150055000Y-40955000D01*
D12*
%TO.C,J18*%
X172675000Y-69525000D02*
X172675000Y-90025000D01*
X172675000Y-90025000D02*
X188875000Y-90025000D01*
X188875000Y-69525000D02*
X172675000Y-69525000D01*
X188875000Y-90025000D02*
X188875000Y-69525000D01*
D13*
%TO.C,R24*%
X131211946Y-67075000D02*
X132666074Y-67075000D01*
X131211946Y-68895000D02*
X132666074Y-68895000D01*
%TO.C,D3*%
X169433750Y-113020000D02*
X169433750Y-114490000D01*
X169433750Y-114490000D02*
X171718750Y-114490000D01*
X171718750Y-113020000D02*
X169433750Y-113020000D01*
%TO.C,D15*%
X144150000Y-97615000D02*
X144150000Y-99900000D01*
X145620000Y-97615000D02*
X144150000Y-97615000D01*
X145620000Y-99900000D02*
X145620000Y-97615000D01*
%TO.C,C37*%
X136388430Y-114745000D02*
X136669590Y-114745000D01*
X136388430Y-115765000D02*
X136669590Y-115765000D01*
%TO.C,R53*%
X156602500Y-92774758D02*
X156602500Y-92300242D01*
X157647500Y-92774758D02*
X157647500Y-92300242D01*
%TO.C,C10*%
X145859420Y-66215000D02*
X146140580Y-66215000D01*
X145859420Y-67235000D02*
X146140580Y-67235000D01*
%TO.C,D6*%
X128510260Y-99490000D02*
X130795260Y-99490000D01*
X130795260Y-98020000D02*
X128510260Y-98020000D01*
X130795260Y-99490000D02*
X130795260Y-98020000D01*
%TO.C,R55*%
X142862500Y-93987742D02*
X142862500Y-94462258D01*
X143907500Y-93987742D02*
X143907500Y-94462258D01*
%TO.C,R9*%
X168927064Y-90595000D02*
X167472936Y-90595000D01*
X168927064Y-92415000D02*
X167472936Y-92415000D01*
%TO.C,R14*%
X125726752Y-48012500D02*
X126201268Y-48012500D01*
X125726752Y-49057500D02*
X126201268Y-49057500D01*
%TO.C,R18*%
X167472936Y-109095000D02*
X168927064Y-109095000D01*
X167472936Y-110915000D02*
X168927064Y-110915000D01*
%TO.C,R69*%
X168927064Y-38015000D02*
X167472936Y-38015000D01*
X168927064Y-39835000D02*
X167472936Y-39835000D01*
%TO.C,J5*%
X113419010Y-57800000D02*
X119169010Y-57800000D01*
X113419010Y-59220000D02*
X113419010Y-57800000D01*
X113419010Y-63750000D02*
X113919010Y-63750000D01*
X113419010Y-65170000D02*
X113419010Y-63750000D01*
X113919010Y-59220000D02*
X113419010Y-59220000D01*
X113919010Y-63750000D02*
X113919010Y-59220000D01*
X119169010Y-65170000D02*
X113419010Y-65170000D01*
X120709010Y-65170000D02*
X121009010Y-65170000D01*
X121009010Y-57800000D02*
X120709010Y-57800000D01*
X121009010Y-65170000D02*
X121009010Y-57800000D01*
%TO.C,R34*%
X145883000Y-48583359D02*
X145883000Y-48890641D01*
X146643000Y-48583359D02*
X146643000Y-48890641D01*
%TO.C,D23*%
X146705000Y-127837500D02*
X146705000Y-127187500D01*
X146705000Y-127837500D02*
X146705000Y-128487500D01*
X149825000Y-127837500D02*
X149825000Y-127187500D01*
X149825000Y-127837500D02*
X149825000Y-128487500D01*
X146755000Y-129000000D02*
X146425000Y-129240000D01*
X146425000Y-128760000D01*
X146755000Y-129000000D01*
G36*
X146755000Y-129000000D02*
G01*
X146425000Y-129240000D01*
X146425000Y-128760000D01*
X146755000Y-129000000D01*
G37*
%TO.C,R74*%
X136865000Y-128371359D02*
X136865000Y-128678641D01*
X137625000Y-128371359D02*
X137625000Y-128678641D01*
%TO.C,R67*%
X167497936Y-40515000D02*
X168952064Y-40515000D01*
X167497936Y-42335000D02*
X168952064Y-42335000D01*
%TO.C,R4*%
X142002500Y-84787742D02*
X142002500Y-85262258D01*
X143047500Y-84787742D02*
X143047500Y-85262258D01*
%TO.C,D4*%
X128420260Y-62470000D02*
X130705260Y-62470000D01*
X130705260Y-61000000D02*
X128420260Y-61000000D01*
X130705260Y-62470000D02*
X130705260Y-61000000D01*
%TO.C,D16*%
X129235000Y-127837500D02*
X129235000Y-127187500D01*
X129235000Y-127837500D02*
X129235000Y-128487500D01*
X132355000Y-127837500D02*
X132355000Y-127187500D01*
X132355000Y-127837500D02*
X132355000Y-128487500D01*
X129285000Y-129000000D02*
X128955000Y-129240000D01*
X128955000Y-128760000D01*
X129285000Y-129000000D01*
G36*
X129285000Y-129000000D02*
G01*
X128955000Y-129240000D01*
X128955000Y-128760000D01*
X129285000Y-129000000D01*
G37*
%TO.C,R35*%
X140883000Y-48573359D02*
X140883000Y-48880641D01*
X141643000Y-48573359D02*
X141643000Y-48880641D01*
%TO.C,D17*%
X164095000Y-127837500D02*
X164095000Y-127187500D01*
X164095000Y-127837500D02*
X164095000Y-128487500D01*
X167215000Y-127837500D02*
X167215000Y-127187500D01*
X167215000Y-127837500D02*
X167215000Y-128487500D01*
X164145000Y-129000000D02*
X163815000Y-129240000D01*
X163815000Y-128760000D01*
X164145000Y-129000000D01*
G36*
X164145000Y-129000000D02*
G01*
X163815000Y-129240000D01*
X163815000Y-128760000D01*
X164145000Y-129000000D01*
G37*
%TO.C,U7*%
X137076510Y-64725000D02*
X136276510Y-64725000D01*
X137076510Y-64725000D02*
X137876510Y-64725000D01*
X137076510Y-67845000D02*
X136276510Y-67845000D01*
X137076510Y-67845000D02*
X137876510Y-67845000D01*
X135776510Y-64775000D02*
X135536510Y-64445000D01*
X136016510Y-64445000D01*
X135776510Y-64775000D01*
G36*
X135776510Y-64775000D02*
G01*
X135536510Y-64445000D01*
X136016510Y-64445000D01*
X135776510Y-64775000D01*
G37*
%TO.C,R54*%
X156602500Y-95762258D02*
X156602500Y-95287742D01*
X157647500Y-95762258D02*
X157647500Y-95287742D01*
%TO.C,J7*%
X151125000Y-37275000D02*
X151125000Y-38525000D01*
X151415000Y-37565000D02*
X151415000Y-43535000D01*
X151415000Y-43535000D02*
X159035000Y-43535000D01*
X151425000Y-37575000D02*
X151425000Y-38325000D01*
X151425000Y-38325000D02*
X153225000Y-38325000D01*
X151425000Y-39825000D02*
X152175000Y-39825000D01*
X152175000Y-39825000D02*
X152175000Y-42775000D01*
X152175000Y-42775000D02*
X155225000Y-42775000D01*
X152375000Y-37275000D02*
X151125000Y-37275000D01*
X153225000Y-37575000D02*
X151425000Y-37575000D01*
X153225000Y-38325000D02*
X153225000Y-37575000D01*
X154725000Y-37575000D02*
X154725000Y-38325000D01*
X154725000Y-38325000D02*
X155725000Y-38325000D01*
X155725000Y-37575000D02*
X154725000Y-37575000D01*
X155725000Y-38325000D02*
X155725000Y-37575000D01*
X157225000Y-37575000D02*
X157225000Y-38325000D01*
X157225000Y-38325000D02*
X159025000Y-38325000D01*
X158275000Y-39825000D02*
X158275000Y-42775000D01*
X158275000Y-42775000D02*
X155225000Y-42775000D01*
X159025000Y-37575000D02*
X157225000Y-37575000D01*
X159025000Y-38325000D02*
X159025000Y-37575000D01*
X159025000Y-39825000D02*
X158275000Y-39825000D01*
X159035000Y-37565000D02*
X151415000Y-37565000D01*
X159035000Y-43535000D02*
X159035000Y-37565000D01*
%TO.C,R72*%
X168752500Y-128437258D02*
X168752500Y-127962742D01*
X169797500Y-128437258D02*
X169797500Y-127962742D01*
%TO.C,C6*%
X144215000Y-80084420D02*
X144215000Y-80365580D01*
X145235000Y-80084420D02*
X145235000Y-80365580D01*
%TO.C,D22*%
X169433750Y-59970000D02*
X169433750Y-61440000D01*
X169433750Y-61440000D02*
X171718750Y-61440000D01*
X171718750Y-59970000D02*
X169433750Y-59970000D01*
%TO.C,R64*%
X162975000Y-128371359D02*
X162975000Y-128678641D01*
X163735000Y-128371359D02*
X163735000Y-128678641D01*
%TO.C,C20*%
X163840580Y-112745000D02*
X163559420Y-112745000D01*
X163840580Y-113765000D02*
X163559420Y-113765000D01*
%TO.C,R26*%
X125726752Y-64012500D02*
X126201268Y-64012500D01*
X125726752Y-65057500D02*
X126201268Y-65057500D01*
%TO.C,L2*%
X155590000Y-44415000D02*
X160210000Y-44415000D01*
X155590000Y-45115000D02*
X155590000Y-44415000D01*
X155590000Y-48835000D02*
X155590000Y-48135000D01*
X160210000Y-44415000D02*
X160210000Y-45115000D01*
X160210000Y-48135000D02*
X160210000Y-48835000D01*
X160210000Y-48835000D02*
X155590000Y-48835000D01*
%TO.C,C22*%
X136298430Y-61725000D02*
X136579590Y-61725000D01*
X136298430Y-62745000D02*
X136579590Y-62745000D01*
%TO.C,R51*%
X125816752Y-117032500D02*
X126291268Y-117032500D01*
X125816752Y-118077500D02*
X126291268Y-118077500D01*
D10*
%TO.C,Q5*%
X125979010Y-90635000D02*
X131949010Y-90635000D01*
X125979010Y-97325000D02*
X131949010Y-97325000D01*
X131949010Y-97325000D02*
X131949010Y-90635000D01*
D13*
%TO.C,U14*%
X163062500Y-38595000D02*
X162262500Y-38595000D01*
X163062500Y-38595000D02*
X163862500Y-38595000D01*
X163062500Y-41715000D02*
X162262500Y-41715000D01*
X163062500Y-41715000D02*
X163862500Y-41715000D01*
X164602500Y-41995000D02*
X164122500Y-41995000D01*
X164362500Y-41665000D01*
X164602500Y-41995000D01*
G36*
X164602500Y-41995000D02*
G01*
X164122500Y-41995000D01*
X164362500Y-41665000D01*
X164602500Y-41995000D01*
G37*
%TO.C,R36*%
X131301946Y-104095000D02*
X132756074Y-104095000D01*
X131301946Y-105915000D02*
X132756074Y-105915000D01*
%TO.C,R82*%
X142692500Y-128437258D02*
X142692500Y-127962742D01*
X143737500Y-128437258D02*
X143737500Y-127962742D01*
%TO.C,J21*%
X167965000Y-130515000D02*
X167965000Y-136485000D01*
X167965000Y-136485000D02*
X175585000Y-136485000D01*
X167975000Y-134225000D02*
X168725000Y-134225000D01*
X167975000Y-135725000D02*
X167975000Y-136475000D01*
X167975000Y-136475000D02*
X169775000Y-136475000D01*
X168725000Y-131275000D02*
X171775000Y-131275000D01*
X168725000Y-134225000D02*
X168725000Y-131275000D01*
X169775000Y-135725000D02*
X167975000Y-135725000D01*
X169775000Y-136475000D02*
X169775000Y-135725000D01*
X171275000Y-135725000D02*
X171275000Y-136475000D01*
X171275000Y-136475000D02*
X172275000Y-136475000D01*
X172275000Y-135725000D02*
X171275000Y-135725000D01*
X172275000Y-136475000D02*
X172275000Y-135725000D01*
X173775000Y-135725000D02*
X173775000Y-136475000D01*
X173775000Y-136475000D02*
X175575000Y-136475000D01*
X174625000Y-136775000D02*
X175875000Y-136775000D01*
X174825000Y-131275000D02*
X171775000Y-131275000D01*
X174825000Y-134225000D02*
X174825000Y-131275000D01*
X175575000Y-134225000D02*
X174825000Y-134225000D01*
X175575000Y-135725000D02*
X173775000Y-135725000D01*
X175575000Y-136475000D02*
X175575000Y-135725000D01*
X175585000Y-130515000D02*
X167965000Y-130515000D01*
X175585000Y-136485000D02*
X175585000Y-130515000D01*
X175875000Y-136775000D02*
X175875000Y-135525000D01*
%TO.C,R20*%
X174177064Y-107845000D02*
X172722936Y-107845000D01*
X174177064Y-109665000D02*
X172722936Y-109665000D01*
%TO.C,C2*%
X163840580Y-96745000D02*
X163559420Y-96745000D01*
X163840580Y-97765000D02*
X163559420Y-97765000D01*
%TO.C,R70*%
X174412258Y-41382500D02*
X173937742Y-41382500D01*
X174412258Y-42427500D02*
X173937742Y-42427500D01*
%TO.C,D7*%
X128510260Y-115490000D02*
X130795260Y-115490000D01*
X130795260Y-114020000D02*
X128510260Y-114020000D01*
X130795260Y-115490000D02*
X130795260Y-114020000D01*
%TD*%
M02*
