%TF.GenerationSoftware,KiCad,Pcbnew,9.0.3-9.0.3-0~ubuntu24.04.1*%
%TF.CreationDate,2025-08-28T08:20:23-04:00*%
%TF.ProjectId,power distribution,706f7765-7220-4646-9973-747269627574,rev?*%
%TF.SameCoordinates,Original*%
%TF.FileFunction,Legend,Bot*%
%TF.FilePolarity,Positive*%
%FSLAX46Y46*%
G04 Gerber Fmt 4.6, Leading zero omitted, Abs format (unit mm)*
G04 Created by KiCad (PCBNEW 9.0.3-9.0.3-0~ubuntu24.04.1) date 2025-08-28 08:20:23*
%MOMM*%
%LPD*%
G01*
G04 APERTURE LIST*
%ADD10C,0.100000*%
%ADD11C,0.187500*%
%ADD12C,0.200000*%
%ADD13C,0.010000*%
G04 APERTURE END LIST*
D10*
X169700000Y-45800000D02*
X177700000Y-45800000D01*
X177700000Y-53800000D01*
X169700000Y-53800000D01*
X169700000Y-45800000D01*
G36*
X169700000Y-45800000D02*
G01*
X177700000Y-45800000D01*
X177700000Y-53800000D01*
X169700000Y-53800000D01*
X169700000Y-45800000D01*
G37*
D11*
X176662359Y-40506678D02*
X177162359Y-39792392D01*
X177519502Y-40506678D02*
X177519502Y-39006678D01*
X177519502Y-39006678D02*
X176948073Y-39006678D01*
X176948073Y-39006678D02*
X176805216Y-39078107D01*
X176805216Y-39078107D02*
X176733787Y-39149535D01*
X176733787Y-39149535D02*
X176662359Y-39292392D01*
X176662359Y-39292392D02*
X176662359Y-39506678D01*
X176662359Y-39506678D02*
X176733787Y-39649535D01*
X176733787Y-39649535D02*
X176805216Y-39720964D01*
X176805216Y-39720964D02*
X176948073Y-39792392D01*
X176948073Y-39792392D02*
X177519502Y-39792392D01*
X176019502Y-39720964D02*
X175519502Y-39720964D01*
X175305216Y-40506678D02*
X176019502Y-40506678D01*
X176019502Y-40506678D02*
X176019502Y-39006678D01*
X176019502Y-39006678D02*
X175305216Y-39006678D01*
X174876644Y-39006678D02*
X174376644Y-40506678D01*
X174376644Y-40506678D02*
X173876644Y-39006678D01*
X171448073Y-40506678D02*
X172305216Y-40506678D01*
X171876645Y-40506678D02*
X171876645Y-39006678D01*
X171876645Y-39006678D02*
X172019502Y-39220964D01*
X172019502Y-39220964D02*
X172162359Y-39363821D01*
X172162359Y-39363821D02*
X172305216Y-39435250D01*
X170876645Y-40078107D02*
X170162360Y-40078107D01*
X171019502Y-40506678D02*
X170519502Y-39006678D01*
X170519502Y-39006678D02*
X170019502Y-40506678D01*
X176433787Y-43778107D02*
X176576645Y-43706678D01*
X176576645Y-43706678D02*
X176790930Y-43706678D01*
X176790930Y-43706678D02*
X177005216Y-43778107D01*
X177005216Y-43778107D02*
X177148073Y-43920964D01*
X177148073Y-43920964D02*
X177219502Y-44063821D01*
X177219502Y-44063821D02*
X177290930Y-44349535D01*
X177290930Y-44349535D02*
X177290930Y-44563821D01*
X177290930Y-44563821D02*
X177219502Y-44849535D01*
X177219502Y-44849535D02*
X177148073Y-44992392D01*
X177148073Y-44992392D02*
X177005216Y-45135250D01*
X177005216Y-45135250D02*
X176790930Y-45206678D01*
X176790930Y-45206678D02*
X176648073Y-45206678D01*
X176648073Y-45206678D02*
X176433787Y-45135250D01*
X176433787Y-45135250D02*
X176362359Y-45063821D01*
X176362359Y-45063821D02*
X176362359Y-44563821D01*
X176362359Y-44563821D02*
X176648073Y-44563821D01*
X175719502Y-44420964D02*
X175219502Y-44420964D01*
X175005216Y-45206678D02*
X175719502Y-45206678D01*
X175719502Y-45206678D02*
X175719502Y-43706678D01*
X175719502Y-43706678D02*
X175005216Y-43706678D01*
X174362359Y-44420964D02*
X173862359Y-44420964D01*
X173648073Y-45206678D02*
X174362359Y-45206678D01*
X174362359Y-45206678D02*
X174362359Y-43706678D01*
X174362359Y-43706678D02*
X173648073Y-43706678D01*
X173005216Y-45206678D02*
X173005216Y-43706678D01*
X173005216Y-43706678D02*
X172148073Y-45206678D01*
X172148073Y-45206678D02*
X172148073Y-43706678D01*
X171433787Y-45206678D02*
X171433787Y-43706678D01*
X170576644Y-45206678D02*
X171219501Y-44349535D01*
X170576644Y-43706678D02*
X171433787Y-44563821D01*
X176633787Y-42806678D02*
X177490930Y-42806678D01*
X177062359Y-42806678D02*
X177062359Y-41306678D01*
X177062359Y-41306678D02*
X177205216Y-41520964D01*
X177205216Y-41520964D02*
X177348073Y-41663821D01*
X177348073Y-41663821D02*
X177490930Y-41735250D01*
X175276645Y-41306678D02*
X175990931Y-41306678D01*
X175990931Y-41306678D02*
X176062359Y-42020964D01*
X176062359Y-42020964D02*
X175990931Y-41949535D01*
X175990931Y-41949535D02*
X175848074Y-41878107D01*
X175848074Y-41878107D02*
X175490931Y-41878107D01*
X175490931Y-41878107D02*
X175348074Y-41949535D01*
X175348074Y-41949535D02*
X175276645Y-42020964D01*
X175276645Y-42020964D02*
X175205216Y-42163821D01*
X175205216Y-42163821D02*
X175205216Y-42520964D01*
X175205216Y-42520964D02*
X175276645Y-42663821D01*
X175276645Y-42663821D02*
X175348074Y-42735250D01*
X175348074Y-42735250D02*
X175490931Y-42806678D01*
X175490931Y-42806678D02*
X175848074Y-42806678D01*
X175848074Y-42806678D02*
X175990931Y-42735250D01*
X175990931Y-42735250D02*
X176062359Y-42663821D01*
X173490931Y-41235250D02*
X174776645Y-43163821D01*
X172705216Y-41306678D02*
X172562359Y-41306678D01*
X172562359Y-41306678D02*
X172419502Y-41378107D01*
X172419502Y-41378107D02*
X172348074Y-41449535D01*
X172348074Y-41449535D02*
X172276645Y-41592392D01*
X172276645Y-41592392D02*
X172205216Y-41878107D01*
X172205216Y-41878107D02*
X172205216Y-42235250D01*
X172205216Y-42235250D02*
X172276645Y-42520964D01*
X172276645Y-42520964D02*
X172348074Y-42663821D01*
X172348074Y-42663821D02*
X172419502Y-42735250D01*
X172419502Y-42735250D02*
X172562359Y-42806678D01*
X172562359Y-42806678D02*
X172705216Y-42806678D01*
X172705216Y-42806678D02*
X172848074Y-42735250D01*
X172848074Y-42735250D02*
X172919502Y-42663821D01*
X172919502Y-42663821D02*
X172990931Y-42520964D01*
X172990931Y-42520964D02*
X173062359Y-42235250D01*
X173062359Y-42235250D02*
X173062359Y-41878107D01*
X173062359Y-41878107D02*
X172990931Y-41592392D01*
X172990931Y-41592392D02*
X172919502Y-41449535D01*
X172919502Y-41449535D02*
X172848074Y-41378107D01*
X172848074Y-41378107D02*
X172705216Y-41306678D01*
X171348074Y-41949535D02*
X171490931Y-41878107D01*
X171490931Y-41878107D02*
X171562360Y-41806678D01*
X171562360Y-41806678D02*
X171633788Y-41663821D01*
X171633788Y-41663821D02*
X171633788Y-41592392D01*
X171633788Y-41592392D02*
X171562360Y-41449535D01*
X171562360Y-41449535D02*
X171490931Y-41378107D01*
X171490931Y-41378107D02*
X171348074Y-41306678D01*
X171348074Y-41306678D02*
X171062360Y-41306678D01*
X171062360Y-41306678D02*
X170919503Y-41378107D01*
X170919503Y-41378107D02*
X170848074Y-41449535D01*
X170848074Y-41449535D02*
X170776645Y-41592392D01*
X170776645Y-41592392D02*
X170776645Y-41663821D01*
X170776645Y-41663821D02*
X170848074Y-41806678D01*
X170848074Y-41806678D02*
X170919503Y-41878107D01*
X170919503Y-41878107D02*
X171062360Y-41949535D01*
X171062360Y-41949535D02*
X171348074Y-41949535D01*
X171348074Y-41949535D02*
X171490931Y-42020964D01*
X171490931Y-42020964D02*
X171562360Y-42092392D01*
X171562360Y-42092392D02*
X171633788Y-42235250D01*
X171633788Y-42235250D02*
X171633788Y-42520964D01*
X171633788Y-42520964D02*
X171562360Y-42663821D01*
X171562360Y-42663821D02*
X171490931Y-42735250D01*
X171490931Y-42735250D02*
X171348074Y-42806678D01*
X171348074Y-42806678D02*
X171062360Y-42806678D01*
X171062360Y-42806678D02*
X170919503Y-42735250D01*
X170919503Y-42735250D02*
X170848074Y-42663821D01*
X170848074Y-42663821D02*
X170776645Y-42520964D01*
X170776645Y-42520964D02*
X170776645Y-42235250D01*
X170776645Y-42235250D02*
X170848074Y-42092392D01*
X170848074Y-42092392D02*
X170919503Y-42020964D01*
X170919503Y-42020964D02*
X171062360Y-41949535D01*
X169062360Y-41235250D02*
X170348074Y-43163821D01*
X168633788Y-41449535D02*
X168562360Y-41378107D01*
X168562360Y-41378107D02*
X168419503Y-41306678D01*
X168419503Y-41306678D02*
X168062360Y-41306678D01*
X168062360Y-41306678D02*
X167919503Y-41378107D01*
X167919503Y-41378107D02*
X167848074Y-41449535D01*
X167848074Y-41449535D02*
X167776645Y-41592392D01*
X167776645Y-41592392D02*
X167776645Y-41735250D01*
X167776645Y-41735250D02*
X167848074Y-41949535D01*
X167848074Y-41949535D02*
X168705217Y-42806678D01*
X168705217Y-42806678D02*
X167776645Y-42806678D01*
X166848074Y-41306678D02*
X166705217Y-41306678D01*
X166705217Y-41306678D02*
X166562360Y-41378107D01*
X166562360Y-41378107D02*
X166490932Y-41449535D01*
X166490932Y-41449535D02*
X166419503Y-41592392D01*
X166419503Y-41592392D02*
X166348074Y-41878107D01*
X166348074Y-41878107D02*
X166348074Y-42235250D01*
X166348074Y-42235250D02*
X166419503Y-42520964D01*
X166419503Y-42520964D02*
X166490932Y-42663821D01*
X166490932Y-42663821D02*
X166562360Y-42735250D01*
X166562360Y-42735250D02*
X166705217Y-42806678D01*
X166705217Y-42806678D02*
X166848074Y-42806678D01*
X166848074Y-42806678D02*
X166990932Y-42735250D01*
X166990932Y-42735250D02*
X167062360Y-42663821D01*
X167062360Y-42663821D02*
X167133789Y-42520964D01*
X167133789Y-42520964D02*
X167205217Y-42235250D01*
X167205217Y-42235250D02*
X167205217Y-41878107D01*
X167205217Y-41878107D02*
X167133789Y-41592392D01*
X167133789Y-41592392D02*
X167062360Y-41449535D01*
X167062360Y-41449535D02*
X166990932Y-41378107D01*
X166990932Y-41378107D02*
X166848074Y-41306678D01*
X165776646Y-41449535D02*
X165705218Y-41378107D01*
X165705218Y-41378107D02*
X165562361Y-41306678D01*
X165562361Y-41306678D02*
X165205218Y-41306678D01*
X165205218Y-41306678D02*
X165062361Y-41378107D01*
X165062361Y-41378107D02*
X164990932Y-41449535D01*
X164990932Y-41449535D02*
X164919503Y-41592392D01*
X164919503Y-41592392D02*
X164919503Y-41735250D01*
X164919503Y-41735250D02*
X164990932Y-41949535D01*
X164990932Y-41949535D02*
X165848075Y-42806678D01*
X165848075Y-42806678D02*
X164919503Y-42806678D01*
X163562361Y-41306678D02*
X164276647Y-41306678D01*
X164276647Y-41306678D02*
X164348075Y-42020964D01*
X164348075Y-42020964D02*
X164276647Y-41949535D01*
X164276647Y-41949535D02*
X164133790Y-41878107D01*
X164133790Y-41878107D02*
X163776647Y-41878107D01*
X163776647Y-41878107D02*
X163633790Y-41949535D01*
X163633790Y-41949535D02*
X163562361Y-42020964D01*
X163562361Y-42020964D02*
X163490932Y-42163821D01*
X163490932Y-42163821D02*
X163490932Y-42520964D01*
X163490932Y-42520964D02*
X163562361Y-42663821D01*
X163562361Y-42663821D02*
X163633790Y-42735250D01*
X163633790Y-42735250D02*
X163776647Y-42806678D01*
X163776647Y-42806678D02*
X164133790Y-42806678D01*
X164133790Y-42806678D02*
X164276647Y-42735250D01*
X164276647Y-42735250D02*
X164348075Y-42663821D01*
D12*
X177611279Y-56106028D02*
X177611279Y-54606028D01*
X177611279Y-54606028D02*
X177039850Y-54606028D01*
X177039850Y-54606028D02*
X176896993Y-54677457D01*
X176896993Y-54677457D02*
X176825564Y-54748885D01*
X176825564Y-54748885D02*
X176754136Y-54891742D01*
X176754136Y-54891742D02*
X176754136Y-55106028D01*
X176754136Y-55106028D02*
X176825564Y-55248885D01*
X176825564Y-55248885D02*
X176896993Y-55320314D01*
X176896993Y-55320314D02*
X177039850Y-55391742D01*
X177039850Y-55391742D02*
X177611279Y-55391742D01*
X175896993Y-56106028D02*
X176039850Y-56034600D01*
X176039850Y-56034600D02*
X176111279Y-55963171D01*
X176111279Y-55963171D02*
X176182707Y-55820314D01*
X176182707Y-55820314D02*
X176182707Y-55391742D01*
X176182707Y-55391742D02*
X176111279Y-55248885D01*
X176111279Y-55248885D02*
X176039850Y-55177457D01*
X176039850Y-55177457D02*
X175896993Y-55106028D01*
X175896993Y-55106028D02*
X175682707Y-55106028D01*
X175682707Y-55106028D02*
X175539850Y-55177457D01*
X175539850Y-55177457D02*
X175468422Y-55248885D01*
X175468422Y-55248885D02*
X175396993Y-55391742D01*
X175396993Y-55391742D02*
X175396993Y-55820314D01*
X175396993Y-55820314D02*
X175468422Y-55963171D01*
X175468422Y-55963171D02*
X175539850Y-56034600D01*
X175539850Y-56034600D02*
X175682707Y-56106028D01*
X175682707Y-56106028D02*
X175896993Y-56106028D01*
X174896993Y-55106028D02*
X174611279Y-56106028D01*
X174611279Y-56106028D02*
X174325564Y-55391742D01*
X174325564Y-55391742D02*
X174039850Y-56106028D01*
X174039850Y-56106028D02*
X173754136Y-55106028D01*
X172611278Y-56034600D02*
X172754135Y-56106028D01*
X172754135Y-56106028D02*
X173039850Y-56106028D01*
X173039850Y-56106028D02*
X173182707Y-56034600D01*
X173182707Y-56034600D02*
X173254135Y-55891742D01*
X173254135Y-55891742D02*
X173254135Y-55320314D01*
X173254135Y-55320314D02*
X173182707Y-55177457D01*
X173182707Y-55177457D02*
X173039850Y-55106028D01*
X173039850Y-55106028D02*
X172754135Y-55106028D01*
X172754135Y-55106028D02*
X172611278Y-55177457D01*
X172611278Y-55177457D02*
X172539850Y-55320314D01*
X172539850Y-55320314D02*
X172539850Y-55463171D01*
X172539850Y-55463171D02*
X173254135Y-55606028D01*
X171896993Y-56106028D02*
X171896993Y-55106028D01*
X171896993Y-55391742D02*
X171825564Y-55248885D01*
X171825564Y-55248885D02*
X171754136Y-55177457D01*
X171754136Y-55177457D02*
X171611278Y-55106028D01*
X171611278Y-55106028D02*
X171468421Y-55106028D01*
X169825565Y-56106028D02*
X169825565Y-54606028D01*
X169825565Y-54606028D02*
X169468422Y-54606028D01*
X169468422Y-54606028D02*
X169254136Y-54677457D01*
X169254136Y-54677457D02*
X169111279Y-54820314D01*
X169111279Y-54820314D02*
X169039850Y-54963171D01*
X169039850Y-54963171D02*
X168968422Y-55248885D01*
X168968422Y-55248885D02*
X168968422Y-55463171D01*
X168968422Y-55463171D02*
X169039850Y-55748885D01*
X169039850Y-55748885D02*
X169111279Y-55891742D01*
X169111279Y-55891742D02*
X169254136Y-56034600D01*
X169254136Y-56034600D02*
X169468422Y-56106028D01*
X169468422Y-56106028D02*
X169825565Y-56106028D01*
X168325565Y-56106028D02*
X168325565Y-55106028D01*
X168325565Y-54606028D02*
X168396993Y-54677457D01*
X168396993Y-54677457D02*
X168325565Y-54748885D01*
X168325565Y-54748885D02*
X168254136Y-54677457D01*
X168254136Y-54677457D02*
X168325565Y-54606028D01*
X168325565Y-54606028D02*
X168325565Y-54748885D01*
X167682707Y-56034600D02*
X167539850Y-56106028D01*
X167539850Y-56106028D02*
X167254136Y-56106028D01*
X167254136Y-56106028D02*
X167111279Y-56034600D01*
X167111279Y-56034600D02*
X167039850Y-55891742D01*
X167039850Y-55891742D02*
X167039850Y-55820314D01*
X167039850Y-55820314D02*
X167111279Y-55677457D01*
X167111279Y-55677457D02*
X167254136Y-55606028D01*
X167254136Y-55606028D02*
X167468422Y-55606028D01*
X167468422Y-55606028D02*
X167611279Y-55534600D01*
X167611279Y-55534600D02*
X167682707Y-55391742D01*
X167682707Y-55391742D02*
X167682707Y-55320314D01*
X167682707Y-55320314D02*
X167611279Y-55177457D01*
X167611279Y-55177457D02*
X167468422Y-55106028D01*
X167468422Y-55106028D02*
X167254136Y-55106028D01*
X167254136Y-55106028D02*
X167111279Y-55177457D01*
X166611278Y-55106028D02*
X166039850Y-55106028D01*
X166396993Y-54606028D02*
X166396993Y-55891742D01*
X166396993Y-55891742D02*
X166325564Y-56034600D01*
X166325564Y-56034600D02*
X166182707Y-56106028D01*
X166182707Y-56106028D02*
X166039850Y-56106028D01*
X165539850Y-56106028D02*
X165539850Y-55106028D01*
X165539850Y-55391742D02*
X165468421Y-55248885D01*
X165468421Y-55248885D02*
X165396993Y-55177457D01*
X165396993Y-55177457D02*
X165254135Y-55106028D01*
X165254135Y-55106028D02*
X165111278Y-55106028D01*
X164611279Y-56106028D02*
X164611279Y-55106028D01*
X164611279Y-54606028D02*
X164682707Y-54677457D01*
X164682707Y-54677457D02*
X164611279Y-54748885D01*
X164611279Y-54748885D02*
X164539850Y-54677457D01*
X164539850Y-54677457D02*
X164611279Y-54606028D01*
X164611279Y-54606028D02*
X164611279Y-54748885D01*
X163896993Y-56106028D02*
X163896993Y-54606028D01*
X163896993Y-55177457D02*
X163754136Y-55106028D01*
X163754136Y-55106028D02*
X163468421Y-55106028D01*
X163468421Y-55106028D02*
X163325564Y-55177457D01*
X163325564Y-55177457D02*
X163254136Y-55248885D01*
X163254136Y-55248885D02*
X163182707Y-55391742D01*
X163182707Y-55391742D02*
X163182707Y-55820314D01*
X163182707Y-55820314D02*
X163254136Y-55963171D01*
X163254136Y-55963171D02*
X163325564Y-56034600D01*
X163325564Y-56034600D02*
X163468421Y-56106028D01*
X163468421Y-56106028D02*
X163754136Y-56106028D01*
X163754136Y-56106028D02*
X163896993Y-56034600D01*
X161896993Y-55106028D02*
X161896993Y-56106028D01*
X162539850Y-55106028D02*
X162539850Y-55891742D01*
X162539850Y-55891742D02*
X162468421Y-56034600D01*
X162468421Y-56034600D02*
X162325564Y-56106028D01*
X162325564Y-56106028D02*
X162111278Y-56106028D01*
X162111278Y-56106028D02*
X161968421Y-56034600D01*
X161968421Y-56034600D02*
X161896993Y-55963171D01*
X161396992Y-55106028D02*
X160825564Y-55106028D01*
X161182707Y-54606028D02*
X161182707Y-55891742D01*
X161182707Y-55891742D02*
X161111278Y-56034600D01*
X161111278Y-56034600D02*
X160968421Y-56106028D01*
X160968421Y-56106028D02*
X160825564Y-56106028D01*
X160325564Y-56106028D02*
X160325564Y-55106028D01*
X160325564Y-54606028D02*
X160396992Y-54677457D01*
X160396992Y-54677457D02*
X160325564Y-54748885D01*
X160325564Y-54748885D02*
X160254135Y-54677457D01*
X160254135Y-54677457D02*
X160325564Y-54606028D01*
X160325564Y-54606028D02*
X160325564Y-54748885D01*
X159396992Y-56106028D02*
X159539849Y-56034600D01*
X159539849Y-56034600D02*
X159611278Y-55963171D01*
X159611278Y-55963171D02*
X159682706Y-55820314D01*
X159682706Y-55820314D02*
X159682706Y-55391742D01*
X159682706Y-55391742D02*
X159611278Y-55248885D01*
X159611278Y-55248885D02*
X159539849Y-55177457D01*
X159539849Y-55177457D02*
X159396992Y-55106028D01*
X159396992Y-55106028D02*
X159182706Y-55106028D01*
X159182706Y-55106028D02*
X159039849Y-55177457D01*
X159039849Y-55177457D02*
X158968421Y-55248885D01*
X158968421Y-55248885D02*
X158896992Y-55391742D01*
X158896992Y-55391742D02*
X158896992Y-55820314D01*
X158896992Y-55820314D02*
X158968421Y-55963171D01*
X158968421Y-55963171D02*
X159039849Y-56034600D01*
X159039849Y-56034600D02*
X159182706Y-56106028D01*
X159182706Y-56106028D02*
X159396992Y-56106028D01*
X158254135Y-55106028D02*
X158254135Y-56106028D01*
X158254135Y-55248885D02*
X158182706Y-55177457D01*
X158182706Y-55177457D02*
X158039849Y-55106028D01*
X158039849Y-55106028D02*
X157825563Y-55106028D01*
X157825563Y-55106028D02*
X157682706Y-55177457D01*
X157682706Y-55177457D02*
X157611278Y-55320314D01*
X157611278Y-55320314D02*
X157611278Y-56106028D01*
D13*
%TO.C,REF\u002A\u002A*%
X126707842Y-119079381D02*
X126768889Y-119098439D01*
X126844069Y-119130115D01*
X126880469Y-119147138D01*
X126906740Y-119150215D01*
X126912549Y-119126620D01*
X126912555Y-119125952D01*
X126924856Y-119103426D01*
X126967281Y-119091879D01*
X127049510Y-119088628D01*
X127186471Y-119088628D01*
X127186471Y-120283922D01*
X126912549Y-120283922D01*
X126912549Y-119459779D01*
X126844454Y-119396670D01*
X126823180Y-119378735D01*
X126759811Y-119348091D01*
X126681776Y-119346863D01*
X126575520Y-119373903D01*
X126539701Y-119375615D01*
X126497683Y-119349383D01*
X126441757Y-119287035D01*
X126414628Y-119252547D01*
X126382543Y-119203852D01*
X126377599Y-119172855D01*
X126395563Y-119146707D01*
X126450710Y-119113641D01*
X126536363Y-119087472D01*
X126629292Y-119074496D01*
X126707842Y-119079381D01*
G36*
X126707842Y-119079381D02*
G01*
X126768889Y-119098439D01*
X126844069Y-119130115D01*
X126880469Y-119147138D01*
X126906740Y-119150215D01*
X126912549Y-119126620D01*
X126912555Y-119125952D01*
X126924856Y-119103426D01*
X126967281Y-119091879D01*
X127049510Y-119088628D01*
X127186471Y-119088628D01*
X127186471Y-120283922D01*
X126912549Y-120283922D01*
X126912549Y-119459779D01*
X126844454Y-119396670D01*
X126823180Y-119378735D01*
X126759811Y-119348091D01*
X126681776Y-119346863D01*
X126575520Y-119373903D01*
X126539701Y-119375615D01*
X126497683Y-119349383D01*
X126441757Y-119287035D01*
X126414628Y-119252547D01*
X126382543Y-119203852D01*
X126377599Y-119172855D01*
X126395563Y-119146707D01*
X126450710Y-119113641D01*
X126536363Y-119087472D01*
X126629292Y-119074496D01*
X126707842Y-119079381D01*
G37*
X127070525Y-120972675D02*
X127145760Y-121007886D01*
X127211373Y-121059497D01*
X127211373Y-121007886D01*
X127213008Y-120988290D01*
X127228221Y-120967513D01*
X127269362Y-120958337D01*
X127348334Y-120956275D01*
X127485295Y-120956275D01*
X127485295Y-122176471D01*
X127211373Y-122176471D01*
X127211373Y-121779211D01*
X127211340Y-121756405D01*
X127209003Y-121596089D01*
X127203268Y-121465500D01*
X127194544Y-121371314D01*
X127183241Y-121320208D01*
X127172862Y-121300915D01*
X127108968Y-121240406D01*
X127021937Y-121213622D01*
X126926904Y-121226117D01*
X126903594Y-121234586D01*
X126853937Y-121249555D01*
X126819999Y-121244907D01*
X126785850Y-121214479D01*
X126735559Y-121152111D01*
X126653992Y-121049123D01*
X126711323Y-121002699D01*
X126765823Y-120974755D01*
X126861554Y-120955883D01*
X126969456Y-120955265D01*
X127070525Y-120972675D01*
G36*
X127070525Y-120972675D02*
G01*
X127145760Y-121007886D01*
X127211373Y-121059497D01*
X127211373Y-121007886D01*
X127213008Y-120988290D01*
X127228221Y-120967513D01*
X127269362Y-120958337D01*
X127348334Y-120956275D01*
X127485295Y-120956275D01*
X127485295Y-122176471D01*
X127211373Y-122176471D01*
X127211373Y-121779211D01*
X127211340Y-121756405D01*
X127209003Y-121596089D01*
X127203268Y-121465500D01*
X127194544Y-121371314D01*
X127183241Y-121320208D01*
X127172862Y-121300915D01*
X127108968Y-121240406D01*
X127021937Y-121213622D01*
X126926904Y-121226117D01*
X126903594Y-121234586D01*
X126853937Y-121249555D01*
X126819999Y-121244907D01*
X126785850Y-121214479D01*
X126735559Y-121152111D01*
X126653992Y-121049123D01*
X126711323Y-121002699D01*
X126765823Y-120974755D01*
X126861554Y-120955883D01*
X126969456Y-120955265D01*
X127070525Y-120972675D01*
G37*
X132266471Y-122176471D02*
X132017451Y-122176471D01*
X132017451Y-121792111D01*
X132017176Y-121702706D01*
X132014344Y-121554629D01*
X132007176Y-121445003D01*
X131994116Y-121366252D01*
X131973608Y-121310798D01*
X131944098Y-121271061D01*
X131904031Y-121239465D01*
X131860290Y-121215921D01*
X131808496Y-121209246D01*
X131734831Y-121224090D01*
X131711159Y-121230271D01*
X131652069Y-121239572D01*
X131609818Y-121226245D01*
X131560848Y-121184996D01*
X131551555Y-121176026D01*
X131500179Y-121120534D01*
X131467047Y-121075415D01*
X131462502Y-121064545D01*
X131471508Y-121024409D01*
X131517174Y-120992320D01*
X131589246Y-120969799D01*
X131677471Y-120958367D01*
X131771594Y-120959544D01*
X131861362Y-120974850D01*
X131936520Y-121005806D01*
X131960343Y-121020260D01*
X132000449Y-121041417D01*
X132015296Y-121036572D01*
X132017451Y-121005712D01*
X132017957Y-120994633D01*
X132029970Y-120970091D01*
X132067236Y-120958921D01*
X132141961Y-120956275D01*
X132266471Y-120956275D01*
X132266471Y-122176471D01*
G36*
X132266471Y-122176471D02*
G01*
X132017451Y-122176471D01*
X132017451Y-121792111D01*
X132017176Y-121702706D01*
X132014344Y-121554629D01*
X132007176Y-121445003D01*
X131994116Y-121366252D01*
X131973608Y-121310798D01*
X131944098Y-121271061D01*
X131904031Y-121239465D01*
X131860290Y-121215921D01*
X131808496Y-121209246D01*
X131734831Y-121224090D01*
X131711159Y-121230271D01*
X131652069Y-121239572D01*
X131609818Y-121226245D01*
X131560848Y-121184996D01*
X131551555Y-121176026D01*
X131500179Y-121120534D01*
X131467047Y-121075415D01*
X131462502Y-121064545D01*
X131471508Y-121024409D01*
X131517174Y-120992320D01*
X131589246Y-120969799D01*
X131677471Y-120958367D01*
X131771594Y-120959544D01*
X131861362Y-120974850D01*
X131936520Y-121005806D01*
X131960343Y-121020260D01*
X132000449Y-121041417D01*
X132015296Y-121036572D01*
X132017451Y-121005712D01*
X132017957Y-120994633D01*
X132029970Y-120970091D01*
X132067236Y-120958921D01*
X132141961Y-120956275D01*
X132266471Y-120956275D01*
X132266471Y-122176471D01*
G37*
X127684510Y-119476245D02*
X127686611Y-119650624D01*
X127694833Y-119791460D01*
X127711491Y-119893825D01*
X127738891Y-119963458D01*
X127779343Y-120006093D01*
X127835152Y-120027468D01*
X127908628Y-120033318D01*
X127978783Y-120028097D01*
X128035443Y-120007659D01*
X128076626Y-119966254D01*
X128104640Y-119898147D01*
X128121793Y-119797600D01*
X128130392Y-119658879D01*
X128132746Y-119476245D01*
X128132746Y-119088628D01*
X128381765Y-119088628D01*
X128381765Y-119555928D01*
X128381338Y-119680659D01*
X128378018Y-119841955D01*
X128369687Y-119964965D01*
X128354326Y-120056729D01*
X128329919Y-120124291D01*
X128294447Y-120174691D01*
X128245892Y-120214971D01*
X128182235Y-120252174D01*
X128048562Y-120299270D01*
X127909055Y-120302342D01*
X127777524Y-120258971D01*
X127720135Y-120230857D01*
X127691664Y-120226654D01*
X127684510Y-120246520D01*
X127672632Y-120268826D01*
X127630116Y-120280576D01*
X127547549Y-120283922D01*
X127410589Y-120283922D01*
X127410589Y-119088628D01*
X127684510Y-119088628D01*
X127684510Y-119476245D01*
G36*
X127684510Y-119476245D02*
G01*
X127686611Y-119650624D01*
X127694833Y-119791460D01*
X127711491Y-119893825D01*
X127738891Y-119963458D01*
X127779343Y-120006093D01*
X127835152Y-120027468D01*
X127908628Y-120033318D01*
X127978783Y-120028097D01*
X128035443Y-120007659D01*
X128076626Y-119966254D01*
X128104640Y-119898147D01*
X128121793Y-119797600D01*
X128130392Y-119658879D01*
X128132746Y-119476245D01*
X128132746Y-119088628D01*
X128381765Y-119088628D01*
X128381765Y-119555928D01*
X128381338Y-119680659D01*
X128378018Y-119841955D01*
X128369687Y-119964965D01*
X128354326Y-120056729D01*
X128329919Y-120124291D01*
X128294447Y-120174691D01*
X128245892Y-120214971D01*
X128182235Y-120252174D01*
X128048562Y-120299270D01*
X127909055Y-120302342D01*
X127777524Y-120258971D01*
X127720135Y-120230857D01*
X127691664Y-120226654D01*
X127684510Y-120246520D01*
X127672632Y-120268826D01*
X127630116Y-120280576D01*
X127547549Y-120283922D01*
X127410589Y-120283922D01*
X127410589Y-119088628D01*
X127684510Y-119088628D01*
X127684510Y-119476245D01*
G37*
X131847906Y-119086271D02*
X131961422Y-119121937D01*
X132011473Y-119146177D01*
X132036646Y-119148681D01*
X132042353Y-119126620D01*
X132042359Y-119125952D01*
X132054660Y-119103426D01*
X132097084Y-119091879D01*
X132179314Y-119088628D01*
X132316275Y-119088628D01*
X132316275Y-120283922D01*
X132042353Y-120283922D01*
X132042353Y-119871907D01*
X132042166Y-119732779D01*
X132040885Y-119618493D01*
X132037458Y-119538519D01*
X132030832Y-119484708D01*
X132019954Y-119448912D01*
X132003771Y-119422982D01*
X131981230Y-119398770D01*
X131950527Y-119373017D01*
X131862239Y-119338416D01*
X131769565Y-119348571D01*
X131684671Y-119403298D01*
X131660406Y-119428768D01*
X131642987Y-119454545D01*
X131631304Y-119488848D01*
X131624212Y-119539933D01*
X131620564Y-119616056D01*
X131619215Y-119725471D01*
X131619020Y-119876435D01*
X131619020Y-120283922D01*
X131345098Y-120283922D01*
X131345645Y-119841912D01*
X131345682Y-119822223D01*
X131348058Y-119634209D01*
X131355353Y-119488159D01*
X131369445Y-119376971D01*
X131392207Y-119293544D01*
X131425514Y-119230775D01*
X131471241Y-119181561D01*
X131531264Y-119138802D01*
X131593240Y-119109199D01*
X131718055Y-119082305D01*
X131847906Y-119086271D01*
G36*
X131847906Y-119086271D02*
G01*
X131961422Y-119121937D01*
X132011473Y-119146177D01*
X132036646Y-119148681D01*
X132042353Y-119126620D01*
X132042359Y-119125952D01*
X132054660Y-119103426D01*
X132097084Y-119091879D01*
X132179314Y-119088628D01*
X132316275Y-119088628D01*
X132316275Y-120283922D01*
X132042353Y-120283922D01*
X132042353Y-119871907D01*
X132042166Y-119732779D01*
X132040885Y-119618493D01*
X132037458Y-119538519D01*
X132030832Y-119484708D01*
X132019954Y-119448912D01*
X132003771Y-119422982D01*
X131981230Y-119398770D01*
X131950527Y-119373017D01*
X131862239Y-119338416D01*
X131769565Y-119348571D01*
X131684671Y-119403298D01*
X131660406Y-119428768D01*
X131642987Y-119454545D01*
X131631304Y-119488848D01*
X131624212Y-119539933D01*
X131620564Y-119616056D01*
X131619215Y-119725471D01*
X131619020Y-119876435D01*
X131619020Y-120283922D01*
X131345098Y-120283922D01*
X131345645Y-119841912D01*
X131345682Y-119822223D01*
X131348058Y-119634209D01*
X131355353Y-119488159D01*
X131369445Y-119376971D01*
X131392207Y-119293544D01*
X131425514Y-119230775D01*
X131471241Y-119181561D01*
X131531264Y-119138802D01*
X131593240Y-119109199D01*
X131718055Y-119082305D01*
X131847906Y-119086271D01*
G37*
X126007341Y-119094329D02*
X126143218Y-119147267D01*
X126258135Y-119234655D01*
X126343013Y-119354680D01*
X126348745Y-119366918D01*
X126385135Y-119486281D01*
X126403316Y-119628864D01*
X126403173Y-119777318D01*
X126384590Y-119914297D01*
X126347452Y-120022451D01*
X126301599Y-120097831D01*
X126200669Y-120204620D01*
X126074469Y-120272500D01*
X125966497Y-120299950D01*
X125802088Y-120302947D01*
X125644764Y-120261549D01*
X125505251Y-120177546D01*
X125414954Y-120103116D01*
X125496284Y-120019205D01*
X125547665Y-119969496D01*
X125594141Y-119941820D01*
X125637235Y-119947914D01*
X125692353Y-119985098D01*
X125714331Y-119999655D01*
X125807178Y-120029449D01*
X125913895Y-120029431D01*
X126013808Y-119998723D01*
X126051429Y-119974064D01*
X126106613Y-119901245D01*
X126134278Y-119794290D01*
X126136058Y-119648517D01*
X126136053Y-119648435D01*
X126115470Y-119518014D01*
X126070128Y-119427587D01*
X125995518Y-119371652D01*
X125887128Y-119344704D01*
X125818871Y-119341079D01*
X125759231Y-119355921D01*
X125698065Y-119398918D01*
X125618912Y-119465520D01*
X125518672Y-119384965D01*
X125482050Y-119354105D01*
X125436307Y-119309889D01*
X125418432Y-119283832D01*
X125424762Y-119272089D01*
X125461221Y-119236036D01*
X125519301Y-119190185D01*
X125564744Y-119160348D01*
X125709024Y-119099056D01*
X125859583Y-119077654D01*
X126007341Y-119094329D01*
G36*
X126007341Y-119094329D02*
G01*
X126143218Y-119147267D01*
X126258135Y-119234655D01*
X126343013Y-119354680D01*
X126348745Y-119366918D01*
X126385135Y-119486281D01*
X126403316Y-119628864D01*
X126403173Y-119777318D01*
X126384590Y-119914297D01*
X126347452Y-120022451D01*
X126301599Y-120097831D01*
X126200669Y-120204620D01*
X126074469Y-120272500D01*
X125966497Y-120299950D01*
X125802088Y-120302947D01*
X125644764Y-120261549D01*
X125505251Y-120177546D01*
X125414954Y-120103116D01*
X125496284Y-120019205D01*
X125547665Y-119969496D01*
X125594141Y-119941820D01*
X125637235Y-119947914D01*
X125692353Y-119985098D01*
X125714331Y-119999655D01*
X125807178Y-120029449D01*
X125913895Y-120029431D01*
X126013808Y-119998723D01*
X126051429Y-119974064D01*
X126106613Y-119901245D01*
X126134278Y-119794290D01*
X126136058Y-119648517D01*
X126136053Y-119648435D01*
X126115470Y-119518014D01*
X126070128Y-119427587D01*
X125995518Y-119371652D01*
X125887128Y-119344704D01*
X125818871Y-119341079D01*
X125759231Y-119355921D01*
X125698065Y-119398918D01*
X125618912Y-119465520D01*
X125518672Y-119384965D01*
X125482050Y-119354105D01*
X125436307Y-119309889D01*
X125418432Y-119283832D01*
X125424762Y-119272089D01*
X125461221Y-119236036D01*
X125519301Y-119190185D01*
X125564744Y-119160348D01*
X125709024Y-119099056D01*
X125859583Y-119077654D01*
X126007341Y-119094329D01*
G37*
X129570953Y-119772173D02*
X129564005Y-119850982D01*
X129533299Y-120001438D01*
X129478376Y-120116246D01*
X129394780Y-120202966D01*
X129278058Y-120269155D01*
X129232739Y-120284908D01*
X129115373Y-120304562D01*
X128991866Y-120304027D01*
X128887651Y-120282439D01*
X128885603Y-120281655D01*
X128801618Y-120232251D01*
X128716770Y-120155770D01*
X128646366Y-120068311D01*
X128605714Y-119985969D01*
X128593663Y-119925779D01*
X128583346Y-119813084D01*
X128581617Y-119712632D01*
X128832502Y-119712632D01*
X128847500Y-119833119D01*
X128882735Y-119932123D01*
X128936117Y-119996815D01*
X128956350Y-120007922D01*
X129033506Y-120028111D01*
X129122749Y-120032265D01*
X129197828Y-120018235D01*
X129227132Y-119998116D01*
X129268264Y-119927760D01*
X129294146Y-119817645D01*
X129303138Y-119673145D01*
X129302994Y-119631549D01*
X129299870Y-119547264D01*
X129289482Y-119492281D01*
X129267688Y-119451655D01*
X129230347Y-119410437D01*
X129159293Y-119360481D01*
X129066791Y-119340057D01*
X128977418Y-119359509D01*
X128903210Y-119415771D01*
X128856201Y-119505775D01*
X128839828Y-119583494D01*
X128832502Y-119712632D01*
X128581617Y-119712632D01*
X128581137Y-119684738D01*
X128586672Y-119556993D01*
X128599588Y-119446101D01*
X128619522Y-119368315D01*
X128665953Y-119280245D01*
X128764498Y-119171959D01*
X128890453Y-119103364D01*
X129040074Y-119076213D01*
X129209615Y-119092259D01*
X129237825Y-119099094D01*
X129369201Y-119158040D01*
X129468198Y-119254814D01*
X129534820Y-119389423D01*
X129569070Y-119561874D01*
X129570067Y-119673145D01*
X129570953Y-119772173D01*
G36*
X129570953Y-119772173D02*
G01*
X129564005Y-119850982D01*
X129533299Y-120001438D01*
X129478376Y-120116246D01*
X129394780Y-120202966D01*
X129278058Y-120269155D01*
X129232739Y-120284908D01*
X129115373Y-120304562D01*
X128991866Y-120304027D01*
X128887651Y-120282439D01*
X128885603Y-120281655D01*
X128801618Y-120232251D01*
X128716770Y-120155770D01*
X128646366Y-120068311D01*
X128605714Y-119985969D01*
X128593663Y-119925779D01*
X128583346Y-119813084D01*
X128581617Y-119712632D01*
X128832502Y-119712632D01*
X128847500Y-119833119D01*
X128882735Y-119932123D01*
X128936117Y-119996815D01*
X128956350Y-120007922D01*
X129033506Y-120028111D01*
X129122749Y-120032265D01*
X129197828Y-120018235D01*
X129227132Y-119998116D01*
X129268264Y-119927760D01*
X129294146Y-119817645D01*
X129303138Y-119673145D01*
X129302994Y-119631549D01*
X129299870Y-119547264D01*
X129289482Y-119492281D01*
X129267688Y-119451655D01*
X129230347Y-119410437D01*
X129159293Y-119360481D01*
X129066791Y-119340057D01*
X128977418Y-119359509D01*
X128903210Y-119415771D01*
X128856201Y-119505775D01*
X128839828Y-119583494D01*
X128832502Y-119712632D01*
X128581617Y-119712632D01*
X128581137Y-119684738D01*
X128586672Y-119556993D01*
X128599588Y-119446101D01*
X128619522Y-119368315D01*
X128665953Y-119280245D01*
X128764498Y-119171959D01*
X128890453Y-119103364D01*
X129040074Y-119076213D01*
X129209615Y-119092259D01*
X129237825Y-119099094D01*
X129369201Y-119158040D01*
X129468198Y-119254814D01*
X129534820Y-119389423D01*
X129569070Y-119561874D01*
X129570067Y-119673145D01*
X129570953Y-119772173D01*
G37*
X129769270Y-121347297D02*
X129802936Y-121447741D01*
X129842761Y-121558935D01*
X129876017Y-121643172D01*
X129899954Y-121693587D01*
X129911824Y-121703318D01*
X129914688Y-121694856D01*
X129930191Y-121642953D01*
X129954883Y-121556265D01*
X129986023Y-121444497D01*
X130020870Y-121317353D01*
X130115674Y-120968726D01*
X130260426Y-120961163D01*
X130272645Y-120960557D01*
X130350703Y-120959755D01*
X130388212Y-120967768D01*
X130392989Y-120986065D01*
X130386955Y-121003934D01*
X130367103Y-121065095D01*
X130336023Y-121161960D01*
X130295930Y-121287602D01*
X130249037Y-121435091D01*
X130197561Y-121597500D01*
X130014321Y-122176471D01*
X129785105Y-122176471D01*
X129677101Y-121809167D01*
X129657158Y-121741720D01*
X129620300Y-121619101D01*
X129588805Y-121516930D01*
X129565510Y-121444336D01*
X129553250Y-121410446D01*
X129549757Y-121407918D01*
X129532758Y-121429778D01*
X129508489Y-121487586D01*
X129480982Y-121572309D01*
X129479528Y-121577285D01*
X129442700Y-121702322D01*
X129400562Y-121843896D01*
X129361950Y-121972316D01*
X129299339Y-122179044D01*
X129068411Y-122164020D01*
X128961470Y-121827843D01*
X128914519Y-121680128D01*
X128861926Y-121514458D01*
X128811565Y-121355638D01*
X128769878Y-121223971D01*
X128685227Y-120956275D01*
X128968429Y-120956275D01*
X129037072Y-121211520D01*
X129055321Y-121278963D01*
X129089833Y-121404697D01*
X129121793Y-121519083D01*
X129146089Y-121603726D01*
X129186463Y-121740686D01*
X129315224Y-121354706D01*
X129443986Y-120968726D01*
X129542472Y-120961332D01*
X129640959Y-120953939D01*
X129769270Y-121347297D01*
G36*
X129769270Y-121347297D02*
G01*
X129802936Y-121447741D01*
X129842761Y-121558935D01*
X129876017Y-121643172D01*
X129899954Y-121693587D01*
X129911824Y-121703318D01*
X129914688Y-121694856D01*
X129930191Y-121642953D01*
X129954883Y-121556265D01*
X129986023Y-121444497D01*
X130020870Y-121317353D01*
X130115674Y-120968726D01*
X130260426Y-120961163D01*
X130272645Y-120960557D01*
X130350703Y-120959755D01*
X130388212Y-120967768D01*
X130392989Y-120986065D01*
X130386955Y-121003934D01*
X130367103Y-121065095D01*
X130336023Y-121161960D01*
X130295930Y-121287602D01*
X130249037Y-121435091D01*
X130197561Y-121597500D01*
X130014321Y-122176471D01*
X129785105Y-122176471D01*
X129677101Y-121809167D01*
X129657158Y-121741720D01*
X129620300Y-121619101D01*
X129588805Y-121516930D01*
X129565510Y-121444336D01*
X129553250Y-121410446D01*
X129549757Y-121407918D01*
X129532758Y-121429778D01*
X129508489Y-121487586D01*
X129480982Y-121572309D01*
X129479528Y-121577285D01*
X129442700Y-121702322D01*
X129400562Y-121843896D01*
X129361950Y-121972316D01*
X129299339Y-122179044D01*
X129068411Y-122164020D01*
X128961470Y-121827843D01*
X128914519Y-121680128D01*
X128861926Y-121514458D01*
X128811565Y-121355638D01*
X128769878Y-121223971D01*
X128685227Y-120956275D01*
X128968429Y-120956275D01*
X129037072Y-121211520D01*
X129055321Y-121278963D01*
X129089833Y-121404697D01*
X129121793Y-121519083D01*
X129146089Y-121603726D01*
X129186463Y-121740686D01*
X129315224Y-121354706D01*
X129443986Y-120968726D01*
X129542472Y-120961332D01*
X129640959Y-120953939D01*
X129769270Y-121347297D01*
G37*
X131467979Y-121659570D02*
X131464822Y-121766032D01*
X131458474Y-121840192D01*
X131457386Y-121846989D01*
X131414660Y-121968555D01*
X131336634Y-122071619D01*
X131234274Y-122141444D01*
X131124354Y-122170346D01*
X130989151Y-122168103D01*
X130864776Y-122129351D01*
X130832379Y-122112998D01*
X130790720Y-122095475D01*
X130774867Y-122100927D01*
X130772353Y-122129351D01*
X130771199Y-122143525D01*
X130756292Y-122164488D01*
X130714889Y-122174140D01*
X130635393Y-122176471D01*
X130498432Y-122176471D01*
X130498432Y-121578607D01*
X130772353Y-121578607D01*
X130774316Y-121682181D01*
X130782283Y-121751138D01*
X130799292Y-121798379D01*
X130828383Y-121837968D01*
X130905196Y-121896831D01*
X130995086Y-121916564D01*
X131082254Y-121892162D01*
X131155669Y-121824090D01*
X131175075Y-121774278D01*
X131189410Y-121686070D01*
X131195711Y-121579052D01*
X131193726Y-121469284D01*
X131183199Y-121372827D01*
X131163876Y-121305743D01*
X131157703Y-121294742D01*
X131098193Y-121239453D01*
X131017546Y-121214959D01*
X130930933Y-121220656D01*
X130853522Y-121255940D01*
X130800486Y-121320208D01*
X130798294Y-121325613D01*
X130785143Y-121385921D01*
X130775866Y-121476039D01*
X130772353Y-121578607D01*
X130498432Y-121578607D01*
X130498432Y-120483137D01*
X130772353Y-120483137D01*
X130772353Y-121063601D01*
X130823090Y-121017685D01*
X130871942Y-120989146D01*
X130964402Y-120965290D01*
X131072485Y-120957603D01*
X131178036Y-120967040D01*
X131262900Y-120994557D01*
X131323641Y-121033699D01*
X131386207Y-121100379D01*
X131428315Y-121190053D01*
X131453627Y-121311355D01*
X131465806Y-121472918D01*
X131467596Y-121538225D01*
X131467725Y-121579052D01*
X131467979Y-121659570D01*
G36*
X131467979Y-121659570D02*
G01*
X131464822Y-121766032D01*
X131458474Y-121840192D01*
X131457386Y-121846989D01*
X131414660Y-121968555D01*
X131336634Y-122071619D01*
X131234274Y-122141444D01*
X131124354Y-122170346D01*
X130989151Y-122168103D01*
X130864776Y-122129351D01*
X130832379Y-122112998D01*
X130790720Y-122095475D01*
X130774867Y-122100927D01*
X130772353Y-122129351D01*
X130771199Y-122143525D01*
X130756292Y-122164488D01*
X130714889Y-122174140D01*
X130635393Y-122176471D01*
X130498432Y-122176471D01*
X130498432Y-121578607D01*
X130772353Y-121578607D01*
X130774316Y-121682181D01*
X130782283Y-121751138D01*
X130799292Y-121798379D01*
X130828383Y-121837968D01*
X130905196Y-121896831D01*
X130995086Y-121916564D01*
X131082254Y-121892162D01*
X131155669Y-121824090D01*
X131175075Y-121774278D01*
X131189410Y-121686070D01*
X131195711Y-121579052D01*
X131193726Y-121469284D01*
X131183199Y-121372827D01*
X131163876Y-121305743D01*
X131157703Y-121294742D01*
X131098193Y-121239453D01*
X131017546Y-121214959D01*
X130930933Y-121220656D01*
X130853522Y-121255940D01*
X130800486Y-121320208D01*
X130798294Y-121325613D01*
X130785143Y-121385921D01*
X130775866Y-121476039D01*
X130772353Y-121578607D01*
X130498432Y-121578607D01*
X130498432Y-120483137D01*
X130772353Y-120483137D01*
X130772353Y-121063601D01*
X130823090Y-121017685D01*
X130871942Y-120989146D01*
X130964402Y-120965290D01*
X131072485Y-120957603D01*
X131178036Y-120967040D01*
X131262900Y-120994557D01*
X131323641Y-121033699D01*
X131386207Y-121100379D01*
X131428315Y-121190053D01*
X131453627Y-121311355D01*
X131465806Y-121472918D01*
X131467596Y-121538225D01*
X131467725Y-121579052D01*
X131467979Y-121659570D01*
G37*
X135773818Y-119754666D02*
X135770603Y-119832653D01*
X135763305Y-119927754D01*
X135750873Y-119995160D01*
X135730343Y-120048570D01*
X135698751Y-120101685D01*
X135697406Y-120103699D01*
X135619616Y-120189755D01*
X135524438Y-120255391D01*
X135413760Y-120294339D01*
X135268163Y-120306985D01*
X135125463Y-120282119D01*
X134997909Y-120222198D01*
X134897753Y-120129681D01*
X134868999Y-120085967D01*
X134815301Y-119950073D01*
X134788670Y-119782408D01*
X134789125Y-119739997D01*
X135056763Y-119739997D01*
X135057267Y-119819314D01*
X135065677Y-119872267D01*
X135084838Y-119912956D01*
X135117598Y-119955479D01*
X135163058Y-119997676D01*
X135253980Y-120035333D01*
X135351608Y-120028338D01*
X135444914Y-119976002D01*
X135471234Y-119951006D01*
X135499336Y-119908214D01*
X135514920Y-119848068D01*
X135523753Y-119754348D01*
X135526186Y-119683944D01*
X135512856Y-119540168D01*
X135471947Y-119437231D01*
X135403281Y-119374567D01*
X135322789Y-119344560D01*
X135226794Y-119347086D01*
X135137811Y-119397746D01*
X135116538Y-119417031D01*
X135089693Y-119450774D01*
X135073766Y-119494920D01*
X135064929Y-119562601D01*
X135059355Y-119666950D01*
X135056763Y-119739997D01*
X134789125Y-119739997D01*
X134790724Y-119591126D01*
X134793345Y-119563996D01*
X134829918Y-119390229D01*
X134897581Y-119255334D01*
X134996478Y-119159163D01*
X135126753Y-119101568D01*
X135288550Y-119082402D01*
X135349679Y-119084201D01*
X135475039Y-119106211D01*
X135577546Y-119158746D01*
X135673115Y-119248686D01*
X135688400Y-119266737D01*
X135729624Y-119327530D01*
X135756717Y-119396367D01*
X135771740Y-119483600D01*
X135776754Y-119599582D01*
X135775156Y-119683944D01*
X135773818Y-119754666D01*
G36*
X135773818Y-119754666D02*
G01*
X135770603Y-119832653D01*
X135763305Y-119927754D01*
X135750873Y-119995160D01*
X135730343Y-120048570D01*
X135698751Y-120101685D01*
X135697406Y-120103699D01*
X135619616Y-120189755D01*
X135524438Y-120255391D01*
X135413760Y-120294339D01*
X135268163Y-120306985D01*
X135125463Y-120282119D01*
X134997909Y-120222198D01*
X134897753Y-120129681D01*
X134868999Y-120085967D01*
X134815301Y-119950073D01*
X134788670Y-119782408D01*
X134789125Y-119739997D01*
X135056763Y-119739997D01*
X135057267Y-119819314D01*
X135065677Y-119872267D01*
X135084838Y-119912956D01*
X135117598Y-119955479D01*
X135163058Y-119997676D01*
X135253980Y-120035333D01*
X135351608Y-120028338D01*
X135444914Y-119976002D01*
X135471234Y-119951006D01*
X135499336Y-119908214D01*
X135514920Y-119848068D01*
X135523753Y-119754348D01*
X135526186Y-119683944D01*
X135512856Y-119540168D01*
X135471947Y-119437231D01*
X135403281Y-119374567D01*
X135322789Y-119344560D01*
X135226794Y-119347086D01*
X135137811Y-119397746D01*
X135116538Y-119417031D01*
X135089693Y-119450774D01*
X135073766Y-119494920D01*
X135064929Y-119562601D01*
X135059355Y-119666950D01*
X135056763Y-119739997D01*
X134789125Y-119739997D01*
X134790724Y-119591126D01*
X134793345Y-119563996D01*
X134829918Y-119390229D01*
X134897581Y-119255334D01*
X134996478Y-119159163D01*
X135126753Y-119101568D01*
X135288550Y-119082402D01*
X135349679Y-119084201D01*
X135475039Y-119106211D01*
X135577546Y-119158746D01*
X135673115Y-119248686D01*
X135688400Y-119266737D01*
X135729624Y-119327530D01*
X135756717Y-119396367D01*
X135771740Y-119483600D01*
X135776754Y-119599582D01*
X135775156Y-119683944D01*
X135773818Y-119754666D01*
G37*
X125385566Y-119606032D02*
X125382360Y-119796632D01*
X125381943Y-119800380D01*
X125346139Y-119975271D01*
X125281449Y-120111247D01*
X125185859Y-120211296D01*
X125057353Y-120278405D01*
X125033764Y-120286079D01*
X124887551Y-120308696D01*
X124736334Y-120296084D01*
X124595750Y-120251017D01*
X124481437Y-120176269D01*
X124395812Y-120097157D01*
X124486827Y-120025191D01*
X124577842Y-119953224D01*
X124687528Y-120006514D01*
X124814445Y-120049695D01*
X124926488Y-120050987D01*
X125018157Y-120011314D01*
X125084123Y-119931683D01*
X125107771Y-119883968D01*
X125120972Y-119843189D01*
X125113334Y-119815641D01*
X125079063Y-119798731D01*
X125012368Y-119789864D01*
X124907454Y-119786445D01*
X124758530Y-119785882D01*
X124397451Y-119785882D01*
X124397451Y-119613190D01*
X124400149Y-119537376D01*
X124654385Y-119537376D01*
X124666595Y-119551321D01*
X124702748Y-119558578D01*
X124771463Y-119561332D01*
X124881362Y-119561765D01*
X124940294Y-119561073D01*
X125033290Y-119556500D01*
X125096373Y-119548491D01*
X125119608Y-119538035D01*
X125113663Y-119499456D01*
X125071762Y-119425634D01*
X125001938Y-119364990D01*
X124918699Y-119328362D01*
X124836554Y-119326589D01*
X124774721Y-119355960D01*
X124704656Y-119422800D01*
X124660106Y-119505735D01*
X124657496Y-119514562D01*
X124654385Y-119537376D01*
X124400149Y-119537376D01*
X124400702Y-119521853D01*
X124410246Y-119431484D01*
X124423881Y-119370396D01*
X124433820Y-119347074D01*
X124506166Y-119243202D01*
X124610700Y-119156569D01*
X124732949Y-119099845D01*
X124796713Y-119084355D01*
X124948645Y-119077304D01*
X125084022Y-119113174D01*
X125199122Y-119187974D01*
X125290227Y-119297711D01*
X125353615Y-119438395D01*
X125372607Y-119538035D01*
X125385566Y-119606032D01*
G36*
X125385566Y-119606032D02*
G01*
X125382360Y-119796632D01*
X125381943Y-119800380D01*
X125346139Y-119975271D01*
X125281449Y-120111247D01*
X125185859Y-120211296D01*
X125057353Y-120278405D01*
X125033764Y-120286079D01*
X124887551Y-120308696D01*
X124736334Y-120296084D01*
X124595750Y-120251017D01*
X124481437Y-120176269D01*
X124395812Y-120097157D01*
X124486827Y-120025191D01*
X124577842Y-119953224D01*
X124687528Y-120006514D01*
X124814445Y-120049695D01*
X124926488Y-120050987D01*
X125018157Y-120011314D01*
X125084123Y-119931683D01*
X125107771Y-119883968D01*
X125120972Y-119843189D01*
X125113334Y-119815641D01*
X125079063Y-119798731D01*
X125012368Y-119789864D01*
X124907454Y-119786445D01*
X124758530Y-119785882D01*
X124397451Y-119785882D01*
X124397451Y-119613190D01*
X124400149Y-119537376D01*
X124654385Y-119537376D01*
X124666595Y-119551321D01*
X124702748Y-119558578D01*
X124771463Y-119561332D01*
X124881362Y-119561765D01*
X124940294Y-119561073D01*
X125033290Y-119556500D01*
X125096373Y-119548491D01*
X125119608Y-119538035D01*
X125113663Y-119499456D01*
X125071762Y-119425634D01*
X125001938Y-119364990D01*
X124918699Y-119328362D01*
X124836554Y-119326589D01*
X124774721Y-119355960D01*
X124704656Y-119422800D01*
X124660106Y-119505735D01*
X124657496Y-119514562D01*
X124654385Y-119537376D01*
X124400149Y-119537376D01*
X124400702Y-119521853D01*
X124410246Y-119431484D01*
X124423881Y-119370396D01*
X124433820Y-119347074D01*
X124506166Y-119243202D01*
X124610700Y-119156569D01*
X124732949Y-119099845D01*
X124796713Y-119084355D01*
X124948645Y-119077304D01*
X125084022Y-119113174D01*
X125199122Y-119187974D01*
X125290227Y-119297711D01*
X125353615Y-119438395D01*
X125372607Y-119538035D01*
X125385566Y-119606032D01*
G37*
X130295810Y-119087820D02*
X130439629Y-119123866D01*
X130544691Y-119190677D01*
X130611594Y-119288702D01*
X130640940Y-119418387D01*
X130634999Y-119542544D01*
X130592114Y-119647266D01*
X130509876Y-119724693D01*
X130386635Y-119776337D01*
X130220744Y-119803710D01*
X130112952Y-119818057D01*
X130014566Y-119849099D01*
X129963771Y-119894053D01*
X129960704Y-119952838D01*
X129981146Y-119989493D01*
X130044454Y-120032935D01*
X130134449Y-120053483D01*
X130239913Y-120050673D01*
X130349626Y-120024042D01*
X130452368Y-119973128D01*
X130554804Y-119905339D01*
X130644902Y-119996508D01*
X130735000Y-120087676D01*
X130660295Y-120148655D01*
X130631246Y-120169842D01*
X130549517Y-120217978D01*
X130461079Y-120259457D01*
X130391087Y-120283262D01*
X130288602Y-120300504D01*
X130162255Y-120300732D01*
X130007318Y-120281748D01*
X129867745Y-120233630D01*
X129768950Y-120157195D01*
X129710701Y-120052254D01*
X129692762Y-119918617D01*
X129705747Y-119801054D01*
X129747431Y-119704803D01*
X129822477Y-119635873D01*
X129935635Y-119590030D01*
X130091654Y-119563042D01*
X130109574Y-119561088D01*
X130206714Y-119548630D01*
X130285514Y-119535592D01*
X130330344Y-119524499D01*
X130345304Y-119515567D01*
X130370596Y-119469509D01*
X130366488Y-119410553D01*
X130332688Y-119359373D01*
X130314939Y-119348210D01*
X130240981Y-119330326D01*
X130145451Y-119331529D01*
X130045836Y-119350561D01*
X129959621Y-119386168D01*
X129869031Y-119439618D01*
X129798763Y-119357505D01*
X129781712Y-119336644D01*
X129743298Y-119280761D01*
X129727483Y-119242887D01*
X129744090Y-119219664D01*
X129795469Y-119183412D01*
X129869657Y-119144402D01*
X129880110Y-119139633D01*
X129977941Y-119102229D01*
X130072241Y-119084345D01*
X130189262Y-119080754D01*
X130295810Y-119087820D01*
G36*
X130295810Y-119087820D02*
G01*
X130439629Y-119123866D01*
X130544691Y-119190677D01*
X130611594Y-119288702D01*
X130640940Y-119418387D01*
X130634999Y-119542544D01*
X130592114Y-119647266D01*
X130509876Y-119724693D01*
X130386635Y-119776337D01*
X130220744Y-119803710D01*
X130112952Y-119818057D01*
X130014566Y-119849099D01*
X129963771Y-119894053D01*
X129960704Y-119952838D01*
X129981146Y-119989493D01*
X130044454Y-120032935D01*
X130134449Y-120053483D01*
X130239913Y-120050673D01*
X130349626Y-120024042D01*
X130452368Y-119973128D01*
X130554804Y-119905339D01*
X130644902Y-119996508D01*
X130735000Y-120087676D01*
X130660295Y-120148655D01*
X130631246Y-120169842D01*
X130549517Y-120217978D01*
X130461079Y-120259457D01*
X130391087Y-120283262D01*
X130288602Y-120300504D01*
X130162255Y-120300732D01*
X130007318Y-120281748D01*
X129867745Y-120233630D01*
X129768950Y-120157195D01*
X129710701Y-120052254D01*
X129692762Y-119918617D01*
X129705747Y-119801054D01*
X129747431Y-119704803D01*
X129822477Y-119635873D01*
X129935635Y-119590030D01*
X130091654Y-119563042D01*
X130109574Y-119561088D01*
X130206714Y-119548630D01*
X130285514Y-119535592D01*
X130330344Y-119524499D01*
X130345304Y-119515567D01*
X130370596Y-119469509D01*
X130366488Y-119410553D01*
X130332688Y-119359373D01*
X130314939Y-119348210D01*
X130240981Y-119330326D01*
X130145451Y-119331529D01*
X130045836Y-119350561D01*
X129959621Y-119386168D01*
X129869031Y-119439618D01*
X129798763Y-119357505D01*
X129781712Y-119336644D01*
X129743298Y-119280761D01*
X129727483Y-119242887D01*
X129744090Y-119219664D01*
X129795469Y-119183412D01*
X129869657Y-119144402D01*
X129880110Y-119139633D01*
X129977941Y-119102229D01*
X130072241Y-119084345D01*
X130189262Y-119080754D01*
X130295810Y-119087820D01*
G37*
X126662740Y-121566373D02*
X126659502Y-121659330D01*
X126630010Y-121837105D01*
X126569329Y-121976892D01*
X126476922Y-122079689D01*
X126352255Y-122146496D01*
X126311976Y-122158300D01*
X126168153Y-122174786D01*
X126016289Y-122160873D01*
X125879118Y-122117935D01*
X125830794Y-122093565D01*
X125761507Y-122051819D01*
X125719517Y-122017468D01*
X125713317Y-122009620D01*
X125701719Y-121980917D01*
X125718430Y-121949714D01*
X125769321Y-121902459D01*
X125793880Y-121881887D01*
X125842260Y-121844242D01*
X125867627Y-121828855D01*
X125874894Y-121830440D01*
X125916544Y-121847574D01*
X125978726Y-121877647D01*
X125999000Y-121887540D01*
X126118600Y-121924275D01*
X126222506Y-121914805D01*
X126313621Y-121858971D01*
X126324222Y-121848654D01*
X126374909Y-121784031D01*
X126403870Y-121722010D01*
X126419909Y-121653530D01*
X125667451Y-121653530D01*
X125667590Y-121522794D01*
X125667670Y-121509792D01*
X125677829Y-121404903D01*
X125941373Y-121404903D01*
X125944485Y-121426657D01*
X125960462Y-121441649D01*
X125998543Y-121449970D01*
X126067960Y-121453549D01*
X126177942Y-121454314D01*
X126239086Y-121453521D01*
X126329338Y-121448888D01*
X126391416Y-121441038D01*
X126414510Y-121431033D01*
X126394814Y-121348677D01*
X126337151Y-121271811D01*
X126253984Y-121218484D01*
X126157911Y-121200038D01*
X126087178Y-121220832D01*
X126016471Y-121271664D01*
X125962722Y-121337892D01*
X125941373Y-121404903D01*
X125677829Y-121404903D01*
X125683248Y-121348950D01*
X125728592Y-121218106D01*
X125807712Y-121105313D01*
X125855979Y-121057600D01*
X125955663Y-120993731D01*
X126074693Y-120962784D01*
X126225043Y-120960607D01*
X126297668Y-120969139D01*
X126431727Y-121013440D01*
X126534365Y-121094069D01*
X126606480Y-121212271D01*
X126648972Y-121369291D01*
X126653286Y-121431033D01*
X126662740Y-121566373D01*
G36*
X126662740Y-121566373D02*
G01*
X126659502Y-121659330D01*
X126630010Y-121837105D01*
X126569329Y-121976892D01*
X126476922Y-122079689D01*
X126352255Y-122146496D01*
X126311976Y-122158300D01*
X126168153Y-122174786D01*
X126016289Y-122160873D01*
X125879118Y-122117935D01*
X125830794Y-122093565D01*
X125761507Y-122051819D01*
X125719517Y-122017468D01*
X125713317Y-122009620D01*
X125701719Y-121980917D01*
X125718430Y-121949714D01*
X125769321Y-121902459D01*
X125793880Y-121881887D01*
X125842260Y-121844242D01*
X125867627Y-121828855D01*
X125874894Y-121830440D01*
X125916544Y-121847574D01*
X125978726Y-121877647D01*
X125999000Y-121887540D01*
X126118600Y-121924275D01*
X126222506Y-121914805D01*
X126313621Y-121858971D01*
X126324222Y-121848654D01*
X126374909Y-121784031D01*
X126403870Y-121722010D01*
X126419909Y-121653530D01*
X125667451Y-121653530D01*
X125667590Y-121522794D01*
X125667670Y-121509792D01*
X125677829Y-121404903D01*
X125941373Y-121404903D01*
X125944485Y-121426657D01*
X125960462Y-121441649D01*
X125998543Y-121449970D01*
X126067960Y-121453549D01*
X126177942Y-121454314D01*
X126239086Y-121453521D01*
X126329338Y-121448888D01*
X126391416Y-121441038D01*
X126414510Y-121431033D01*
X126394814Y-121348677D01*
X126337151Y-121271811D01*
X126253984Y-121218484D01*
X126157911Y-121200038D01*
X126087178Y-121220832D01*
X126016471Y-121271664D01*
X125962722Y-121337892D01*
X125941373Y-121404903D01*
X125677829Y-121404903D01*
X125683248Y-121348950D01*
X125728592Y-121218106D01*
X125807712Y-121105313D01*
X125855979Y-121057600D01*
X125955663Y-120993731D01*
X126074693Y-120962784D01*
X126225043Y-120960607D01*
X126297668Y-120969139D01*
X126431727Y-121013440D01*
X126534365Y-121094069D01*
X126606480Y-121212271D01*
X126648972Y-121369291D01*
X126653286Y-121431033D01*
X126662740Y-121566373D01*
G37*
X133480573Y-119536685D02*
X133489286Y-119711108D01*
X133487109Y-119787224D01*
X133462559Y-119953570D01*
X133408460Y-120084728D01*
X133321982Y-120186101D01*
X133200295Y-120263096D01*
X133082249Y-120299039D01*
X132934161Y-120305915D01*
X132784748Y-120279468D01*
X132651472Y-120221037D01*
X132602083Y-120188532D01*
X132547668Y-120146868D01*
X132522840Y-120119452D01*
X132524247Y-120108140D01*
X132552039Y-120069597D01*
X132604272Y-120022901D01*
X132694791Y-119953858D01*
X132800858Y-120006831D01*
X132829540Y-120019943D01*
X132913971Y-120048441D01*
X132984737Y-120059804D01*
X133036919Y-120050441D01*
X133118806Y-120005351D01*
X133187637Y-119935355D01*
X133227007Y-119854363D01*
X133243047Y-119785882D01*
X132490589Y-119785882D01*
X132490728Y-119655147D01*
X132491867Y-119613713D01*
X132500182Y-119524805D01*
X132764510Y-119524805D01*
X132764995Y-119529899D01*
X132778687Y-119545760D01*
X132817378Y-119555505D01*
X132889317Y-119560413D01*
X133002757Y-119561765D01*
X133040042Y-119561749D01*
X133136873Y-119560854D01*
X133195083Y-119556988D01*
X133223306Y-119547968D01*
X133230173Y-119531611D01*
X133224317Y-119505735D01*
X133223423Y-119502802D01*
X133172973Y-119412759D01*
X133093442Y-119350766D01*
X132998603Y-119327686D01*
X132963547Y-119329532D01*
X132898481Y-119351611D01*
X132836061Y-119407766D01*
X132819247Y-119427621D01*
X132780137Y-119484326D01*
X132764510Y-119524805D01*
X132500182Y-119524805D01*
X132501251Y-119513376D01*
X132516988Y-119430349D01*
X132534236Y-119383868D01*
X132594879Y-119282769D01*
X132676094Y-119190951D01*
X132761981Y-119128037D01*
X132786796Y-119116354D01*
X132931290Y-119077600D01*
X133078842Y-119081686D01*
X133217567Y-119126882D01*
X133335579Y-119211461D01*
X133399410Y-119289461D01*
X133451601Y-119399343D01*
X133479503Y-119531611D01*
X133480573Y-119536685D01*
G36*
X133480573Y-119536685D02*
G01*
X133489286Y-119711108D01*
X133487109Y-119787224D01*
X133462559Y-119953570D01*
X133408460Y-120084728D01*
X133321982Y-120186101D01*
X133200295Y-120263096D01*
X133082249Y-120299039D01*
X132934161Y-120305915D01*
X132784748Y-120279468D01*
X132651472Y-120221037D01*
X132602083Y-120188532D01*
X132547668Y-120146868D01*
X132522840Y-120119452D01*
X132524247Y-120108140D01*
X132552039Y-120069597D01*
X132604272Y-120022901D01*
X132694791Y-119953858D01*
X132800858Y-120006831D01*
X132829540Y-120019943D01*
X132913971Y-120048441D01*
X132984737Y-120059804D01*
X133036919Y-120050441D01*
X133118806Y-120005351D01*
X133187637Y-119935355D01*
X133227007Y-119854363D01*
X133243047Y-119785882D01*
X132490589Y-119785882D01*
X132490728Y-119655147D01*
X132491867Y-119613713D01*
X132500182Y-119524805D01*
X132764510Y-119524805D01*
X132764995Y-119529899D01*
X132778687Y-119545760D01*
X132817378Y-119555505D01*
X132889317Y-119560413D01*
X133002757Y-119561765D01*
X133040042Y-119561749D01*
X133136873Y-119560854D01*
X133195083Y-119556988D01*
X133223306Y-119547968D01*
X133230173Y-119531611D01*
X133224317Y-119505735D01*
X133223423Y-119502802D01*
X133172973Y-119412759D01*
X133093442Y-119350766D01*
X132998603Y-119327686D01*
X132963547Y-119329532D01*
X132898481Y-119351611D01*
X132836061Y-119407766D01*
X132819247Y-119427621D01*
X132780137Y-119484326D01*
X132764510Y-119524805D01*
X132500182Y-119524805D01*
X132501251Y-119513376D01*
X132516988Y-119430349D01*
X132534236Y-119383868D01*
X132594879Y-119282769D01*
X132676094Y-119190951D01*
X132761981Y-119128037D01*
X132786796Y-119116354D01*
X132931290Y-119077600D01*
X133078842Y-119081686D01*
X133217567Y-119126882D01*
X133335579Y-119211461D01*
X133399410Y-119289461D01*
X133451601Y-119399343D01*
X133479503Y-119531611D01*
X133480573Y-119536685D01*
G37*
X128692760Y-121848738D02*
X128662719Y-121961789D01*
X128597432Y-122058505D01*
X128498398Y-122128077D01*
X128488679Y-122132305D01*
X128380320Y-122162767D01*
X128258223Y-122174642D01*
X128142138Y-122167382D01*
X128051814Y-122140441D01*
X128015734Y-122122865D01*
X127989256Y-122118674D01*
X127983334Y-122140594D01*
X127972116Y-122160866D01*
X127928713Y-122172938D01*
X127844469Y-122176471D01*
X127705604Y-122176471D01*
X127713734Y-121697108D01*
X127714602Y-121653530D01*
X127983334Y-121653530D01*
X127983334Y-121740686D01*
X127992713Y-121805829D01*
X128033138Y-121877647D01*
X128048059Y-121890848D01*
X128109218Y-121918620D01*
X128201226Y-121925766D01*
X128256435Y-121922974D01*
X128359741Y-121901952D01*
X128423771Y-121862782D01*
X128445367Y-121808122D01*
X128421369Y-121740628D01*
X128407367Y-121722964D01*
X128344827Y-121683345D01*
X128245847Y-121660722D01*
X128104731Y-121653530D01*
X127983334Y-121653530D01*
X127714602Y-121653530D01*
X127715943Y-121586258D01*
X127721761Y-121420305D01*
X127731567Y-121293409D01*
X127747299Y-121198654D01*
X127770894Y-121129120D01*
X127804291Y-121077890D01*
X127849427Y-121038046D01*
X127908239Y-121002669D01*
X127938580Y-120989163D01*
X128043541Y-120963669D01*
X128170134Y-120953129D01*
X128301017Y-120957350D01*
X128418845Y-120976140D01*
X128506275Y-121009305D01*
X128536687Y-121028562D01*
X128606705Y-121085636D01*
X128630403Y-121133427D01*
X128624648Y-121142662D01*
X128588782Y-121174919D01*
X128530881Y-121217950D01*
X128501279Y-121238091D01*
X128450868Y-121266629D01*
X128418110Y-121269354D01*
X128387695Y-121249657D01*
X128311892Y-121209766D01*
X128209895Y-121193361D01*
X128105661Y-121205920D01*
X128103689Y-121206489D01*
X128030171Y-121238431D01*
X127993781Y-121288428D01*
X127983715Y-121371116D01*
X127983334Y-121449780D01*
X128243230Y-121458273D01*
X128284636Y-121459670D01*
X128389027Y-121464528D01*
X128459010Y-121472161D01*
X128506313Y-121485425D01*
X128542668Y-121507181D01*
X128579804Y-121540285D01*
X128641120Y-121616855D01*
X128686059Y-121730157D01*
X128690465Y-121808122D01*
X128692760Y-121848738D01*
G36*
X128692760Y-121848738D02*
G01*
X128662719Y-121961789D01*
X128597432Y-122058505D01*
X128498398Y-122128077D01*
X128488679Y-122132305D01*
X128380320Y-122162767D01*
X128258223Y-122174642D01*
X128142138Y-122167382D01*
X128051814Y-122140441D01*
X128015734Y-122122865D01*
X127989256Y-122118674D01*
X127983334Y-122140594D01*
X127972116Y-122160866D01*
X127928713Y-122172938D01*
X127844469Y-122176471D01*
X127705604Y-122176471D01*
X127713734Y-121697108D01*
X127714602Y-121653530D01*
X127983334Y-121653530D01*
X127983334Y-121740686D01*
X127992713Y-121805829D01*
X128033138Y-121877647D01*
X128048059Y-121890848D01*
X128109218Y-121918620D01*
X128201226Y-121925766D01*
X128256435Y-121922974D01*
X128359741Y-121901952D01*
X128423771Y-121862782D01*
X128445367Y-121808122D01*
X128421369Y-121740628D01*
X128407367Y-121722964D01*
X128344827Y-121683345D01*
X128245847Y-121660722D01*
X128104731Y-121653530D01*
X127983334Y-121653530D01*
X127714602Y-121653530D01*
X127715943Y-121586258D01*
X127721761Y-121420305D01*
X127731567Y-121293409D01*
X127747299Y-121198654D01*
X127770894Y-121129120D01*
X127804291Y-121077890D01*
X127849427Y-121038046D01*
X127908239Y-121002669D01*
X127938580Y-120989163D01*
X128043541Y-120963669D01*
X128170134Y-120953129D01*
X128301017Y-120957350D01*
X128418845Y-120976140D01*
X128506275Y-121009305D01*
X128536687Y-121028562D01*
X128606705Y-121085636D01*
X128630403Y-121133427D01*
X128624648Y-121142662D01*
X128588782Y-121174919D01*
X128530881Y-121217950D01*
X128501279Y-121238091D01*
X128450868Y-121266629D01*
X128418110Y-121269354D01*
X128387695Y-121249657D01*
X128311892Y-121209766D01*
X128209895Y-121193361D01*
X128105661Y-121205920D01*
X128103689Y-121206489D01*
X128030171Y-121238431D01*
X127993781Y-121288428D01*
X127983715Y-121371116D01*
X127983334Y-121449780D01*
X128243230Y-121458273D01*
X128284636Y-121459670D01*
X128389027Y-121464528D01*
X128459010Y-121472161D01*
X128506313Y-121485425D01*
X128542668Y-121507181D01*
X128579804Y-121540285D01*
X128641120Y-121616855D01*
X128686059Y-121730157D01*
X128690465Y-121808122D01*
X128692760Y-121848738D01*
G37*
X133481123Y-121844559D02*
X133480841Y-121847844D01*
X133450497Y-121975772D01*
X133383002Y-122071986D01*
X133275000Y-122141318D01*
X133219189Y-122158186D01*
X133123593Y-122171333D01*
X133019055Y-122174472D01*
X132924738Y-122167237D01*
X132859808Y-122149262D01*
X132820370Y-122134864D01*
X132781758Y-122149262D01*
X132767634Y-122157604D01*
X132711261Y-122171131D01*
X132635020Y-122176471D01*
X132515491Y-122176471D01*
X132515491Y-121694565D01*
X132515500Y-121653530D01*
X132789412Y-121653530D01*
X132789412Y-121749278D01*
X132798619Y-121822143D01*
X132834951Y-121886239D01*
X132855744Y-121900110D01*
X132929958Y-121921731D01*
X133022610Y-121927129D01*
X133113468Y-121916162D01*
X133182303Y-121888686D01*
X133216595Y-121852358D01*
X133237647Y-121787808D01*
X133218977Y-121736639D01*
X133157259Y-121692148D01*
X133058047Y-121663605D01*
X132927173Y-121653530D01*
X132789412Y-121653530D01*
X132515500Y-121653530D01*
X132515500Y-121652890D01*
X132515954Y-121495810D01*
X132517658Y-121379029D01*
X132521385Y-121294788D01*
X132527911Y-121235329D01*
X132538008Y-121192891D01*
X132552452Y-121159716D01*
X132572016Y-121128045D01*
X132634949Y-121053837D01*
X132724130Y-120997180D01*
X132841280Y-120965922D01*
X132995653Y-120956313D01*
X133000671Y-120956323D01*
X133107980Y-120961170D01*
X133204028Y-120973252D01*
X133269575Y-120990191D01*
X133287545Y-120998679D01*
X133344740Y-121034627D01*
X133396499Y-121077352D01*
X133430553Y-121115800D01*
X133434635Y-121138916D01*
X133426669Y-121145164D01*
X133339875Y-121211855D01*
X133281839Y-121251188D01*
X133243465Y-121267057D01*
X133215659Y-121263359D01*
X133189327Y-121243990D01*
X133140730Y-121219809D01*
X133058833Y-121203687D01*
X132966273Y-121199505D01*
X132882519Y-121208015D01*
X132827035Y-121229972D01*
X132824116Y-121232644D01*
X132799183Y-121282836D01*
X132789412Y-121357755D01*
X132789412Y-121454314D01*
X133019755Y-121454407D01*
X133125565Y-121456082D01*
X133214632Y-121463368D01*
X133278345Y-121478357D01*
X133329821Y-121503110D01*
X133341800Y-121510712D01*
X133428466Y-121594282D01*
X133474564Y-121704790D01*
X133478460Y-121787808D01*
X133481123Y-121844559D01*
G36*
X133481123Y-121844559D02*
G01*
X133480841Y-121847844D01*
X133450497Y-121975772D01*
X133383002Y-122071986D01*
X133275000Y-122141318D01*
X133219189Y-122158186D01*
X133123593Y-122171333D01*
X133019055Y-122174472D01*
X132924738Y-122167237D01*
X132859808Y-122149262D01*
X132820370Y-122134864D01*
X132781758Y-122149262D01*
X132767634Y-122157604D01*
X132711261Y-122171131D01*
X132635020Y-122176471D01*
X132515491Y-122176471D01*
X132515491Y-121694565D01*
X132515500Y-121653530D01*
X132789412Y-121653530D01*
X132789412Y-121749278D01*
X132798619Y-121822143D01*
X132834951Y-121886239D01*
X132855744Y-121900110D01*
X132929958Y-121921731D01*
X133022610Y-121927129D01*
X133113468Y-121916162D01*
X133182303Y-121888686D01*
X133216595Y-121852358D01*
X133237647Y-121787808D01*
X133218977Y-121736639D01*
X133157259Y-121692148D01*
X133058047Y-121663605D01*
X132927173Y-121653530D01*
X132789412Y-121653530D01*
X132515500Y-121653530D01*
X132515500Y-121652890D01*
X132515954Y-121495810D01*
X132517658Y-121379029D01*
X132521385Y-121294788D01*
X132527911Y-121235329D01*
X132538008Y-121192891D01*
X132552452Y-121159716D01*
X132572016Y-121128045D01*
X132634949Y-121053837D01*
X132724130Y-120997180D01*
X132841280Y-120965922D01*
X132995653Y-120956313D01*
X133000671Y-120956323D01*
X133107980Y-120961170D01*
X133204028Y-120973252D01*
X133269575Y-120990191D01*
X133287545Y-120998679D01*
X133344740Y-121034627D01*
X133396499Y-121077352D01*
X133430553Y-121115800D01*
X133434635Y-121138916D01*
X133426669Y-121145164D01*
X133339875Y-121211855D01*
X133281839Y-121251188D01*
X133243465Y-121267057D01*
X133215659Y-121263359D01*
X133189327Y-121243990D01*
X133140730Y-121219809D01*
X133058833Y-121203687D01*
X132966273Y-121199505D01*
X132882519Y-121208015D01*
X132827035Y-121229972D01*
X132824116Y-121232644D01*
X132799183Y-121282836D01*
X132789412Y-121357755D01*
X132789412Y-121454314D01*
X133019755Y-121454407D01*
X133125565Y-121456082D01*
X133214632Y-121463368D01*
X133278345Y-121478357D01*
X133329821Y-121503110D01*
X133341800Y-121510712D01*
X133428466Y-121594282D01*
X133474564Y-121704790D01*
X133478460Y-121787808D01*
X133481123Y-121844559D01*
G37*
X134607255Y-122179073D02*
X134476520Y-122171547D01*
X134345785Y-122164020D01*
X134339569Y-121765588D01*
X134337730Y-121668704D01*
X134332510Y-121523146D01*
X134323550Y-121416334D01*
X134309203Y-121341087D01*
X134287821Y-121290227D01*
X134257759Y-121256574D01*
X134217367Y-121232947D01*
X134141578Y-121208818D01*
X134066207Y-121218194D01*
X133986617Y-121269763D01*
X133910000Y-121334231D01*
X133910000Y-122176471D01*
X133636079Y-122176471D01*
X133636079Y-121719701D01*
X133636342Y-121576531D01*
X133637799Y-121449309D01*
X133641301Y-121356184D01*
X133647697Y-121288713D01*
X133657835Y-121238454D01*
X133672563Y-121196966D01*
X133692729Y-121155805D01*
X133697510Y-121147066D01*
X133761101Y-121061954D01*
X133835527Y-121002476D01*
X133925255Y-120971245D01*
X134044072Y-120957342D01*
X134163059Y-120964872D01*
X134259865Y-120994267D01*
X134333334Y-121032259D01*
X134333334Y-120210015D01*
X134232667Y-120262486D01*
X134190616Y-120281549D01*
X134057886Y-120308506D01*
X133925979Y-120289874D01*
X133803705Y-120227929D01*
X133699872Y-120124943D01*
X133683606Y-120100738D01*
X133667973Y-120065256D01*
X133657776Y-120017015D01*
X133651888Y-119946757D01*
X133649182Y-119845221D01*
X133648696Y-119739428D01*
X133911759Y-119739428D01*
X133911981Y-119827779D01*
X133918735Y-119886700D01*
X133933916Y-119928752D01*
X133959417Y-119966499D01*
X133991811Y-120001594D01*
X134043614Y-120028154D01*
X134121667Y-120034902D01*
X134190618Y-120029029D01*
X134258865Y-119999641D01*
X134302818Y-119940107D01*
X134326350Y-119844423D01*
X134333334Y-119706582D01*
X134331528Y-119633254D01*
X134313501Y-119494833D01*
X134276308Y-119401233D01*
X134220159Y-119353116D01*
X134163449Y-119339579D01*
X134064686Y-119345925D01*
X133981240Y-119385223D01*
X133961268Y-119403244D01*
X133940105Y-119434422D01*
X133927021Y-119480833D01*
X133919251Y-119554000D01*
X133914032Y-119665448D01*
X133911759Y-119739428D01*
X133648696Y-119739428D01*
X133648530Y-119703149D01*
X133648753Y-119638324D01*
X133652570Y-119487538D01*
X133663203Y-119374896D01*
X133683335Y-119291885D01*
X133715653Y-119229991D01*
X133762842Y-119180700D01*
X133827588Y-119135499D01*
X133880091Y-119109560D01*
X134004571Y-119080953D01*
X134135781Y-119084851D01*
X134252402Y-119121935D01*
X134302453Y-119146176D01*
X134327626Y-119148681D01*
X134333334Y-119126620D01*
X134333339Y-119125952D01*
X134345640Y-119103426D01*
X134388065Y-119091879D01*
X134470295Y-119088628D01*
X134607255Y-119088628D01*
X134607255Y-119706582D01*
X134607255Y-122179073D01*
G36*
X134607255Y-122179073D02*
G01*
X134476520Y-122171547D01*
X134345785Y-122164020D01*
X134339569Y-121765588D01*
X134337730Y-121668704D01*
X134332510Y-121523146D01*
X134323550Y-121416334D01*
X134309203Y-121341087D01*
X134287821Y-121290227D01*
X134257759Y-121256574D01*
X134217367Y-121232947D01*
X134141578Y-121208818D01*
X134066207Y-121218194D01*
X133986617Y-121269763D01*
X133910000Y-121334231D01*
X133910000Y-122176471D01*
X133636079Y-122176471D01*
X133636079Y-121719701D01*
X133636342Y-121576531D01*
X133637799Y-121449309D01*
X133641301Y-121356184D01*
X133647697Y-121288713D01*
X133657835Y-121238454D01*
X133672563Y-121196966D01*
X133692729Y-121155805D01*
X133697510Y-121147066D01*
X133761101Y-121061954D01*
X133835527Y-121002476D01*
X133925255Y-120971245D01*
X134044072Y-120957342D01*
X134163059Y-120964872D01*
X134259865Y-120994267D01*
X134333334Y-121032259D01*
X134333334Y-120210015D01*
X134232667Y-120262486D01*
X134190616Y-120281549D01*
X134057886Y-120308506D01*
X133925979Y-120289874D01*
X133803705Y-120227929D01*
X133699872Y-120124943D01*
X133683606Y-120100738D01*
X133667973Y-120065256D01*
X133657776Y-120017015D01*
X133651888Y-119946757D01*
X133649182Y-119845221D01*
X133648696Y-119739428D01*
X133911759Y-119739428D01*
X133911981Y-119827779D01*
X133918735Y-119886700D01*
X133933916Y-119928752D01*
X133959417Y-119966499D01*
X133991811Y-120001594D01*
X134043614Y-120028154D01*
X134121667Y-120034902D01*
X134190618Y-120029029D01*
X134258865Y-119999641D01*
X134302818Y-119940107D01*
X134326350Y-119844423D01*
X134333334Y-119706582D01*
X134331528Y-119633254D01*
X134313501Y-119494833D01*
X134276308Y-119401233D01*
X134220159Y-119353116D01*
X134163449Y-119339579D01*
X134064686Y-119345925D01*
X133981240Y-119385223D01*
X133961268Y-119403244D01*
X133940105Y-119434422D01*
X133927021Y-119480833D01*
X133919251Y-119554000D01*
X133914032Y-119665448D01*
X133911759Y-119739428D01*
X133648696Y-119739428D01*
X133648530Y-119703149D01*
X133648753Y-119638324D01*
X133652570Y-119487538D01*
X133663203Y-119374896D01*
X133683335Y-119291885D01*
X133715653Y-119229991D01*
X133762842Y-119180700D01*
X133827588Y-119135499D01*
X133880091Y-119109560D01*
X134004571Y-119080953D01*
X134135781Y-119084851D01*
X134252402Y-119121935D01*
X134302453Y-119146176D01*
X134327626Y-119148681D01*
X134333334Y-119126620D01*
X134333339Y-119125952D01*
X134345640Y-119103426D01*
X134388065Y-119091879D01*
X134470295Y-119088628D01*
X134607255Y-119088628D01*
X134607255Y-119706582D01*
X134607255Y-122179073D01*
G37*
X130821634Y-110833172D02*
X130934216Y-111430363D01*
X131349629Y-111601610D01*
X131765043Y-111772857D01*
X132263400Y-111433978D01*
X132362036Y-111367170D01*
X132492797Y-111279479D01*
X132606008Y-111204580D01*
X132695789Y-111146320D01*
X132756261Y-111108545D01*
X132781544Y-111095098D01*
X132797072Y-111104661D01*
X132843487Y-111144730D01*
X132913730Y-111210487D01*
X133001848Y-111295895D01*
X133101889Y-111394915D01*
X133207902Y-111501509D01*
X133313935Y-111609640D01*
X133414035Y-111713268D01*
X133502251Y-111806358D01*
X133572632Y-111882869D01*
X133619225Y-111936765D01*
X133636079Y-111962007D01*
X133632158Y-111972852D01*
X133605012Y-112021228D01*
X133555439Y-112100842D01*
X133487459Y-112205454D01*
X133405091Y-112328822D01*
X133312353Y-112464706D01*
X133261460Y-112538815D01*
X133173912Y-112667835D01*
X133098853Y-112780434D01*
X133040285Y-112870505D01*
X133002209Y-112931942D01*
X132988628Y-112958640D01*
X132988851Y-112960119D01*
X133000831Y-112993962D01*
X133028316Y-113063071D01*
X133067474Y-113158416D01*
X133114474Y-113270972D01*
X133165485Y-113391710D01*
X133216676Y-113511602D01*
X133264215Y-113621622D01*
X133304271Y-113712740D01*
X133333013Y-113775931D01*
X133346610Y-113802165D01*
X133354655Y-113804492D01*
X133403535Y-113814988D01*
X133490652Y-113832376D01*
X133609033Y-113855295D01*
X133751704Y-113882389D01*
X133911692Y-113912296D01*
X133996015Y-113928153D01*
X134150783Y-113958407D01*
X134286104Y-113986347D01*
X134394582Y-114010369D01*
X134468820Y-114028868D01*
X134501422Y-114040238D01*
X134507278Y-114051511D01*
X134516992Y-114106586D01*
X134524624Y-114198317D01*
X134530180Y-114318073D01*
X134533666Y-114457221D01*
X134535087Y-114607131D01*
X134534450Y-114759172D01*
X134531760Y-114904712D01*
X134527024Y-115035121D01*
X134520247Y-115141766D01*
X134511436Y-115216018D01*
X134500595Y-115249245D01*
X134494017Y-115252993D01*
X134444955Y-115269069D01*
X134359847Y-115290338D01*
X134248529Y-115314472D01*
X134120840Y-115339143D01*
X134077757Y-115347000D01*
X133878773Y-115383542D01*
X133722388Y-115412910D01*
X133603183Y-115436321D01*
X133515737Y-115454994D01*
X133454628Y-115470146D01*
X133414435Y-115482995D01*
X133389738Y-115494758D01*
X133375116Y-115506653D01*
X133373416Y-115508649D01*
X133349504Y-115550271D01*
X133314119Y-115626430D01*
X133270692Y-115728193D01*
X133222651Y-115846624D01*
X133173425Y-115972789D01*
X133126445Y-116097754D01*
X133085140Y-116212584D01*
X133052939Y-116308344D01*
X133033271Y-116376100D01*
X133029565Y-116406917D01*
X133032043Y-116410915D01*
X133057689Y-116449584D01*
X133105920Y-116520907D01*
X133172262Y-116618314D01*
X133252245Y-116735234D01*
X133341397Y-116865098D01*
X133365865Y-116900828D01*
X133451903Y-117028990D01*
X133526258Y-117143608D01*
X133584688Y-117237887D01*
X133622947Y-117305029D01*
X133636792Y-117338235D01*
X133633809Y-117346965D01*
X133602711Y-117389982D01*
X133541355Y-117460230D01*
X133454137Y-117552979D01*
X133345449Y-117663502D01*
X133219685Y-117787071D01*
X133147800Y-117856235D01*
X133034139Y-117963957D01*
X132934657Y-118056225D01*
X132854695Y-118128181D01*
X132799595Y-118174968D01*
X132774698Y-118191727D01*
X132757593Y-118185515D01*
X132704929Y-118156126D01*
X132628449Y-118108063D01*
X132538129Y-118047412D01*
X132473911Y-118003153D01*
X132345705Y-117915261D01*
X132208894Y-117821915D01*
X132083932Y-117737091D01*
X131839137Y-117571515D01*
X131633649Y-117682620D01*
X131585263Y-117708265D01*
X131497270Y-117752130D01*
X131429223Y-117782414D01*
X131392856Y-117793706D01*
X131380954Y-117779205D01*
X131351400Y-117723992D01*
X131307748Y-117632962D01*
X131252426Y-117511892D01*
X131187863Y-117366559D01*
X131116489Y-117202741D01*
X131040732Y-117026213D01*
X130963022Y-116842753D01*
X130885786Y-116658138D01*
X130811456Y-116478146D01*
X130742458Y-116308552D01*
X130681223Y-116155135D01*
X130630179Y-116023670D01*
X130591755Y-115919936D01*
X130568380Y-115849709D01*
X130562483Y-115818766D01*
X130562883Y-115817862D01*
X130590349Y-115789257D01*
X130647799Y-115744457D01*
X130723373Y-115692751D01*
X130747227Y-115676962D01*
X130928734Y-115527174D01*
X131078953Y-115348767D01*
X131194327Y-115149165D01*
X131271299Y-114935797D01*
X131306314Y-114716087D01*
X131295813Y-114497462D01*
X131253277Y-114303011D01*
X131176903Y-114106657D01*
X131065565Y-113931484D01*
X130912774Y-113765082D01*
X130852739Y-113711924D01*
X130658658Y-113580951D01*
X130448999Y-113492744D01*
X130229837Y-113446512D01*
X130007247Y-113441467D01*
X129787307Y-113476820D01*
X129576090Y-113551779D01*
X129379673Y-113665557D01*
X129204132Y-113817363D01*
X129055542Y-114006409D01*
X129026974Y-114053224D01*
X128929873Y-114267204D01*
X128878303Y-114490026D01*
X128870914Y-114715922D01*
X128906355Y-114939119D01*
X128983276Y-115153847D01*
X129100326Y-115354336D01*
X129256155Y-115534814D01*
X129449413Y-115689510D01*
X129455689Y-115693679D01*
X129530461Y-115746370D01*
X129586504Y-115791169D01*
X129612100Y-115818766D01*
X129608870Y-115840402D01*
X129588790Y-115903399D01*
X129553184Y-116001038D01*
X129504480Y-116127542D01*
X129445108Y-116277132D01*
X129377494Y-116444030D01*
X129304066Y-116622457D01*
X129227254Y-116806636D01*
X129149484Y-116990787D01*
X129073185Y-117169133D01*
X129000784Y-117335895D01*
X128934710Y-117485294D01*
X128877391Y-117611554D01*
X128831255Y-117708894D01*
X128798730Y-117771538D01*
X128782243Y-117793706D01*
X128768533Y-117790703D01*
X128714670Y-117769126D01*
X128635064Y-117731293D01*
X128541449Y-117682620D01*
X128335962Y-117571515D01*
X128091167Y-117737091D01*
X128018845Y-117786120D01*
X127884326Y-117877729D01*
X127750215Y-117969485D01*
X127636970Y-118047412D01*
X127574470Y-118089881D01*
X127493239Y-118142644D01*
X127433009Y-118178765D01*
X127403591Y-118192157D01*
X127390953Y-118186471D01*
X127345267Y-118151645D01*
X127274838Y-118090329D01*
X127185796Y-118008554D01*
X127084272Y-117912351D01*
X126976394Y-117807751D01*
X126868295Y-117700786D01*
X126766103Y-117597485D01*
X126675950Y-117503882D01*
X126603964Y-117426006D01*
X126556278Y-117369889D01*
X126539020Y-117341562D01*
X126540015Y-117336172D01*
X126560555Y-117292304D01*
X126604434Y-117216407D01*
X126667412Y-117115336D01*
X126745247Y-116995948D01*
X126833701Y-116865098D01*
X126858509Y-116829005D01*
X126945618Y-116702000D01*
X127022347Y-116589718D01*
X127084224Y-116498730D01*
X127126777Y-116435606D01*
X127145534Y-116406917D01*
X127145995Y-116405687D01*
X127140459Y-116370588D01*
X127119320Y-116299484D01*
X127086005Y-116201310D01*
X127043945Y-116085002D01*
X126996570Y-115959493D01*
X126947308Y-115833718D01*
X126899589Y-115716612D01*
X126856842Y-115617110D01*
X126822497Y-115544145D01*
X126799983Y-115506653D01*
X126797728Y-115504325D01*
X126781608Y-115492549D01*
X126754383Y-115480673D01*
X126710633Y-115467481D01*
X126644935Y-115451754D01*
X126551870Y-115432274D01*
X126426016Y-115407824D01*
X126261953Y-115377186D01*
X126054259Y-115339143D01*
X126011181Y-115331136D01*
X125887777Y-115306384D01*
X125783972Y-115282933D01*
X125709601Y-115263110D01*
X125674504Y-115249245D01*
X125668632Y-115237677D01*
X125658842Y-115182110D01*
X125651085Y-115089990D01*
X125645365Y-114969951D01*
X125641689Y-114830622D01*
X125640062Y-114680635D01*
X125640491Y-114528621D01*
X125642982Y-114383212D01*
X125647540Y-114253037D01*
X125654171Y-114146730D01*
X125662881Y-114072919D01*
X125673677Y-114040238D01*
X125684699Y-114035410D01*
X125739531Y-114020191D01*
X125832213Y-113998666D01*
X125955351Y-113972439D01*
X126101548Y-113943114D01*
X126263406Y-113912296D01*
X126351784Y-113895831D01*
X126503259Y-113867279D01*
X126633640Y-113842277D01*
X126735954Y-113822185D01*
X126803228Y-113808362D01*
X126828489Y-113802165D01*
X126829438Y-113800888D01*
X126845526Y-113768437D01*
X126876194Y-113700452D01*
X126917611Y-113605954D01*
X126965941Y-113493964D01*
X127017354Y-113373500D01*
X127068014Y-113253584D01*
X127114089Y-113143235D01*
X127151746Y-113051473D01*
X127177151Y-112987319D01*
X127186471Y-112959792D01*
X127182360Y-112950106D01*
X127155000Y-112904018D01*
X127105370Y-112826440D01*
X127037460Y-112723461D01*
X126955255Y-112601167D01*
X126862746Y-112465646D01*
X126811991Y-112391429D01*
X126724403Y-112261309D01*
X126649306Y-112147112D01*
X126590707Y-112055066D01*
X126552609Y-111991398D01*
X126539020Y-111962337D01*
X126548462Y-111946573D01*
X126587960Y-111899471D01*
X126652758Y-111828186D01*
X126736909Y-111738760D01*
X126834464Y-111637232D01*
X126939474Y-111529643D01*
X127045993Y-111422034D01*
X127148071Y-111320445D01*
X127239760Y-111230917D01*
X127315112Y-111159489D01*
X127368180Y-111112203D01*
X127393014Y-111095098D01*
X127406799Y-111101749D01*
X127457418Y-111132592D01*
X127539105Y-111185083D01*
X127645972Y-111255375D01*
X127772132Y-111339622D01*
X127911698Y-111433978D01*
X128410056Y-111772857D01*
X128825469Y-111601610D01*
X129240883Y-111430363D01*
X129353465Y-110833172D01*
X129466048Y-110235980D01*
X130709051Y-110235980D01*
X130821634Y-110833172D01*
G36*
X130821634Y-110833172D02*
G01*
X130934216Y-111430363D01*
X131349629Y-111601610D01*
X131765043Y-111772857D01*
X132263400Y-111433978D01*
X132362036Y-111367170D01*
X132492797Y-111279479D01*
X132606008Y-111204580D01*
X132695789Y-111146320D01*
X132756261Y-111108545D01*
X132781544Y-111095098D01*
X132797072Y-111104661D01*
X132843487Y-111144730D01*
X132913730Y-111210487D01*
X133001848Y-111295895D01*
X133101889Y-111394915D01*
X133207902Y-111501509D01*
X133313935Y-111609640D01*
X133414035Y-111713268D01*
X133502251Y-111806358D01*
X133572632Y-111882869D01*
X133619225Y-111936765D01*
X133636079Y-111962007D01*
X133632158Y-111972852D01*
X133605012Y-112021228D01*
X133555439Y-112100842D01*
X133487459Y-112205454D01*
X133405091Y-112328822D01*
X133312353Y-112464706D01*
X133261460Y-112538815D01*
X133173912Y-112667835D01*
X133098853Y-112780434D01*
X133040285Y-112870505D01*
X133002209Y-112931942D01*
X132988628Y-112958640D01*
X132988851Y-112960119D01*
X133000831Y-112993962D01*
X133028316Y-113063071D01*
X133067474Y-113158416D01*
X133114474Y-113270972D01*
X133165485Y-113391710D01*
X133216676Y-113511602D01*
X133264215Y-113621622D01*
X133304271Y-113712740D01*
X133333013Y-113775931D01*
X133346610Y-113802165D01*
X133354655Y-113804492D01*
X133403535Y-113814988D01*
X133490652Y-113832376D01*
X133609033Y-113855295D01*
X133751704Y-113882389D01*
X133911692Y-113912296D01*
X133996015Y-113928153D01*
X134150783Y-113958407D01*
X134286104Y-113986347D01*
X134394582Y-114010369D01*
X134468820Y-114028868D01*
X134501422Y-114040238D01*
X134507278Y-114051511D01*
X134516992Y-114106586D01*
X134524624Y-114198317D01*
X134530180Y-114318073D01*
X134533666Y-114457221D01*
X134535087Y-114607131D01*
X134534450Y-114759172D01*
X134531760Y-114904712D01*
X134527024Y-115035121D01*
X134520247Y-115141766D01*
X134511436Y-115216018D01*
X134500595Y-115249245D01*
X134494017Y-115252993D01*
X134444955Y-115269069D01*
X134359847Y-115290338D01*
X134248529Y-115314472D01*
X134120840Y-115339143D01*
X134077757Y-115347000D01*
X133878773Y-115383542D01*
X133722388Y-115412910D01*
X133603183Y-115436321D01*
X133515737Y-115454994D01*
X133454628Y-115470146D01*
X133414435Y-115482995D01*
X133389738Y-115494758D01*
X133375116Y-115506653D01*
X133373416Y-115508649D01*
X133349504Y-115550271D01*
X133314119Y-115626430D01*
X133270692Y-115728193D01*
X133222651Y-115846624D01*
X133173425Y-115972789D01*
X133126445Y-116097754D01*
X133085140Y-116212584D01*
X133052939Y-116308344D01*
X133033271Y-116376100D01*
X133029565Y-116406917D01*
X133032043Y-116410915D01*
X133057689Y-116449584D01*
X133105920Y-116520907D01*
X133172262Y-116618314D01*
X133252245Y-116735234D01*
X133341397Y-116865098D01*
X133365865Y-116900828D01*
X133451903Y-117028990D01*
X133526258Y-117143608D01*
X133584688Y-117237887D01*
X133622947Y-117305029D01*
X133636792Y-117338235D01*
X133633809Y-117346965D01*
X133602711Y-117389982D01*
X133541355Y-117460230D01*
X133454137Y-117552979D01*
X133345449Y-117663502D01*
X133219685Y-117787071D01*
X133147800Y-117856235D01*
X133034139Y-117963957D01*
X132934657Y-118056225D01*
X132854695Y-118128181D01*
X132799595Y-118174968D01*
X132774698Y-118191727D01*
X132757593Y-118185515D01*
X132704929Y-118156126D01*
X132628449Y-118108063D01*
X132538129Y-118047412D01*
X132473911Y-118003153D01*
X132345705Y-117915261D01*
X132208894Y-117821915D01*
X132083932Y-117737091D01*
X131839137Y-117571515D01*
X131633649Y-117682620D01*
X131585263Y-117708265D01*
X131497270Y-117752130D01*
X131429223Y-117782414D01*
X131392856Y-117793706D01*
X131380954Y-117779205D01*
X131351400Y-117723992D01*
X131307748Y-117632962D01*
X131252426Y-117511892D01*
X131187863Y-117366559D01*
X131116489Y-117202741D01*
X131040732Y-117026213D01*
X130963022Y-116842753D01*
X130885786Y-116658138D01*
X130811456Y-116478146D01*
X130742458Y-116308552D01*
X130681223Y-116155135D01*
X130630179Y-116023670D01*
X130591755Y-115919936D01*
X130568380Y-115849709D01*
X130562483Y-115818766D01*
X130562883Y-115817862D01*
X130590349Y-115789257D01*
X130647799Y-115744457D01*
X130723373Y-115692751D01*
X130747227Y-115676962D01*
X130928734Y-115527174D01*
X131078953Y-115348767D01*
X131194327Y-115149165D01*
X131271299Y-114935797D01*
X131306314Y-114716087D01*
X131295813Y-114497462D01*
X131253277Y-114303011D01*
X131176903Y-114106657D01*
X131065565Y-113931484D01*
X130912774Y-113765082D01*
X130852739Y-113711924D01*
X130658658Y-113580951D01*
X130448999Y-113492744D01*
X130229837Y-113446512D01*
X130007247Y-113441467D01*
X129787307Y-113476820D01*
X129576090Y-113551779D01*
X129379673Y-113665557D01*
X129204132Y-113817363D01*
X129055542Y-114006409D01*
X129026974Y-114053224D01*
X128929873Y-114267204D01*
X128878303Y-114490026D01*
X128870914Y-114715922D01*
X128906355Y-114939119D01*
X128983276Y-115153847D01*
X129100326Y-115354336D01*
X129256155Y-115534814D01*
X129449413Y-115689510D01*
X129455689Y-115693679D01*
X129530461Y-115746370D01*
X129586504Y-115791169D01*
X129612100Y-115818766D01*
X129608870Y-115840402D01*
X129588790Y-115903399D01*
X129553184Y-116001038D01*
X129504480Y-116127542D01*
X129445108Y-116277132D01*
X129377494Y-116444030D01*
X129304066Y-116622457D01*
X129227254Y-116806636D01*
X129149484Y-116990787D01*
X129073185Y-117169133D01*
X129000784Y-117335895D01*
X128934710Y-117485294D01*
X128877391Y-117611554D01*
X128831255Y-117708894D01*
X128798730Y-117771538D01*
X128782243Y-117793706D01*
X128768533Y-117790703D01*
X128714670Y-117769126D01*
X128635064Y-117731293D01*
X128541449Y-117682620D01*
X128335962Y-117571515D01*
X128091167Y-117737091D01*
X128018845Y-117786120D01*
X127884326Y-117877729D01*
X127750215Y-117969485D01*
X127636970Y-118047412D01*
X127574470Y-118089881D01*
X127493239Y-118142644D01*
X127433009Y-118178765D01*
X127403591Y-118192157D01*
X127390953Y-118186471D01*
X127345267Y-118151645D01*
X127274838Y-118090329D01*
X127185796Y-118008554D01*
X127084272Y-117912351D01*
X126976394Y-117807751D01*
X126868295Y-117700786D01*
X126766103Y-117597485D01*
X126675950Y-117503882D01*
X126603964Y-117426006D01*
X126556278Y-117369889D01*
X126539020Y-117341562D01*
X126540015Y-117336172D01*
X126560555Y-117292304D01*
X126604434Y-117216407D01*
X126667412Y-117115336D01*
X126745247Y-116995948D01*
X126833701Y-116865098D01*
X126858509Y-116829005D01*
X126945618Y-116702000D01*
X127022347Y-116589718D01*
X127084224Y-116498730D01*
X127126777Y-116435606D01*
X127145534Y-116406917D01*
X127145995Y-116405687D01*
X127140459Y-116370588D01*
X127119320Y-116299484D01*
X127086005Y-116201310D01*
X127043945Y-116085002D01*
X126996570Y-115959493D01*
X126947308Y-115833718D01*
X126899589Y-115716612D01*
X126856842Y-115617110D01*
X126822497Y-115544145D01*
X126799983Y-115506653D01*
X126797728Y-115504325D01*
X126781608Y-115492549D01*
X126754383Y-115480673D01*
X126710633Y-115467481D01*
X126644935Y-115451754D01*
X126551870Y-115432274D01*
X126426016Y-115407824D01*
X126261953Y-115377186D01*
X126054259Y-115339143D01*
X126011181Y-115331136D01*
X125887777Y-115306384D01*
X125783972Y-115282933D01*
X125709601Y-115263110D01*
X125674504Y-115249245D01*
X125668632Y-115237677D01*
X125658842Y-115182110D01*
X125651085Y-115089990D01*
X125645365Y-114969951D01*
X125641689Y-114830622D01*
X125640062Y-114680635D01*
X125640491Y-114528621D01*
X125642982Y-114383212D01*
X125647540Y-114253037D01*
X125654171Y-114146730D01*
X125662881Y-114072919D01*
X125673677Y-114040238D01*
X125684699Y-114035410D01*
X125739531Y-114020191D01*
X125832213Y-113998666D01*
X125955351Y-113972439D01*
X126101548Y-113943114D01*
X126263406Y-113912296D01*
X126351784Y-113895831D01*
X126503259Y-113867279D01*
X126633640Y-113842277D01*
X126735954Y-113822185D01*
X126803228Y-113808362D01*
X126828489Y-113802165D01*
X126829438Y-113800888D01*
X126845526Y-113768437D01*
X126876194Y-113700452D01*
X126917611Y-113605954D01*
X126965941Y-113493964D01*
X127017354Y-113373500D01*
X127068014Y-113253584D01*
X127114089Y-113143235D01*
X127151746Y-113051473D01*
X127177151Y-112987319D01*
X127186471Y-112959792D01*
X127182360Y-112950106D01*
X127155000Y-112904018D01*
X127105370Y-112826440D01*
X127037460Y-112723461D01*
X126955255Y-112601167D01*
X126862746Y-112465646D01*
X126811991Y-112391429D01*
X126724403Y-112261309D01*
X126649306Y-112147112D01*
X126590707Y-112055066D01*
X126552609Y-111991398D01*
X126539020Y-111962337D01*
X126548462Y-111946573D01*
X126587960Y-111899471D01*
X126652758Y-111828186D01*
X126736909Y-111738760D01*
X126834464Y-111637232D01*
X126939474Y-111529643D01*
X127045993Y-111422034D01*
X127148071Y-111320445D01*
X127239760Y-111230917D01*
X127315112Y-111159489D01*
X127368180Y-111112203D01*
X127393014Y-111095098D01*
X127406799Y-111101749D01*
X127457418Y-111132592D01*
X127539105Y-111185083D01*
X127645972Y-111255375D01*
X127772132Y-111339622D01*
X127911698Y-111433978D01*
X128410056Y-111772857D01*
X128825469Y-111601610D01*
X129240883Y-111430363D01*
X129353465Y-110833172D01*
X129466048Y-110235980D01*
X130709051Y-110235980D01*
X130821634Y-110833172D01*
G37*
%TD*%
M02*
