M48
; DRILL file {KiCad 9.0.3-9.0.3-0~ubuntu24.04.1} date 2025-08-15T16:20:05-0400
; FORMAT={-:-/ absolute / metric / decimal}
; #@! TF.CreationDate,2025-08-15T16:20:05-04:00
; #@! TF.GenerationSoftware,Kicad,Pcbnew,9.0.3-9.0.3-0~ubuntu24.04.1
; #@! TF.FileFunction,Plated,1,2,PTH
FMAT,2
METRIC
; #@! TA.AperFunction,Plated,PTH,ViaDrill
T1C0.300
; #@! TA.AperFunction,Plated,PTH,ComponentDrill
T2C0.600
; #@! TA.AperFunction,Plated,PTH,ComponentDrill
T3C0.950
; #@! TA.AperFunction,Plated,PTH,ComponentDrill
T4C1.000
; #@! TA.AperFunction,Plated,PTH,ComponentDrill
T5C1.020
; #@! TA.AperFunction,Plated,PTH,ComponentDrill
T6C1.800
; #@! TA.AperFunction,Plated,PTH,ComponentDrill
T7C2.100
; #@! TA.AperFunction,Plated,PTH,ComponentDrill
T8C2.200
%
G90
G05
T1
X92.399Y-14.335
X92.399Y-95.615
X92.399Y-103.235
X92.399Y-105.775
X92.399Y-108.315
X92.399Y-110.855
X94.939Y-14.335
X94.939Y-95.615
X94.939Y-100.695
X94.939Y-105.775
X94.939Y-108.315
X94.939Y-110.855
X97.395Y-104.525
X97.479Y-14.335
X97.479Y-52.435
X97.479Y-54.975
X97.479Y-57.515
X97.479Y-60.055
X97.479Y-62.595
X97.479Y-65.135
X97.479Y-67.675
X97.479Y-95.615
X97.479Y-98.155
X97.479Y-100.695
X97.479Y-105.775
X97.479Y-110.855
X98.4Y-102.299
X98.6Y-101.099
X99.494Y-102.024
X99.995Y-104.625
X100.019Y-54.975
X100.019Y-57.515
X100.019Y-62.595
X100.019Y-65.135
X100.019Y-95.615
X100.019Y-98.155
X100.019Y-105.775
X100.019Y-110.855
X100.995Y-103.425
X102.559Y-27.035
X102.559Y-62.595
X102.559Y-80.375
X102.559Y-95.615
X102.559Y-98.155
X102.559Y-105.775
X102.559Y-108.315
X102.559Y-110.855
X105.099Y-24.495
X105.099Y-27.035
X105.099Y-42.275
X105.099Y-62.595
X105.099Y-80.375
X105.099Y-98.155
X105.099Y-110.855
X106.02Y-104.5
X106.214Y-23.46
X106.214Y-39.46
X106.304Y-76.48
X106.304Y-92.48
X107.0Y-102.125
X107.2Y-100.925
X107.639Y-62.595
X107.639Y-98.155
X107.639Y-105.775
X107.639Y-110.855
X108.095Y-101.825
X108.62Y-104.5
X109.595Y-103.425
X110.179Y-19.415
X110.179Y-29.575
X110.179Y-34.655
X110.179Y-37.195
X110.179Y-54.975
X110.179Y-62.595
X110.179Y-65.135
X110.179Y-72.755
X110.179Y-82.915
X110.179Y-87.995
X110.179Y-98.155
X110.179Y-105.775
X110.179Y-108.315
X110.179Y-110.855
X111.084Y-14.94
X111.084Y-15.74
X111.084Y-16.54
X111.084Y-30.94
X111.084Y-31.74
X111.084Y-32.54
X111.174Y-67.96
X111.174Y-68.76
X111.174Y-69.56
X111.174Y-83.96
X111.174Y-84.76
X111.174Y-85.56
X112.084Y-14.94
X112.084Y-15.74
X112.084Y-16.54
X112.084Y-30.94
X112.084Y-31.74
X112.084Y-32.54
X112.174Y-67.96
X112.174Y-68.76
X112.174Y-69.56
X112.174Y-83.96
X112.174Y-84.76
X112.174Y-85.56
X112.719Y-54.975
X112.719Y-62.595
X112.719Y-65.135
X112.719Y-98.155
X112.719Y-110.855
X113.084Y-14.94
X113.084Y-15.74
X113.084Y-16.54
X113.084Y-30.94
X113.084Y-31.74
X113.084Y-32.54
X113.174Y-67.96
X113.174Y-68.76
X113.174Y-69.56
X113.174Y-83.96
X113.174Y-84.76
X113.174Y-85.56
X114.084Y-14.94
X114.084Y-15.74
X114.084Y-16.54
X114.084Y-30.94
X114.084Y-31.74
X114.084Y-32.54
X114.174Y-67.96
X114.174Y-68.76
X114.174Y-69.56
X114.174Y-83.96
X114.174Y-84.76
X114.174Y-85.56
X114.77Y-104.5
X115.2Y-46.5
X115.25Y-51.5
X115.259Y-80.375
X115.259Y-82.915
X115.259Y-87.995
X115.259Y-98.155
X115.259Y-105.775
X115.259Y-110.855
X115.5Y-13.0
X115.8Y-102.299
X116.0Y-101.099
X116.076Y-54.174
X116.1Y-28.0
X116.25Y-55.75
X116.275Y-59.75
X116.677Y-102.007
X116.7Y-38.2
X116.714Y-21.21
X116.714Y-22.71
X116.714Y-37.21
X116.804Y-74.23
X116.804Y-75.73
X116.804Y-90.23
X116.804Y-91.73
X117.088Y-45.951
X117.2Y-29.5
X117.37Y-104.5
X117.455Y-50.695
X117.455Y-52.445
X117.5Y-64.6
X117.5Y-76.5
X117.75Y-39.5
X117.799Y-14.335
X117.799Y-16.875
X117.799Y-19.415
X117.799Y-32.115
X117.799Y-70.215
X117.799Y-98.155
X117.799Y-105.775
X117.799Y-110.855
X118.0Y-67.6
X118.305Y-44.005
X118.495Y-103.425
X118.9Y-63.2
X119.0Y-48.5
X119.226Y-43.474
X119.25Y-57.224
X119.3Y-76.4
X119.4Y-56.3
X119.455Y-53.945
X119.475Y-49.425
X119.5Y-62.1
X119.651Y-35.25
X119.7Y-55.4
X119.862Y-44.7
X120.25Y-21.25
X120.339Y-16.875
X120.339Y-27.035
X120.339Y-29.575
X120.339Y-93.075
X120.339Y-95.615
X120.339Y-98.155
X120.339Y-105.775
X120.339Y-108.315
X120.339Y-110.855
X120.4Y-65.3
X120.737Y-31.525
X121.0Y-21.25
X121.112Y-44.95
X121.2Y-58.5
X121.5Y-37.75
X121.887Y-55.025
X122.104Y-27.325
X122.2Y-60.2
X122.35Y-41.21
X122.538Y-25.849
X122.71Y-34.558
X122.75Y-22.75
X122.8Y-54.4
X122.8Y-59.175
X122.879Y-14.335
X122.879Y-16.875
X122.879Y-77.835
X122.879Y-80.375
X122.879Y-82.915
X122.879Y-85.455
X122.879Y-87.995
X122.879Y-90.535
X122.879Y-93.075
X122.879Y-95.615
X122.879Y-98.155
X122.879Y-105.775
X122.879Y-110.855
X122.9Y-27.25
X123.1Y-66.2
X123.25Y-48.25
X123.4Y-58.575
X123.49Y-104.5
X124.1Y-67.9
X124.2Y-33.7
X124.25Y-27.5
X124.25Y-48.275
X124.3Y-63.1
X124.5Y-22.25
X124.6Y-102.299
X124.8Y-101.099
X125.0Y-31.0
X125.4Y-26.1
X125.419Y-14.335
X125.419Y-16.875
X125.419Y-105.775
X125.419Y-110.855
X125.548Y-101.878
X125.55Y-41.7
X126.09Y-104.5
X126.25Y-21.0
X126.7Y-49.3
X126.8Y-48.3
X126.85Y-61.3
X127.0Y-21.0
X127.295Y-103.425
X127.46Y-56.777
X127.724Y-48.624
X127.959Y-16.875
X127.959Y-24.495
X127.959Y-100.695
X127.959Y-105.775
X127.959Y-108.315
X127.959Y-110.855
X128.154Y-57.175
X128.25Y-40.9
X128.25Y-41.7
X128.45Y-38.8
X128.45Y-39.7
X128.866Y-54.534
X129.124Y-51.676
X129.15Y-38.8
X129.15Y-39.7
X129.85Y-42.0
X129.85Y-43.6
X130.0Y-28.6
X130.0Y-53.4
X130.05Y-40.7
X130.499Y-110.855
X130.6Y-46.2
X130.6Y-48.3
X130.8Y-51.7
X130.85Y-40.7
X131.3Y-53.3
X131.55Y-40.7
X131.7Y-61.5
X131.9Y-37.1
X132.2Y-52.1
X132.21Y-104.5
X132.3Y-62.4
X132.35Y-40.7
X132.4Y-54.2
X132.4Y-74.1
X133.0Y-101.099
X133.039Y-21.955
X133.039Y-24.495
X133.039Y-27.035
X133.039Y-65.135
X133.039Y-67.675
X133.039Y-70.215
X133.039Y-72.755
X133.039Y-80.375
X133.039Y-82.915
X133.039Y-85.455
X133.039Y-87.995
X133.039Y-90.535
X133.039Y-93.075
X133.039Y-95.615
X133.039Y-105.775
X133.039Y-110.855
X133.2Y-29.1
X133.2Y-102.299
X133.25Y-19.25
X133.3Y-54.7
X133.488Y-52.118
X133.5Y-59.5
X134.0Y-18.25
X134.208Y-101.938
X134.81Y-104.5
X135.075Y-33.6
X135.175Y-23.3
X135.275Y-27.75
X135.275Y-28.45
X135.35Y-40.2
X135.35Y-40.9
X135.5Y-18.25
X135.579Y-16.875
X135.579Y-60.055
X135.579Y-62.595
X135.579Y-72.755
X135.579Y-85.455
X135.579Y-87.995
X135.579Y-90.535
X135.579Y-93.075
X135.579Y-95.615
X135.579Y-105.775
X135.579Y-110.855
X135.895Y-103.425
X135.926Y-49.226
X136.05Y-40.2
X136.05Y-40.9
X136.075Y-21.2
X136.075Y-21.9
X136.075Y-22.6
X136.075Y-23.3
X136.175Y-27.75
X136.175Y-28.45
X136.491Y-48.66
X136.7Y-68.4
X136.7Y-70.9
X136.75Y-40.2
X136.75Y-40.9
X137.0Y-18.25
X137.075Y-24.2
X137.075Y-25.4
X137.075Y-26.0
X137.075Y-26.9
X137.075Y-29.1
X137.25Y-47.0
X137.4Y-49.5
X137.4Y-64.2
X137.45Y-40.2
X137.45Y-40.9
X137.483Y-50.296
X138.1Y-72.0
X138.119Y-14.335
X138.119Y-16.875
X138.119Y-19.415
X138.119Y-52.435
X138.119Y-54.975
X138.119Y-60.055
X138.119Y-62.595
X138.119Y-75.295
X138.119Y-77.835
X138.119Y-87.995
X138.119Y-90.535
X138.119Y-93.075
X138.119Y-95.615
X138.119Y-105.775
X138.119Y-108.315
X138.119Y-110.855
X138.175Y-29.2
X138.175Y-40.2
X138.175Y-40.9
X138.2Y-86.1
X138.345Y-66.095
X138.375Y-27.0
X138.5Y-18.25
X138.5Y-68.3
X138.6Y-44.5
X138.6Y-50.5
X139.0Y-57.0
X139.28Y-67.28
X139.8Y-43.3
X139.875Y-27.0
X140.25Y-86.0
X140.659Y-47.355
X140.659Y-49.895
X140.659Y-90.535
X140.659Y-93.075
X140.659Y-95.615
X140.659Y-105.775
X140.659Y-110.855
X140.8Y-65.8
X140.88Y-104.5
X140.975Y-17.68
X140.975Y-19.18
X140.975Y-33.68
X140.975Y-35.18
X140.975Y-70.73
X140.975Y-72.23
X140.975Y-86.73
X140.975Y-88.23
X141.5Y-28.75
X141.8Y-101.099
X142.0Y-102.299
X142.943Y-101.873
X143.199Y-21.955
X143.199Y-27.035
X143.199Y-37.195
X143.199Y-57.515
X143.199Y-60.055
X143.199Y-65.135
X143.199Y-75.295
X143.199Y-80.375
X143.199Y-90.535
X143.199Y-95.615
X143.199Y-100.695
X143.199Y-105.775
X143.199Y-110.855
X143.4Y-44.6
X143.48Y-104.5
X143.605Y-23.85
X143.605Y-24.65
X143.605Y-25.45
X143.605Y-39.85
X143.605Y-40.65
X143.605Y-41.45
X143.605Y-76.9
X143.605Y-77.7
X143.605Y-78.5
X143.605Y-92.9
X143.605Y-93.7
X143.605Y-94.5
X144.0Y-33.75
X144.605Y-23.85
X144.605Y-24.65
X144.605Y-25.45
X144.605Y-39.85
X144.605Y-40.65
X144.605Y-41.45
X144.605Y-76.9
X144.605Y-77.7
X144.605Y-78.5
X144.605Y-92.9
X144.605Y-93.7
X144.605Y-94.5
X144.695Y-103.225
X145.605Y-23.85
X145.605Y-24.65
X145.605Y-25.45
X145.605Y-39.85
X145.605Y-40.65
X145.605Y-41.45
X145.605Y-76.9
X145.605Y-77.7
X145.605Y-78.5
X145.605Y-92.9
X145.605Y-93.7
X145.605Y-94.5
X145.739Y-44.815
X145.739Y-98.155
X145.739Y-105.775
X145.739Y-108.315
X145.739Y-110.855
X146.605Y-23.85
X146.605Y-24.65
X146.605Y-25.45
X146.605Y-39.85
X146.605Y-40.65
X146.605Y-41.45
X146.605Y-76.9
X146.605Y-77.7
X146.605Y-78.5
X146.605Y-92.9
X146.605Y-93.7
X146.605Y-94.5
X148.279Y-44.815
X148.279Y-54.975
X148.279Y-98.155
X148.279Y-110.855
X149.55Y-104.5
X150.4Y-101.099
X150.6Y-102.299
X150.819Y-44.815
X150.819Y-98.155
X150.819Y-105.775
X150.819Y-110.855
X151.475Y-16.93
X151.475Y-32.93
X151.475Y-69.98
X151.475Y-85.98
X151.612Y-101.875
X152.15Y-104.5
X153.295Y-103.225
X153.359Y-44.815
X153.359Y-47.355
X153.359Y-49.895
X153.359Y-98.155
X153.359Y-105.775
X153.359Y-108.315
X153.359Y-110.855
X155.899Y-14.335
X155.899Y-44.815
X155.899Y-47.355
X155.899Y-52.435
X155.899Y-98.155
X155.899Y-105.775
X155.899Y-108.315
X155.899Y-110.855
X158.22Y-104.5
X158.439Y-14.335
X158.439Y-44.815
X158.439Y-47.355
X158.439Y-49.895
X158.439Y-52.435
X158.439Y-54.975
X158.439Y-98.155
X158.439Y-105.775
X158.439Y-110.855
X159.0Y-101.025
X159.312Y-102.312
X160.442Y-101.715
X160.82Y-104.5
X160.979Y-14.335
X160.979Y-95.615
X160.979Y-98.155
X160.979Y-105.775
X160.979Y-110.855
X161.895Y-103.225
X163.519Y-14.335
X163.519Y-95.615
X163.519Y-105.775
X163.519Y-108.315
X163.519Y-110.855
X166.059Y-14.335
X166.059Y-95.615
X166.059Y-103.235
X166.059Y-105.775
X166.059Y-108.315
T3
X135.0Y-75.1
X135.0Y-77.6
X135.0Y-80.1
X135.0Y-82.6
T4
X97.145Y-109.0
X99.645Y-109.0
X105.77Y-109.0
X108.27Y-109.0
X114.52Y-109.0
X117.02Y-109.0
X123.24Y-109.0
X125.74Y-109.0
X131.96Y-109.0
X132.75Y-15.0
X134.46Y-109.0
X135.25Y-15.0
X140.63Y-109.0
X143.13Y-109.0
X149.3Y-109.0
X151.8Y-109.0
X157.97Y-109.0
X160.47Y-109.0
T5
X94.774Y-20.46
X94.774Y-36.46
X94.864Y-73.48
X94.864Y-89.48
X97.774Y-20.46
X97.774Y-36.46
X97.864Y-73.48
X97.864Y-89.48
X159.915Y-19.93
X159.915Y-35.93
X159.915Y-72.98
X159.915Y-88.98
X162.915Y-19.93
X162.915Y-35.93
X162.915Y-72.98
X162.915Y-88.98
T6
X108.434Y-49.8
X108.434Y-59.6
X111.834Y-49.8
X111.834Y-59.6
X145.75Y-49.85
X145.75Y-59.65
X149.15Y-49.85
X149.15Y-59.65
T7
X101.884Y-49.94
X101.884Y-59.44
X155.75Y-50.0
X155.75Y-59.5
T8
X92.9Y-28.2
X92.9Y-99.0
X164.8Y-28.2
X164.8Y-99.0
T2
G00X119.93Y-15.325
M15
G01X119.93Y-14.525
M16
G05
G00X119.93Y-19.675
M15
G01X119.93Y-18.575
M16
G05
G00X128.57Y-15.325
M15
G01X128.57Y-14.525
M16
G05
G00X128.57Y-19.675
M15
G01X128.57Y-18.575
M16
G05
M30
