%TF.GenerationSoftware,KiCad,Pcbnew,9.0.3-9.0.3-0~ubuntu24.04.1*%
%TF.CreationDate,2025-08-07T22:47:50-04:00*%
%TF.ProjectId,pcb-heater,7063622d-6865-4617-9465-722e6b696361,rev?*%
%TF.SameCoordinates,Original*%
%TF.FileFunction,Copper,L1,Top*%
%TF.FilePolarity,Positive*%
%FSLAX46Y46*%
G04 Gerber Fmt 4.6, Leading zero omitted, Abs format (unit mm)*
G04 Created by KiCad (PCBNEW 9.0.3-9.0.3-0~ubuntu24.04.1) date 2025-08-07 22:47:50*
%MOMM*%
%LPD*%
G01*
G04 APERTURE LIST*
G04 Aperture macros list*
%AMRoundRect*
0 Rectangle with rounded corners*
0 $1 Rounding radius*
0 $2 $3 $4 $5 $6 $7 $8 $9 X,Y pos of 4 corners*
0 Add a 4 corners polygon primitive as box body*
4,1,4,$2,$3,$4,$5,$6,$7,$8,$9,$2,$3,0*
0 Add four circle primitives for the rounded corners*
1,1,$1+$1,$2,$3*
1,1,$1+$1,$4,$5*
1,1,$1+$1,$6,$7*
1,1,$1+$1,$8,$9*
0 Add four rect primitives between the rounded corners*
20,1,$1+$1,$2,$3,$4,$5,0*
20,1,$1+$1,$4,$5,$6,$7,0*
20,1,$1+$1,$6,$7,$8,$9,0*
20,1,$1+$1,$8,$9,$2,$3,0*%
G04 Aperture macros list end*
%TA.AperFunction,EtchedComponent*%
%ADD10C,0.000000*%
%TD*%
%TA.AperFunction,SMDPad,CuDef*%
%ADD11R,1.500000X1.000000*%
%TD*%
%TA.AperFunction,SMDPad,CuDef*%
%ADD12RoundRect,0.300000X-0.700000X-1.700000X0.700000X-1.700000X0.700000X1.700000X-0.700000X1.700000X0*%
%TD*%
%TA.AperFunction,SMDPad,CuDef*%
%ADD13R,1.000000X1.000000*%
%TD*%
%TA.AperFunction,SMDPad,CuDef*%
%ADD14RoundRect,0.200000X-0.275000X0.200000X-0.275000X-0.200000X0.275000X-0.200000X0.275000X0.200000X0*%
%TD*%
%TA.AperFunction,SMDPad,CuDef*%
%ADD15R,2.540000X1.270000*%
%TD*%
%TA.AperFunction,SMDPad,CuDef*%
%ADD16R,1.650000X3.430000*%
%TD*%
%TA.AperFunction,SMDPad,CuDef*%
%ADD17RoundRect,0.218750X-0.256250X0.218750X-0.256250X-0.218750X0.256250X-0.218750X0.256250X0.218750X0*%
%TD*%
%TA.AperFunction,Conductor*%
%ADD18C,0.800000*%
%TD*%
%TA.AperFunction,Conductor*%
%ADD19C,1.000000*%
%TD*%
%TA.AperFunction,Conductor*%
%ADD20C,0.200000*%
%TD*%
G04 APERTURE END LIST*
D10*
%TA.AperFunction,EtchedComponent*%
%TO.C,JP2*%
G36*
X32800000Y-48750000D02*
G01*
X32200000Y-48750000D01*
X32200000Y-48250000D01*
X32800000Y-48250000D01*
X32800000Y-48750000D01*
G37*
%TD.AperFunction*%
%TA.AperFunction,EtchedComponent*%
%TO.C,JP1*%
G36*
X42800000Y-42600000D02*
G01*
X42200000Y-42600000D01*
X42200000Y-42100000D01*
X42800000Y-42100000D01*
X42800000Y-42600000D01*
G37*
%TD.AperFunction*%
%TD*%
D11*
%TO.P,JP2,1,A*%
%TO.N,+24V*%
X32500000Y-47850000D03*
%TO.P,JP2,2,B*%
%TO.N,HEATER*%
X32500000Y-49150000D03*
%TD*%
D12*
%TO.P,F1,1*%
%TO.N,+24V*%
X32500000Y-44500000D03*
%TO.P,F1,2*%
%TO.N,Net-(J1-Pin_1)*%
X36500000Y-44500000D03*
%TD*%
D13*
%TO.P,TP1,1,1*%
%TO.N,HEATER*%
X31500000Y-52250000D03*
%TD*%
D14*
%TO.P,R1,1*%
%TO.N,+24V*%
X35500000Y-47675000D03*
%TO.P,R1,2*%
%TO.N,Net-(D1-A)*%
X35500000Y-49325000D03*
%TD*%
D13*
%TO.P,TP2,1,1*%
%TO.N,HEATER*%
X41000000Y-45500000D03*
%TD*%
D11*
%TO.P,JP1,1,A*%
%TO.N,GND*%
X42500000Y-41700000D03*
%TO.P,JP1,2,B*%
%TO.N,HEATER*%
X42500000Y-43000000D03*
%TD*%
D15*
%TO.P,J1,1,Pin_1*%
%TO.N,Net-(J1-Pin_1)*%
X32300000Y-36250000D03*
%TO.P,J1,2,Pin_2*%
%TO.N,GND*%
X41700000Y-36250000D03*
D16*
%TO.P,J1,MP*%
%TO.N,Net-(J1-Pin_1)*%
X37000000Y-40135000D03*
%TO.N,N/C*%
X37000000Y-32365000D03*
%TD*%
D17*
%TO.P,D1,1,K*%
%TO.N,GND*%
X38000000Y-47752500D03*
%TO.P,D1,2,A*%
%TO.N,Net-(D1-A)*%
X38000000Y-49327500D03*
%TD*%
D18*
%TO.N,Net-(D1-A)*%
X35500000Y-49325000D02*
X37997500Y-49325000D01*
X37997500Y-49325000D02*
X38000000Y-49327500D01*
%TO.N,+24V*%
X32500000Y-44500000D02*
X32500000Y-47000000D01*
X33175000Y-47675000D02*
X32500000Y-47000000D01*
X35500000Y-47675000D02*
X33175000Y-47675000D01*
X32500000Y-47000000D02*
X32500000Y-47850000D01*
D19*
%TO.N,Net-(J1-Pin_1)*%
X32300000Y-39550000D02*
X36500000Y-43750000D01*
X32300000Y-36250000D02*
X32300000Y-39550000D01*
X36500000Y-43750000D02*
X36500000Y-44500000D01*
%TO.N,GND*%
X41700000Y-36250000D02*
X41700000Y-40900000D01*
D20*
X38000000Y-47752500D02*
X38000000Y-48000000D01*
D19*
X41700000Y-40900000D02*
X42500000Y-41700000D01*
D18*
%TO.N,HEATER*%
X86156250Y-69546875D02*
X86156250Y-71843750D01*
X102234375Y-55765625D02*
X104531250Y-55765625D01*
X33328125Y-147640625D02*
X33328125Y-152234375D01*
X109125000Y-51171875D02*
X113718750Y-51171875D01*
X47109375Y-81031250D02*
X47109375Y-83328125D01*
X106828125Y-60359375D02*
X109125000Y-60359375D01*
X88453125Y-81031250D02*
X88453125Y-78734375D01*
X141281250Y-156828125D02*
X138984375Y-156828125D01*
X58593750Y-120078125D02*
X58593750Y-122375000D01*
X122906250Y-44281250D02*
X120609375Y-44281250D01*
X164250000Y-37390625D02*
X166546875Y-37390625D01*
X132093750Y-152234375D02*
X132093750Y-154531250D01*
X33328125Y-175203125D02*
X33328125Y-177500000D01*
X145875000Y-76437500D02*
X145875000Y-72000000D01*
X74671875Y-120078125D02*
X76968750Y-120078125D01*
X122906250Y-48875000D02*
X118312500Y-48875000D01*
X49406250Y-67250000D02*
X49406250Y-64953125D01*
X118312500Y-94812500D02*
X118312500Y-92515625D01*
X76968750Y-64953125D02*
X74671875Y-64953125D01*
X102234375Y-122375000D02*
X97640625Y-122375000D01*
X99937500Y-51171875D02*
X97640625Y-51171875D01*
X67781250Y-152234375D02*
X67781250Y-154531250D01*
X129796875Y-83328125D02*
X132093750Y-83328125D01*
X120609375Y-140750000D02*
X122906250Y-140750000D01*
X152765625Y-129265625D02*
X155062500Y-129265625D01*
X97640625Y-64953125D02*
X99937500Y-64953125D01*
X164250000Y-154531250D02*
X164250000Y-152234375D01*
X58593750Y-83328125D02*
X56296875Y-83328125D01*
X99937500Y-78734375D02*
X97640625Y-78734375D01*
X95343750Y-136156250D02*
X95343750Y-129265625D01*
X104531250Y-97109375D02*
X104531250Y-92515625D01*
X81562500Y-133859375D02*
X86156250Y-133859375D01*
X171140625Y-145343750D02*
X173437500Y-145343750D01*
X56296875Y-159125000D02*
X56296875Y-156828125D01*
X164250000Y-143046875D02*
X164250000Y-145343750D01*
X65484375Y-113187500D02*
X65484375Y-110890625D01*
X63187500Y-32796875D02*
X67781250Y-32796875D01*
X157359375Y-46578125D02*
X157359375Y-48875000D01*
X47109375Y-101703125D02*
X47109375Y-104000000D01*
X74671875Y-177500000D02*
X70078125Y-177500000D01*
X83859375Y-44281250D02*
X81562500Y-44281250D01*
X145875000Y-44281250D02*
X143578125Y-44281250D01*
X134390625Y-170609375D02*
X134390625Y-175203125D01*
X95343750Y-81031250D02*
X95343750Y-74140625D01*
X72500000Y-69546875D02*
X79265625Y-69546875D01*
X49406250Y-161421875D02*
X47109375Y-161421875D01*
X157359375Y-136156250D02*
X159656250Y-136156250D01*
X70078125Y-62656250D02*
X70078125Y-60359375D01*
X63187500Y-126968750D02*
X60890625Y-126968750D01*
X111421875Y-46578125D02*
X113718750Y-46578125D01*
X104531250Y-110890625D02*
X104531250Y-106296875D01*
X145875000Y-149937500D02*
X145875000Y-146500000D01*
X104531250Y-120078125D02*
X102234375Y-120078125D01*
X138984375Y-39687500D02*
X141281250Y-39687500D01*
X90750000Y-71843750D02*
X88453125Y-71843750D01*
X118312500Y-106296875D02*
X122906250Y-106296875D01*
X81562500Y-78734375D02*
X86156250Y-78734375D01*
X54000000Y-106296875D02*
X51703125Y-106296875D01*
X120609375Y-83328125D02*
X120609375Y-85625000D01*
X93046875Y-106296875D02*
X93046875Y-108593750D01*
X49406250Y-168312500D02*
X47109375Y-168312500D01*
X155062500Y-64953125D02*
X155062500Y-62656250D01*
X164250000Y-32796875D02*
X164250000Y-35093750D01*
X138984375Y-104000000D02*
X138984375Y-101703125D01*
X56296875Y-126968750D02*
X58593750Y-126968750D01*
X37921875Y-113187500D02*
X37921875Y-110890625D01*
X157359375Y-97109375D02*
X157359375Y-99406250D01*
X88453125Y-83328125D02*
X90750000Y-83328125D01*
X54000000Y-35093750D02*
X51703125Y-35093750D01*
X56296875Y-106296875D02*
X56296875Y-108593750D01*
X150468750Y-172906250D02*
X148171875Y-172906250D01*
X63187500Y-154531250D02*
X63187500Y-152234375D01*
X60890625Y-90218750D02*
X60890625Y-87921875D01*
X51703125Y-106296875D02*
X51703125Y-110890625D01*
X40218750Y-94812500D02*
X35625000Y-94812500D01*
X58593750Y-41984375D02*
X56296875Y-41984375D01*
X178031250Y-69546875D02*
X178031250Y-71843750D01*
X51703125Y-168312500D02*
X54000000Y-168312500D01*
X111421875Y-106296875D02*
X116015625Y-106296875D01*
X67781250Y-104000000D02*
X67781250Y-99406250D01*
X175734375Y-83328125D02*
X178031250Y-83328125D01*
X63187500Y-76437500D02*
X63187500Y-74140625D01*
X58593750Y-71843750D02*
X58593750Y-69546875D01*
X44812500Y-175203125D02*
X44812500Y-172906250D01*
X44812500Y-168312500D02*
X37921875Y-168312500D01*
X99937500Y-159125000D02*
X99937500Y-156828125D01*
X33328125Y-51000000D02*
X33328125Y-55765625D01*
X132093750Y-131562500D02*
X127500000Y-131562500D01*
X145875000Y-106296875D02*
X150468750Y-106296875D01*
X90750000Y-172906250D02*
X90750000Y-170609375D01*
X129796875Y-145343750D02*
X127500000Y-145343750D01*
X51703125Y-131562500D02*
X51703125Y-129265625D01*
X129796875Y-94812500D02*
X125203125Y-94812500D01*
X67781250Y-99406250D02*
X65484375Y-99406250D01*
X157359375Y-35093750D02*
X159656250Y-35093750D01*
X159656250Y-147640625D02*
X157359375Y-147640625D01*
X155062500Y-129265625D02*
X155062500Y-131562500D01*
X90750000Y-35093750D02*
X90750000Y-32796875D01*
X86156250Y-64953125D02*
X86156250Y-60359375D01*
X74671875Y-51171875D02*
X74671875Y-53468750D01*
X44812500Y-166015625D02*
X44812500Y-168312500D01*
X95343750Y-154531250D02*
X93046875Y-154531250D01*
X157359375Y-41984375D02*
X159656250Y-41984375D01*
X157359375Y-172906250D02*
X159656250Y-172906250D01*
X97640625Y-83328125D02*
X99937500Y-83328125D01*
X65484375Y-76437500D02*
X67781250Y-76437500D01*
X65484375Y-104000000D02*
X67781250Y-104000000D01*
X102234375Y-133859375D02*
X102234375Y-136156250D01*
X161953125Y-90218750D02*
X161953125Y-94812500D01*
X60890625Y-177500000D02*
X56296875Y-177500000D01*
X178031250Y-145343750D02*
X175734375Y-145343750D01*
X122906250Y-62656250D02*
X120609375Y-62656250D01*
X122906250Y-120078125D02*
X122906250Y-122375000D01*
X164250000Y-97109375D02*
X161953125Y-97109375D01*
X67781250Y-110890625D02*
X67781250Y-106296875D01*
X161953125Y-115484375D02*
X161953125Y-120078125D01*
X157359375Y-53468750D02*
X155062500Y-53468750D01*
X102234375Y-170609375D02*
X102234375Y-172906250D01*
X58593750Y-138453125D02*
X56296875Y-138453125D01*
X157359375Y-110890625D02*
X157359375Y-113187500D01*
X63187500Y-97109375D02*
X63187500Y-99406250D01*
X161953125Y-41984375D02*
X161953125Y-46578125D01*
X99937500Y-101703125D02*
X102234375Y-101703125D01*
X109125000Y-115484375D02*
X106828125Y-115484375D01*
X155062500Y-145343750D02*
X152765625Y-145343750D01*
X145875000Y-126968750D02*
X145875000Y-124671875D01*
X97640625Y-138453125D02*
X99937500Y-138453125D01*
X97640625Y-62656250D02*
X97640625Y-60359375D01*
X155062500Y-62656250D02*
X152765625Y-62656250D01*
X102234375Y-129265625D02*
X102234375Y-131562500D01*
X86156250Y-76437500D02*
X81562500Y-76437500D01*
X79265625Y-149937500D02*
X81562500Y-149937500D01*
X60890625Y-32796875D02*
X60890625Y-35093750D01*
X49406250Y-87921875D02*
X51703125Y-87921875D01*
X164250000Y-117781250D02*
X164250000Y-115484375D01*
X79265625Y-145343750D02*
X79265625Y-149937500D01*
X54000000Y-154531250D02*
X54000000Y-152234375D01*
X97640625Y-94812500D02*
X97640625Y-92515625D01*
X155062500Y-81031250D02*
X152765625Y-81031250D01*
X116015625Y-67250000D02*
X118312500Y-67250000D01*
X35625000Y-87921875D02*
X40218750Y-87921875D01*
X120609375Y-136156250D02*
X120609375Y-133859375D01*
X122906250Y-133859375D02*
X122906250Y-129265625D01*
X109125000Y-110890625D02*
X111421875Y-110890625D01*
X44812500Y-147640625D02*
X44812500Y-145343750D01*
X102234375Y-53468750D02*
X99937500Y-53468750D01*
X33328125Y-126968750D02*
X33328125Y-131562500D01*
X35625000Y-101703125D02*
X37921875Y-101703125D01*
X88453125Y-44281250D02*
X88453125Y-48875000D01*
X150468750Y-159125000D02*
X150468750Y-154531250D01*
X159656250Y-145343750D02*
X159656250Y-143046875D01*
X44812500Y-51171875D02*
X42515625Y-51171875D01*
X125203125Y-48875000D02*
X125203125Y-46578125D01*
X40218750Y-149937500D02*
X35625000Y-149937500D01*
X175734375Y-55765625D02*
X178031250Y-55765625D01*
X40218750Y-159125000D02*
X40218750Y-154531250D01*
X138984375Y-126968750D02*
X141281250Y-126968750D01*
X116015625Y-101703125D02*
X116015625Y-104000000D01*
X102234375Y-159125000D02*
X104531250Y-159125000D01*
X141281250Y-55765625D02*
X138984375Y-55765625D01*
X111421875Y-99406250D02*
X109125000Y-99406250D01*
X109125000Y-124671875D02*
X113718750Y-124671875D01*
X88453125Y-35093750D02*
X90750000Y-35093750D01*
X79265625Y-71843750D02*
X81562500Y-71843750D01*
X95343750Y-161421875D02*
X93046875Y-161421875D01*
X60890625Y-37390625D02*
X60890625Y-44281250D01*
X49406250Y-126968750D02*
X47109375Y-126968750D01*
X161953125Y-156828125D02*
X164250000Y-156828125D01*
X88453125Y-136156250D02*
X88453125Y-133859375D01*
X83859375Y-126968750D02*
X83859375Y-129265625D01*
X99937500Y-136156250D02*
X99937500Y-133859375D01*
X47109375Y-161421875D02*
X47109375Y-163718750D01*
X125203125Y-99406250D02*
X125203125Y-97109375D01*
X129796875Y-149937500D02*
X129796875Y-147640625D01*
X122906250Y-156828125D02*
X120609375Y-156828125D01*
X106828125Y-113187500D02*
X109125000Y-113187500D01*
X74671875Y-133859375D02*
X74671875Y-136156250D01*
X67781250Y-90218750D02*
X67781250Y-85625000D01*
X31500000Y-49300000D02*
X31650000Y-49150000D01*
X76968750Y-104000000D02*
X76968750Y-99406250D01*
X164250000Y-166015625D02*
X166546875Y-166015625D01*
X166546875Y-147640625D02*
X166546875Y-149937500D01*
X166546875Y-74140625D02*
X166546875Y-76437500D01*
X136687500Y-117781250D02*
X136687500Y-115484375D01*
X79265625Y-104000000D02*
X81562500Y-104000000D01*
X166546875Y-76437500D02*
X168843750Y-76437500D01*
X125203125Y-143046875D02*
X125203125Y-147640625D01*
X132093750Y-53468750D02*
X129796875Y-53468750D01*
X168843750Y-168312500D02*
X168843750Y-163718750D01*
X37921875Y-129265625D02*
X37921875Y-131562500D01*
X171140625Y-35093750D02*
X173437500Y-35093750D01*
X178031250Y-124671875D02*
X178031250Y-126968750D01*
X132093750Y-81031250D02*
X129796875Y-81031250D01*
X43500000Y-48875000D02*
X43500000Y-46578125D01*
X104531250Y-99406250D02*
X102234375Y-99406250D01*
X106828125Y-69546875D02*
X106828125Y-74140625D01*
X72375000Y-166015625D02*
X72375000Y-163718750D01*
X145875000Y-46578125D02*
X148171875Y-46578125D01*
X81562500Y-58062500D02*
X81562500Y-55765625D01*
X99937500Y-71843750D02*
X97640625Y-71843750D01*
X86156250Y-99406250D02*
X83859375Y-99406250D01*
X143578125Y-168312500D02*
X143578125Y-172906250D01*
X109125000Y-44281250D02*
X109125000Y-41984375D01*
X74671875Y-140750000D02*
X74671875Y-138453125D01*
X76968750Y-115484375D02*
X76968750Y-117781250D01*
X148171875Y-159125000D02*
X150468750Y-159125000D01*
X161953125Y-101703125D02*
X164250000Y-101703125D01*
X116015625Y-51171875D02*
X120609375Y-51171875D01*
X178031250Y-120078125D02*
X178031250Y-122375000D01*
X178031250Y-166015625D02*
X178031250Y-168312500D01*
X157359375Y-92515625D02*
X159656250Y-92515625D01*
X60890625Y-92515625D02*
X63187500Y-92515625D01*
X129796875Y-106296875D02*
X129796875Y-108593750D01*
X145875000Y-39687500D02*
X145875000Y-37390625D01*
X83859375Y-83328125D02*
X86156250Y-83328125D01*
X173437500Y-60359375D02*
X178031250Y-60359375D01*
X40218750Y-138453125D02*
X40218750Y-133859375D01*
X152765625Y-147640625D02*
X155062500Y-147640625D01*
X150468750Y-87921875D02*
X148171875Y-87921875D01*
X54000000Y-62656250D02*
X54000000Y-60359375D01*
X113718750Y-58062500D02*
X109125000Y-58062500D01*
X129796875Y-110890625D02*
X129796875Y-113187500D01*
X134390625Y-129265625D02*
X136687500Y-129265625D01*
X47109375Y-163718750D02*
X44812500Y-163718750D01*
X65484375Y-136156250D02*
X63187500Y-136156250D01*
X74671875Y-106296875D02*
X74671875Y-108593750D01*
X49406250Y-106296875D02*
X47109375Y-106296875D01*
X86156250Y-87921875D02*
X88453125Y-87921875D01*
X67781250Y-166015625D02*
X67781250Y-168312500D01*
X88453125Y-131562500D02*
X88453125Y-129265625D01*
X111421875Y-120078125D02*
X113718750Y-120078125D01*
X104531250Y-133859375D02*
X102234375Y-133859375D01*
X109125000Y-46578125D02*
X109125000Y-48875000D01*
X37921875Y-120078125D02*
X40218750Y-120078125D01*
X58593750Y-149937500D02*
X58593750Y-145343750D01*
X86156250Y-140750000D02*
X81562500Y-140750000D01*
X141281250Y-126968750D02*
X141281250Y-122375000D01*
X157359375Y-51171875D02*
X157359375Y-53468750D01*
X54000000Y-81031250D02*
X51703125Y-81031250D01*
X148171875Y-122375000D02*
X150468750Y-122375000D01*
X171140625Y-147640625D02*
X171140625Y-154531250D01*
X51703125Y-46578125D02*
X54000000Y-46578125D01*
X125203125Y-115484375D02*
X129796875Y-115484375D01*
X37921875Y-147640625D02*
X40218750Y-147640625D01*
X166546875Y-41984375D02*
X166546875Y-44281250D01*
X93046875Y-166015625D02*
X95343750Y-166015625D01*
X47109375Y-74140625D02*
X49406250Y-74140625D01*
X76968750Y-35093750D02*
X76968750Y-32796875D01*
X37921875Y-69546875D02*
X42515625Y-69546875D01*
X155062500Y-51171875D02*
X152765625Y-51171875D01*
X132093750Y-106296875D02*
X136687500Y-106296875D01*
X51703125Y-129265625D02*
X54000000Y-129265625D01*
X148171875Y-41984375D02*
X155062500Y-41984375D01*
X159656250Y-131562500D02*
X157359375Y-131562500D01*
X56296875Y-101703125D02*
X56296875Y-104000000D01*
X127500000Y-129265625D02*
X125203125Y-129265625D01*
X81562500Y-69546875D02*
X86156250Y-69546875D01*
X145875000Y-48875000D02*
X145875000Y-46578125D01*
X106828125Y-62656250D02*
X106828125Y-67250000D01*
X67781250Y-172906250D02*
X65484375Y-172906250D01*
X65484375Y-145343750D02*
X65484375Y-147640625D01*
X74671875Y-143046875D02*
X74671875Y-145343750D01*
X83859375Y-48875000D02*
X83859375Y-46578125D01*
X178031250Y-159125000D02*
X173437500Y-159125000D01*
X65484375Y-147640625D02*
X67781250Y-147640625D01*
X159656250Y-71843750D02*
X159656250Y-69546875D01*
X125203125Y-120078125D02*
X127500000Y-120078125D01*
X143578125Y-37390625D02*
X143578125Y-41984375D01*
X102234375Y-83328125D02*
X104531250Y-83328125D01*
X72375000Y-67250000D02*
X72375000Y-62656250D01*
X143578125Y-138500000D02*
X145875000Y-138500000D01*
X65484375Y-97109375D02*
X67781250Y-97109375D01*
X88453125Y-110890625D02*
X90750000Y-110890625D01*
X102234375Y-46578125D02*
X102234375Y-48875000D01*
X44812500Y-81031250D02*
X44812500Y-78734375D01*
X118312500Y-87921875D02*
X122906250Y-87921875D01*
X173437500Y-156828125D02*
X171140625Y-156828125D01*
X81562500Y-161421875D02*
X81562500Y-163718750D01*
X171140625Y-124671875D02*
X171140625Y-126968750D01*
X157359375Y-58062500D02*
X157359375Y-55765625D01*
X118312500Y-41984375D02*
X122906250Y-41984375D01*
X138984375Y-156828125D02*
X138984375Y-159125000D01*
X99937500Y-97109375D02*
X99937500Y-99406250D01*
X120609375Y-90218750D02*
X120609375Y-92515625D01*
X95343750Y-60359375D02*
X95343750Y-62656250D01*
X102234375Y-124671875D02*
X104531250Y-124671875D01*
X166546875Y-85625000D02*
X166546875Y-83328125D01*
X51703125Y-161421875D02*
X54000000Y-161421875D01*
X49406250Y-90218750D02*
X49406250Y-87921875D01*
X51703125Y-53468750D02*
X51703125Y-58062500D01*
X120609375Y-58062500D02*
X116015625Y-58062500D01*
X33328125Y-97109375D02*
X35625000Y-97109375D01*
X70078125Y-55765625D02*
X72375000Y-55765625D01*
X60937500Y-65000000D02*
X60890625Y-64953125D01*
X106828125Y-175203125D02*
X109125000Y-175203125D01*
X168843750Y-64953125D02*
X168843750Y-60359375D01*
X157359375Y-120078125D02*
X157359375Y-122375000D01*
X113718750Y-140750000D02*
X113718750Y-136156250D01*
X111421875Y-110890625D02*
X111421875Y-113187500D01*
X122906250Y-126968750D02*
X122906250Y-124671875D01*
X157359375Y-170609375D02*
X157359375Y-172906250D01*
X122906250Y-115484375D02*
X122906250Y-117781250D01*
X178031250Y-129265625D02*
X178031250Y-131562500D01*
X33328125Y-76437500D02*
X35625000Y-76437500D01*
X148171875Y-64953125D02*
X150468750Y-64953125D01*
X56296875Y-46578125D02*
X58593750Y-46578125D01*
X58593750Y-92515625D02*
X58593750Y-94812500D01*
X157359375Y-124671875D02*
X157359375Y-126968750D01*
X148171875Y-55765625D02*
X150468750Y-55765625D01*
X111421875Y-97109375D02*
X111421875Y-99406250D01*
X122906250Y-149937500D02*
X120609375Y-149937500D01*
X54000000Y-161421875D02*
X54000000Y-163718750D01*
X99937500Y-53468750D02*
X99937500Y-51171875D01*
X148171875Y-87921875D02*
X148171875Y-90218750D01*
X138984375Y-85625000D02*
X134390625Y-85625000D01*
X70078125Y-149937500D02*
X70078125Y-147640625D01*
X171140625Y-138453125D02*
X171140625Y-140750000D01*
X138984375Y-131562500D02*
X134390625Y-131562500D01*
X58593750Y-87921875D02*
X58593750Y-90218750D01*
X86156250Y-41984375D02*
X83859375Y-41984375D01*
X47109375Y-175203125D02*
X47109375Y-177500000D01*
X74671875Y-90218750D02*
X74671875Y-92515625D01*
X166546875Y-161421875D02*
X171140625Y-161421875D01*
X145875000Y-115484375D02*
X145875000Y-117781250D01*
X81562500Y-147640625D02*
X83859375Y-147640625D01*
X60890625Y-122375000D02*
X60890625Y-120078125D01*
X95343750Y-120078125D02*
X95343750Y-122375000D01*
X134390625Y-131562500D02*
X134390625Y-129265625D01*
X116015625Y-166015625D02*
X116015625Y-172906250D01*
X134390625Y-152234375D02*
X138984375Y-152234375D01*
X132093750Y-99406250D02*
X132093750Y-92515625D01*
X175734375Y-99406250D02*
X175734375Y-101703125D01*
X173437500Y-74140625D02*
X171140625Y-74140625D01*
X127500000Y-143046875D02*
X125203125Y-143046875D01*
X127500000Y-126968750D02*
X127500000Y-124671875D01*
X171140625Y-74140625D02*
X171140625Y-81031250D01*
X125203125Y-46578125D02*
X127500000Y-46578125D01*
X54000000Y-60359375D02*
X51703125Y-60359375D01*
X109125000Y-94812500D02*
X109125000Y-92515625D01*
X113718750Y-46578125D02*
X113718750Y-41984375D01*
X95343750Y-71843750D02*
X95343750Y-69546875D01*
X33328125Y-138453125D02*
X35625000Y-138453125D01*
X90750000Y-147640625D02*
X88453125Y-147640625D01*
X120609375Y-138453125D02*
X120609375Y-140750000D01*
X56296875Y-71843750D02*
X58593750Y-71843750D01*
X143578125Y-106296875D02*
X143578125Y-108593750D01*
X51703125Y-113187500D02*
X51703125Y-117781250D01*
X152765625Y-101703125D02*
X155062500Y-101703125D01*
X129796875Y-172906250D02*
X132093750Y-172906250D01*
X129796875Y-48875000D02*
X125203125Y-48875000D01*
X47109375Y-104000000D02*
X49406250Y-104000000D01*
X132093750Y-37390625D02*
X129796875Y-37390625D01*
X93046875Y-147640625D02*
X95343750Y-147640625D01*
X76968750Y-106296875D02*
X74671875Y-106296875D01*
X104531250Y-172906250D02*
X104531250Y-168312500D01*
X113718750Y-83328125D02*
X113718750Y-85625000D01*
X155062500Y-71843750D02*
X152765625Y-71843750D01*
X109125000Y-81031250D02*
X109125000Y-78734375D01*
X60890625Y-64953125D02*
X60890625Y-67250000D01*
X134390625Y-108593750D02*
X134390625Y-113187500D01*
X148171875Y-71843750D02*
X148171875Y-74140625D01*
X81562500Y-140750000D02*
X81562500Y-138453125D01*
X35625000Y-94812500D02*
X35625000Y-92515625D01*
X111421875Y-147640625D02*
X113718750Y-147640625D01*
X99937500Y-163718750D02*
X99937500Y-161421875D01*
X49406250Y-71843750D02*
X47109375Y-71843750D01*
X145875000Y-124671875D02*
X143578125Y-124671875D01*
X104531250Y-78734375D02*
X102234375Y-78734375D01*
X136687500Y-156828125D02*
X136687500Y-154531250D01*
X44812500Y-154531250D02*
X42515625Y-154531250D01*
X56296875Y-136156250D02*
X58593750Y-136156250D01*
X122906250Y-172906250D02*
X120609375Y-172906250D01*
X152765625Y-175203125D02*
X155062500Y-175203125D01*
X51703125Y-124671875D02*
X56296875Y-124671875D01*
X125203125Y-97109375D02*
X129796875Y-97109375D01*
X175734375Y-62656250D02*
X175734375Y-64953125D01*
X42515625Y-69546875D02*
X42515625Y-71843750D01*
X93046875Y-145343750D02*
X93046875Y-147640625D01*
X63187500Y-106296875D02*
X60890625Y-106296875D01*
X178031250Y-172906250D02*
X175734375Y-172906250D01*
X67781250Y-85625000D02*
X65484375Y-85625000D01*
X97640625Y-104000000D02*
X99937500Y-104000000D01*
X58593750Y-60359375D02*
X56296875Y-60359375D01*
X56296875Y-35093750D02*
X56296875Y-32796875D01*
X111421875Y-177500000D02*
X111421875Y-175203125D01*
X164250000Y-76437500D02*
X164250000Y-74140625D01*
X168843750Y-83328125D02*
X168843750Y-78734375D01*
X47109375Y-94812500D02*
X42515625Y-94812500D01*
X111421875Y-62656250D02*
X111421875Y-60359375D01*
X178031250Y-92515625D02*
X178031250Y-94812500D01*
X116015625Y-110890625D02*
X116015625Y-117781250D01*
X161953125Y-161421875D02*
X164250000Y-161421875D01*
X143578125Y-55765625D02*
X145875000Y-55765625D01*
X86156250Y-90218750D02*
X86156250Y-87921875D01*
X122906250Y-41984375D02*
X122906250Y-44281250D01*
X65484375Y-106296875D02*
X65484375Y-108593750D01*
X58593750Y-126968750D02*
X58593750Y-124671875D01*
X99937500Y-35093750D02*
X97640625Y-35093750D01*
X106828125Y-104000000D02*
X106828125Y-106296875D01*
X132093750Y-143046875D02*
X129796875Y-143046875D01*
X106828125Y-74140625D02*
X109125000Y-74140625D01*
X54000000Y-41984375D02*
X51703125Y-41984375D01*
X166546875Y-48875000D02*
X166546875Y-46578125D01*
X93046875Y-101703125D02*
X93046875Y-104000000D01*
X164250000Y-152234375D02*
X161953125Y-152234375D01*
X125203125Y-67250000D02*
X127500000Y-67250000D01*
X152765625Y-55765625D02*
X155062500Y-55765625D01*
X35625000Y-110890625D02*
X35625000Y-113187500D01*
X132093750Y-159125000D02*
X127500000Y-159125000D01*
X178031250Y-140750000D02*
X173437500Y-140750000D01*
X132093750Y-87921875D02*
X136687500Y-87921875D01*
X74671875Y-124671875D02*
X79265625Y-124671875D01*
X102234375Y-74140625D02*
X102234375Y-76437500D01*
X164250000Y-81031250D02*
X164250000Y-78734375D01*
X97640625Y-78734375D02*
X97640625Y-83328125D01*
X134390625Y-175203125D02*
X136687500Y-175203125D01*
X79265625Y-126968750D02*
X81562500Y-126968750D01*
X102234375Y-32796875D02*
X102234375Y-35093750D01*
X141281250Y-168312500D02*
X141281250Y-163718750D01*
X145875000Y-32796875D02*
X150468750Y-32796875D01*
X88453125Y-90218750D02*
X90750000Y-90218750D01*
X148171875Y-92515625D02*
X150468750Y-92515625D01*
X58593750Y-163718750D02*
X56296875Y-163718750D01*
X99937500Y-76437500D02*
X99937500Y-74140625D01*
X49406250Y-44281250D02*
X45000000Y-44281250D01*
X171140625Y-83328125D02*
X171140625Y-85625000D01*
X65484375Y-129265625D02*
X65484375Y-131562500D01*
X127500000Y-145343750D02*
X127500000Y-143046875D01*
X88453125Y-51171875D02*
X88453125Y-55765625D01*
X58593750Y-129265625D02*
X56296875Y-129265625D01*
X109125000Y-67250000D02*
X109125000Y-64953125D01*
X116015625Y-87921875D02*
X116015625Y-90218750D01*
X56296875Y-145343750D02*
X56296875Y-143046875D01*
X161953125Y-78734375D02*
X161953125Y-83328125D01*
X106828125Y-101703125D02*
X109125000Y-101703125D01*
X33328125Y-71843750D02*
X33328125Y-76437500D01*
X134390625Y-147640625D02*
X136687500Y-147640625D01*
X95343750Y-159125000D02*
X95343750Y-154531250D01*
X40218750Y-67250000D02*
X35625000Y-67250000D01*
X67781250Y-159125000D02*
X63187500Y-159125000D01*
X138984375Y-101703125D02*
X141281250Y-101703125D01*
X116015625Y-122375000D02*
X111421875Y-122375000D01*
X118312500Y-92515625D02*
X116015625Y-92515625D01*
X86156250Y-104000000D02*
X86156250Y-99406250D01*
X74671875Y-172906250D02*
X76968750Y-172906250D01*
X171140625Y-92515625D02*
X171140625Y-99406250D01*
X150468750Y-44281250D02*
X148171875Y-44281250D01*
X143578125Y-41984375D02*
X145875000Y-41984375D01*
X171140625Y-106296875D02*
X171140625Y-108593750D01*
X136687500Y-99406250D02*
X136687500Y-97109375D01*
X143578125Y-72000000D02*
X143578125Y-78734375D01*
X129796875Y-60359375D02*
X136687500Y-60359375D01*
X166546875Y-115484375D02*
X166546875Y-117781250D01*
X60890625Y-166015625D02*
X60890625Y-172906250D01*
X83859375Y-94812500D02*
X79265625Y-94812500D01*
X97640625Y-35093750D02*
X97640625Y-32796875D01*
X35625000Y-172906250D02*
X35625000Y-170609375D01*
X44812500Y-69546875D02*
X49406250Y-69546875D01*
X150468750Y-60359375D02*
X150468750Y-62656250D01*
X129796875Y-133859375D02*
X136687500Y-133859375D01*
X44812500Y-138453125D02*
X42515625Y-138453125D01*
X138984375Y-147640625D02*
X140000000Y-147640625D01*
X83859375Y-92515625D02*
X83859375Y-94812500D01*
X35625000Y-51000000D02*
X33328125Y-51000000D01*
X49406250Y-145343750D02*
X49406250Y-143046875D01*
X86156250Y-48875000D02*
X83859375Y-48875000D01*
X166546875Y-55765625D02*
X166546875Y-58062500D01*
X58593750Y-53468750D02*
X56296875Y-53468750D01*
X65484375Y-122375000D02*
X60890625Y-122375000D01*
X136687500Y-101703125D02*
X136687500Y-104000000D01*
X122906250Y-175203125D02*
X122906250Y-177500000D01*
X125203125Y-37390625D02*
X127500000Y-37390625D01*
X138984375Y-108593750D02*
X138984375Y-106296875D01*
X79265625Y-117781250D02*
X79265625Y-115484375D01*
X164250000Y-110890625D02*
X166546875Y-110890625D01*
X65484375Y-87921875D02*
X65484375Y-90218750D01*
X44812500Y-113187500D02*
X37921875Y-113187500D01*
X58593750Y-175203125D02*
X58593750Y-170609375D01*
X104531250Y-145343750D02*
X104531250Y-140750000D01*
X168843750Y-90218750D02*
X166546875Y-90218750D01*
X42515625Y-94812500D02*
X42515625Y-92515625D01*
X60890625Y-156828125D02*
X60890625Y-159125000D01*
X86156250Y-71843750D02*
X83859375Y-71843750D01*
X118312500Y-126968750D02*
X116015625Y-126968750D01*
X86156250Y-138453125D02*
X86156250Y-140750000D01*
X164250000Y-156828125D02*
X164250000Y-159125000D01*
X47109375Y-90218750D02*
X49406250Y-90218750D01*
X90750000Y-143046875D02*
X95343750Y-143046875D01*
X81562500Y-32796875D02*
X81562500Y-35093750D01*
X95343750Y-92515625D02*
X95343750Y-94812500D01*
X44812500Y-159125000D02*
X44812500Y-156828125D01*
X116015625Y-46578125D02*
X116015625Y-48875000D01*
X95343750Y-83328125D02*
X93046875Y-83328125D01*
X178031250Y-117781250D02*
X175734375Y-117781250D01*
X125203125Y-44281250D02*
X125203125Y-41984375D01*
X116015625Y-92515625D02*
X116015625Y-99406250D01*
X129796875Y-39687500D02*
X125203125Y-39687500D01*
X148171875Y-161421875D02*
X148171875Y-163718750D01*
X104531250Y-106296875D02*
X102234375Y-106296875D01*
X97640625Y-55765625D02*
X99937500Y-55765625D01*
X109125000Y-85625000D02*
X109125000Y-83328125D01*
X136687500Y-35093750D02*
X134390625Y-35093750D01*
X148171875Y-175203125D02*
X150468750Y-175203125D01*
X109125000Y-64953125D02*
X111421875Y-64953125D01*
X65484375Y-35093750D02*
X65484375Y-37390625D01*
X51703125Y-58062500D02*
X54000000Y-58062500D01*
X83859375Y-53468750D02*
X83859375Y-51171875D01*
X157359375Y-104000000D02*
X152765625Y-104000000D01*
X93046875Y-76437500D02*
X88453125Y-76437500D01*
X95343750Y-104000000D02*
X95343750Y-99406250D01*
X116015625Y-177500000D02*
X111421875Y-177500000D01*
X93046875Y-58062500D02*
X93046875Y-55765625D01*
X159656250Y-154531250D02*
X157359375Y-154531250D01*
X56296875Y-64953125D02*
X58593750Y-64953125D01*
X47109375Y-48875000D02*
X49406250Y-48875000D01*
X132093750Y-55765625D02*
X132093750Y-58062500D01*
X64000000Y-69546875D02*
X64000000Y-71843750D01*
X56296875Y-90218750D02*
X56296875Y-92515625D01*
X120609375Y-133859375D02*
X122906250Y-133859375D01*
X113718750Y-124671875D02*
X113718750Y-126968750D01*
X72375000Y-44281250D02*
X70078125Y-44281250D01*
X159656250Y-48875000D02*
X159656250Y-44281250D01*
X125203125Y-74140625D02*
X127500000Y-74140625D01*
X155062500Y-147640625D02*
X155062500Y-145343750D01*
X145875000Y-78734375D02*
X145875000Y-81031250D01*
X79265625Y-64953125D02*
X81562500Y-64953125D01*
X90750000Y-55765625D02*
X90750000Y-58062500D01*
X79265625Y-85625000D02*
X74671875Y-85625000D01*
X76968750Y-143046875D02*
X81562500Y-143046875D01*
X63187500Y-55765625D02*
X60890625Y-55765625D01*
X111421875Y-83328125D02*
X113718750Y-83328125D01*
X83859375Y-97109375D02*
X86156250Y-97109375D01*
X175734375Y-175203125D02*
X178031250Y-175203125D01*
X150468750Y-35093750D02*
X148171875Y-35093750D01*
X111421875Y-94812500D02*
X113718750Y-94812500D01*
X132093750Y-67250000D02*
X132093750Y-62656250D01*
X47109375Y-32796875D02*
X47109375Y-35093750D01*
X173437500Y-90218750D02*
X173437500Y-87921875D01*
X76968750Y-145343750D02*
X76968750Y-143046875D01*
X166546875Y-35093750D02*
X166546875Y-32796875D01*
X118312500Y-67250000D02*
X118312500Y-64953125D01*
X74671875Y-85625000D02*
X74671875Y-83328125D01*
X49406250Y-110890625D02*
X49406250Y-106296875D01*
X118312500Y-113187500D02*
X118312500Y-110890625D01*
X74671875Y-126968750D02*
X74671875Y-124671875D01*
X134390625Y-69546875D02*
X134390625Y-74140625D01*
X35625000Y-161421875D02*
X33328125Y-161421875D01*
X81562500Y-97109375D02*
X81562500Y-99406250D01*
X164250000Y-74140625D02*
X166546875Y-74140625D01*
X67781250Y-175203125D02*
X67781250Y-177500000D01*
X178031250Y-143046875D02*
X178031250Y-145343750D01*
X150468750Y-76437500D02*
X145875000Y-76437500D01*
X54000000Y-74140625D02*
X54000000Y-71843750D01*
X138984375Y-122375000D02*
X138984375Y-120078125D01*
X120609375Y-145343750D02*
X118312500Y-145343750D01*
X120609375Y-81031250D02*
X122906250Y-81031250D01*
X74671875Y-81031250D02*
X72375000Y-81031250D01*
X118312500Y-108593750D02*
X118312500Y-106296875D01*
X70078125Y-147640625D02*
X72375000Y-147640625D01*
X138984375Y-177500000D02*
X138984375Y-175203125D01*
X37921875Y-71843750D02*
X37921875Y-69546875D01*
X155062500Y-175203125D02*
X155062500Y-172906250D01*
X88453125Y-69546875D02*
X93046875Y-69546875D01*
X44812500Y-108593750D02*
X44812500Y-106296875D01*
X148171875Y-108593750D02*
X148171875Y-110890625D01*
X125203125Y-175203125D02*
X127500000Y-175203125D01*
X95343750Y-115484375D02*
X95343750Y-117781250D01*
X164250000Y-175203125D02*
X164250000Y-177500000D01*
X81562500Y-104000000D02*
X81562500Y-101703125D01*
X72375000Y-78734375D02*
X70078125Y-78734375D01*
X178031250Y-101703125D02*
X178031250Y-104000000D01*
X113718750Y-81031250D02*
X111421875Y-81031250D01*
X178031250Y-163718750D02*
X175734375Y-163718750D01*
X93046875Y-113187500D02*
X93046875Y-110890625D01*
X72375000Y-156828125D02*
X72375000Y-154531250D01*
X72375000Y-92515625D02*
X70078125Y-92515625D01*
X122906250Y-161421875D02*
X122906250Y-163718750D01*
X129796875Y-143046875D02*
X129796875Y-145343750D01*
X67781250Y-51171875D02*
X67781250Y-53468750D01*
X143578125Y-177500000D02*
X138984375Y-177500000D01*
X143578125Y-81031250D02*
X143578125Y-85625000D01*
X106828125Y-161421875D02*
X109125000Y-161421875D01*
X168843750Y-175203125D02*
X168843750Y-170609375D01*
X127500000Y-53468750D02*
X127500000Y-51171875D01*
X129796875Y-126968750D02*
X129796875Y-129265625D01*
X116015625Y-90218750D02*
X118312500Y-90218750D01*
X37921875Y-110890625D02*
X40218750Y-110890625D01*
X138984375Y-60359375D02*
X141281250Y-60359375D01*
X132093750Y-110890625D02*
X129796875Y-110890625D01*
X152765625Y-62656250D02*
X152765625Y-60359375D01*
X164250000Y-64953125D02*
X164250000Y-67250000D01*
X118312500Y-120078125D02*
X116015625Y-120078125D01*
X120609375Y-62656250D02*
X120609375Y-60359375D01*
X86156250Y-117781250D02*
X86156250Y-113187500D01*
X97640625Y-48875000D02*
X99937500Y-48875000D01*
X148171875Y-37390625D02*
X150468750Y-37390625D01*
X109125000Y-69546875D02*
X106828125Y-69546875D01*
X173437500Y-170609375D02*
X178031250Y-170609375D01*
X88453125Y-143046875D02*
X88453125Y-145343750D01*
X70078125Y-175203125D02*
X72375000Y-175203125D01*
X90750000Y-161421875D02*
X88453125Y-161421875D01*
X83859375Y-117781250D02*
X86156250Y-117781250D01*
X93046875Y-129265625D02*
X93046875Y-131562500D01*
X74671875Y-117781250D02*
X74671875Y-120078125D01*
X70078125Y-37390625D02*
X72375000Y-37390625D01*
X35625000Y-166015625D02*
X35625000Y-168312500D01*
X93046875Y-85625000D02*
X88453125Y-85625000D01*
X152765625Y-159125000D02*
X155062500Y-159125000D01*
X54000000Y-156828125D02*
X54000000Y-159125000D01*
X164250000Y-163718750D02*
X161953125Y-163718750D01*
X166546875Y-163718750D02*
X166546875Y-161421875D01*
X116015625Y-143046875D02*
X116015625Y-147640625D01*
X157359375Y-138453125D02*
X157359375Y-140750000D01*
X134390625Y-159125000D02*
X134390625Y-156828125D01*
X90750000Y-129265625D02*
X90750000Y-126968750D01*
X157359375Y-99406250D02*
X159656250Y-99406250D01*
X138984375Y-168312500D02*
X141281250Y-168312500D01*
X93046875Y-168312500D02*
X93046875Y-166015625D01*
X65484375Y-131562500D02*
X67781250Y-131562500D01*
X178031250Y-60359375D02*
X178031250Y-62656250D01*
X33328125Y-133859375D02*
X33328125Y-138453125D01*
X129796875Y-154531250D02*
X129796875Y-156828125D01*
X173437500Y-129265625D02*
X171140625Y-129265625D01*
X159656250Y-110890625D02*
X157359375Y-110890625D01*
X102234375Y-168312500D02*
X102234375Y-166015625D01*
X122906250Y-117781250D02*
X120609375Y-117781250D01*
X88453125Y-117781250D02*
X90750000Y-117781250D01*
X40218750Y-51171875D02*
X37921875Y-51171875D01*
X173437500Y-92515625D02*
X171140625Y-92515625D01*
X67781250Y-170609375D02*
X67781250Y-172906250D01*
X49406250Y-172906250D02*
X49406250Y-168312500D01*
X65484375Y-117781250D02*
X67781250Y-117781250D01*
X70078125Y-35093750D02*
X70078125Y-32796875D01*
X136687500Y-122375000D02*
X132093750Y-122375000D01*
X150468750Y-110890625D02*
X150468750Y-113187500D01*
X134390625Y-85625000D02*
X134390625Y-83328125D01*
X175734375Y-138453125D02*
X178031250Y-138453125D01*
X67781250Y-168312500D02*
X63187500Y-168312500D01*
X173437500Y-106296875D02*
X178031250Y-106296875D01*
X178031250Y-131562500D02*
X173437500Y-131562500D01*
X106828125Y-67250000D02*
X109125000Y-67250000D01*
X138984375Y-94812500D02*
X141281250Y-94812500D01*
X178031250Y-44281250D02*
X175734375Y-44281250D01*
X161953125Y-152234375D02*
X161953125Y-156828125D01*
X106828125Y-163718750D02*
X106828125Y-168312500D01*
X143578125Y-101703125D02*
X143578125Y-104000000D01*
X178031250Y-104000000D02*
X173437500Y-104000000D01*
X76968750Y-138453125D02*
X76968750Y-133859375D01*
X178031250Y-156828125D02*
X178031250Y-159125000D01*
X104531250Y-71843750D02*
X102234375Y-71843750D01*
X37921875Y-104000000D02*
X40218750Y-104000000D01*
X49406250Y-143046875D02*
X54000000Y-143046875D01*
X171140625Y-129265625D02*
X171140625Y-136156250D01*
X56296875Y-172906250D02*
X54000000Y-172906250D01*
X109125000Y-106296875D02*
X109125000Y-108593750D01*
X72375000Y-136156250D02*
X72375000Y-133859375D01*
X145875000Y-122375000D02*
X145875000Y-120078125D01*
X122906250Y-110890625D02*
X122906250Y-113187500D01*
X56296875Y-166015625D02*
X56296875Y-168312500D01*
X60890625Y-145343750D02*
X65484375Y-145343750D01*
X60890625Y-175203125D02*
X60890625Y-177500000D01*
X65484375Y-115484375D02*
X65484375Y-117781250D01*
X44812500Y-117781250D02*
X42515625Y-117781250D01*
X72375000Y-117781250D02*
X72375000Y-115484375D01*
X88453125Y-106296875D02*
X88453125Y-110890625D01*
X116015625Y-104000000D02*
X111421875Y-104000000D01*
X83859375Y-154531250D02*
X81562500Y-154531250D01*
X104531250Y-117781250D02*
X104531250Y-113187500D01*
X138984375Y-159125000D02*
X134390625Y-159125000D01*
X132093750Y-108593750D02*
X132093750Y-106296875D01*
X116015625Y-140750000D02*
X118312500Y-140750000D01*
X97640625Y-120078125D02*
X99937500Y-120078125D01*
X76968750Y-175203125D02*
X74671875Y-175203125D01*
X76968750Y-126968750D02*
X74671875Y-126968750D01*
X168843750Y-41984375D02*
X166546875Y-41984375D01*
X72375000Y-120078125D02*
X70078125Y-120078125D01*
X54000000Y-39687500D02*
X54000000Y-37390625D01*
X86156250Y-175203125D02*
X86156250Y-170609375D01*
X155062500Y-87921875D02*
X152765625Y-87921875D01*
X150468750Y-62656250D02*
X148171875Y-62656250D01*
X102234375Y-64953125D02*
X102234375Y-67250000D01*
X166546875Y-39687500D02*
X168843750Y-39687500D01*
X104531250Y-76437500D02*
X104531250Y-71843750D01*
X42515625Y-71843750D02*
X44812500Y-71843750D01*
X83859375Y-136156250D02*
X83859375Y-138453125D01*
X35625000Y-58062500D02*
X33328125Y-58062500D01*
X51703125Y-145343750D02*
X51703125Y-149937500D01*
X173437500Y-85625000D02*
X173437500Y-83328125D01*
X51703125Y-69546875D02*
X56296875Y-69546875D01*
X95343750Y-90218750D02*
X93046875Y-90218750D01*
X37921875Y-140750000D02*
X37921875Y-138453125D01*
X104531250Y-62656250D02*
X104531250Y-58062500D01*
X44812500Y-104000000D02*
X44812500Y-101703125D01*
X155062500Y-74140625D02*
X155062500Y-71843750D01*
X159656250Y-122375000D02*
X159656250Y-117781250D01*
X37921875Y-58062500D02*
X37921875Y-55765625D01*
X44812500Y-39687500D02*
X44812500Y-32796875D01*
X141281250Y-71843750D02*
X138500000Y-71843750D01*
X143578125Y-35093750D02*
X145875000Y-35093750D01*
X125203125Y-62656250D02*
X125203125Y-67250000D01*
X145875000Y-108593750D02*
X145875000Y-106296875D01*
X90750000Y-136156250D02*
X88453125Y-136156250D01*
X136687500Y-94812500D02*
X136687500Y-92515625D01*
X93046875Y-41984375D02*
X99937500Y-41984375D01*
X136687500Y-90218750D02*
X134390625Y-90218750D01*
X76968750Y-51171875D02*
X81562500Y-51171875D01*
X116015625Y-161421875D02*
X116015625Y-163718750D01*
X47109375Y-149937500D02*
X42515625Y-149937500D01*
X83859375Y-87921875D02*
X83859375Y-90218750D01*
X60890625Y-104000000D02*
X63187500Y-104000000D01*
X95343750Y-110890625D02*
X95343750Y-106296875D01*
X122906250Y-97109375D02*
X122906250Y-99406250D01*
X141281250Y-101703125D02*
X141281250Y-97109375D01*
X129796875Y-108593750D02*
X132093750Y-108593750D01*
X54000000Y-53468750D02*
X51703125Y-53468750D01*
X95343750Y-175203125D02*
X95343750Y-177500000D01*
X81562500Y-166015625D02*
X83859375Y-166015625D01*
X175734375Y-129265625D02*
X178031250Y-129265625D01*
X37921875Y-163718750D02*
X35625000Y-163718750D01*
X95343750Y-62656250D02*
X93046875Y-62656250D01*
X56296875Y-55765625D02*
X56296875Y-58062500D01*
X99937500Y-147640625D02*
X99937500Y-145343750D01*
X102234375Y-154531250D02*
X102234375Y-152234375D01*
X74671875Y-168312500D02*
X70078125Y-168312500D01*
X35625000Y-83328125D02*
X35625000Y-85625000D01*
X125203125Y-172906250D02*
X125203125Y-170609375D01*
X111421875Y-101703125D02*
X113718750Y-101703125D01*
X129796875Y-177500000D02*
X125203125Y-177500000D01*
X44812500Y-106296875D02*
X42515625Y-106296875D01*
X148171875Y-138453125D02*
X150468750Y-138453125D01*
X47109375Y-67250000D02*
X42515625Y-67250000D01*
X63187500Y-85625000D02*
X58593750Y-85625000D01*
X125203125Y-53468750D02*
X127500000Y-53468750D01*
X166546875Y-67250000D02*
X166546875Y-64953125D01*
X70078125Y-159125000D02*
X70078125Y-156828125D01*
X99937500Y-48875000D02*
X99937500Y-46578125D01*
X106828125Y-97109375D02*
X106828125Y-101703125D01*
X35625000Y-71843750D02*
X33328125Y-71843750D01*
X72375000Y-74140625D02*
X74671875Y-74140625D01*
X88453125Y-64953125D02*
X88453125Y-67250000D01*
X118312500Y-156828125D02*
X118312500Y-154531250D01*
X164250000Y-136156250D02*
X164250000Y-133859375D01*
X72375000Y-110890625D02*
X72375000Y-113187500D01*
X125203125Y-83328125D02*
X125203125Y-85625000D01*
X83859375Y-101703125D02*
X83859375Y-104000000D01*
X127500000Y-133859375D02*
X127500000Y-136156250D01*
X65484375Y-92515625D02*
X65484375Y-94812500D01*
X143578125Y-117781250D02*
X143578125Y-122375000D01*
X86156250Y-170609375D02*
X83859375Y-170609375D01*
X79265625Y-60359375D02*
X79265625Y-64953125D01*
X132093750Y-83328125D02*
X132093750Y-85625000D01*
X70078125Y-92515625D02*
X70078125Y-97109375D01*
X49406250Y-78734375D02*
X49406250Y-81031250D01*
X35625000Y-62656250D02*
X35625000Y-60359375D01*
X171140625Y-136156250D02*
X173437500Y-136156250D01*
X44812500Y-145343750D02*
X42515625Y-145343750D01*
X99937500Y-64953125D02*
X99937500Y-62656250D01*
X111421875Y-138453125D02*
X111421875Y-140750000D01*
X37921875Y-126968750D02*
X37921875Y-124671875D01*
X161953125Y-76437500D02*
X164250000Y-76437500D01*
X49406250Y-35093750D02*
X49406250Y-32796875D01*
X141281250Y-113187500D02*
X141281250Y-108593750D01*
X125203125Y-122375000D02*
X125203125Y-120078125D01*
X166546875Y-83328125D02*
X168843750Y-83328125D01*
X122906250Y-106296875D02*
X122906250Y-108593750D01*
X42515625Y-154531250D02*
X42515625Y-159125000D01*
X109125000Y-99406250D02*
X109125000Y-97109375D01*
X138984375Y-124671875D02*
X138984375Y-126968750D01*
X111421875Y-133859375D02*
X118312500Y-133859375D01*
X42515625Y-136156250D02*
X44812500Y-136156250D01*
X76968750Y-76437500D02*
X76968750Y-71843750D01*
X161953125Y-131562500D02*
X164250000Y-131562500D01*
X65484375Y-74140625D02*
X65484375Y-76437500D01*
X37921875Y-85625000D02*
X37921875Y-83328125D01*
X97640625Y-67250000D02*
X97640625Y-64953125D01*
X150468750Y-99406250D02*
X148171875Y-99406250D01*
X65484375Y-175203125D02*
X67781250Y-175203125D01*
X145875000Y-133859375D02*
X150468750Y-133859375D01*
X86156250Y-161421875D02*
X86156250Y-159125000D01*
X157359375Y-81031250D02*
X157359375Y-78734375D01*
X81562500Y-55765625D02*
X83859375Y-55765625D01*
X72375000Y-163718750D02*
X70078125Y-163718750D01*
X111421875Y-92515625D02*
X111421875Y-94812500D01*
X143578125Y-175203125D02*
X143578125Y-177500000D01*
X81562500Y-99406250D02*
X79265625Y-99406250D01*
X132093750Y-51171875D02*
X132093750Y-53468750D01*
X83859375Y-81031250D02*
X83859375Y-83328125D01*
X99937500Y-110890625D02*
X99937500Y-113187500D01*
X72375000Y-133859375D02*
X70078125Y-133859375D01*
X56296875Y-120078125D02*
X58593750Y-120078125D01*
X44812500Y-131562500D02*
X44812500Y-129265625D01*
X159656250Y-115484375D02*
X159656250Y-110890625D01*
X90750000Y-163718750D02*
X90750000Y-161421875D01*
X171140625Y-85625000D02*
X166546875Y-85625000D01*
X129796875Y-156828125D02*
X132093750Y-156828125D01*
X79265625Y-168312500D02*
X81562500Y-168312500D01*
X140000000Y-147640625D02*
X140000000Y-145343750D01*
X157359375Y-159125000D02*
X159656250Y-159125000D01*
X33328125Y-62656250D02*
X35625000Y-62656250D01*
X136687500Y-126968750D02*
X134390625Y-126968750D01*
X83859375Y-106296875D02*
X83859375Y-108593750D01*
X134390625Y-156828125D02*
X136687500Y-156828125D01*
X168843750Y-46578125D02*
X168843750Y-41984375D01*
X79265625Y-74140625D02*
X79265625Y-81031250D01*
X88453125Y-122375000D02*
X86156250Y-122375000D01*
X58593750Y-81031250D02*
X58593750Y-74140625D01*
X137500000Y-145343750D02*
X137500000Y-143046875D01*
X113718750Y-143046875D02*
X111421875Y-143046875D01*
X155062500Y-35093750D02*
X152765625Y-35093750D01*
X102234375Y-145343750D02*
X104531250Y-145343750D01*
X102234375Y-172906250D02*
X104531250Y-172906250D01*
X157359375Y-67250000D02*
X152765625Y-67250000D01*
X159656250Y-99406250D02*
X159656250Y-94812500D01*
X175734375Y-101703125D02*
X178031250Y-101703125D01*
X76968750Y-156828125D02*
X74671875Y-156828125D01*
X157359375Y-156828125D02*
X157359375Y-159125000D01*
X157359375Y-147640625D02*
X157359375Y-149937500D01*
X102234375Y-140750000D02*
X102234375Y-138453125D01*
X33328125Y-177500000D02*
X31500000Y-177500000D01*
X104531250Y-48875000D02*
X104531250Y-44281250D01*
X81562500Y-136156250D02*
X81562500Y-133859375D01*
X44812500Y-172906250D02*
X42515625Y-172906250D01*
X171140625Y-46578125D02*
X171140625Y-48875000D01*
X118312500Y-35093750D02*
X118312500Y-32796875D01*
X122906250Y-55765625D02*
X120609375Y-55765625D01*
X171140625Y-44281250D02*
X173437500Y-44281250D01*
X150468750Y-101703125D02*
X150468750Y-104000000D01*
X44812500Y-124671875D02*
X49406250Y-124671875D01*
X161953125Y-168312500D02*
X164250000Y-168312500D01*
X120609375Y-172906250D02*
X120609375Y-175203125D01*
X95343750Y-44281250D02*
X93046875Y-44281250D01*
X60890625Y-161421875D02*
X60890625Y-163718750D01*
X173437500Y-143046875D02*
X178031250Y-143046875D01*
X118312500Y-53468750D02*
X116015625Y-53468750D01*
X171140625Y-90218750D02*
X173437500Y-90218750D01*
X63187500Y-35093750D02*
X63187500Y-32796875D01*
X164250000Y-133859375D02*
X161953125Y-133859375D01*
X65484375Y-85625000D02*
X65484375Y-83328125D01*
X134390625Y-143046875D02*
X134390625Y-147640625D01*
X171140625Y-122375000D02*
X166546875Y-122375000D01*
X93046875Y-133859375D02*
X93046875Y-136156250D01*
X90750000Y-113187500D02*
X88453125Y-113187500D01*
X49406250Y-32796875D02*
X54000000Y-32796875D01*
X113718750Y-120078125D02*
X113718750Y-115484375D01*
X95343750Y-37390625D02*
X95343750Y-39687500D01*
X178031250Y-106296875D02*
X178031250Y-108593750D01*
X79265625Y-136156250D02*
X81562500Y-136156250D01*
X86156250Y-136156250D02*
X83859375Y-136156250D01*
X109125000Y-154531250D02*
X109125000Y-152234375D01*
X173437500Y-126968750D02*
X173437500Y-124671875D01*
X35625000Y-104000000D02*
X35625000Y-101703125D01*
X150468750Y-143046875D02*
X150468750Y-145343750D01*
X97640625Y-76437500D02*
X99937500Y-76437500D01*
X155062500Y-37390625D02*
X155062500Y-35093750D01*
X152765625Y-37390625D02*
X155062500Y-37390625D01*
X47109375Y-115484375D02*
X47109375Y-117781250D01*
X70078125Y-39687500D02*
X70078125Y-37390625D01*
X97640625Y-60359375D02*
X102234375Y-60359375D01*
X47109375Y-71843750D02*
X47109375Y-74140625D01*
X175734375Y-154531250D02*
X175734375Y-156828125D01*
X161953125Y-159125000D02*
X161953125Y-161421875D01*
X109125000Y-41984375D02*
X106828125Y-41984375D01*
X90750000Y-110890625D02*
X90750000Y-113187500D01*
X125203125Y-87921875D02*
X129796875Y-87921875D01*
X175734375Y-64953125D02*
X178031250Y-64953125D01*
X127500000Y-156828125D02*
X125203125Y-156828125D01*
X125203125Y-140750000D02*
X127500000Y-140750000D01*
X113718750Y-152234375D02*
X113718750Y-154531250D01*
X54000000Y-120078125D02*
X51703125Y-120078125D01*
X166546875Y-60359375D02*
X166546875Y-62656250D01*
X118312500Y-147640625D02*
X118312500Y-149937500D01*
X106828125Y-90218750D02*
X106828125Y-94812500D01*
X118312500Y-90218750D02*
X118312500Y-87921875D01*
X106828125Y-129265625D02*
X106828125Y-133859375D01*
X138984375Y-97109375D02*
X138984375Y-99406250D01*
X102234375Y-94812500D02*
X97640625Y-94812500D01*
X129796875Y-117781250D02*
X132093750Y-117781250D01*
X168843750Y-71843750D02*
X166546875Y-71843750D01*
X67781250Y-78734375D02*
X65484375Y-78734375D01*
X99937500Y-85625000D02*
X95343750Y-85625000D01*
X113718750Y-126968750D02*
X111421875Y-126968750D01*
X60890625Y-53468750D02*
X63187500Y-53468750D01*
X118312500Y-177500000D02*
X118312500Y-175203125D01*
X113718750Y-163718750D02*
X111421875Y-163718750D01*
X99937500Y-154531250D02*
X97640625Y-154531250D01*
X175734375Y-74140625D02*
X178031250Y-74140625D01*
X102234375Y-120078125D02*
X102234375Y-122375000D01*
X150468750Y-161421875D02*
X148171875Y-161421875D01*
X118312500Y-163718750D02*
X118312500Y-161421875D01*
X56296875Y-78734375D02*
X56296875Y-81031250D01*
X51703125Y-152234375D02*
X51703125Y-156828125D01*
X99937500Y-69546875D02*
X99937500Y-71843750D01*
X70078125Y-44281250D02*
X70078125Y-41984375D01*
X122906250Y-35093750D02*
X120609375Y-35093750D01*
X159656250Y-87921875D02*
X157359375Y-87921875D01*
X122906250Y-159125000D02*
X122906250Y-156828125D01*
X83859375Y-67250000D02*
X83859375Y-64953125D01*
X44812500Y-76437500D02*
X44812500Y-74140625D01*
X99937500Y-90218750D02*
X97640625Y-90218750D01*
X104531250Y-35093750D02*
X104531250Y-32796875D01*
X95343750Y-94812500D02*
X90750000Y-94812500D01*
X173437500Y-62656250D02*
X173437500Y-60359375D01*
X70078125Y-53468750D02*
X70078125Y-51171875D01*
X81562500Y-41984375D02*
X79265625Y-41984375D01*
X99937500Y-104000000D02*
X99937500Y-101703125D01*
X127500000Y-136156250D02*
X125203125Y-136156250D01*
X56296875Y-168312500D02*
X58593750Y-168312500D01*
X143578125Y-99406250D02*
X145875000Y-99406250D01*
X51703125Y-138453125D02*
X54000000Y-138453125D01*
X159656250Y-172906250D02*
X159656250Y-168312500D01*
X132093750Y-69546875D02*
X129796875Y-69546875D01*
X76968750Y-110890625D02*
X76968750Y-106296875D01*
X159656250Y-101703125D02*
X157359375Y-101703125D01*
X118312500Y-60359375D02*
X118312500Y-62656250D01*
X70078125Y-48875000D02*
X70078125Y-46578125D01*
X147000000Y-67250000D02*
X147000000Y-69546875D01*
X60890625Y-35093750D02*
X63187500Y-35093750D01*
X164250000Y-85625000D02*
X161953125Y-85625000D01*
X166546875Y-46578125D02*
X168843750Y-46578125D01*
X145875000Y-166015625D02*
X145875000Y-168312500D01*
X118312500Y-110890625D02*
X116015625Y-110890625D01*
X81562500Y-76437500D02*
X81562500Y-74140625D01*
X145875000Y-172906250D02*
X145875000Y-170609375D01*
X63187500Y-104000000D02*
X63187500Y-101703125D01*
X120609375Y-53468750D02*
X122906250Y-53468750D01*
X42515625Y-149937500D02*
X42515625Y-147640625D01*
X132093750Y-62656250D02*
X129796875Y-62656250D01*
X127500000Y-44281250D02*
X125203125Y-44281250D01*
X37921875Y-81031250D02*
X35625000Y-81031250D01*
X65484375Y-163718750D02*
X65484375Y-166015625D01*
X90750000Y-138453125D02*
X90750000Y-136156250D01*
X97640625Y-122375000D02*
X97640625Y-120078125D01*
X150468750Y-117781250D02*
X148171875Y-117781250D01*
X175734375Y-120078125D02*
X178031250Y-120078125D01*
X143578125Y-122375000D02*
X145875000Y-122375000D01*
X161953125Y-113187500D02*
X164250000Y-113187500D01*
X79265625Y-94812500D02*
X79265625Y-92515625D01*
X88453125Y-55765625D02*
X90750000Y-55765625D01*
X60890625Y-172906250D02*
X63187500Y-172906250D01*
X109125000Y-156828125D02*
X106828125Y-156828125D01*
X166546875Y-124671875D02*
X171140625Y-124671875D01*
X129796875Y-92515625D02*
X129796875Y-94812500D01*
X122906250Y-122375000D02*
X118312500Y-122375000D01*
X173437500Y-145343750D02*
X173437500Y-143046875D01*
X150468750Y-140750000D02*
X145875000Y-140750000D01*
X134390625Y-97109375D02*
X134390625Y-101703125D01*
X40218750Y-172906250D02*
X37921875Y-172906250D01*
X81562500Y-163718750D02*
X79265625Y-163718750D01*
X83859375Y-149937500D02*
X86156250Y-149937500D01*
X178031250Y-99406250D02*
X175734375Y-99406250D01*
X129796875Y-138453125D02*
X129796875Y-140750000D01*
X95343750Y-138453125D02*
X93046875Y-138453125D01*
X134390625Y-41984375D02*
X134390625Y-46578125D01*
X63187500Y-51171875D02*
X67781250Y-51171875D01*
X79265625Y-156828125D02*
X81562500Y-156828125D01*
X83859375Y-32796875D02*
X88453125Y-32796875D01*
X166546875Y-149937500D02*
X168843750Y-149937500D01*
X88453125Y-71843750D02*
X88453125Y-69546875D01*
X136687500Y-154531250D02*
X134390625Y-154531250D01*
X118312500Y-161421875D02*
X122906250Y-161421875D01*
X171140625Y-71843750D02*
X173437500Y-71843750D01*
X109125000Y-172906250D02*
X109125000Y-170609375D01*
X118312500Y-117781250D02*
X118312500Y-115484375D01*
X118312500Y-138453125D02*
X120609375Y-138453125D01*
X132093750Y-58062500D02*
X127500000Y-58062500D01*
X111421875Y-122375000D02*
X111421875Y-120078125D01*
X76968750Y-48875000D02*
X76968750Y-46578125D01*
X136687500Y-108593750D02*
X134390625Y-108593750D01*
X125203125Y-108593750D02*
X125203125Y-106296875D01*
X116015625Y-58062500D02*
X116015625Y-55765625D01*
X74671875Y-97109375D02*
X81562500Y-97109375D01*
X65484375Y-154531250D02*
X65484375Y-156828125D01*
X63187500Y-163718750D02*
X63187500Y-161421875D01*
X79265625Y-35093750D02*
X79265625Y-39687500D01*
X44812500Y-126968750D02*
X44812500Y-124671875D01*
X168843750Y-131562500D02*
X168843750Y-126968750D01*
X47109375Y-99406250D02*
X47109375Y-97109375D01*
X164250000Y-48875000D02*
X161953125Y-48875000D01*
X49406250Y-81031250D02*
X47109375Y-81031250D01*
X157359375Y-87921875D02*
X157359375Y-90218750D01*
X65484375Y-53468750D02*
X65484375Y-55765625D01*
X42515625Y-138453125D02*
X42515625Y-140750000D01*
X166546875Y-166015625D02*
X166546875Y-168312500D01*
X125203125Y-136156250D02*
X125203125Y-140750000D01*
X56296875Y-177500000D02*
X56296875Y-175203125D01*
X122906250Y-124671875D02*
X125203125Y-124671875D01*
X178031250Y-55765625D02*
X178031250Y-58062500D01*
X97640625Y-159125000D02*
X99937500Y-159125000D01*
X125203125Y-126968750D02*
X127500000Y-126968750D01*
X97640625Y-126968750D02*
X97640625Y-131562500D01*
X138500000Y-69546875D02*
X134390625Y-69546875D01*
X99937500Y-46578125D02*
X102234375Y-46578125D01*
X102234375Y-156828125D02*
X102234375Y-159125000D01*
X74671875Y-76437500D02*
X76968750Y-76437500D01*
X122906250Y-108593750D02*
X120609375Y-108593750D01*
X95343750Y-124671875D02*
X99937500Y-124671875D01*
X88453125Y-99406250D02*
X88453125Y-104000000D01*
X95343750Y-87921875D02*
X95343750Y-90218750D01*
X178031250Y-113187500D02*
X173437500Y-113187500D01*
X173437500Y-78734375D02*
X178031250Y-78734375D01*
X74671875Y-101703125D02*
X74671875Y-104000000D01*
X129796875Y-90218750D02*
X132093750Y-90218750D01*
X63187500Y-138453125D02*
X63187500Y-140750000D01*
X157359375Y-83328125D02*
X157359375Y-85625000D01*
X83859375Y-104000000D02*
X86156250Y-104000000D01*
X81562500Y-92515625D02*
X81562500Y-90218750D01*
X88453125Y-124671875D02*
X93046875Y-124671875D01*
X138984375Y-175203125D02*
X141281250Y-175203125D01*
X58593750Y-69546875D02*
X64000000Y-69546875D01*
X37921875Y-99406250D02*
X37921875Y-97109375D01*
X125203125Y-85625000D02*
X122906250Y-85625000D01*
X113718750Y-113187500D02*
X113718750Y-108593750D01*
X145875000Y-83328125D02*
X148171875Y-83328125D01*
X161953125Y-145343750D02*
X161953125Y-149937500D01*
X150468750Y-154531250D02*
X148171875Y-154531250D01*
X67781250Y-138453125D02*
X67781250Y-133859375D01*
X97640625Y-32796875D02*
X102234375Y-32796875D01*
X81562500Y-143046875D02*
X81562500Y-145343750D01*
X83859375Y-55765625D02*
X83859375Y-58062500D01*
X111421875Y-104000000D02*
X111421875Y-101703125D01*
X74671875Y-67250000D02*
X72375000Y-67250000D01*
X95343750Y-39687500D02*
X90750000Y-39687500D01*
X164250000Y-39687500D02*
X164250000Y-37390625D01*
X47109375Y-60359375D02*
X47109375Y-62656250D01*
X70078125Y-168312500D02*
X70078125Y-166015625D01*
X164250000Y-51171875D02*
X164250000Y-53468750D01*
X90750000Y-115484375D02*
X95343750Y-115484375D01*
X161953125Y-51171875D02*
X164250000Y-51171875D01*
X120609375Y-74140625D02*
X122906250Y-74140625D01*
X81562500Y-175203125D02*
X81562500Y-177500000D01*
X157359375Y-175203125D02*
X157359375Y-177500000D01*
X178031250Y-62656250D02*
X175734375Y-62656250D01*
X113718750Y-175203125D02*
X113718750Y-170609375D01*
X155062500Y-166015625D02*
X155062500Y-168312500D01*
X97640625Y-99406250D02*
X97640625Y-104000000D01*
X120609375Y-85625000D02*
X116015625Y-85625000D01*
X161953125Y-60359375D02*
X161953125Y-64953125D01*
X83859375Y-62656250D02*
X81562500Y-62656250D01*
X166546875Y-110890625D02*
X166546875Y-113187500D01*
X49406250Y-62656250D02*
X49406250Y-58062500D01*
X178031250Y-35093750D02*
X175734375Y-35093750D01*
X54000000Y-46578125D02*
X54000000Y-48875000D01*
X134390625Y-53468750D02*
X134390625Y-51171875D01*
X122906250Y-87921875D02*
X122906250Y-90218750D01*
X51703125Y-60359375D02*
X51703125Y-64953125D01*
X145875000Y-87921875D02*
X143578125Y-87921875D01*
X93046875Y-62656250D02*
X93046875Y-64953125D01*
X136687500Y-44281250D02*
X136687500Y-41984375D01*
X145875000Y-152234375D02*
X145875000Y-154531250D01*
X76968750Y-147640625D02*
X74671875Y-147640625D01*
X58593750Y-58062500D02*
X58593750Y-53468750D01*
X49406250Y-48875000D02*
X49406250Y-44281250D01*
X175734375Y-92515625D02*
X178031250Y-92515625D01*
X76968750Y-37390625D02*
X74671875Y-37390625D01*
X90750000Y-168312500D02*
X88453125Y-168312500D01*
X81562500Y-113187500D02*
X74671875Y-113187500D01*
X120609375Y-64953125D02*
X120609375Y-67250000D01*
X132093750Y-129265625D02*
X132093750Y-131562500D01*
X116015625Y-124671875D02*
X120609375Y-124671875D01*
X125203125Y-92515625D02*
X127500000Y-92515625D01*
X118312500Y-74140625D02*
X118312500Y-76437500D01*
X42515625Y-120078125D02*
X44812500Y-120078125D01*
X157359375Y-140750000D02*
X152765625Y-140750000D01*
X132093750Y-74140625D02*
X132093750Y-69546875D01*
X171140625Y-140750000D02*
X166546875Y-140750000D01*
X148171875Y-129265625D02*
X150468750Y-129265625D01*
X106828125Y-136156250D02*
X106828125Y-140750000D01*
X47109375Y-138453125D02*
X49406250Y-138453125D01*
X97640625Y-154531250D02*
X97640625Y-159125000D01*
X44812500Y-58062500D02*
X37921875Y-58062500D01*
X116015625Y-37390625D02*
X116015625Y-44281250D01*
X65484375Y-83328125D02*
X67781250Y-83328125D01*
X83859375Y-64953125D02*
X86156250Y-64953125D01*
X104531250Y-44281250D02*
X102234375Y-44281250D01*
X141281250Y-90218750D02*
X138984375Y-90218750D01*
X155062500Y-41984375D02*
X155062500Y-44281250D01*
X40218750Y-145343750D02*
X37921875Y-145343750D01*
X70078125Y-85625000D02*
X70078125Y-90218750D01*
X76968750Y-53468750D02*
X76968750Y-51171875D01*
X79265625Y-152234375D02*
X79265625Y-156828125D01*
X37921875Y-145343750D02*
X37921875Y-147640625D01*
X127500000Y-76437500D02*
X125203125Y-76437500D01*
X120609375Y-71843750D02*
X118312500Y-71843750D01*
X152765625Y-136156250D02*
X152765625Y-133859375D01*
X35625000Y-133859375D02*
X33328125Y-133859375D01*
X47109375Y-126968750D02*
X47109375Y-129265625D01*
X58593750Y-39687500D02*
X58593750Y-35093750D01*
X120609375Y-92515625D02*
X122906250Y-92515625D01*
X173437500Y-113187500D02*
X173437500Y-110890625D01*
X125203125Y-51171875D02*
X125203125Y-53468750D01*
X47109375Y-55765625D02*
X49406250Y-55765625D01*
X155062500Y-138453125D02*
X155062500Y-136156250D01*
X161953125Y-170609375D02*
X161953125Y-175203125D01*
X79265625Y-124671875D02*
X79265625Y-126968750D01*
X159656250Y-94812500D02*
X157359375Y-94812500D01*
X49406250Y-76437500D02*
X44812500Y-76437500D01*
X70078125Y-46578125D02*
X72375000Y-46578125D01*
X86156250Y-85625000D02*
X81562500Y-85625000D01*
X95343750Y-140750000D02*
X95343750Y-138453125D01*
X173437500Y-138453125D02*
X171140625Y-138453125D01*
X47109375Y-106296875D02*
X47109375Y-108593750D01*
X143578125Y-94812500D02*
X143578125Y-99406250D01*
X65000000Y-65000000D02*
X60937500Y-65000000D01*
X118312500Y-99406250D02*
X118312500Y-97109375D01*
X152765625Y-106296875D02*
X157359375Y-106296875D01*
X86156250Y-122375000D02*
X86156250Y-120078125D01*
X141281250Y-53468750D02*
X141281250Y-48875000D01*
X166546875Y-92515625D02*
X166546875Y-94812500D01*
X129796875Y-46578125D02*
X129796875Y-48875000D01*
X173437500Y-110890625D02*
X171140625Y-110890625D01*
X127500000Y-152234375D02*
X132093750Y-152234375D01*
X150468750Y-124671875D02*
X148171875Y-124671875D01*
X54000000Y-159125000D02*
X51703125Y-159125000D01*
X138984375Y-87921875D02*
X141281250Y-87921875D01*
X47109375Y-120078125D02*
X47109375Y-122375000D01*
X138984375Y-120078125D02*
X141281250Y-120078125D01*
X150468750Y-51171875D02*
X148171875Y-51171875D01*
X99937500Y-156828125D02*
X102234375Y-156828125D01*
X173437500Y-87921875D02*
X178031250Y-87921875D01*
X161953125Y-97109375D02*
X161953125Y-101703125D01*
X60890625Y-133859375D02*
X60890625Y-138453125D01*
X86156250Y-149937500D02*
X86156250Y-145343750D01*
X150468750Y-149937500D02*
X145875000Y-149937500D01*
X58593750Y-106296875D02*
X56296875Y-106296875D01*
X168843750Y-53468750D02*
X166546875Y-53468750D01*
X129796875Y-101703125D02*
X129796875Y-104000000D01*
X33328125Y-78734375D02*
X33328125Y-83328125D01*
X49406250Y-154531250D02*
X47109375Y-154531250D01*
X93046875Y-44281250D02*
X93046875Y-41984375D01*
X157359375Y-113187500D02*
X152765625Y-113187500D01*
X155062500Y-78734375D02*
X155062500Y-81031250D01*
X33328125Y-99406250D02*
X33328125Y-104000000D01*
X125203125Y-177500000D02*
X125203125Y-175203125D01*
X113718750Y-85625000D02*
X109125000Y-85625000D01*
X120609375Y-78734375D02*
X120609375Y-81031250D01*
X155062500Y-124671875D02*
X152765625Y-124671875D01*
X33328125Y-154531250D02*
X33328125Y-159125000D01*
X81562500Y-67250000D02*
X76968750Y-67250000D01*
X109125000Y-113187500D02*
X109125000Y-110890625D01*
X168843750Y-126968750D02*
X166546875Y-126968750D01*
X40218750Y-120078125D02*
X40218750Y-122375000D01*
X145875000Y-113187500D02*
X145875000Y-110890625D01*
X109125000Y-78734375D02*
X113718750Y-78734375D01*
X99937500Y-131562500D02*
X99937500Y-129265625D01*
X42515625Y-166015625D02*
X44812500Y-166015625D01*
X145875000Y-99406250D02*
X145875000Y-97109375D01*
X90750000Y-97109375D02*
X90750000Y-99406250D01*
X102234375Y-106296875D02*
X102234375Y-108593750D01*
X143578125Y-44281250D02*
X143578125Y-48875000D01*
X37921875Y-83328125D02*
X40218750Y-83328125D01*
X79265625Y-92515625D02*
X81562500Y-92515625D01*
X132093750Y-166015625D02*
X129796875Y-166015625D01*
X109125000Y-168312500D02*
X109125000Y-166015625D01*
X109125000Y-74140625D02*
X109125000Y-76437500D01*
X120609375Y-99406250D02*
X120609375Y-101703125D01*
X138984375Y-170609375D02*
X138984375Y-172906250D01*
X54000000Y-113187500D02*
X51703125Y-113187500D01*
X129796875Y-74140625D02*
X132093750Y-74140625D01*
X72375000Y-129265625D02*
X74671875Y-129265625D01*
X74671875Y-37390625D02*
X74671875Y-39687500D01*
X161953125Y-35093750D02*
X161953125Y-39687500D01*
X166546875Y-152234375D02*
X166546875Y-154531250D01*
X173437500Y-58062500D02*
X173437500Y-55765625D01*
X138984375Y-152234375D02*
X138984375Y-154531250D01*
X33328125Y-90218750D02*
X35625000Y-90218750D01*
X136687500Y-83328125D02*
X136687500Y-81031250D01*
X102234375Y-71843750D02*
X102234375Y-69546875D01*
X37921875Y-159125000D02*
X40218750Y-159125000D01*
X63187500Y-172906250D02*
X63187500Y-170609375D01*
X58593750Y-85625000D02*
X58593750Y-83328125D01*
X104531250Y-32796875D02*
X109125000Y-32796875D01*
X166546875Y-136156250D02*
X164250000Y-136156250D01*
X70078125Y-51171875D02*
X74671875Y-51171875D01*
X67781250Y-35093750D02*
X65484375Y-35093750D01*
X90750000Y-106296875D02*
X88453125Y-106296875D01*
X113718750Y-108593750D02*
X111421875Y-108593750D01*
X72375000Y-175203125D02*
X72375000Y-172906250D01*
X99937500Y-172906250D02*
X97640625Y-172906250D01*
X81562500Y-172906250D02*
X81562500Y-170609375D01*
X83859375Y-115484375D02*
X83859375Y-117781250D01*
X178031250Y-78734375D02*
X178031250Y-81031250D01*
X120609375Y-129265625D02*
X120609375Y-131562500D01*
X152765625Y-67250000D02*
X152765625Y-64953125D01*
X74671875Y-152234375D02*
X74671875Y-154531250D01*
X83859375Y-159125000D02*
X83859375Y-156828125D01*
X145875000Y-55765625D02*
X145875000Y-58062500D01*
X145875000Y-101703125D02*
X143578125Y-101703125D01*
X164250000Y-147640625D02*
X166546875Y-147640625D01*
X152765625Y-138453125D02*
X155062500Y-138453125D01*
X173437500Y-175203125D02*
X171140625Y-175203125D01*
X35625000Y-76437500D02*
X35625000Y-74140625D01*
X60890625Y-76437500D02*
X63187500Y-76437500D01*
X134390625Y-39687500D02*
X136687500Y-39687500D01*
X56296875Y-97109375D02*
X63187500Y-97109375D01*
X72375000Y-154531250D02*
X70078125Y-154531250D01*
X113718750Y-39687500D02*
X113718750Y-35093750D01*
X138984375Y-55765625D02*
X138984375Y-58062500D01*
X161953125Y-108593750D02*
X161953125Y-113187500D01*
X70078125Y-126968750D02*
X70078125Y-131562500D01*
X129796875Y-120078125D02*
X129796875Y-122375000D01*
X150468750Y-64953125D02*
X150468750Y-67250000D01*
X35625000Y-106296875D02*
X33328125Y-106296875D01*
X88453125Y-62656250D02*
X90750000Y-62656250D01*
X129796875Y-64953125D02*
X129796875Y-67250000D01*
X76968750Y-117781250D02*
X74671875Y-117781250D01*
X173437500Y-149937500D02*
X173437500Y-147640625D01*
X33328125Y-117781250D02*
X35625000Y-117781250D01*
X102234375Y-104000000D02*
X104531250Y-104000000D01*
X148171875Y-35093750D02*
X148171875Y-37390625D01*
X166546875Y-159125000D02*
X166546875Y-156828125D01*
X138984375Y-161421875D02*
X141281250Y-161421875D01*
X171140625Y-172906250D02*
X173437500Y-172906250D01*
X106828125Y-39687500D02*
X109125000Y-39687500D01*
X79265625Y-58062500D02*
X81562500Y-58062500D01*
X125203125Y-35093750D02*
X125203125Y-32796875D01*
X40218750Y-161421875D02*
X37921875Y-161421875D01*
X155062500Y-168312500D02*
X148171875Y-168312500D01*
X178031250Y-74140625D02*
X178031250Y-76437500D01*
X79265625Y-41984375D02*
X79265625Y-46578125D01*
X148171875Y-101703125D02*
X150468750Y-101703125D01*
X120609375Y-37390625D02*
X122906250Y-37390625D01*
X141281250Y-122375000D02*
X138984375Y-122375000D01*
X113718750Y-90218750D02*
X111421875Y-90218750D01*
X175734375Y-126968750D02*
X175734375Y-129265625D01*
X47109375Y-87921875D02*
X47109375Y-90218750D01*
X56296875Y-133859375D02*
X56296875Y-136156250D01*
X125203125Y-113187500D02*
X125203125Y-110890625D01*
X106828125Y-41984375D02*
X106828125Y-46578125D01*
X72375000Y-113187500D02*
X70078125Y-113187500D01*
X161953125Y-133859375D02*
X161953125Y-138453125D01*
X132093750Y-120078125D02*
X129796875Y-120078125D01*
X54000000Y-71843750D02*
X51703125Y-71843750D01*
X90750000Y-46578125D02*
X93046875Y-46578125D01*
X97640625Y-106296875D02*
X97640625Y-110890625D01*
X88453125Y-168312500D02*
X88453125Y-172906250D01*
X51703125Y-97109375D02*
X54000000Y-97109375D01*
X106828125Y-140750000D02*
X109125000Y-140750000D01*
X51703125Y-39687500D02*
X54000000Y-39687500D01*
X70078125Y-41984375D02*
X74671875Y-41984375D01*
X116015625Y-106296875D02*
X116015625Y-108593750D01*
X111421875Y-41984375D02*
X111421875Y-44281250D01*
X166546875Y-44281250D02*
X164250000Y-44281250D01*
X113718750Y-62656250D02*
X111421875Y-62656250D01*
X65484375Y-156828125D02*
X67781250Y-156828125D01*
X143578125Y-131562500D02*
X143578125Y-138500000D01*
X147000000Y-69546875D02*
X150468750Y-69546875D01*
X122906250Y-81031250D02*
X122906250Y-76437500D01*
X49406250Y-166015625D02*
X49406250Y-161421875D01*
X102234375Y-163718750D02*
X99937500Y-163718750D01*
X178031250Y-161421875D02*
X178031250Y-163718750D01*
X173437500Y-32796875D02*
X178031250Y-32796875D01*
X111421875Y-154531250D02*
X111421875Y-156828125D01*
X138984375Y-46578125D02*
X141281250Y-46578125D01*
X166546875Y-170609375D02*
X166546875Y-172906250D01*
X138984375Y-113187500D02*
X141281250Y-113187500D01*
X141281250Y-60359375D02*
X141281250Y-55765625D01*
X102234375Y-115484375D02*
X102234375Y-117781250D01*
X164250000Y-177500000D02*
X159656250Y-177500000D01*
X56296875Y-138453125D02*
X56296875Y-140750000D01*
X125203125Y-69546875D02*
X125203125Y-74140625D01*
X175734375Y-110890625D02*
X178031250Y-110890625D01*
X111421875Y-149937500D02*
X111421875Y-147640625D01*
X136687500Y-32796875D02*
X136687500Y-35093750D01*
X90750000Y-156828125D02*
X93046875Y-156828125D01*
X83859375Y-147640625D02*
X83859375Y-149937500D01*
X157359375Y-71843750D02*
X159656250Y-71843750D01*
X51703125Y-64953125D02*
X54000000Y-64953125D01*
X42515625Y-92515625D02*
X44812500Y-92515625D01*
X44812500Y-53468750D02*
X44812500Y-51171875D01*
X157359375Y-78734375D02*
X159656250Y-78734375D01*
X159656250Y-55765625D02*
X159656250Y-51171875D01*
X109125000Y-163718750D02*
X106828125Y-163718750D01*
X33328125Y-145343750D02*
X35625000Y-145343750D01*
X173437500Y-104000000D02*
X173437500Y-101703125D01*
X178031250Y-71843750D02*
X175734375Y-71843750D01*
X164250000Y-172906250D02*
X164250000Y-170609375D01*
X145875000Y-168312500D02*
X143578125Y-168312500D01*
X127500000Y-71843750D02*
X127500000Y-69546875D01*
X148171875Y-147640625D02*
X150468750Y-147640625D01*
X76968750Y-71843750D02*
X72500000Y-71843750D01*
X33328125Y-159125000D02*
X35625000Y-159125000D01*
X148171875Y-81031250D02*
X148171875Y-78734375D01*
X35625000Y-170609375D02*
X40218750Y-170609375D01*
X125203125Y-124671875D02*
X125203125Y-126968750D01*
X164250000Y-120078125D02*
X164250000Y-122375000D01*
X111421875Y-87921875D02*
X116015625Y-87921875D01*
X141281250Y-74140625D02*
X141281250Y-71843750D01*
X118312500Y-37390625D02*
X116015625Y-37390625D01*
X178031250Y-48875000D02*
X173437500Y-48875000D01*
X41000000Y-48875000D02*
X43500000Y-48875000D01*
X116015625Y-78734375D02*
X120609375Y-78734375D01*
X74671875Y-32796875D02*
X74671875Y-35093750D01*
X79265625Y-87921875D02*
X83859375Y-87921875D01*
X106828125Y-106296875D02*
X109125000Y-106296875D01*
X132093750Y-175203125D02*
X129796875Y-175203125D01*
X111421875Y-37390625D02*
X111421875Y-39687500D01*
X129796875Y-136156250D02*
X129796875Y-133859375D01*
X152765625Y-39687500D02*
X152765625Y-37390625D01*
X81562500Y-60359375D02*
X79265625Y-60359375D01*
X127500000Y-149937500D02*
X125203125Y-149937500D01*
X60890625Y-62656250D02*
X63187500Y-62656250D01*
X109125000Y-60359375D02*
X109125000Y-62656250D01*
X171140625Y-67250000D02*
X166546875Y-67250000D01*
X141281250Y-108593750D02*
X138984375Y-108593750D01*
X145875000Y-159125000D02*
X145875000Y-156828125D01*
X111421875Y-35093750D02*
X111421875Y-32796875D01*
X90750000Y-145343750D02*
X90750000Y-143046875D01*
X122906250Y-99406250D02*
X120609375Y-99406250D01*
X83859375Y-120078125D02*
X83859375Y-122375000D01*
X86156250Y-168312500D02*
X86156250Y-163718750D01*
X35625000Y-78734375D02*
X33328125Y-78734375D01*
X83859375Y-99406250D02*
X83859375Y-97109375D01*
X95343750Y-35093750D02*
X93046875Y-35093750D01*
X83859375Y-71843750D02*
X83859375Y-74140625D01*
X152765625Y-154531250D02*
X152765625Y-159125000D01*
X51703125Y-133859375D02*
X56296875Y-133859375D01*
X102234375Y-138453125D02*
X104531250Y-138453125D01*
X51703125Y-83328125D02*
X54000000Y-83328125D01*
X49406250Y-83328125D02*
X49406250Y-85625000D01*
X157359375Y-126968750D02*
X155062500Y-126968750D01*
X145875000Y-85625000D02*
X145875000Y-83328125D01*
X47109375Y-129265625D02*
X49406250Y-129265625D01*
X102234375Y-58062500D02*
X102234375Y-55765625D01*
X33328125Y-58062500D02*
X33328125Y-62656250D01*
X74671875Y-74140625D02*
X74671875Y-76437500D01*
X58593750Y-110890625D02*
X58593750Y-106296875D01*
X93046875Y-81031250D02*
X95343750Y-81031250D01*
X88453125Y-159125000D02*
X90750000Y-159125000D01*
X67781250Y-131562500D02*
X67781250Y-126968750D01*
X74671875Y-161421875D02*
X74671875Y-163718750D01*
X166546875Y-81031250D02*
X164250000Y-81031250D01*
X120609375Y-152234375D02*
X120609375Y-154531250D01*
X47109375Y-156828125D02*
X47109375Y-159125000D01*
X99937500Y-145343750D02*
X97640625Y-145343750D01*
X90750000Y-67250000D02*
X90750000Y-64953125D01*
X166546875Y-133859375D02*
X166546875Y-136156250D01*
X54000000Y-170609375D02*
X51703125Y-170609375D01*
X113718750Y-115484375D02*
X111421875Y-115484375D01*
X178031250Y-136156250D02*
X175734375Y-136156250D01*
X129796875Y-175203125D02*
X129796875Y-177500000D01*
X42515625Y-67250000D02*
X42515625Y-64953125D01*
X70078125Y-104000000D02*
X72375000Y-104000000D01*
X155062500Y-122375000D02*
X155062500Y-120078125D01*
X166546875Y-172906250D02*
X164250000Y-172906250D01*
X173437500Y-39687500D02*
X173437500Y-37390625D01*
X109125000Y-138453125D02*
X111421875Y-138453125D01*
X113718750Y-159125000D02*
X109125000Y-159125000D01*
X106828125Y-55765625D02*
X106828125Y-60359375D01*
X164250000Y-108593750D02*
X161953125Y-108593750D01*
X104531250Y-177500000D02*
X104531250Y-175203125D01*
X111421875Y-168312500D02*
X113718750Y-168312500D01*
X129796875Y-87921875D02*
X129796875Y-90218750D01*
X164250000Y-67250000D02*
X159656250Y-67250000D01*
X51703125Y-71843750D02*
X51703125Y-69546875D01*
X122906250Y-39687500D02*
X118312500Y-39687500D01*
X141281250Y-83328125D02*
X138984375Y-83328125D01*
X157359375Y-163718750D02*
X155062500Y-163718750D01*
X120609375Y-117781250D02*
X120609375Y-120078125D01*
X49406250Y-41984375D02*
X49406250Y-37390625D01*
X164250000Y-106296875D02*
X164250000Y-108593750D01*
X118312500Y-115484375D02*
X122906250Y-115484375D01*
X63187500Y-117781250D02*
X60890625Y-117781250D01*
X118312500Y-104000000D02*
X118312500Y-101703125D01*
X74671875Y-159125000D02*
X70078125Y-159125000D01*
X155062500Y-115484375D02*
X155062500Y-117781250D01*
X60890625Y-99406250D02*
X60890625Y-104000000D01*
X37921875Y-62656250D02*
X37921875Y-64953125D01*
X159656250Y-51171875D02*
X157359375Y-51171875D01*
X35625000Y-99406250D02*
X33328125Y-99406250D01*
X42515625Y-85625000D02*
X37921875Y-85625000D01*
X164250000Y-140750000D02*
X159656250Y-140750000D01*
X129796875Y-67250000D02*
X132093750Y-67250000D01*
X54000000Y-175203125D02*
X54000000Y-177500000D01*
X97640625Y-166015625D02*
X99937500Y-166015625D01*
X99937500Y-58062500D02*
X93046875Y-58062500D01*
X136687500Y-87921875D02*
X136687500Y-90218750D01*
X54000000Y-92515625D02*
X51703125Y-92515625D01*
X127500000Y-166015625D02*
X127500000Y-163718750D01*
X81562500Y-44281250D02*
X81562500Y-41984375D01*
X99937500Y-152234375D02*
X99937500Y-154531250D01*
X42515625Y-60359375D02*
X47109375Y-60359375D01*
X65484375Y-120078125D02*
X65484375Y-122375000D01*
X106828125Y-94812500D02*
X109125000Y-94812500D01*
X122906250Y-104000000D02*
X118312500Y-104000000D01*
X44812500Y-92515625D02*
X44812500Y-90218750D01*
X74671875Y-113187500D02*
X74671875Y-110890625D01*
X111421875Y-81031250D02*
X111421875Y-83328125D01*
X49406250Y-124671875D02*
X49406250Y-126968750D01*
X70078125Y-161421875D02*
X74671875Y-161421875D01*
X127500000Y-35093750D02*
X125203125Y-35093750D01*
X93046875Y-71843750D02*
X95343750Y-71843750D01*
X168843750Y-108593750D02*
X166546875Y-108593750D01*
X49406250Y-136156250D02*
X47109375Y-136156250D01*
X171140625Y-64953125D02*
X171140625Y-67250000D01*
X122906250Y-147640625D02*
X122906250Y-143046875D01*
X159656250Y-117781250D02*
X157359375Y-117781250D01*
X111421875Y-136156250D02*
X111421875Y-133859375D01*
X74671875Y-175203125D02*
X74671875Y-177500000D01*
X86156250Y-131562500D02*
X81562500Y-131562500D01*
X83859375Y-122375000D02*
X79265625Y-122375000D01*
X116015625Y-117781250D02*
X118312500Y-117781250D01*
X104531250Y-104000000D02*
X104531250Y-99406250D01*
X150468750Y-175203125D02*
X150468750Y-177500000D01*
X51703125Y-92515625D02*
X51703125Y-97109375D01*
X42515625Y-161421875D02*
X42515625Y-166015625D01*
X63187500Y-129265625D02*
X65484375Y-129265625D01*
X106828125Y-76437500D02*
X106828125Y-81031250D01*
X88453125Y-166015625D02*
X90750000Y-166015625D01*
X88453125Y-126968750D02*
X88453125Y-124671875D01*
X155062500Y-101703125D02*
X155062500Y-99406250D01*
X74671875Y-149937500D02*
X70078125Y-149937500D01*
X116015625Y-74140625D02*
X118312500Y-74140625D01*
X136687500Y-39687500D02*
X136687500Y-37390625D01*
X159656250Y-104000000D02*
X159656250Y-101703125D01*
X60890625Y-120078125D02*
X63187500Y-120078125D01*
X70078125Y-99406250D02*
X70078125Y-104000000D01*
X54000000Y-101703125D02*
X56296875Y-101703125D01*
X113718750Y-41984375D02*
X111421875Y-41984375D01*
X83859375Y-35093750D02*
X83859375Y-32796875D01*
X148171875Y-74140625D02*
X150468750Y-74140625D01*
X155062500Y-99406250D02*
X152765625Y-99406250D01*
X109125000Y-145343750D02*
X109125000Y-143046875D01*
X148171875Y-172906250D02*
X148171875Y-175203125D01*
X88453125Y-113187500D02*
X88453125Y-117781250D01*
X148171875Y-124671875D02*
X148171875Y-126968750D01*
X148171875Y-48875000D02*
X150468750Y-48875000D01*
X47109375Y-58062500D02*
X47109375Y-55765625D01*
X56296875Y-113187500D02*
X56296875Y-110890625D01*
X102234375Y-113187500D02*
X102234375Y-110890625D01*
X118312500Y-76437500D02*
X111421875Y-76437500D01*
X76968750Y-67250000D02*
X76968750Y-64953125D01*
X166546875Y-175203125D02*
X168843750Y-175203125D01*
X148171875Y-85625000D02*
X150468750Y-85625000D01*
X88453125Y-97109375D02*
X90750000Y-97109375D01*
X95343750Y-64953125D02*
X95343750Y-67250000D01*
X44812500Y-161421875D02*
X42515625Y-161421875D01*
X63187500Y-124671875D02*
X63187500Y-126968750D01*
X49406250Y-138453125D02*
X49406250Y-140750000D01*
X129796875Y-44281250D02*
X132093750Y-44281250D01*
X178031250Y-37390625D02*
X178031250Y-39687500D01*
X81562500Y-177500000D02*
X76968750Y-177500000D01*
X79265625Y-138453125D02*
X79265625Y-140750000D01*
X132093750Y-161421875D02*
X136687500Y-161421875D01*
X40218750Y-99406250D02*
X37921875Y-99406250D01*
X157359375Y-62656250D02*
X159656250Y-62656250D01*
X109125000Y-35093750D02*
X106828125Y-35093750D01*
X106828125Y-35093750D02*
X106828125Y-39687500D01*
X178031250Y-147640625D02*
X178031250Y-149937500D01*
X118312500Y-140750000D02*
X118312500Y-138453125D01*
X171140625Y-48875000D02*
X166546875Y-48875000D01*
X134390625Y-124671875D02*
X138984375Y-124671875D01*
X125203125Y-156828125D02*
X125203125Y-159125000D01*
X143578125Y-108593750D02*
X145875000Y-108593750D01*
X136687500Y-41984375D02*
X134390625Y-41984375D01*
X143578125Y-129265625D02*
X145875000Y-129265625D01*
X83859375Y-46578125D02*
X86156250Y-46578125D01*
X166546875Y-168312500D02*
X168843750Y-168312500D01*
X88453125Y-48875000D02*
X90750000Y-48875000D01*
X109125000Y-39687500D02*
X109125000Y-37390625D01*
X70078125Y-120078125D02*
X70078125Y-124671875D01*
X76968750Y-44281250D02*
X76968750Y-37390625D01*
X157359375Y-85625000D02*
X159656250Y-85625000D01*
X49406250Y-85625000D02*
X44812500Y-85625000D01*
X102234375Y-177500000D02*
X97640625Y-177500000D01*
X60890625Y-67250000D02*
X56296875Y-67250000D01*
X118312500Y-46578125D02*
X116015625Y-46578125D01*
X118312500Y-71843750D02*
X118312500Y-69546875D01*
X99937500Y-106296875D02*
X97640625Y-106296875D01*
X175734375Y-163718750D02*
X175734375Y-166015625D01*
X56296875Y-51171875D02*
X60890625Y-51171875D01*
X106828125Y-126968750D02*
X109125000Y-126968750D01*
X148171875Y-115484375D02*
X155062500Y-115484375D01*
X109125000Y-108593750D02*
X106828125Y-108593750D01*
X106828125Y-83328125D02*
X106828125Y-87921875D01*
X161953125Y-48875000D02*
X161953125Y-51171875D01*
X99937500Y-175203125D02*
X99937500Y-172906250D01*
X159656250Y-168312500D02*
X157359375Y-168312500D01*
X132093750Y-136156250D02*
X129796875Y-136156250D01*
X104531250Y-113187500D02*
X102234375Y-113187500D01*
X113718750Y-69546875D02*
X111421875Y-69546875D01*
X159656250Y-161421875D02*
X157359375Y-161421875D01*
X42515625Y-172906250D02*
X42515625Y-170609375D01*
X93046875Y-74140625D02*
X93046875Y-76437500D01*
X168843750Y-145343750D02*
X166546875Y-145343750D01*
X164250000Y-161421875D02*
X164250000Y-163718750D01*
X49406250Y-104000000D02*
X49406250Y-99406250D01*
X81562500Y-53468750D02*
X79265625Y-53468750D01*
X136687500Y-64953125D02*
X138984375Y-64953125D01*
X63187500Y-60359375D02*
X67000000Y-60359375D01*
X143578125Y-159125000D02*
X145875000Y-159125000D01*
X145875000Y-161421875D02*
X143578125Y-161421875D01*
X178031250Y-175203125D02*
X178031250Y-177500000D01*
X102234375Y-81031250D02*
X99937500Y-81031250D01*
X138984375Y-81031250D02*
X141281250Y-81031250D01*
X83859375Y-175203125D02*
X86156250Y-175203125D01*
X171140625Y-161421875D02*
X171140625Y-163718750D01*
X129796875Y-55765625D02*
X132093750Y-55765625D01*
X104531250Y-131562500D02*
X104531250Y-126968750D01*
X152765625Y-149937500D02*
X152765625Y-147640625D01*
X138984375Y-99406250D02*
X136687500Y-99406250D01*
X136687500Y-60359375D02*
X136687500Y-62656250D01*
X106828125Y-48875000D02*
X106828125Y-53468750D01*
X44812500Y-133859375D02*
X49406250Y-133859375D01*
X42515625Y-81031250D02*
X44812500Y-81031250D01*
X93046875Y-124671875D02*
X93046875Y-126968750D01*
X178031250Y-97109375D02*
X178031250Y-99406250D01*
X54000000Y-145343750D02*
X51703125Y-145343750D01*
X111421875Y-115484375D02*
X111421875Y-117781250D01*
X141281250Y-46578125D02*
X141281250Y-41984375D01*
X109125000Y-104000000D02*
X106828125Y-104000000D01*
X40218750Y-147640625D02*
X40218750Y-149937500D01*
X120609375Y-149937500D02*
X120609375Y-147640625D01*
X173437500Y-117781250D02*
X173437500Y-115484375D01*
X118312500Y-39687500D02*
X118312500Y-37390625D01*
X51703125Y-175203125D02*
X54000000Y-175203125D01*
X74671875Y-136156250D02*
X72375000Y-136156250D01*
X138984375Y-48875000D02*
X138984375Y-46578125D01*
X171140625Y-120078125D02*
X171140625Y-122375000D01*
X70078125Y-32796875D02*
X74671875Y-32796875D01*
X161953125Y-149937500D02*
X164250000Y-149937500D01*
X35625000Y-143046875D02*
X40218750Y-143046875D01*
X141281250Y-163718750D02*
X138984375Y-163718750D01*
X129796875Y-163718750D02*
X132093750Y-163718750D01*
X171140625Y-175203125D02*
X171140625Y-177500000D01*
X129796875Y-115484375D02*
X129796875Y-117781250D01*
X148171875Y-126968750D02*
X145875000Y-126968750D01*
X134390625Y-115484375D02*
X134390625Y-120078125D01*
X99937500Y-113187500D02*
X93046875Y-113187500D01*
X79265625Y-99406250D02*
X79265625Y-104000000D01*
X67781250Y-149937500D02*
X63187500Y-149937500D01*
X79265625Y-163718750D02*
X79265625Y-168312500D01*
X81562500Y-149937500D02*
X81562500Y-147640625D01*
X127500000Y-55765625D02*
X125203125Y-55765625D01*
X42515625Y-145343750D02*
X42515625Y-143046875D01*
X164250000Y-62656250D02*
X164250000Y-60359375D01*
X102234375Y-175203125D02*
X102234375Y-177500000D01*
X127500000Y-108593750D02*
X125203125Y-108593750D01*
X155062500Y-48875000D02*
X155062500Y-46578125D01*
X37921875Y-78734375D02*
X37921875Y-81031250D01*
X90750000Y-37390625D02*
X88453125Y-37390625D01*
X171140625Y-69546875D02*
X171140625Y-71843750D01*
X164250000Y-113187500D02*
X164250000Y-110890625D01*
X136687500Y-147640625D02*
X136687500Y-149937500D01*
X157359375Y-145343750D02*
X159656250Y-145343750D01*
X159656250Y-152234375D02*
X159656250Y-147640625D01*
X141281250Y-87921875D02*
X141281250Y-83328125D01*
X72375000Y-81031250D02*
X72375000Y-78734375D01*
X152765625Y-85625000D02*
X155062500Y-85625000D01*
X157359375Y-74140625D02*
X157359375Y-76437500D01*
X136687500Y-166015625D02*
X138984375Y-166015625D01*
X58593750Y-99406250D02*
X56296875Y-99406250D01*
X145875000Y-110890625D02*
X143578125Y-110890625D01*
X54000000Y-51171875D02*
X54000000Y-53468750D01*
X120609375Y-126968750D02*
X122906250Y-126968750D01*
X51703125Y-85625000D02*
X51703125Y-83328125D01*
X60890625Y-117781250D02*
X60890625Y-115484375D01*
X178031250Y-138453125D02*
X178031250Y-140750000D01*
X113718750Y-53468750D02*
X111421875Y-53468750D01*
X150468750Y-129265625D02*
X150468750Y-124671875D01*
X37921875Y-90218750D02*
X37921875Y-92515625D01*
X127500000Y-117781250D02*
X125203125Y-117781250D01*
X155062500Y-94812500D02*
X148171875Y-94812500D01*
X138984375Y-44281250D02*
X136687500Y-44281250D01*
X166546875Y-69546875D02*
X171140625Y-69546875D01*
X90750000Y-154531250D02*
X88453125Y-154531250D01*
X152765625Y-166015625D02*
X155062500Y-166015625D01*
X136687500Y-104000000D02*
X132093750Y-104000000D01*
X90750000Y-122375000D02*
X90750000Y-120078125D01*
X109125000Y-97109375D02*
X106828125Y-97109375D01*
X67781250Y-92515625D02*
X65484375Y-92515625D01*
X168843750Y-163718750D02*
X166546875Y-163718750D01*
X37921875Y-154531250D02*
X37921875Y-152234375D01*
X102234375Y-87921875D02*
X102234375Y-90218750D01*
X168843750Y-101703125D02*
X168843750Y-97109375D01*
X42515625Y-177500000D02*
X42515625Y-175203125D01*
X134390625Y-46578125D02*
X136687500Y-46578125D01*
X111421875Y-113187500D02*
X113718750Y-113187500D01*
X70078125Y-113187500D02*
X70078125Y-117781250D01*
X93046875Y-117781250D02*
X93046875Y-120078125D01*
X138984375Y-78734375D02*
X138984375Y-81031250D01*
X171140625Y-87921875D02*
X171140625Y-90218750D01*
X145875000Y-129265625D02*
X145875000Y-131562500D01*
X86156250Y-113187500D02*
X83859375Y-113187500D01*
X72375000Y-53468750D02*
X70078125Y-53468750D01*
X166546875Y-78734375D02*
X166546875Y-81031250D01*
X47109375Y-92515625D02*
X47109375Y-94812500D01*
X145875000Y-35093750D02*
X145875000Y-32796875D01*
X49406250Y-129265625D02*
X49406250Y-131562500D01*
X122906250Y-69546875D02*
X120609375Y-69546875D01*
X81562500Y-138453125D02*
X79265625Y-138453125D01*
X51703125Y-90218750D02*
X54000000Y-90218750D01*
X143578125Y-166015625D02*
X145875000Y-166015625D01*
X51703125Y-81031250D02*
X51703125Y-78734375D01*
X145875000Y-97109375D02*
X150468750Y-97109375D01*
X31650000Y-49150000D02*
X32500000Y-49150000D01*
X111421875Y-71843750D02*
X109125000Y-71843750D01*
X173437500Y-35093750D02*
X173437500Y-32796875D01*
X95343750Y-170609375D02*
X95343750Y-172906250D01*
X49406250Y-55765625D02*
X49406250Y-51171875D01*
X42515625Y-99406250D02*
X42515625Y-104000000D01*
X171140625Y-177500000D02*
X166546875Y-177500000D01*
X86156250Y-159125000D02*
X83859375Y-159125000D01*
X125203125Y-106296875D02*
X129796875Y-106296875D01*
X159656250Y-78734375D02*
X159656250Y-74140625D01*
X150468750Y-170609375D02*
X150468750Y-172906250D01*
X116015625Y-172906250D02*
X118312500Y-172906250D01*
X168843750Y-113187500D02*
X168843750Y-108593750D01*
X42515625Y-140750000D02*
X37921875Y-140750000D01*
X70078125Y-172906250D02*
X70078125Y-170609375D01*
X60890625Y-126968750D02*
X60890625Y-131562500D01*
X95343750Y-55765625D02*
X95343750Y-51171875D01*
X175734375Y-46578125D02*
X178031250Y-46578125D01*
X47109375Y-154531250D02*
X47109375Y-152234375D01*
X95343750Y-177500000D02*
X90750000Y-177500000D01*
X60890625Y-87921875D02*
X65484375Y-87921875D01*
X168843750Y-78734375D02*
X166546875Y-78734375D01*
X40218750Y-60359375D02*
X40218750Y-62656250D01*
X138984375Y-92515625D02*
X138984375Y-94812500D01*
X74671875Y-83328125D02*
X76968750Y-83328125D01*
X102234375Y-99406250D02*
X102234375Y-97109375D01*
X99937500Y-140750000D02*
X95343750Y-140750000D01*
X79265625Y-120078125D02*
X81562500Y-120078125D01*
X109125000Y-170609375D02*
X106828125Y-170609375D01*
X138984375Y-64953125D02*
X138984375Y-60359375D01*
X86156250Y-133859375D02*
X86156250Y-136156250D01*
X40218750Y-175203125D02*
X40218750Y-177500000D01*
X47109375Y-46578125D02*
X47109375Y-48875000D01*
X129796875Y-76437500D02*
X129796875Y-74140625D01*
X122906250Y-51171875D02*
X125203125Y-51171875D01*
X86156250Y-81031250D02*
X83859375Y-81031250D01*
X109125000Y-129265625D02*
X106828125Y-129265625D01*
X97640625Y-131562500D02*
X99937500Y-131562500D01*
X54000000Y-163718750D02*
X51703125Y-163718750D01*
X35625000Y-108593750D02*
X35625000Y-106296875D01*
X129796875Y-97109375D02*
X129796875Y-99406250D01*
X83859375Y-108593750D02*
X81562500Y-108593750D01*
X79265625Y-69546875D02*
X79265625Y-71843750D01*
X49406250Y-120078125D02*
X47109375Y-120078125D01*
X164250000Y-124671875D02*
X164250000Y-126968750D01*
X157359375Y-129265625D02*
X159656250Y-129265625D01*
X155062500Y-55765625D02*
X155062500Y-58062500D01*
X42515625Y-87921875D02*
X47109375Y-87921875D01*
X35625000Y-53468750D02*
X35625000Y-51000000D01*
X164250000Y-101703125D02*
X164250000Y-104000000D01*
X76968750Y-99406250D02*
X74671875Y-99406250D01*
X35625000Y-64953125D02*
X33328125Y-64953125D01*
X159656250Y-106296875D02*
X164250000Y-106296875D01*
X37921875Y-172906250D02*
X37921875Y-175203125D01*
X74671875Y-53468750D02*
X76968750Y-53468750D01*
X127500000Y-110890625D02*
X127500000Y-108593750D01*
X125203125Y-168312500D02*
X125203125Y-166015625D01*
X49406250Y-117781250D02*
X49406250Y-113187500D01*
X60890625Y-106296875D02*
X60890625Y-110890625D01*
X161953125Y-83328125D02*
X164250000Y-83328125D01*
X120609375Y-156828125D02*
X120609375Y-159125000D01*
X171140625Y-154531250D02*
X173437500Y-154531250D01*
X118312500Y-48875000D02*
X118312500Y-46578125D01*
X136687500Y-172906250D02*
X136687500Y-170609375D01*
X157359375Y-60359375D02*
X157359375Y-62656250D01*
X145875000Y-81031250D02*
X143578125Y-81031250D01*
X166546875Y-104000000D02*
X166546875Y-101703125D01*
X152765625Y-110890625D02*
X155062500Y-110890625D01*
X113718750Y-154531250D02*
X111421875Y-154531250D01*
X175734375Y-145343750D02*
X175734375Y-147640625D01*
X140000000Y-145343750D02*
X137500000Y-145343750D01*
X37921875Y-106296875D02*
X37921875Y-108593750D01*
X99937500Y-108593750D02*
X99937500Y-106296875D01*
X132093750Y-104000000D02*
X132093750Y-101703125D01*
X93046875Y-163718750D02*
X90750000Y-163718750D01*
X134390625Y-120078125D02*
X136687500Y-120078125D01*
X150468750Y-32796875D02*
X150468750Y-35093750D01*
X37921875Y-101703125D02*
X37921875Y-104000000D01*
X145875000Y-92515625D02*
X145875000Y-94812500D01*
X54000000Y-37390625D02*
X56296875Y-37390625D01*
X178031250Y-32796875D02*
X178031250Y-35093750D01*
X145875000Y-117781250D02*
X143578125Y-117781250D01*
X127500000Y-64953125D02*
X129796875Y-64953125D01*
X166546875Y-131562500D02*
X168843750Y-131562500D01*
X150468750Y-85625000D02*
X150468750Y-81031250D01*
X33328125Y-120078125D02*
X33328125Y-124671875D01*
X157359375Y-177500000D02*
X152765625Y-177500000D01*
X44812500Y-99406250D02*
X42515625Y-99406250D01*
X120609375Y-131562500D02*
X116015625Y-131562500D01*
X106828125Y-147640625D02*
X109125000Y-147640625D01*
X109125000Y-149937500D02*
X106828125Y-149937500D01*
X164250000Y-41984375D02*
X161953125Y-41984375D01*
X127500000Y-154531250D02*
X127500000Y-152234375D01*
X134390625Y-140750000D02*
X137500000Y-140750000D01*
X56296875Y-104000000D02*
X58593750Y-104000000D01*
X60890625Y-115484375D02*
X65484375Y-115484375D01*
X136687500Y-46578125D02*
X136687500Y-48875000D01*
X161953125Y-64953125D02*
X164250000Y-64953125D01*
X65484375Y-55765625D02*
X67781250Y-55765625D01*
X152765625Y-99406250D02*
X152765625Y-97109375D01*
X35625000Y-92515625D02*
X33328125Y-92515625D01*
X88453125Y-177500000D02*
X83859375Y-177500000D01*
X109125000Y-83328125D02*
X106828125Y-83328125D01*
X90750000Y-83328125D02*
X90750000Y-81031250D01*
X93046875Y-172906250D02*
X93046875Y-175203125D01*
X129796875Y-129265625D02*
X132093750Y-129265625D01*
X129796875Y-168312500D02*
X125203125Y-168312500D01*
X81562500Y-48875000D02*
X76968750Y-48875000D01*
X67000000Y-62500000D02*
X65000000Y-62500000D01*
X42515625Y-74140625D02*
X42515625Y-81031250D01*
X83859375Y-145343750D02*
X83859375Y-143046875D01*
X47109375Y-83328125D02*
X49406250Y-83328125D01*
X173437500Y-154531250D02*
X173437500Y-152234375D01*
X81562500Y-170609375D02*
X79265625Y-170609375D01*
X58593750Y-170609375D02*
X56296875Y-170609375D01*
X113718750Y-136156250D02*
X111421875Y-136156250D01*
X93046875Y-37390625D02*
X95343750Y-37390625D01*
X141281250Y-48875000D02*
X138984375Y-48875000D01*
X93046875Y-46578125D02*
X93046875Y-48875000D01*
X83859375Y-39687500D02*
X86156250Y-39687500D01*
X56296875Y-37390625D02*
X56296875Y-39687500D01*
X74671875Y-166015625D02*
X74671875Y-168312500D01*
X178031250Y-46578125D02*
X178031250Y-48875000D01*
X40218750Y-87921875D02*
X40218750Y-90218750D01*
X63187500Y-120078125D02*
X63187500Y-117781250D01*
X178031250Y-94812500D02*
X173437500Y-94812500D01*
X79265625Y-106296875D02*
X79265625Y-110890625D01*
X164250000Y-69546875D02*
X164250000Y-71843750D01*
X122906250Y-92515625D02*
X122906250Y-94812500D01*
X141281250Y-154531250D02*
X141281250Y-149937500D01*
X54000000Y-104000000D02*
X54000000Y-101703125D01*
X95343750Y-149937500D02*
X90750000Y-149937500D01*
X37921875Y-136156250D02*
X35625000Y-136156250D01*
X95343750Y-166015625D02*
X95343750Y-161421875D01*
X88453125Y-74140625D02*
X90750000Y-74140625D01*
X56296875Y-152234375D02*
X56296875Y-154531250D01*
X31500000Y-177500000D02*
X31500000Y-49300000D01*
X129796875Y-161421875D02*
X129796875Y-163718750D01*
X137500000Y-140750000D02*
X137500000Y-138453125D01*
X155062500Y-58062500D02*
X148171875Y-58062500D01*
X49406250Y-64953125D02*
X47109375Y-64953125D01*
X111421875Y-126968750D02*
X111421875Y-129265625D01*
X44812500Y-152234375D02*
X44812500Y-154531250D01*
X157359375Y-149937500D02*
X152765625Y-149937500D01*
X152765625Y-122375000D02*
X155062500Y-122375000D01*
X178031250Y-67250000D02*
X173437500Y-67250000D01*
X148171875Y-156828125D02*
X148171875Y-159125000D01*
X83859375Y-110890625D02*
X86156250Y-110890625D01*
X141281250Y-39687500D02*
X141281250Y-35093750D01*
X168843750Y-35093750D02*
X166546875Y-35093750D01*
X106828125Y-115484375D02*
X106828125Y-120078125D01*
X141281250Y-170609375D02*
X138984375Y-170609375D01*
X63187500Y-156828125D02*
X60890625Y-156828125D01*
X35625000Y-136156250D02*
X35625000Y-133859375D01*
X148171875Y-145343750D02*
X148171875Y-147640625D01*
X86156250Y-129265625D02*
X86156250Y-131562500D01*
X35625000Y-55765625D02*
X35625000Y-58062500D01*
X47109375Y-170609375D02*
X47109375Y-172906250D01*
X143578125Y-48875000D02*
X145875000Y-48875000D01*
X106828125Y-46578125D02*
X109125000Y-46578125D01*
X88453125Y-154531250D02*
X88453125Y-159125000D01*
X173437500Y-131562500D02*
X173437500Y-129265625D01*
X164250000Y-44281250D02*
X164250000Y-41984375D01*
X175734375Y-136156250D02*
X175734375Y-138453125D01*
X63187500Y-44281250D02*
X63187500Y-41984375D01*
X148171875Y-44281250D02*
X148171875Y-41984375D01*
X93046875Y-51171875D02*
X93046875Y-53468750D01*
X58593750Y-156828125D02*
X58593750Y-152234375D01*
X97640625Y-115484375D02*
X102234375Y-115484375D01*
X152765625Y-92515625D02*
X155062500Y-92515625D01*
X56296875Y-131562500D02*
X51703125Y-131562500D01*
X56296875Y-81031250D02*
X58593750Y-81031250D01*
X145875000Y-72000000D02*
X143578125Y-72000000D01*
X109125000Y-117781250D02*
X109125000Y-115484375D01*
X74671875Y-39687500D02*
X70078125Y-39687500D01*
X138984375Y-58062500D02*
X134390625Y-58062500D01*
X102234375Y-90218750D02*
X104531250Y-90218750D01*
X72375000Y-104000000D02*
X72375000Y-101703125D01*
X136687500Y-113187500D02*
X136687500Y-110890625D01*
X86156250Y-51171875D02*
X86156250Y-48875000D01*
X155062500Y-159125000D02*
X155062500Y-156828125D01*
X93046875Y-126968750D02*
X95343750Y-126968750D01*
X136687500Y-55765625D02*
X136687500Y-53468750D01*
X37921875Y-64953125D02*
X40218750Y-64953125D01*
X74671875Y-48875000D02*
X70078125Y-48875000D01*
X40218750Y-133859375D02*
X37921875Y-133859375D01*
X51703125Y-48875000D02*
X51703125Y-51171875D01*
X145875000Y-154531250D02*
X143578125Y-154531250D01*
X56296875Y-83328125D02*
X56296875Y-85625000D01*
X35625000Y-67250000D02*
X35625000Y-64953125D01*
X109125000Y-48875000D02*
X106828125Y-48875000D01*
X86156250Y-124671875D02*
X86156250Y-126968750D01*
X49406250Y-58062500D02*
X47109375Y-58062500D01*
X150468750Y-113187500D02*
X145875000Y-113187500D01*
X42515625Y-51171875D02*
X42515625Y-55765625D01*
X164250000Y-159125000D02*
X161953125Y-159125000D01*
X90750000Y-90218750D02*
X90750000Y-87921875D01*
X47109375Y-108593750D02*
X44812500Y-108593750D01*
X102234375Y-101703125D02*
X102234375Y-104000000D01*
X88453125Y-172906250D02*
X90750000Y-172906250D01*
X63187500Y-110890625D02*
X63187500Y-113187500D01*
X56296875Y-41984375D02*
X56296875Y-44281250D01*
X72375000Y-87921875D02*
X76968750Y-87921875D01*
X113718750Y-147640625D02*
X113718750Y-143046875D01*
X145875000Y-146500000D02*
X143578125Y-146500000D01*
X134390625Y-74140625D02*
X136687500Y-74140625D01*
X90750000Y-126968750D02*
X88453125Y-126968750D01*
X63187500Y-41984375D02*
X67781250Y-41984375D01*
X44812500Y-140750000D02*
X44812500Y-138453125D01*
X111421875Y-161421875D02*
X116015625Y-161421875D01*
X42515625Y-83328125D02*
X42515625Y-85625000D01*
X54000000Y-90218750D02*
X54000000Y-87921875D01*
X111421875Y-53468750D02*
X111421875Y-55765625D01*
X76968750Y-94812500D02*
X72375000Y-94812500D01*
X99937500Y-120078125D02*
X99937500Y-117781250D01*
X157359375Y-106296875D02*
X157359375Y-108593750D01*
X152765625Y-32796875D02*
X157359375Y-32796875D01*
X37921875Y-55765625D02*
X40218750Y-55765625D01*
X127500000Y-131562500D02*
X127500000Y-129265625D01*
X111421875Y-145343750D02*
X109125000Y-145343750D01*
X76968750Y-122375000D02*
X72375000Y-122375000D01*
X178031250Y-39687500D02*
X173437500Y-39687500D01*
X63187500Y-53468750D02*
X63187500Y-51171875D01*
X132093750Y-156828125D02*
X132093750Y-159125000D01*
X173437500Y-71843750D02*
X173437500Y-69546875D01*
X164250000Y-58062500D02*
X164250000Y-55765625D01*
X81562500Y-110890625D02*
X81562500Y-113187500D01*
X145875000Y-140750000D02*
X145875000Y-143046875D01*
X90750000Y-175203125D02*
X88453125Y-175203125D01*
X157359375Y-108593750D02*
X159656250Y-108593750D01*
X63187500Y-83328125D02*
X63187500Y-85625000D01*
X51703125Y-35093750D02*
X51703125Y-39687500D01*
X136687500Y-67250000D02*
X136687500Y-64953125D01*
X155062500Y-156828125D02*
X157359375Y-156828125D01*
X102234375Y-60359375D02*
X102234375Y-62656250D01*
X79265625Y-53468750D02*
X79265625Y-58062500D01*
X159656250Y-166015625D02*
X159656250Y-161421875D01*
X88453125Y-145343750D02*
X90750000Y-145343750D01*
X148171875Y-110890625D02*
X150468750Y-110890625D01*
X111421875Y-129265625D02*
X113718750Y-129265625D01*
X132093750Y-32796875D02*
X136687500Y-32796875D01*
X132093750Y-101703125D02*
X129796875Y-101703125D01*
X116015625Y-159125000D02*
X116015625Y-156828125D01*
X81562500Y-106296875D02*
X79265625Y-106296875D01*
X161953125Y-46578125D02*
X164250000Y-46578125D01*
X116015625Y-136156250D02*
X116015625Y-140750000D01*
X161953125Y-122375000D02*
X161953125Y-124671875D01*
X74671875Y-44281250D02*
X76968750Y-44281250D01*
X150468750Y-147640625D02*
X150468750Y-149937500D01*
X141281250Y-133859375D02*
X141281250Y-129265625D01*
X86156250Y-58062500D02*
X86156250Y-53468750D01*
X173437500Y-133859375D02*
X178031250Y-133859375D01*
X168843750Y-120078125D02*
X168843750Y-115484375D01*
X134390625Y-163718750D02*
X134390625Y-168312500D01*
X132093750Y-78734375D02*
X132093750Y-81031250D01*
X106828125Y-53468750D02*
X109125000Y-53468750D01*
X118312500Y-175203125D02*
X116015625Y-175203125D01*
X51703125Y-41984375D02*
X51703125Y-46578125D01*
X148171875Y-58062500D02*
X148171875Y-55765625D01*
X116015625Y-129265625D02*
X118312500Y-129265625D01*
X63187500Y-78734375D02*
X60890625Y-78734375D01*
X47109375Y-152234375D02*
X49406250Y-152234375D01*
X33328125Y-110890625D02*
X35625000Y-110890625D01*
X72375000Y-108593750D02*
X72375000Y-106296875D01*
X132093750Y-122375000D02*
X132093750Y-120078125D01*
X74671875Y-104000000D02*
X76968750Y-104000000D01*
X122906250Y-32796875D02*
X122906250Y-35093750D01*
X157359375Y-154531250D02*
X157359375Y-152234375D01*
X173437500Y-51171875D02*
X178031250Y-51171875D01*
X164250000Y-104000000D02*
X159656250Y-104000000D01*
X47109375Y-39687500D02*
X44812500Y-39687500D01*
X171140625Y-62656250D02*
X173437500Y-62656250D01*
X173437500Y-177500000D02*
X173437500Y-175203125D01*
X58593750Y-46578125D02*
X58593750Y-41984375D01*
X113718750Y-51171875D02*
X113718750Y-53468750D01*
X178031250Y-126968750D02*
X175734375Y-126968750D01*
X58593750Y-64953125D02*
X58593750Y-60359375D01*
X54000000Y-87921875D02*
X58593750Y-87921875D01*
X145875000Y-60359375D02*
X150468750Y-60359375D01*
X95343750Y-145343750D02*
X93046875Y-145343750D01*
X175734375Y-172906250D02*
X175734375Y-175203125D01*
X37921875Y-152234375D02*
X44812500Y-152234375D01*
X70078125Y-60359375D02*
X74671875Y-60359375D01*
X95343750Y-126968750D02*
X95343750Y-124671875D01*
X157359375Y-44281250D02*
X157359375Y-41984375D01*
X109125000Y-90218750D02*
X106828125Y-90218750D01*
X47109375Y-136156250D02*
X47109375Y-138453125D01*
X118312500Y-168312500D02*
X118312500Y-166015625D01*
X40218750Y-92515625D02*
X40218750Y-94812500D01*
X65484375Y-172906250D02*
X65484375Y-175203125D01*
X159656250Y-124671875D02*
X157359375Y-124671875D01*
X74671875Y-108593750D02*
X72375000Y-108593750D01*
X175734375Y-117781250D02*
X175734375Y-120078125D01*
X111421875Y-67250000D02*
X113718750Y-67250000D01*
X143578125Y-104000000D02*
X138984375Y-104000000D01*
X134390625Y-35093750D02*
X134390625Y-39687500D01*
X141281250Y-129265625D02*
X138984375Y-129265625D01*
X106828125Y-143046875D02*
X106828125Y-147640625D01*
X152765625Y-76437500D02*
X152765625Y-74140625D01*
X178031250Y-133859375D02*
X178031250Y-136156250D01*
X178031250Y-41984375D02*
X178031250Y-44281250D01*
X120609375Y-159125000D02*
X116015625Y-159125000D01*
X56296875Y-161421875D02*
X60890625Y-161421875D01*
X122906250Y-168312500D02*
X118312500Y-168312500D01*
X166546875Y-37390625D02*
X166546875Y-39687500D01*
X152765625Y-143046875D02*
X157359375Y-143046875D01*
X104531250Y-90218750D02*
X104531250Y-85625000D01*
X129796875Y-122375000D02*
X125203125Y-122375000D01*
X49406250Y-74140625D02*
X49406250Y-76437500D01*
X74671875Y-78734375D02*
X74671875Y-81031250D01*
X67781250Y-37390625D02*
X67781250Y-39687500D01*
X79265625Y-81031250D02*
X81562500Y-81031250D01*
X157359375Y-37390625D02*
X157359375Y-39687500D01*
X44812500Y-83328125D02*
X42515625Y-83328125D01*
X134390625Y-81031250D02*
X134390625Y-78734375D01*
X35625000Y-175203125D02*
X33328125Y-175203125D01*
X104531250Y-161421875D02*
X102234375Y-161421875D01*
X152765625Y-60359375D02*
X157359375Y-60359375D01*
X81562500Y-37390625D02*
X83859375Y-37390625D01*
X90750000Y-81031250D02*
X88453125Y-81031250D01*
X120609375Y-67250000D02*
X122906250Y-67250000D01*
X129796875Y-81031250D02*
X129796875Y-83328125D01*
X122906250Y-163718750D02*
X120609375Y-163718750D01*
X150468750Y-81031250D02*
X148171875Y-81031250D01*
X35625000Y-126968750D02*
X33328125Y-126968750D01*
X35625000Y-149937500D02*
X35625000Y-147640625D01*
X178031250Y-83328125D02*
X178031250Y-85625000D01*
X157359375Y-152234375D02*
X159656250Y-152234375D01*
X97640625Y-39687500D02*
X97640625Y-37390625D01*
X72375000Y-115484375D02*
X76968750Y-115484375D01*
X173437500Y-161421875D02*
X178031250Y-161421875D01*
X157359375Y-122375000D02*
X159656250Y-122375000D01*
X54000000Y-64953125D02*
X54000000Y-67250000D01*
X88453125Y-37390625D02*
X88453125Y-41984375D01*
X99937500Y-41984375D02*
X99937500Y-44281250D01*
X60890625Y-94812500D02*
X60890625Y-92515625D01*
X70078125Y-90218750D02*
X72375000Y-90218750D01*
X134390625Y-113187500D02*
X136687500Y-113187500D01*
X109125000Y-136156250D02*
X106828125Y-136156250D01*
X67781250Y-53468750D02*
X65484375Y-53468750D01*
X168843750Y-94812500D02*
X168843750Y-90218750D01*
X99937500Y-166015625D02*
X99937500Y-168312500D01*
X132093750Y-154531250D02*
X129796875Y-154531250D01*
X54000000Y-138453125D02*
X54000000Y-136156250D01*
X64000000Y-71843750D02*
X60890625Y-71843750D01*
X83859375Y-51171875D02*
X86156250Y-51171875D01*
X63187500Y-140750000D02*
X58593750Y-140750000D01*
X127500000Y-69546875D02*
X125203125Y-69546875D01*
X74671875Y-58062500D02*
X70078125Y-58062500D01*
X150468750Y-133859375D02*
X150468750Y-136156250D01*
X54000000Y-149937500D02*
X54000000Y-147640625D01*
X40218750Y-64953125D02*
X40218750Y-67250000D01*
X132093750Y-177500000D02*
X132093750Y-175203125D01*
X90750000Y-87921875D02*
X95343750Y-87921875D01*
X70078125Y-124671875D02*
X72375000Y-124671875D01*
X93046875Y-175203125D02*
X95343750Y-175203125D01*
X47109375Y-97109375D02*
X49406250Y-97109375D01*
X129796875Y-62656250D02*
X129796875Y-60359375D01*
X37921875Y-108593750D02*
X35625000Y-108593750D01*
X125203125Y-60359375D02*
X127500000Y-60359375D01*
X155062500Y-90218750D02*
X155062500Y-87921875D01*
X120609375Y-46578125D02*
X122906250Y-46578125D01*
X76968750Y-83328125D02*
X76968750Y-78734375D01*
X157359375Y-48875000D02*
X159656250Y-48875000D01*
X54000000Y-83328125D02*
X54000000Y-81031250D01*
X70078125Y-58062500D02*
X70078125Y-55765625D01*
X65484375Y-166015625D02*
X67781250Y-166015625D01*
X35625000Y-152234375D02*
X35625000Y-154531250D01*
X79265625Y-129265625D02*
X79265625Y-136156250D01*
X102234375Y-44281250D02*
X102234375Y-41984375D01*
X143578125Y-92515625D02*
X145875000Y-92515625D01*
X95343750Y-67250000D02*
X90750000Y-67250000D01*
X81562500Y-159125000D02*
X76968750Y-159125000D01*
X161953125Y-126968750D02*
X161953125Y-131562500D01*
X116015625Y-108593750D02*
X118312500Y-108593750D01*
X70078125Y-117781250D02*
X72375000Y-117781250D01*
X122906250Y-74140625D02*
X122906250Y-69546875D01*
X143578125Y-172906250D02*
X145875000Y-172906250D01*
X173437500Y-46578125D02*
X171140625Y-46578125D01*
X120609375Y-154531250D02*
X122906250Y-154531250D01*
X122906250Y-53468750D02*
X122906250Y-51171875D01*
X148171875Y-166015625D02*
X150468750Y-166015625D01*
X122906250Y-113187500D02*
X118312500Y-113187500D01*
X134390625Y-90218750D02*
X134390625Y-94812500D01*
X111421875Y-175203125D02*
X113718750Y-175203125D01*
X132093750Y-117781250D02*
X132093750Y-110890625D01*
X152765625Y-177500000D02*
X152765625Y-175203125D01*
X72375000Y-35093750D02*
X70078125Y-35093750D01*
X54000000Y-172906250D02*
X54000000Y-170609375D01*
X63187500Y-170609375D02*
X67781250Y-170609375D01*
X72375000Y-172906250D02*
X70078125Y-172906250D01*
X83859375Y-168312500D02*
X86156250Y-168312500D01*
X178031250Y-168312500D02*
X173437500Y-168312500D01*
X42500000Y-43000000D02*
X42500000Y-44281250D01*
X143578125Y-110890625D02*
X143578125Y-115484375D01*
X129796875Y-71843750D02*
X127500000Y-71843750D01*
X79265625Y-46578125D02*
X81562500Y-46578125D01*
X104531250Y-58062500D02*
X102234375Y-58062500D01*
X159656250Y-62656250D02*
X159656250Y-58062500D01*
X166546875Y-87921875D02*
X171140625Y-87921875D01*
X56296875Y-85625000D02*
X51703125Y-85625000D01*
X51703125Y-110890625D02*
X54000000Y-110890625D01*
X97640625Y-145343750D02*
X97640625Y-143046875D01*
X102234375Y-143046875D02*
X102234375Y-145343750D01*
X86156250Y-78734375D02*
X86156250Y-81031250D01*
X109125000Y-166015625D02*
X111421875Y-166015625D01*
X166546875Y-140750000D02*
X166546875Y-138453125D01*
X44812500Y-90218750D02*
X42515625Y-90218750D01*
X97640625Y-90218750D02*
X97640625Y-87921875D01*
X70078125Y-83328125D02*
X72375000Y-83328125D01*
X63187500Y-175203125D02*
X60890625Y-175203125D01*
X40218750Y-170609375D02*
X40218750Y-172906250D01*
X125203125Y-154531250D02*
X127500000Y-154531250D01*
X40218750Y-106296875D02*
X37921875Y-106296875D01*
X86156250Y-145343750D02*
X83859375Y-145343750D01*
X104531250Y-147640625D02*
X102234375Y-147640625D01*
X138984375Y-136156250D02*
X138984375Y-133859375D01*
X166546875Y-129265625D02*
X166546875Y-131562500D01*
X152765625Y-161421875D02*
X152765625Y-166015625D01*
X102234375Y-37390625D02*
X102234375Y-39687500D01*
X40218750Y-154531250D02*
X37921875Y-154531250D01*
X54000000Y-117781250D02*
X54000000Y-115484375D01*
X157359375Y-143046875D02*
X157359375Y-145343750D01*
X164250000Y-170609375D02*
X161953125Y-170609375D01*
X145875000Y-177500000D02*
X145875000Y-175203125D01*
X104531250Y-166015625D02*
X104531250Y-161421875D01*
X97640625Y-133859375D02*
X97640625Y-138453125D01*
X178031250Y-177500000D02*
X173437500Y-177500000D01*
X125203125Y-94812500D02*
X125203125Y-92515625D01*
X102234375Y-69546875D02*
X104531250Y-69546875D01*
X132093750Y-85625000D02*
X127500000Y-85625000D01*
X65484375Y-101703125D02*
X65484375Y-104000000D01*
X178031250Y-154531250D02*
X175734375Y-154531250D01*
X74671875Y-154531250D02*
X76968750Y-154531250D01*
X97640625Y-37390625D02*
X99937500Y-37390625D01*
X63187500Y-48875000D02*
X63187500Y-46578125D01*
X132093750Y-163718750D02*
X132093750Y-161421875D01*
X90750000Y-41984375D02*
X90750000Y-44281250D01*
X35625000Y-60359375D02*
X40218750Y-60359375D01*
X150468750Y-39687500D02*
X145875000Y-39687500D01*
X67781250Y-133859375D02*
X65484375Y-133859375D01*
X42515625Y-147640625D02*
X44812500Y-147640625D01*
X113718750Y-74140625D02*
X113718750Y-69546875D01*
X45000000Y-41984375D02*
X49406250Y-41984375D01*
X157359375Y-39687500D02*
X152765625Y-39687500D01*
X111421875Y-140750000D02*
X113718750Y-140750000D01*
X88453125Y-87921875D02*
X88453125Y-90218750D01*
X141281250Y-161421875D02*
X141281250Y-156828125D01*
X168843750Y-58062500D02*
X168843750Y-53468750D01*
X113718750Y-35093750D02*
X111421875Y-35093750D01*
X93046875Y-152234375D02*
X99937500Y-152234375D01*
X104531250Y-124671875D02*
X104531250Y-120078125D01*
X81562500Y-129265625D02*
X79265625Y-129265625D01*
X81562500Y-46578125D02*
X81562500Y-48875000D01*
X43500000Y-46578125D02*
X47109375Y-46578125D01*
X155062500Y-53468750D02*
X155062500Y-51171875D01*
X111421875Y-90218750D02*
X111421875Y-87921875D01*
X67781250Y-44281250D02*
X65484375Y-44281250D01*
X51703125Y-117781250D02*
X54000000Y-117781250D01*
X47109375Y-147640625D02*
X47109375Y-149937500D01*
X42515625Y-159125000D02*
X44812500Y-159125000D01*
X120609375Y-44281250D02*
X120609375Y-46578125D01*
X118312500Y-133859375D02*
X118312500Y-136156250D01*
X99937500Y-161421875D02*
X97640625Y-161421875D01*
X109125000Y-101703125D02*
X109125000Y-104000000D01*
X109125000Y-159125000D02*
X109125000Y-156828125D01*
X54000000Y-48875000D02*
X51703125Y-48875000D01*
X76968750Y-161421875D02*
X81562500Y-161421875D01*
X86156250Y-163718750D02*
X83859375Y-163718750D01*
X65484375Y-126968750D02*
X65484375Y-124671875D01*
X40218750Y-83328125D02*
X40218750Y-78734375D01*
X116015625Y-156828125D02*
X118312500Y-156828125D01*
X155062500Y-83328125D02*
X157359375Y-83328125D01*
X125203125Y-81031250D02*
X127500000Y-81031250D01*
X122906250Y-166015625D02*
X122906250Y-168312500D01*
X136687500Y-97109375D02*
X134390625Y-97109375D01*
X161953125Y-175203125D02*
X164250000Y-175203125D01*
X44812500Y-85625000D02*
X44812500Y-83328125D01*
X138984375Y-106296875D02*
X143578125Y-106296875D01*
X40218750Y-90218750D02*
X37921875Y-90218750D01*
X141281250Y-97109375D02*
X138984375Y-97109375D01*
X137500000Y-138453125D02*
X141281250Y-138453125D01*
X159656250Y-81031250D02*
X157359375Y-81031250D01*
X88453125Y-147640625D02*
X88453125Y-152234375D01*
X42515625Y-64953125D02*
X44812500Y-64953125D01*
X51703125Y-51171875D02*
X54000000Y-51171875D01*
X49406250Y-69546875D02*
X49406250Y-71843750D01*
X93046875Y-104000000D02*
X95343750Y-104000000D01*
X76968750Y-154531250D02*
X76968750Y-147640625D01*
X148171875Y-120078125D02*
X148171875Y-122375000D01*
X95343750Y-172906250D02*
X93046875Y-172906250D01*
X152765625Y-172906250D02*
X152765625Y-170609375D01*
X118312500Y-69546875D02*
X116015625Y-69546875D01*
X40218750Y-166015625D02*
X40218750Y-161421875D01*
X129796875Y-35093750D02*
X132093750Y-35093750D01*
X125203125Y-110890625D02*
X127500000Y-110890625D01*
X42515625Y-126968750D02*
X44812500Y-126968750D01*
X152765625Y-69546875D02*
X157359375Y-69546875D01*
X65484375Y-37390625D02*
X67781250Y-37390625D01*
X173437500Y-69546875D02*
X178031250Y-69546875D01*
X60890625Y-48875000D02*
X56296875Y-48875000D01*
X37921875Y-156828125D02*
X37921875Y-159125000D01*
X81562500Y-90218750D02*
X79265625Y-90218750D01*
X81562500Y-126968750D02*
X81562500Y-124671875D01*
X54000000Y-110890625D02*
X54000000Y-113187500D01*
X54000000Y-129265625D02*
X54000000Y-126968750D01*
X97640625Y-143046875D02*
X102234375Y-143046875D01*
X63187500Y-62656250D02*
X63187500Y-60359375D01*
X178031250Y-90218750D02*
X175734375Y-90218750D01*
X136687500Y-170609375D02*
X134390625Y-170609375D01*
X99937500Y-37390625D02*
X99937500Y-35093750D01*
X145875000Y-53468750D02*
X145875000Y-51171875D01*
X60890625Y-138453125D02*
X63187500Y-138453125D01*
X65484375Y-133859375D02*
X65484375Y-136156250D01*
X88453125Y-120078125D02*
X88453125Y-122375000D01*
X67781250Y-126968750D02*
X65484375Y-126968750D01*
X111421875Y-143046875D02*
X111421875Y-145343750D01*
X40218750Y-104000000D02*
X40218750Y-99406250D01*
X102234375Y-161421875D02*
X102234375Y-163718750D01*
X97640625Y-149937500D02*
X97640625Y-147640625D01*
X161953125Y-85625000D02*
X161953125Y-87921875D01*
X150468750Y-166015625D02*
X150468750Y-161421875D01*
X63187500Y-81031250D02*
X63187500Y-78734375D01*
X143578125Y-87921875D02*
X143578125Y-92515625D01*
X72375000Y-99406250D02*
X70078125Y-99406250D01*
X164250000Y-92515625D02*
X166546875Y-92515625D01*
X136687500Y-110890625D02*
X138984375Y-110890625D01*
X44812500Y-156828125D02*
X47109375Y-156828125D01*
X150468750Y-69546875D02*
X150468750Y-71843750D01*
X129796875Y-104000000D02*
X125203125Y-104000000D01*
X148171875Y-131562500D02*
X148171875Y-129265625D01*
X109125000Y-131562500D02*
X109125000Y-129265625D01*
X104531250Y-138453125D02*
X104531250Y-133859375D01*
X54000000Y-44281250D02*
X54000000Y-41984375D01*
X97640625Y-172906250D02*
X97640625Y-170609375D01*
X122906250Y-154531250D02*
X122906250Y-149937500D01*
X70078125Y-97109375D02*
X72375000Y-97109375D01*
X143578125Y-124671875D02*
X143578125Y-129265625D01*
X116015625Y-69546875D02*
X116015625Y-74140625D01*
X136687500Y-168312500D02*
X136687500Y-166015625D01*
X42515625Y-55765625D02*
X44812500Y-55765625D01*
X86156250Y-39687500D02*
X86156250Y-35093750D01*
X132093750Y-124671875D02*
X132093750Y-126968750D01*
X49406250Y-133859375D02*
X49406250Y-136156250D01*
X99937500Y-44281250D02*
X97640625Y-44281250D01*
X164250000Y-99406250D02*
X164250000Y-97109375D01*
X152765625Y-117781250D02*
X152765625Y-122375000D01*
X79265625Y-122375000D02*
X79265625Y-120078125D01*
X155062500Y-154531250D02*
X152765625Y-154531250D01*
X136687500Y-120078125D02*
X136687500Y-122375000D01*
X60890625Y-46578125D02*
X60890625Y-48875000D01*
X74671875Y-163718750D02*
X76968750Y-163718750D01*
X148171875Y-90218750D02*
X145875000Y-90218750D01*
X47109375Y-145343750D02*
X49406250Y-145343750D01*
X155062500Y-163718750D02*
X155062500Y-161421875D01*
X95343750Y-74140625D02*
X93046875Y-74140625D01*
X95343750Y-99406250D02*
X93046875Y-99406250D01*
X67781250Y-106296875D02*
X65484375Y-106296875D01*
X49406250Y-147640625D02*
X47109375Y-147640625D01*
X122906250Y-83328125D02*
X120609375Y-83328125D01*
X70078125Y-163718750D02*
X70078125Y-161421875D01*
X113718750Y-94812500D02*
X113718750Y-90218750D01*
X152765625Y-51171875D02*
X152765625Y-55765625D01*
X67781250Y-32796875D02*
X67781250Y-35093750D01*
X127500000Y-101703125D02*
X127500000Y-99406250D01*
X102234375Y-41984375D02*
X104531250Y-41984375D01*
X72375000Y-131562500D02*
X72375000Y-129265625D01*
X109125000Y-58062500D02*
X109125000Y-55765625D01*
X81562500Y-62656250D02*
X81562500Y-60359375D01*
X88453125Y-129265625D02*
X90750000Y-129265625D01*
X81562500Y-168312500D02*
X81562500Y-166015625D01*
X159656250Y-177500000D02*
X159656250Y-175203125D01*
X44812500Y-71843750D02*
X44812500Y-69546875D01*
X90750000Y-48875000D02*
X90750000Y-46578125D01*
X74671875Y-64953125D02*
X74671875Y-67250000D01*
X65484375Y-90218750D02*
X67781250Y-90218750D01*
X37921875Y-97109375D02*
X44812500Y-97109375D01*
X81562500Y-101703125D02*
X83859375Y-101703125D01*
X145875000Y-131562500D02*
X143578125Y-131562500D01*
X178031250Y-53468750D02*
X175734375Y-53468750D01*
X99937500Y-117781250D02*
X97640625Y-117781250D01*
X81562500Y-51171875D02*
X81562500Y-53468750D01*
X120609375Y-124671875D02*
X120609375Y-126968750D01*
X173437500Y-159125000D02*
X173437500Y-156828125D01*
X93046875Y-161421875D02*
X93046875Y-163718750D01*
X175734375Y-166015625D02*
X178031250Y-166015625D01*
X90750000Y-44281250D02*
X88453125Y-44281250D01*
X134390625Y-55765625D02*
X136687500Y-55765625D01*
X157359375Y-64953125D02*
X157359375Y-67250000D01*
X102234375Y-85625000D02*
X102234375Y-83328125D01*
X106828125Y-108593750D02*
X106828125Y-113187500D01*
X148171875Y-46578125D02*
X148171875Y-48875000D01*
X116015625Y-44281250D02*
X118312500Y-44281250D01*
X134390625Y-51171875D02*
X138984375Y-51171875D01*
X122906250Y-129265625D02*
X120609375Y-129265625D01*
X120609375Y-110890625D02*
X122906250Y-110890625D01*
X138984375Y-83328125D02*
X138984375Y-85625000D01*
X90750000Y-99406250D02*
X88453125Y-99406250D01*
X67781250Y-117781250D02*
X67781250Y-113187500D01*
X90750000Y-58062500D02*
X88453125Y-58062500D01*
X83859375Y-156828125D02*
X86156250Y-156828125D01*
X120609375Y-69546875D02*
X120609375Y-71843750D01*
X178031250Y-51171875D02*
X178031250Y-53468750D01*
X157359375Y-131562500D02*
X157359375Y-129265625D01*
X35625000Y-115484375D02*
X40218750Y-115484375D01*
X51703125Y-126968750D02*
X51703125Y-124671875D01*
X143578125Y-85625000D02*
X145875000Y-85625000D01*
X44812500Y-55765625D02*
X44812500Y-58062500D01*
X168843750Y-170609375D02*
X166546875Y-170609375D01*
X173437500Y-41984375D02*
X178031250Y-41984375D01*
X168843750Y-76437500D02*
X168843750Y-71843750D01*
X111421875Y-76437500D02*
X111421875Y-74140625D01*
X56296875Y-147640625D02*
X56296875Y-149937500D01*
X109125000Y-62656250D02*
X106828125Y-62656250D01*
X136687500Y-129265625D02*
X136687500Y-126968750D01*
X161953125Y-53468750D02*
X161953125Y-58062500D01*
X40218750Y-71843750D02*
X37921875Y-71843750D01*
X150468750Y-108593750D02*
X148171875Y-108593750D01*
X54000000Y-143046875D02*
X54000000Y-145343750D01*
X145875000Y-90218750D02*
X145875000Y-87921875D01*
X164250000Y-55765625D02*
X166546875Y-55765625D01*
X171140625Y-143046875D02*
X171140625Y-145343750D01*
X49406250Y-159125000D02*
X49406250Y-154531250D01*
X152765625Y-97109375D02*
X157359375Y-97109375D01*
X122906250Y-37390625D02*
X122906250Y-39687500D01*
X67781250Y-163718750D02*
X65484375Y-163718750D01*
X70078125Y-131562500D02*
X72375000Y-131562500D01*
X166546875Y-120078125D02*
X168843750Y-120078125D01*
X116015625Y-175203125D02*
X116015625Y-177500000D01*
X104531250Y-168312500D02*
X102234375Y-168312500D01*
X132093750Y-90218750D02*
X132093750Y-87921875D01*
X102234375Y-147640625D02*
X102234375Y-149937500D01*
X134390625Y-126968750D02*
X134390625Y-124671875D01*
X63187500Y-108593750D02*
X63187500Y-106296875D01*
X58593750Y-152234375D02*
X56296875Y-152234375D01*
X138984375Y-51171875D02*
X138984375Y-53468750D01*
X157359375Y-166015625D02*
X159656250Y-166015625D01*
X152765625Y-104000000D02*
X152765625Y-101703125D01*
X33328125Y-140750000D02*
X33328125Y-145343750D01*
X111421875Y-117781250D02*
X109125000Y-117781250D01*
X159656250Y-32796875D02*
X164250000Y-32796875D01*
X166546875Y-71843750D02*
X166546875Y-69546875D01*
X155062500Y-108593750D02*
X152765625Y-108593750D01*
X54000000Y-166015625D02*
X56296875Y-166015625D01*
X155062500Y-161421875D02*
X152765625Y-161421875D01*
X104531250Y-55765625D02*
X104531250Y-51171875D01*
X136687500Y-62656250D02*
X134390625Y-62656250D01*
X33328125Y-113187500D02*
X33328125Y-117781250D01*
X102234375Y-136156250D02*
X99937500Y-136156250D01*
X159656250Y-44281250D02*
X157359375Y-44281250D01*
X161953125Y-163718750D02*
X161953125Y-168312500D01*
X120609375Y-143046875D02*
X120609375Y-145343750D01*
X81562500Y-124671875D02*
X86156250Y-124671875D01*
X63187500Y-177500000D02*
X63187500Y-175203125D01*
X72375000Y-83328125D02*
X72375000Y-85625000D01*
X88453125Y-78734375D02*
X93046875Y-78734375D01*
X88453125Y-41984375D02*
X90750000Y-41984375D01*
X95343750Y-69546875D02*
X99937500Y-69546875D01*
X37921875Y-74140625D02*
X37921875Y-76437500D01*
X164250000Y-78734375D02*
X161953125Y-78734375D01*
X145875000Y-51171875D02*
X143578125Y-51171875D01*
X70078125Y-156828125D02*
X72375000Y-156828125D01*
X166546875Y-53468750D02*
X166546875Y-51171875D01*
X83859375Y-90218750D02*
X86156250Y-90218750D01*
X111421875Y-170609375D02*
X111421875Y-172906250D01*
X56296875Y-99406250D02*
X56296875Y-97109375D01*
X173437500Y-140750000D02*
X173437500Y-138453125D01*
X125203125Y-161421875D02*
X129796875Y-161421875D01*
X74671875Y-145343750D02*
X76968750Y-145343750D01*
X56296875Y-143046875D02*
X60890625Y-143046875D01*
X141281250Y-120078125D02*
X141281250Y-115484375D01*
X116015625Y-35093750D02*
X118312500Y-35093750D01*
X90750000Y-64953125D02*
X88453125Y-64953125D01*
X138984375Y-149937500D02*
X138984375Y-147640625D01*
X171140625Y-53468750D02*
X173437500Y-53468750D01*
X51703125Y-136156250D02*
X51703125Y-133859375D01*
X113718750Y-131562500D02*
X109125000Y-131562500D01*
X125203125Y-159125000D02*
X122906250Y-159125000D01*
X47109375Y-168312500D02*
X47109375Y-166015625D01*
X88453125Y-32796875D02*
X88453125Y-35093750D01*
X129796875Y-32796875D02*
X129796875Y-35093750D01*
X86156250Y-83328125D02*
X86156250Y-85625000D01*
X81562500Y-81031250D02*
X81562500Y-78734375D01*
X159656250Y-85625000D02*
X159656250Y-81031250D01*
X93046875Y-97109375D02*
X99937500Y-97109375D01*
X175734375Y-37390625D02*
X178031250Y-37390625D01*
X74671875Y-131562500D02*
X76968750Y-131562500D01*
X173437500Y-64953125D02*
X171140625Y-64953125D01*
X166546875Y-94812500D02*
X168843750Y-94812500D01*
X129796875Y-166015625D02*
X129796875Y-168312500D01*
X125203125Y-101703125D02*
X127500000Y-101703125D01*
X175734375Y-156828125D02*
X178031250Y-156828125D01*
X104531250Y-83328125D02*
X104531250Y-78734375D01*
X88453125Y-76437500D02*
X88453125Y-74140625D01*
X109125000Y-87921875D02*
X109125000Y-90218750D01*
X136687500Y-81031250D02*
X134390625Y-81031250D01*
X116015625Y-152234375D02*
X120609375Y-152234375D01*
X168843750Y-39687500D02*
X168843750Y-35093750D01*
X150468750Y-97109375D02*
X150468750Y-99406250D01*
X58593750Y-117781250D02*
X56296875Y-117781250D01*
X76968750Y-92515625D02*
X76968750Y-94812500D01*
X81562500Y-71843750D02*
X81562500Y-69546875D01*
X90750000Y-104000000D02*
X90750000Y-101703125D01*
X63187500Y-99406250D02*
X60890625Y-99406250D01*
X166546875Y-156828125D02*
X168843750Y-156828125D01*
X132093750Y-92515625D02*
X129796875Y-92515625D01*
X120609375Y-76437500D02*
X120609375Y-74140625D01*
X86156250Y-152234375D02*
X83859375Y-152234375D01*
X102234375Y-76437500D02*
X104531250Y-76437500D01*
X47109375Y-177500000D02*
X42515625Y-177500000D01*
X150468750Y-71843750D02*
X148171875Y-71843750D01*
X113718750Y-168312500D02*
X113718750Y-163718750D01*
X168843750Y-156828125D02*
X168843750Y-152234375D01*
X141281250Y-175203125D02*
X141281250Y-170609375D01*
X152765625Y-64953125D02*
X155062500Y-64953125D01*
X35625000Y-154531250D02*
X33328125Y-154531250D01*
X67781250Y-120078125D02*
X65484375Y-120078125D01*
X88453125Y-140750000D02*
X88453125Y-138453125D01*
X72375000Y-97109375D02*
X72375000Y-99406250D01*
X65484375Y-124671875D02*
X67781250Y-124671875D01*
X33328125Y-64953125D02*
X33328125Y-69546875D01*
X93046875Y-53468750D02*
X90750000Y-53468750D01*
X104531250Y-92515625D02*
X102234375Y-92515625D01*
X104531250Y-64953125D02*
X102234375Y-64953125D01*
X83859375Y-170609375D02*
X83859375Y-172906250D01*
X35625000Y-131562500D02*
X35625000Y-129265625D01*
X127500000Y-138453125D02*
X129796875Y-138453125D01*
X99937500Y-55765625D02*
X99937500Y-58062500D01*
X166546875Y-117781250D02*
X164250000Y-117781250D01*
X150468750Y-55765625D02*
X150468750Y-51171875D01*
X127500000Y-163718750D02*
X125203125Y-163718750D01*
X111421875Y-32796875D02*
X116015625Y-32796875D01*
X35625000Y-156828125D02*
X37921875Y-156828125D01*
X120609375Y-108593750D02*
X120609375Y-110890625D01*
X65484375Y-99406250D02*
X65484375Y-97109375D01*
X88453125Y-58062500D02*
X88453125Y-62656250D01*
X58593750Y-35093750D02*
X56296875Y-35093750D01*
X164250000Y-145343750D02*
X161953125Y-145343750D01*
X171140625Y-117781250D02*
X173437500Y-117781250D01*
X161953125Y-87921875D02*
X164250000Y-87921875D01*
X49406250Y-175203125D02*
X47109375Y-175203125D01*
X118312500Y-62656250D02*
X116015625Y-62656250D01*
X51703125Y-104000000D02*
X54000000Y-104000000D01*
X56296875Y-67250000D02*
X56296875Y-64953125D01*
X35625000Y-163718750D02*
X35625000Y-161421875D01*
X35625000Y-85625000D02*
X33328125Y-85625000D01*
X178031250Y-76437500D02*
X173437500Y-76437500D01*
X72375000Y-76437500D02*
X72375000Y-74140625D01*
X83859375Y-41984375D02*
X83859375Y-44281250D01*
X74671875Y-60359375D02*
X74671875Y-62656250D01*
X145875000Y-175203125D02*
X143578125Y-175203125D01*
X109125000Y-177500000D02*
X104531250Y-177500000D01*
X164250000Y-129265625D02*
X166546875Y-129265625D01*
X116015625Y-32796875D02*
X116015625Y-35093750D01*
X99937500Y-83328125D02*
X99937500Y-85625000D01*
X148171875Y-154531250D02*
X148171875Y-152234375D01*
X79265625Y-115484375D02*
X83859375Y-115484375D01*
X173437500Y-152234375D02*
X178031250Y-152234375D01*
X90750000Y-166015625D02*
X90750000Y-168312500D01*
X56296875Y-124671875D02*
X56296875Y-126968750D01*
X106828125Y-149937500D02*
X106828125Y-154531250D01*
X95343750Y-106296875D02*
X93046875Y-106296875D01*
X37921875Y-166015625D02*
X40218750Y-166015625D01*
X49406250Y-122375000D02*
X49406250Y-120078125D01*
X63187500Y-39687500D02*
X63187500Y-37390625D01*
X51703125Y-122375000D02*
X49406250Y-122375000D01*
X164250000Y-87921875D02*
X164250000Y-90218750D01*
X116015625Y-62656250D02*
X116015625Y-67250000D01*
X145875000Y-58062500D02*
X143578125Y-58062500D01*
X127500000Y-120078125D02*
X127500000Y-117781250D01*
X93046875Y-110890625D02*
X95343750Y-110890625D01*
X42515625Y-62656250D02*
X42515625Y-60359375D01*
X58593750Y-124671875D02*
X63187500Y-124671875D01*
X141281250Y-136156250D02*
X138984375Y-136156250D01*
X76968750Y-46578125D02*
X74671875Y-46578125D01*
X166546875Y-99406250D02*
X164250000Y-99406250D01*
X161953125Y-124671875D02*
X164250000Y-124671875D01*
X60890625Y-159125000D02*
X56296875Y-159125000D01*
X120609375Y-175203125D02*
X122906250Y-175203125D01*
X51703125Y-76437500D02*
X51703125Y-74140625D01*
X111421875Y-156828125D02*
X113718750Y-156828125D01*
X129796875Y-113187500D02*
X125203125Y-113187500D01*
X72375000Y-62656250D02*
X70078125Y-62656250D01*
X127500000Y-51171875D02*
X132093750Y-51171875D01*
X155062500Y-126968750D02*
X155062500Y-124671875D01*
X145875000Y-104000000D02*
X145875000Y-101703125D01*
X74671875Y-35093750D02*
X76968750Y-35093750D01*
X76968750Y-55765625D02*
X74671875Y-55765625D01*
X65484375Y-44281250D02*
X65484375Y-46578125D01*
X178031250Y-87921875D02*
X178031250Y-90218750D01*
X125203125Y-41984375D02*
X129796875Y-41984375D01*
X136687500Y-53468750D02*
X134390625Y-53468750D01*
X168843750Y-133859375D02*
X166546875Y-133859375D01*
X83859375Y-172906250D02*
X81562500Y-172906250D01*
X79265625Y-140750000D02*
X74671875Y-140750000D01*
X109125000Y-161421875D02*
X109125000Y-163718750D01*
X42500000Y-44281250D02*
X41000000Y-44281250D01*
X90750000Y-94812500D02*
X90750000Y-92515625D01*
X44812500Y-136156250D02*
X44812500Y-133859375D01*
X122906250Y-140750000D02*
X122906250Y-136156250D01*
X99937500Y-138453125D02*
X99937500Y-140750000D01*
X159656250Y-140750000D02*
X159656250Y-138453125D01*
X86156250Y-92515625D02*
X83859375Y-92515625D01*
X60890625Y-83328125D02*
X63187500Y-83328125D01*
X161953125Y-94812500D02*
X164250000Y-94812500D01*
X63187500Y-149937500D02*
X63187500Y-147640625D01*
X99937500Y-124671875D02*
X99937500Y-126968750D01*
X173437500Y-97109375D02*
X178031250Y-97109375D01*
X118312500Y-172906250D02*
X118312500Y-170609375D01*
X113718750Y-129265625D02*
X113718750Y-131562500D01*
X129796875Y-147640625D02*
X132093750Y-147640625D01*
X44812500Y-110890625D02*
X44812500Y-113187500D01*
X102234375Y-117781250D02*
X104531250Y-117781250D01*
X74671875Y-156828125D02*
X74671875Y-159125000D01*
X127500000Y-67250000D02*
X127500000Y-64953125D01*
X168843750Y-138453125D02*
X168843750Y-133859375D01*
X152765625Y-71843750D02*
X152765625Y-69546875D01*
X99937500Y-133859375D02*
X97640625Y-133859375D01*
X97640625Y-147640625D02*
X99937500Y-147640625D01*
X152765625Y-81031250D02*
X152765625Y-85625000D01*
X56296875Y-140750000D02*
X51703125Y-140750000D01*
X136687500Y-106296875D02*
X136687500Y-108593750D01*
X136687500Y-175203125D02*
X136687500Y-177500000D01*
X51703125Y-170609375D02*
X51703125Y-175203125D01*
X155062500Y-136156250D02*
X152765625Y-136156250D01*
X76968750Y-131562500D02*
X76968750Y-126968750D01*
X41000000Y-44281250D02*
X41000000Y-48875000D01*
X122906250Y-46578125D02*
X122906250Y-48875000D01*
X118312500Y-136156250D02*
X116015625Y-136156250D01*
X109125000Y-32796875D02*
X109125000Y-35093750D01*
X35625000Y-120078125D02*
X33328125Y-120078125D01*
X118312500Y-122375000D02*
X118312500Y-120078125D01*
X83859375Y-143046875D02*
X88453125Y-143046875D01*
X143578125Y-115484375D02*
X145875000Y-115484375D01*
X157359375Y-69546875D02*
X157359375Y-71843750D01*
X138500000Y-71843750D02*
X138500000Y-69546875D01*
X178031250Y-170609375D02*
X178031250Y-172906250D01*
X152765625Y-124671875D02*
X152765625Y-129265625D01*
X102234375Y-149937500D02*
X97640625Y-149937500D01*
X116015625Y-154531250D02*
X116015625Y-152234375D01*
X138984375Y-115484375D02*
X138984375Y-117781250D01*
X54000000Y-58062500D02*
X54000000Y-55765625D01*
X90750000Y-108593750D02*
X90750000Y-106296875D01*
X54000000Y-168312500D02*
X54000000Y-166015625D01*
X93046875Y-35093750D02*
X93046875Y-37390625D01*
X120609375Y-55765625D02*
X120609375Y-58062500D01*
X72375000Y-124671875D02*
X72375000Y-126968750D01*
X166546875Y-126968750D02*
X166546875Y-124671875D01*
X127500000Y-175203125D02*
X127500000Y-172906250D01*
X138984375Y-166015625D02*
X138984375Y-168312500D01*
X173437500Y-166015625D02*
X171140625Y-166015625D01*
X134390625Y-67250000D02*
X136687500Y-67250000D01*
X109125000Y-126968750D02*
X109125000Y-124671875D01*
X63187500Y-166015625D02*
X60890625Y-166015625D01*
X166546875Y-90218750D02*
X166546875Y-87921875D01*
X141281250Y-94812500D02*
X141281250Y-90218750D01*
X143578125Y-32796875D02*
X143578125Y-35093750D01*
X76968750Y-163718750D02*
X76968750Y-161421875D01*
X106828125Y-168312500D02*
X109125000Y-168312500D01*
X136687500Y-74140625D02*
X136687500Y-76437500D01*
X70078125Y-152234375D02*
X74671875Y-152234375D01*
X132093750Y-147640625D02*
X132093750Y-143046875D01*
X171140625Y-156828125D02*
X171140625Y-159125000D01*
X35625000Y-159125000D02*
X35625000Y-156828125D01*
X171140625Y-104000000D02*
X166546875Y-104000000D01*
X178031250Y-115484375D02*
X178031250Y-117781250D01*
X145875000Y-138500000D02*
X145875000Y-133859375D01*
X67781250Y-147640625D02*
X67781250Y-149937500D01*
X134390625Y-62656250D02*
X134390625Y-67250000D01*
X148171875Y-168312500D02*
X148171875Y-166015625D01*
X42515625Y-115484375D02*
X47109375Y-115484375D01*
X166546875Y-51171875D02*
X171140625Y-51171875D01*
X90750000Y-39687500D02*
X90750000Y-37390625D01*
X67781250Y-124671875D02*
X67781250Y-120078125D01*
X118312500Y-149937500D02*
X111421875Y-149937500D01*
X88453125Y-152234375D02*
X90750000Y-152234375D01*
X111421875Y-74140625D02*
X113718750Y-74140625D01*
X175734375Y-147640625D02*
X178031250Y-147640625D01*
X67000000Y-60359375D02*
X67000000Y-62500000D01*
X173437500Y-83328125D02*
X171140625Y-83328125D01*
X88453125Y-138453125D02*
X90750000Y-138453125D01*
X33328125Y-131562500D02*
X35625000Y-131562500D01*
X134390625Y-101703125D02*
X136687500Y-101703125D01*
X70078125Y-110890625D02*
X72375000Y-110890625D01*
X173437500Y-81031250D02*
X173437500Y-78734375D01*
X148171875Y-53468750D02*
X145875000Y-53468750D01*
X164250000Y-126968750D02*
X161953125Y-126968750D01*
X118312500Y-145343750D02*
X118312500Y-143046875D01*
X60890625Y-131562500D02*
X63187500Y-131562500D01*
X155062500Y-131562500D02*
X148171875Y-131562500D01*
X95343750Y-147640625D02*
X95343750Y-149937500D01*
X47109375Y-166015625D02*
X49406250Y-166015625D01*
X116015625Y-147640625D02*
X118312500Y-147640625D01*
X35625000Y-129265625D02*
X37921875Y-129265625D01*
X97640625Y-170609375D02*
X102234375Y-170609375D01*
X67781250Y-58062500D02*
X63187500Y-58062500D01*
X111421875Y-55765625D02*
X113718750Y-55765625D01*
X109125000Y-71843750D02*
X109125000Y-69546875D01*
X159656250Y-58062500D02*
X157359375Y-58062500D01*
X122906250Y-60359375D02*
X122906250Y-55765625D01*
X178031250Y-81031250D02*
X175734375Y-81031250D01*
X76968750Y-87921875D02*
X76968750Y-90218750D01*
X67781250Y-39687500D02*
X63187500Y-39687500D01*
X122906250Y-143046875D02*
X120609375Y-143046875D01*
X104531250Y-51171875D02*
X102234375Y-51171875D01*
X35625000Y-138453125D02*
X35625000Y-140750000D01*
X178031250Y-110890625D02*
X178031250Y-113187500D01*
X33328125Y-168312500D02*
X33328125Y-172906250D01*
X137500000Y-143046875D02*
X134390625Y-143046875D01*
X54000000Y-94812500D02*
X54000000Y-92515625D01*
X63187500Y-147640625D02*
X60890625Y-147640625D01*
X145875000Y-37390625D02*
X143578125Y-37390625D01*
X76968750Y-90218750D02*
X74671875Y-90218750D01*
X132093750Y-126968750D02*
X129796875Y-126968750D01*
X104531250Y-41984375D02*
X104531250Y-37390625D01*
X33328125Y-69546875D02*
X35625000Y-69546875D01*
X90750000Y-149937500D02*
X90750000Y-147640625D01*
X125203125Y-117781250D02*
X125203125Y-115484375D01*
X93046875Y-78734375D02*
X93046875Y-81031250D01*
X127500000Y-62656250D02*
X125203125Y-62656250D01*
X35625000Y-147640625D02*
X33328125Y-147640625D01*
X161953125Y-138453125D02*
X164250000Y-138453125D01*
X116015625Y-120078125D02*
X116015625Y-122375000D01*
X143578125Y-62656250D02*
X145875000Y-62656250D01*
X168843750Y-97109375D02*
X166546875Y-97109375D01*
X47109375Y-35093750D02*
X49406250Y-35093750D01*
X111421875Y-44281250D02*
X109125000Y-44281250D01*
X155062500Y-85625000D02*
X155062500Y-83328125D01*
X106828125Y-154531250D02*
X109125000Y-154531250D01*
X56296875Y-154531250D02*
X54000000Y-154531250D01*
X86156250Y-35093750D02*
X83859375Y-35093750D01*
X159656250Y-175203125D02*
X157359375Y-175203125D01*
X65000000Y-62500000D02*
X65000000Y-65000000D01*
X132093750Y-46578125D02*
X129796875Y-46578125D01*
X56296875Y-62656250D02*
X54000000Y-62656250D01*
X125203125Y-166015625D02*
X127500000Y-166015625D01*
X42515625Y-106296875D02*
X42515625Y-110890625D01*
X76968750Y-177500000D02*
X76968750Y-175203125D01*
X95343750Y-122375000D02*
X90750000Y-122375000D01*
X159656250Y-67250000D02*
X159656250Y-64953125D01*
X173437500Y-44281250D02*
X173437500Y-41984375D01*
X148171875Y-83328125D02*
X148171875Y-85625000D01*
X83859375Y-113187500D02*
X83859375Y-110890625D01*
X93046875Y-83328125D02*
X93046875Y-85625000D01*
X56296875Y-60359375D02*
X56296875Y-62656250D01*
X35625000Y-168312500D02*
X33328125Y-168312500D01*
X138984375Y-172906250D02*
X136687500Y-172906250D01*
X40218750Y-177500000D02*
X35625000Y-177500000D01*
X164250000Y-138453125D02*
X164250000Y-140750000D01*
X67781250Y-46578125D02*
X67781250Y-48875000D01*
X51703125Y-140750000D02*
X51703125Y-138453125D01*
X152765625Y-170609375D02*
X157359375Y-170609375D01*
X113718750Y-170609375D02*
X111421875Y-170609375D01*
X47109375Y-143046875D02*
X47109375Y-145343750D01*
X159656250Y-64953125D02*
X157359375Y-64953125D01*
X51703125Y-156828125D02*
X54000000Y-156828125D01*
X102234375Y-78734375D02*
X102234375Y-81031250D01*
X127500000Y-46578125D02*
X127500000Y-44281250D01*
X132093750Y-35093750D02*
X132093750Y-32796875D01*
X63187500Y-152234375D02*
X67781250Y-152234375D01*
X35625000Y-177500000D02*
X35625000Y-175203125D01*
X132093750Y-48875000D02*
X132093750Y-46578125D01*
X175734375Y-90218750D02*
X175734375Y-92515625D01*
X72375000Y-126968750D02*
X70078125Y-126968750D01*
X150468750Y-138453125D02*
X150468750Y-140750000D01*
X42515625Y-129265625D02*
X42515625Y-136156250D01*
X143578125Y-152234375D02*
X145875000Y-152234375D01*
X72375000Y-143046875D02*
X74671875Y-143046875D01*
X97640625Y-71843750D02*
X97640625Y-76437500D01*
X60890625Y-78734375D02*
X60890625Y-83328125D01*
X155062500Y-44281250D02*
X152765625Y-44281250D01*
X35625000Y-145343750D02*
X35625000Y-143046875D01*
X173437500Y-168312500D02*
X173437500Y-166015625D01*
X44812500Y-32796875D02*
X47109375Y-32796875D01*
X40218750Y-126968750D02*
X37921875Y-126968750D01*
X90750000Y-74140625D02*
X90750000Y-71843750D01*
X159656250Y-143046875D02*
X164250000Y-143046875D01*
X56296875Y-53468750D02*
X56296875Y-51171875D01*
X93046875Y-90218750D02*
X93046875Y-92515625D01*
X56296875Y-175203125D02*
X58593750Y-175203125D01*
X97640625Y-87921875D02*
X102234375Y-87921875D01*
X125203125Y-170609375D02*
X129796875Y-170609375D01*
X148171875Y-94812500D02*
X148171875Y-92515625D01*
X129796875Y-69546875D02*
X129796875Y-71843750D01*
X67781250Y-83328125D02*
X67781250Y-78734375D01*
X67781250Y-55765625D02*
X67781250Y-58062500D01*
X166546875Y-101703125D02*
X168843750Y-101703125D01*
X134390625Y-78734375D02*
X138984375Y-78734375D01*
X116015625Y-99406250D02*
X118312500Y-99406250D01*
X63187500Y-133859375D02*
X60890625Y-133859375D01*
X58593750Y-168312500D02*
X58593750Y-163718750D01*
X173437500Y-53468750D02*
X173437500Y-51171875D01*
X58593750Y-122375000D02*
X54000000Y-122375000D01*
X166546875Y-62656250D02*
X164250000Y-62656250D01*
X155062500Y-172906250D02*
X152765625Y-172906250D01*
X173437500Y-147640625D02*
X171140625Y-147640625D01*
X148171875Y-78734375D02*
X155062500Y-78734375D01*
X83859375Y-166015625D02*
X83859375Y-168312500D01*
X138984375Y-41984375D02*
X138984375Y-44281250D01*
X54000000Y-108593750D02*
X54000000Y-106296875D01*
X171140625Y-37390625D02*
X171140625Y-44281250D01*
X54000000Y-55765625D02*
X56296875Y-55765625D01*
X164250000Y-60359375D02*
X161953125Y-60359375D01*
X116015625Y-163718750D02*
X118312500Y-163718750D01*
X173437500Y-101703125D02*
X171140625Y-101703125D01*
X99937500Y-168312500D02*
X93046875Y-168312500D01*
X63187500Y-101703125D02*
X65484375Y-101703125D01*
X145875000Y-143046875D02*
X150468750Y-143046875D01*
X47109375Y-62656250D02*
X49406250Y-62656250D01*
X42515625Y-117781250D02*
X42515625Y-115484375D01*
X95343750Y-48875000D02*
X95343750Y-44281250D01*
X118312500Y-97109375D02*
X122906250Y-97109375D01*
X161953125Y-120078125D02*
X164250000Y-120078125D01*
X171140625Y-51171875D02*
X171140625Y-53468750D01*
X81562500Y-35093750D02*
X79265625Y-35093750D01*
X173437500Y-67250000D02*
X173437500Y-64953125D01*
X145875000Y-62656250D02*
X145875000Y-60359375D01*
X150468750Y-92515625D02*
X150468750Y-87921875D01*
X159656250Y-136156250D02*
X159656250Y-131562500D01*
X63187500Y-168312500D02*
X63187500Y-166015625D01*
X116015625Y-48875000D02*
X111421875Y-48875000D01*
X127500000Y-60359375D02*
X127500000Y-62656250D01*
X72375000Y-85625000D02*
X70078125Y-85625000D01*
X148171875Y-117781250D02*
X148171875Y-115484375D01*
X95343750Y-143046875D02*
X95343750Y-145343750D01*
X178031250Y-108593750D02*
X175734375Y-108593750D01*
X120609375Y-120078125D02*
X122906250Y-120078125D01*
X155062500Y-152234375D02*
X155062500Y-154531250D01*
X47109375Y-159125000D02*
X49406250Y-159125000D01*
X127500000Y-140750000D02*
X127500000Y-138453125D01*
X157359375Y-32796875D02*
X157359375Y-35093750D01*
X67781250Y-97109375D02*
X67781250Y-92515625D01*
X86156250Y-97109375D02*
X86156250Y-92515625D01*
X51703125Y-74140625D02*
X54000000Y-74140625D01*
X143578125Y-146500000D02*
X143578125Y-152234375D01*
X49406250Y-152234375D02*
X49406250Y-147640625D01*
X58593750Y-115484375D02*
X58593750Y-117781250D01*
X118312500Y-101703125D02*
X116015625Y-101703125D01*
X49406250Y-177500000D02*
X49406250Y-175203125D01*
X63187500Y-113187500D02*
X56296875Y-113187500D01*
X65484375Y-81031250D02*
X63187500Y-81031250D01*
X86156250Y-53468750D02*
X83859375Y-53468750D01*
X47109375Y-113187500D02*
X47109375Y-110890625D01*
X63187500Y-92515625D02*
X63187500Y-90218750D01*
X99937500Y-126968750D02*
X97640625Y-126968750D01*
X122906250Y-136156250D02*
X120609375Y-136156250D01*
X178031250Y-64953125D02*
X178031250Y-67250000D01*
X173437500Y-108593750D02*
X173437500Y-106296875D01*
X37921875Y-175203125D02*
X40218750Y-175203125D01*
X164250000Y-83328125D02*
X164250000Y-85625000D01*
X120609375Y-35093750D02*
X120609375Y-37390625D01*
X125203125Y-129265625D02*
X125203125Y-133859375D01*
X58593750Y-74140625D02*
X56296875Y-74140625D01*
X173437500Y-37390625D02*
X171140625Y-37390625D01*
X72375000Y-122375000D02*
X72375000Y-120078125D01*
X86156250Y-126968750D02*
X83859375Y-126968750D01*
X155062500Y-46578125D02*
X157359375Y-46578125D01*
X148171875Y-136156250D02*
X148171875Y-138453125D01*
X70078125Y-138453125D02*
X67781250Y-138453125D01*
X152765625Y-48875000D02*
X155062500Y-48875000D01*
X143578125Y-58062500D02*
X143578125Y-62656250D01*
X178031250Y-85625000D02*
X173437500Y-85625000D01*
X141281250Y-115484375D02*
X138984375Y-115484375D01*
X56296875Y-163718750D02*
X56296875Y-161421875D01*
X95343750Y-32796875D02*
X95343750Y-35093750D01*
X37921875Y-133859375D02*
X37921875Y-136156250D01*
X97640625Y-44281250D02*
X97640625Y-48875000D01*
X74671875Y-46578125D02*
X74671875Y-48875000D01*
X56296875Y-48875000D02*
X56296875Y-46578125D01*
X83859375Y-37390625D02*
X83859375Y-39687500D01*
X155062500Y-120078125D02*
X157359375Y-120078125D01*
X70078125Y-76437500D02*
X72375000Y-76437500D01*
X79265625Y-83328125D02*
X79265625Y-85625000D01*
X168843750Y-149937500D02*
X168843750Y-145343750D01*
X72500000Y-71843750D02*
X72500000Y-69546875D01*
X51703125Y-120078125D02*
X51703125Y-122375000D01*
X145875000Y-170609375D02*
X150468750Y-170609375D01*
X171140625Y-163718750D02*
X173437500Y-163718750D01*
X33328125Y-92515625D02*
X33328125Y-97109375D01*
X65484375Y-94812500D02*
X60890625Y-94812500D01*
X63187500Y-58062500D02*
X63187500Y-55765625D01*
X152765625Y-108593750D02*
X152765625Y-106296875D01*
X152765625Y-74140625D02*
X155062500Y-74140625D01*
X81562500Y-152234375D02*
X79265625Y-152234375D01*
X102234375Y-51171875D02*
X102234375Y-53468750D01*
X95343750Y-85625000D02*
X95343750Y-83328125D01*
X109125000Y-122375000D02*
X106828125Y-122375000D01*
X109125000Y-53468750D02*
X109125000Y-51171875D01*
X102234375Y-67250000D02*
X97640625Y-67250000D01*
X47109375Y-51171875D02*
X47109375Y-53468750D01*
X127500000Y-99406250D02*
X125203125Y-99406250D01*
X129796875Y-99406250D02*
X132093750Y-99406250D01*
X90750000Y-32796875D02*
X95343750Y-32796875D01*
X127500000Y-90218750D02*
X125203125Y-90218750D01*
X35625000Y-81031250D02*
X35625000Y-78734375D01*
X54000000Y-97109375D02*
X54000000Y-99406250D01*
X171140625Y-110890625D02*
X171140625Y-117781250D01*
X93046875Y-92515625D02*
X95343750Y-92515625D01*
X37921875Y-124671875D02*
X42515625Y-124671875D01*
X40218750Y-55765625D02*
X40218750Y-51171875D01*
X138984375Y-117781250D02*
X136687500Y-117781250D01*
X56296875Y-74140625D02*
X56296875Y-76437500D01*
X134390625Y-94812500D02*
X136687500Y-94812500D01*
X72375000Y-101703125D02*
X74671875Y-101703125D01*
X76968750Y-172906250D02*
X76968750Y-166015625D01*
X152765625Y-145343750D02*
X152765625Y-143046875D01*
X56296875Y-170609375D02*
X56296875Y-172906250D01*
X109125000Y-55765625D02*
X106828125Y-55765625D01*
X35625000Y-97109375D02*
X35625000Y-99406250D01*
X40218750Y-143046875D02*
X40218750Y-145343750D01*
X44812500Y-120078125D02*
X44812500Y-117781250D01*
X76968750Y-32796875D02*
X81562500Y-32796875D01*
X37921875Y-76437500D02*
X40218750Y-76437500D01*
X60890625Y-110890625D02*
X63187500Y-110890625D01*
X138984375Y-90218750D02*
X138984375Y-87921875D01*
X171140625Y-166015625D02*
X171140625Y-172906250D01*
X51703125Y-87921875D02*
X51703125Y-90218750D01*
X60890625Y-71843750D02*
X60890625Y-76437500D01*
X145875000Y-120078125D02*
X148171875Y-120078125D01*
X44812500Y-129265625D02*
X42515625Y-129265625D01*
X150468750Y-48875000D02*
X150468750Y-44281250D01*
X65484375Y-110890625D02*
X67781250Y-110890625D01*
X118312500Y-170609375D02*
X122906250Y-170609375D01*
X88453125Y-175203125D02*
X88453125Y-177500000D01*
X141281250Y-41984375D02*
X138984375Y-41984375D01*
X127500000Y-78734375D02*
X132093750Y-78734375D01*
X148171875Y-152234375D02*
X155062500Y-152234375D01*
X95343750Y-129265625D02*
X93046875Y-129265625D01*
X83859375Y-74140625D02*
X86156250Y-74140625D01*
X72375000Y-106296875D02*
X70078125Y-106296875D01*
X95343750Y-117781250D02*
X93046875Y-117781250D01*
X173437500Y-136156250D02*
X173437500Y-133859375D01*
X132093750Y-172906250D02*
X132093750Y-166015625D01*
X161953125Y-71843750D02*
X161953125Y-76437500D01*
X145875000Y-163718750D02*
X145875000Y-161421875D01*
X74671875Y-129265625D02*
X74671875Y-131562500D01*
X47109375Y-122375000D02*
X42515625Y-122375000D01*
X74671875Y-138453125D02*
X76968750Y-138453125D01*
X148171875Y-62656250D02*
X148171875Y-64953125D01*
X74671875Y-99406250D02*
X74671875Y-97109375D01*
X58593750Y-94812500D02*
X54000000Y-94812500D01*
X88453125Y-85625000D02*
X88453125Y-83328125D01*
X111421875Y-69546875D02*
X111421875Y-71843750D01*
X138984375Y-129265625D02*
X138984375Y-131562500D01*
X102234375Y-39687500D02*
X97640625Y-39687500D01*
X60890625Y-154531250D02*
X63187500Y-154531250D01*
X152765625Y-35093750D02*
X152765625Y-32796875D01*
X56296875Y-39687500D02*
X58593750Y-39687500D01*
X132093750Y-140750000D02*
X132093750Y-136156250D01*
X118312500Y-129265625D02*
X118312500Y-126968750D01*
X143578125Y-51171875D02*
X143578125Y-55765625D01*
X175734375Y-71843750D02*
X175734375Y-74140625D01*
X125203125Y-55765625D02*
X125203125Y-60359375D01*
X83859375Y-177500000D02*
X83859375Y-175203125D01*
X171140625Y-32796875D02*
X171140625Y-35093750D01*
X37921875Y-168312500D02*
X37921875Y-166015625D01*
X56296875Y-108593750D02*
X54000000Y-108593750D01*
X47109375Y-117781250D02*
X49406250Y-117781250D01*
X109125000Y-92515625D02*
X111421875Y-92515625D01*
X60890625Y-143046875D02*
X60890625Y-145343750D01*
X152765625Y-140750000D02*
X152765625Y-138453125D01*
X33328125Y-152234375D02*
X35625000Y-152234375D01*
X120609375Y-60359375D02*
X122906250Y-60359375D01*
X90750000Y-92515625D02*
X88453125Y-92515625D01*
X168843750Y-115484375D02*
X166546875Y-115484375D01*
X178031250Y-152234375D02*
X178031250Y-154531250D01*
X164250000Y-71843750D02*
X161953125Y-71843750D01*
X44812500Y-101703125D02*
X47109375Y-101703125D01*
X120609375Y-101703125D02*
X122906250Y-101703125D01*
X99937500Y-62656250D02*
X97640625Y-62656250D01*
X157359375Y-76437500D02*
X152765625Y-76437500D01*
X152765625Y-44281250D02*
X152765625Y-48875000D01*
X164250000Y-46578125D02*
X164250000Y-48875000D01*
X49406250Y-140750000D02*
X44812500Y-140750000D01*
X83859375Y-138453125D02*
X86156250Y-138453125D01*
X72375000Y-147640625D02*
X72375000Y-143046875D01*
X164250000Y-149937500D02*
X164250000Y-147640625D01*
X86156250Y-106296875D02*
X83859375Y-106296875D01*
X152765625Y-113187500D02*
X152765625Y-110890625D01*
X74671875Y-110890625D02*
X76968750Y-110890625D01*
X111421875Y-108593750D02*
X111421875Y-106296875D01*
X150468750Y-67250000D02*
X147000000Y-67250000D01*
X136687500Y-48875000D02*
X132093750Y-48875000D01*
X63187500Y-136156250D02*
X63187500Y-133859375D01*
X136687500Y-92515625D02*
X138984375Y-92515625D01*
X90750000Y-60359375D02*
X95343750Y-60359375D01*
X173437500Y-115484375D02*
X178031250Y-115484375D01*
X102234375Y-166015625D02*
X104531250Y-166015625D01*
X47109375Y-53468750D02*
X44812500Y-53468750D01*
X35625000Y-117781250D02*
X35625000Y-115484375D01*
X74671875Y-170609375D02*
X74671875Y-172906250D01*
X81562500Y-117781250D02*
X79265625Y-117781250D01*
X44812500Y-64953125D02*
X44812500Y-62656250D01*
X173437500Y-94812500D02*
X173437500Y-92515625D01*
X104531250Y-126968750D02*
X102234375Y-126968750D01*
X143578125Y-78734375D02*
X145875000Y-78734375D01*
X138984375Y-74140625D02*
X141281250Y-74140625D01*
X74671875Y-62656250D02*
X76968750Y-62656250D01*
X159656250Y-129265625D02*
X159656250Y-124671875D01*
X60890625Y-147640625D02*
X60890625Y-154531250D01*
X37921875Y-51171875D02*
X37921875Y-53468750D01*
X54000000Y-177500000D02*
X49406250Y-177500000D01*
X33328125Y-166015625D02*
X35625000Y-166015625D01*
X132093750Y-44281250D02*
X132093750Y-37390625D01*
X49406250Y-37390625D02*
X47109375Y-37390625D01*
X81562500Y-131562500D02*
X81562500Y-129265625D01*
X33328125Y-172906250D02*
X35625000Y-172906250D01*
X93046875Y-48875000D02*
X95343750Y-48875000D01*
X166546875Y-177500000D02*
X166546875Y-175203125D01*
X166546875Y-122375000D02*
X166546875Y-120078125D01*
X129796875Y-37390625D02*
X129796875Y-39687500D01*
X173437500Y-76437500D02*
X173437500Y-74140625D01*
X45000000Y-44281250D02*
X45000000Y-41984375D01*
X83859375Y-152234375D02*
X83859375Y-154531250D01*
X143578125Y-161421875D02*
X143578125Y-166015625D01*
X113718750Y-97109375D02*
X111421875Y-97109375D01*
X148171875Y-99406250D02*
X148171875Y-101703125D01*
X106828125Y-122375000D02*
X106828125Y-126968750D01*
X42515625Y-122375000D02*
X42515625Y-120078125D01*
X88453125Y-161421875D02*
X88453125Y-166015625D01*
X109125000Y-76437500D02*
X106828125Y-76437500D01*
X166546875Y-97109375D02*
X166546875Y-99406250D01*
X37921875Y-92515625D02*
X40218750Y-92515625D01*
X88453125Y-67250000D02*
X83859375Y-67250000D01*
X42515625Y-110890625D02*
X44812500Y-110890625D01*
X56296875Y-156828125D02*
X58593750Y-156828125D01*
X171140625Y-55765625D02*
X171140625Y-62656250D01*
X70078125Y-106296875D02*
X70078125Y-110890625D01*
X42515625Y-124671875D02*
X42515625Y-126968750D01*
X178031250Y-58062500D02*
X173437500Y-58062500D01*
X116015625Y-126968750D02*
X116015625Y-124671875D01*
X97640625Y-51171875D02*
X97640625Y-55765625D01*
X83859375Y-163718750D02*
X83859375Y-161421875D01*
X76968750Y-166015625D02*
X74671875Y-166015625D01*
X109125000Y-140750000D02*
X109125000Y-138453125D01*
X120609375Y-163718750D02*
X120609375Y-166015625D01*
X81562500Y-64953125D02*
X81562500Y-67250000D01*
X122906250Y-101703125D02*
X122906250Y-104000000D01*
X56296875Y-32796875D02*
X60890625Y-32796875D01*
X49406250Y-97109375D02*
X49406250Y-92515625D01*
X166546875Y-143046875D02*
X171140625Y-143046875D01*
X35625000Y-90218750D02*
X35625000Y-87921875D01*
X33328125Y-55765625D02*
X35625000Y-55765625D01*
X97640625Y-175203125D02*
X99937500Y-175203125D01*
X173437500Y-172906250D02*
X173437500Y-170609375D01*
X70078125Y-177500000D02*
X70078125Y-175203125D01*
X33328125Y-104000000D02*
X35625000Y-104000000D01*
X173437500Y-99406250D02*
X173437500Y-97109375D01*
X122906250Y-76437500D02*
X120609375Y-76437500D01*
X93046875Y-120078125D02*
X95343750Y-120078125D01*
X40218750Y-76437500D02*
X40218750Y-71843750D01*
X171140625Y-81031250D02*
X173437500Y-81031250D01*
X74671875Y-147640625D02*
X74671875Y-149937500D01*
X90750000Y-152234375D02*
X90750000Y-154531250D01*
X60890625Y-44281250D02*
X63187500Y-44281250D01*
X118312500Y-32796875D02*
X122906250Y-32796875D01*
X102234375Y-108593750D02*
X99937500Y-108593750D01*
X173437500Y-163718750D02*
X173437500Y-161421875D01*
X157359375Y-94812500D02*
X157359375Y-92515625D01*
X54000000Y-32796875D02*
X54000000Y-35093750D01*
X157359375Y-168312500D02*
X157359375Y-166015625D01*
X122906250Y-90218750D02*
X120609375Y-90218750D01*
X60890625Y-163718750D02*
X63187500Y-163718750D01*
X125203125Y-133859375D02*
X127500000Y-133859375D01*
X118312500Y-64953125D02*
X120609375Y-64953125D01*
X72375000Y-55765625D02*
X72375000Y-53468750D01*
X63187500Y-131562500D02*
X63187500Y-129265625D01*
X138984375Y-37390625D02*
X138984375Y-39687500D01*
X79265625Y-90218750D02*
X79265625Y-87921875D01*
X122906250Y-177500000D02*
X118312500Y-177500000D01*
X150468750Y-177500000D02*
X145875000Y-177500000D01*
X83859375Y-161421875D02*
X86156250Y-161421875D01*
X171140625Y-159125000D02*
X166546875Y-159125000D01*
X56296875Y-69546875D02*
X56296875Y-71843750D01*
X125203125Y-90218750D02*
X125203125Y-87921875D01*
X120609375Y-147640625D02*
X122906250Y-147640625D01*
X76968750Y-159125000D02*
X76968750Y-156828125D01*
X83859375Y-58062500D02*
X86156250Y-58062500D01*
X102234375Y-62656250D02*
X104531250Y-62656250D01*
X76968750Y-62656250D02*
X76968750Y-55765625D01*
X138984375Y-53468750D02*
X141281250Y-53468750D01*
X58593750Y-140750000D02*
X58593750Y-138453125D01*
X37921875Y-138453125D02*
X40218750Y-138453125D01*
X125203125Y-147640625D02*
X127500000Y-147640625D01*
X141281250Y-149937500D02*
X138984375Y-149937500D01*
X109125000Y-143046875D02*
X106828125Y-143046875D01*
X150468750Y-106296875D02*
X150468750Y-108593750D01*
X106828125Y-156828125D02*
X106828125Y-161421875D01*
X35625000Y-74140625D02*
X37921875Y-74140625D01*
X175734375Y-44281250D02*
X175734375Y-46578125D01*
X145875000Y-41984375D02*
X145875000Y-44281250D01*
X97640625Y-110890625D02*
X99937500Y-110890625D01*
X67781250Y-156828125D02*
X67781250Y-159125000D01*
X111421875Y-39687500D02*
X113718750Y-39687500D01*
X74671875Y-55765625D02*
X74671875Y-58062500D01*
X109125000Y-175203125D02*
X109125000Y-177500000D01*
X122906250Y-85625000D02*
X122906250Y-83328125D01*
X56296875Y-149937500D02*
X58593750Y-149937500D01*
X70078125Y-166015625D02*
X72375000Y-166015625D01*
X40218750Y-122375000D02*
X35625000Y-122375000D01*
X104531250Y-159125000D02*
X104531250Y-154531250D01*
X49406250Y-99406250D02*
X47109375Y-99406250D01*
X127500000Y-58062500D02*
X127500000Y-55765625D01*
X159656250Y-108593750D02*
X159656250Y-106296875D01*
X90750000Y-170609375D02*
X95343750Y-170609375D01*
X157359375Y-117781250D02*
X157359375Y-115484375D01*
X164250000Y-131562500D02*
X164250000Y-129265625D01*
X125203125Y-104000000D02*
X125203125Y-101703125D01*
X81562500Y-120078125D02*
X81562500Y-117781250D01*
X113718750Y-156828125D02*
X113718750Y-159125000D01*
X40218750Y-115484375D02*
X40218750Y-117781250D01*
X93046875Y-140750000D02*
X88453125Y-140750000D01*
X136687500Y-161421875D02*
X136687500Y-163718750D01*
X171140625Y-99406250D02*
X173437500Y-99406250D01*
X90750000Y-51171875D02*
X88453125Y-51171875D01*
X44812500Y-74140625D02*
X42515625Y-74140625D01*
X37921875Y-53468750D02*
X35625000Y-53468750D01*
X86156250Y-110890625D02*
X86156250Y-106296875D01*
X67781250Y-41984375D02*
X67781250Y-44281250D01*
X145875000Y-94812500D02*
X143578125Y-94812500D01*
X35625000Y-122375000D02*
X35625000Y-120078125D01*
X150468750Y-74140625D02*
X150468750Y-76437500D01*
X164250000Y-122375000D02*
X161953125Y-122375000D01*
X159656250Y-138453125D02*
X157359375Y-138453125D01*
X93046875Y-108593750D02*
X90750000Y-108593750D01*
X47109375Y-64953125D02*
X47109375Y-67250000D01*
X161953125Y-39687500D02*
X164250000Y-39687500D01*
X37921875Y-161421875D02*
X37921875Y-163718750D01*
X134390625Y-83328125D02*
X136687500Y-83328125D01*
X97640625Y-92515625D02*
X99937500Y-92515625D01*
X42515625Y-104000000D02*
X44812500Y-104000000D01*
X76968750Y-120078125D02*
X76968750Y-122375000D01*
X70078125Y-133859375D02*
X70078125Y-138453125D01*
X116015625Y-55765625D02*
X118312500Y-55765625D01*
X70078125Y-71843750D02*
X70078125Y-76437500D01*
X175734375Y-35093750D02*
X175734375Y-37390625D01*
X93046875Y-136156250D02*
X95343750Y-136156250D01*
X155062500Y-92515625D02*
X155062500Y-94812500D01*
X150468750Y-122375000D02*
X150468750Y-117781250D01*
X67781250Y-71843750D02*
X70078125Y-71843750D01*
X104531250Y-85625000D02*
X102234375Y-85625000D01*
X106828125Y-81031250D02*
X109125000Y-81031250D01*
X164250000Y-115484375D02*
X161953125Y-115484375D01*
X54000000Y-67250000D02*
X49406250Y-67250000D01*
X99937500Y-99406250D02*
X97640625Y-99406250D01*
X83859375Y-60359375D02*
X83859375Y-62656250D01*
X127500000Y-37390625D02*
X127500000Y-35093750D01*
X35625000Y-124671875D02*
X35625000Y-126968750D01*
X56296875Y-58062500D02*
X58593750Y-58062500D01*
X63187500Y-159125000D02*
X63187500Y-156828125D01*
X150468750Y-104000000D02*
X145875000Y-104000000D01*
X104531250Y-152234375D02*
X104531250Y-147640625D01*
X67781250Y-48875000D02*
X63187500Y-48875000D01*
X51703125Y-163718750D02*
X51703125Y-168312500D01*
X127500000Y-124671875D02*
X132093750Y-124671875D01*
X40218750Y-131562500D02*
X40218750Y-126968750D01*
X122906250Y-94812500D02*
X118312500Y-94812500D01*
X175734375Y-53468750D02*
X175734375Y-55765625D01*
X109125000Y-152234375D02*
X113718750Y-152234375D01*
X60890625Y-51171875D02*
X60890625Y-53468750D01*
X164250000Y-168312500D02*
X164250000Y-166015625D01*
X120609375Y-166015625D02*
X122906250Y-166015625D01*
X67781250Y-76437500D02*
X67781250Y-71843750D01*
X166546875Y-58062500D02*
X168843750Y-58062500D01*
X178031250Y-149937500D02*
X173437500Y-149937500D01*
X150468750Y-136156250D02*
X148171875Y-136156250D01*
X56296875Y-44281250D02*
X54000000Y-44281250D01*
X138984375Y-76437500D02*
X138984375Y-74140625D01*
X164250000Y-35093750D02*
X161953125Y-35093750D01*
X136687500Y-37390625D02*
X138984375Y-37390625D01*
X145875000Y-156828125D02*
X148171875Y-156828125D01*
X116015625Y-83328125D02*
X118312500Y-83328125D01*
X136687500Y-76437500D02*
X129796875Y-76437500D01*
X111421875Y-163718750D02*
X111421875Y-161421875D01*
X141281250Y-35093750D02*
X138984375Y-35093750D01*
X79265625Y-175203125D02*
X81562500Y-175203125D01*
X106828125Y-170609375D02*
X106828125Y-175203125D01*
X90750000Y-117781250D02*
X90750000Y-115484375D01*
X120609375Y-51171875D02*
X120609375Y-53468750D01*
X81562500Y-156828125D02*
X81562500Y-159125000D01*
X63187500Y-37390625D02*
X60890625Y-37390625D01*
X44812500Y-78734375D02*
X49406250Y-78734375D01*
X49406250Y-131562500D02*
X44812500Y-131562500D01*
X90750000Y-101703125D02*
X93046875Y-101703125D01*
X164250000Y-94812500D02*
X164250000Y-92515625D01*
X111421875Y-166015625D02*
X111421875Y-168312500D01*
X49406250Y-51171875D02*
X47109375Y-51171875D01*
X134390625Y-168312500D02*
X136687500Y-168312500D01*
X102234375Y-152234375D02*
X104531250Y-152234375D01*
X166546875Y-154531250D02*
X164250000Y-154531250D01*
X70078125Y-170609375D02*
X74671875Y-170609375D01*
X44812500Y-97109375D02*
X44812500Y-99406250D01*
X129796875Y-41984375D02*
X129796875Y-44281250D01*
X54000000Y-147640625D02*
X56296875Y-147640625D01*
X116015625Y-131562500D02*
X116015625Y-129265625D01*
X47109375Y-172906250D02*
X49406250Y-172906250D01*
X178031250Y-122375000D02*
X173437500Y-122375000D01*
X47109375Y-37390625D02*
X47109375Y-39687500D01*
X152765625Y-87921875D02*
X152765625Y-92515625D01*
X35625000Y-140750000D02*
X33328125Y-140750000D01*
X152765625Y-133859375D02*
X157359375Y-133859375D01*
X118312500Y-44281250D02*
X118312500Y-41984375D01*
X129796875Y-53468750D02*
X129796875Y-55765625D01*
X166546875Y-145343750D02*
X166546875Y-143046875D01*
X49406250Y-113187500D02*
X47109375Y-113187500D01*
X93046875Y-138453125D02*
X93046875Y-140750000D01*
X65484375Y-46578125D02*
X67781250Y-46578125D01*
X58593750Y-145343750D02*
X56296875Y-145343750D01*
X111421875Y-172906250D02*
X109125000Y-172906250D01*
X155062500Y-110890625D02*
X155062500Y-108593750D01*
X72375000Y-46578125D02*
X72375000Y-44281250D01*
X113718750Y-101703125D02*
X113718750Y-97109375D01*
X104531250Y-154531250D02*
X102234375Y-154531250D01*
X81562500Y-74140625D02*
X79265625Y-74140625D01*
X86156250Y-74140625D02*
X86156250Y-76437500D01*
X70078125Y-78734375D02*
X70078125Y-83328125D01*
X168843750Y-152234375D02*
X166546875Y-152234375D01*
X51703125Y-159125000D02*
X51703125Y-161421875D01*
X125203125Y-163718750D02*
X125203125Y-161421875D01*
X141281250Y-76437500D02*
X138984375Y-76437500D01*
X51703125Y-149937500D02*
X54000000Y-149937500D01*
X33328125Y-161421875D02*
X33328125Y-166015625D01*
X44812500Y-62656250D02*
X42515625Y-62656250D01*
X150468750Y-145343750D02*
X148171875Y-145343750D01*
X159656250Y-41984375D02*
X159656250Y-37390625D01*
X104531250Y-175203125D02*
X102234375Y-175203125D01*
X113718750Y-78734375D02*
X113718750Y-81031250D01*
X173437500Y-55765625D02*
X171140625Y-55765625D01*
X104531250Y-69546875D02*
X104531250Y-64953125D01*
X166546875Y-138453125D02*
X168843750Y-138453125D01*
X93046875Y-159125000D02*
X95343750Y-159125000D01*
X175734375Y-108593750D02*
X175734375Y-110890625D01*
X109125000Y-133859375D02*
X109125000Y-136156250D01*
X56296875Y-110890625D02*
X58593750Y-110890625D01*
X159656250Y-35093750D02*
X159656250Y-32796875D01*
X104531250Y-37390625D02*
X102234375Y-37390625D01*
X157359375Y-90218750D02*
X155062500Y-90218750D01*
X138984375Y-110890625D02*
X138984375Y-113187500D01*
X49406250Y-92515625D02*
X47109375Y-92515625D01*
X67781250Y-177500000D02*
X63187500Y-177500000D01*
X173437500Y-124671875D02*
X178031250Y-124671875D01*
X56296875Y-129265625D02*
X56296875Y-131562500D01*
X88453125Y-92515625D02*
X88453125Y-97109375D01*
X134390625Y-136156250D02*
X134390625Y-140750000D01*
X51703125Y-78734375D02*
X56296875Y-78734375D01*
X127500000Y-92515625D02*
X127500000Y-90218750D01*
X138984375Y-154531250D02*
X141281250Y-154531250D01*
X81562500Y-83328125D02*
X79265625Y-83328125D01*
X63187500Y-46578125D02*
X60890625Y-46578125D01*
X129796875Y-170609375D02*
X129796875Y-172906250D01*
X102234375Y-92515625D02*
X102234375Y-94812500D01*
X33328125Y-83328125D02*
X35625000Y-83328125D01*
X166546875Y-32796875D02*
X171140625Y-32796875D01*
X99937500Y-74140625D02*
X102234375Y-74140625D01*
X79265625Y-170609375D02*
X79265625Y-175203125D01*
X118312500Y-83328125D02*
X118312500Y-81031250D01*
X90750000Y-53468750D02*
X90750000Y-51171875D01*
X54000000Y-122375000D02*
X54000000Y-120078125D01*
X79265625Y-39687500D02*
X81562500Y-39687500D01*
X54000000Y-115484375D02*
X58593750Y-115484375D01*
X164250000Y-90218750D02*
X161953125Y-90218750D01*
X116015625Y-85625000D02*
X116015625Y-83328125D01*
X127500000Y-74140625D02*
X127500000Y-76437500D01*
X42515625Y-143046875D02*
X47109375Y-143046875D01*
X157359375Y-55765625D02*
X159656250Y-55765625D01*
X56296875Y-92515625D02*
X58593750Y-92515625D01*
X134390625Y-154531250D02*
X134390625Y-152234375D01*
X102234375Y-35093750D02*
X104531250Y-35093750D01*
X127500000Y-172906250D02*
X125203125Y-172906250D01*
X143578125Y-154531250D02*
X143578125Y-159125000D01*
X127500000Y-83328125D02*
X125203125Y-83328125D01*
X141281250Y-81031250D02*
X141281250Y-76437500D01*
X173437500Y-48875000D02*
X173437500Y-46578125D01*
X159656250Y-159125000D02*
X159656250Y-154531250D01*
X67781250Y-113187500D02*
X65484375Y-113187500D01*
X83859375Y-129265625D02*
X86156250Y-129265625D01*
X99937500Y-129265625D02*
X102234375Y-129265625D01*
X33328125Y-124671875D02*
X35625000Y-124671875D01*
X136687500Y-136156250D02*
X134390625Y-136156250D01*
X99937500Y-81031250D02*
X99937500Y-78734375D01*
X54000000Y-99406250D02*
X51703125Y-99406250D01*
X102234375Y-131562500D02*
X104531250Y-131562500D01*
X58593750Y-136156250D02*
X58593750Y-129265625D01*
X138984375Y-32796875D02*
X143578125Y-32796875D01*
X93046875Y-99406250D02*
X93046875Y-97109375D01*
X42515625Y-175203125D02*
X44812500Y-175203125D01*
X93046875Y-55765625D02*
X95343750Y-55765625D01*
X141281250Y-138453125D02*
X141281250Y-136156250D01*
X150468750Y-37390625D02*
X150468750Y-39687500D01*
X35625000Y-69546875D02*
X35625000Y-71843750D01*
X90750000Y-120078125D02*
X88453125Y-120078125D01*
X93046875Y-69546875D02*
X93046875Y-71843750D01*
X72375000Y-37390625D02*
X72375000Y-35093750D01*
X125203125Y-32796875D02*
X129796875Y-32796875D01*
X109125000Y-37390625D02*
X111421875Y-37390625D01*
X54000000Y-152234375D02*
X51703125Y-152234375D01*
X104531250Y-140750000D02*
X102234375Y-140750000D01*
X166546875Y-108593750D02*
X166546875Y-106296875D01*
X116015625Y-81031250D02*
X116015625Y-78734375D01*
X86156250Y-120078125D02*
X83859375Y-120078125D01*
X63187500Y-161421875D02*
X67781250Y-161421875D01*
X155062500Y-117781250D02*
X152765625Y-117781250D01*
X58593750Y-90218750D02*
X56296875Y-90218750D01*
X136687500Y-149937500D02*
X129796875Y-149937500D01*
X116015625Y-53468750D02*
X116015625Y-51171875D01*
X88453125Y-104000000D02*
X90750000Y-104000000D01*
X138984375Y-133859375D02*
X141281250Y-133859375D01*
X164250000Y-53468750D02*
X161953125Y-53468750D01*
X118312500Y-166015625D02*
X116015625Y-166015625D01*
X63187500Y-74140625D02*
X65484375Y-74140625D01*
X166546875Y-64953125D02*
X168843750Y-64953125D01*
X102234375Y-48875000D02*
X104531250Y-48875000D01*
X40218750Y-62656250D02*
X37921875Y-62656250D01*
X54000000Y-136156250D02*
X51703125Y-136156250D01*
X35625000Y-113187500D02*
X33328125Y-113187500D01*
X125203125Y-76437500D02*
X125203125Y-81031250D01*
X111421875Y-60359375D02*
X118312500Y-60359375D01*
X111421875Y-48875000D02*
X111421875Y-46578125D01*
X97640625Y-177500000D02*
X97640625Y-175203125D01*
X93046875Y-131562500D02*
X88453125Y-131562500D01*
X171140625Y-101703125D02*
X171140625Y-104000000D01*
X134390625Y-58062500D02*
X134390625Y-55765625D01*
X76968750Y-78734375D02*
X74671875Y-78734375D01*
X109125000Y-120078125D02*
X109125000Y-122375000D01*
X72375000Y-90218750D02*
X72375000Y-87921875D01*
X90750000Y-62656250D02*
X90750000Y-60359375D01*
X42515625Y-90218750D02*
X42515625Y-87921875D01*
X97640625Y-117781250D02*
X97640625Y-115484375D01*
X122906250Y-170609375D02*
X122906250Y-172906250D01*
X86156250Y-156828125D02*
X86156250Y-152234375D01*
X106828125Y-87921875D02*
X109125000Y-87921875D01*
X47109375Y-110890625D02*
X49406250Y-110890625D01*
X138984375Y-163718750D02*
X138984375Y-161421875D01*
X127500000Y-81031250D02*
X127500000Y-78734375D01*
X93046875Y-156828125D02*
X93046875Y-159125000D01*
X76968750Y-133859375D02*
X74671875Y-133859375D01*
X42515625Y-170609375D02*
X47109375Y-170609375D01*
X159656250Y-37390625D02*
X157359375Y-37390625D01*
X173437500Y-120078125D02*
X171140625Y-120078125D01*
X70078125Y-154531250D02*
X70078125Y-152234375D01*
X90750000Y-159125000D02*
X90750000Y-156828125D01*
X171140625Y-126968750D02*
X173437500Y-126968750D01*
X159656250Y-92515625D02*
X159656250Y-87921875D01*
X122906250Y-67250000D02*
X122906250Y-62656250D01*
X37921875Y-117781250D02*
X37921875Y-120078125D01*
X74671875Y-41984375D02*
X74671875Y-44281250D01*
X127500000Y-85625000D02*
X127500000Y-83328125D01*
X54000000Y-126968750D02*
X51703125Y-126968750D01*
X157359375Y-115484375D02*
X159656250Y-115484375D01*
X127500000Y-147640625D02*
X127500000Y-149937500D01*
X95343750Y-51171875D02*
X93046875Y-51171875D01*
X81562500Y-85625000D02*
X81562500Y-83328125D01*
X40218750Y-117781250D02*
X37921875Y-117781250D01*
X159656250Y-74140625D02*
X157359375Y-74140625D01*
X166546875Y-106296875D02*
X171140625Y-106296875D01*
X106828125Y-133859375D02*
X109125000Y-133859375D01*
X86156250Y-60359375D02*
X83859375Y-60359375D01*
X118312500Y-154531250D02*
X116015625Y-154531250D01*
X56296875Y-117781250D02*
X56296875Y-120078125D01*
X44812500Y-163718750D02*
X44812500Y-161421875D01*
X67781250Y-161421875D02*
X67781250Y-163718750D01*
X37921875Y-131562500D02*
X40218750Y-131562500D01*
X65484375Y-78734375D02*
X65484375Y-81031250D01*
X157359375Y-101703125D02*
X157359375Y-104000000D01*
X173437500Y-122375000D02*
X173437500Y-120078125D01*
X166546875Y-113187500D02*
X168843750Y-113187500D01*
X72375000Y-94812500D02*
X72375000Y-92515625D01*
X157359375Y-133859375D02*
X157359375Y-136156250D01*
X86156250Y-46578125D02*
X86156250Y-41984375D01*
X125203125Y-149937500D02*
X125203125Y-154531250D01*
X161953125Y-58062500D02*
X164250000Y-58062500D01*
X106828125Y-120078125D02*
X109125000Y-120078125D01*
X136687500Y-133859375D02*
X136687500Y-136156250D01*
X118312500Y-143046875D02*
X116015625Y-143046875D01*
X148171875Y-163718750D02*
X145875000Y-163718750D01*
X129796875Y-140750000D02*
X132093750Y-140750000D01*
X138984375Y-35093750D02*
X138984375Y-32796875D01*
X175734375Y-81031250D02*
X175734375Y-83328125D01*
X60890625Y-55765625D02*
X60890625Y-62656250D01*
X90750000Y-177500000D02*
X90750000Y-175203125D01*
X109125000Y-147640625D02*
X109125000Y-149937500D01*
X88453125Y-133859375D02*
X93046875Y-133859375D01*
X102234375Y-126968750D02*
X102234375Y-124671875D01*
X148171875Y-51171875D02*
X148171875Y-53468750D01*
X111421875Y-64953125D02*
X111421875Y-67250000D01*
X33328125Y-106296875D02*
X33328125Y-110890625D01*
X118312500Y-81031250D02*
X116015625Y-81031250D01*
X159656250Y-69546875D02*
X164250000Y-69546875D01*
X81562500Y-108593750D02*
X81562500Y-106296875D01*
X33328125Y-85625000D02*
X33328125Y-90218750D01*
X102234375Y-97109375D02*
X104531250Y-97109375D01*
X168843750Y-60359375D02*
X166546875Y-60359375D01*
X97640625Y-161421875D02*
X97640625Y-166015625D01*
X81562500Y-154531250D02*
X81562500Y-152234375D01*
X58593750Y-104000000D02*
X58593750Y-99406250D01*
X67781250Y-154531250D02*
X65484375Y-154531250D01*
X40218750Y-78734375D02*
X37921875Y-78734375D01*
X136687500Y-177500000D02*
X132093750Y-177500000D01*
X56296875Y-76437500D02*
X51703125Y-76437500D01*
X74671875Y-92515625D02*
X76968750Y-92515625D01*
X136687500Y-115484375D02*
X134390625Y-115484375D01*
X99937500Y-92515625D02*
X99937500Y-90218750D01*
X157359375Y-161421875D02*
X157359375Y-163718750D01*
X118312500Y-55765625D02*
X118312500Y-53468750D01*
X102234375Y-110890625D02*
X104531250Y-110890625D01*
X93046875Y-64953125D02*
X95343750Y-64953125D01*
X81562500Y-39687500D02*
X81562500Y-37390625D01*
X127500000Y-159125000D02*
X127500000Y-156828125D01*
X63187500Y-90218750D02*
X60890625Y-90218750D01*
X40218750Y-110890625D02*
X40218750Y-106296875D01*
X136687500Y-163718750D02*
X134390625Y-163718750D01*
X113718750Y-67250000D02*
X113718750Y-62656250D01*
X79265625Y-110890625D02*
X81562500Y-110890625D01*
X51703125Y-99406250D02*
X51703125Y-104000000D01*
X125203125Y-39687500D02*
X125203125Y-37390625D01*
X81562500Y-145343750D02*
X79265625Y-145343750D01*
X113718750Y-55765625D02*
X113718750Y-58062500D01*
X93046875Y-154531250D02*
X93046875Y-152234375D01*
X171140625Y-108593750D02*
X173437500Y-108593750D01*
X65484375Y-108593750D02*
X63187500Y-108593750D01*
%TD*%
%TA.AperFunction,Conductor*%
%TO.N,GND*%
G36*
X43443039Y-30520185D02*
G01*
X43488794Y-30572989D01*
X43500000Y-30624500D01*
X43500000Y-35139455D01*
X43480315Y-35206494D01*
X43427511Y-35252249D01*
X43358353Y-35262193D01*
X43301689Y-35238721D01*
X43212093Y-35171649D01*
X43212086Y-35171645D01*
X43077379Y-35121403D01*
X43077372Y-35121401D01*
X43017844Y-35115000D01*
X41950000Y-35115000D01*
X41950000Y-37385000D01*
X43017828Y-37385000D01*
X43017844Y-37384999D01*
X43077372Y-37378598D01*
X43077379Y-37378596D01*
X43212086Y-37328354D01*
X43212089Y-37328352D01*
X43301688Y-37261278D01*
X43367152Y-37236860D01*
X43435425Y-37251711D01*
X43484831Y-37301115D01*
X43500000Y-37360544D01*
X43500000Y-40583690D01*
X43480315Y-40650729D01*
X43427511Y-40696484D01*
X43362744Y-40706979D01*
X43297844Y-40700000D01*
X42750000Y-40700000D01*
X42750000Y-41576000D01*
X42730315Y-41643039D01*
X42677511Y-41688794D01*
X42626000Y-41700000D01*
X42500000Y-41700000D01*
X42500000Y-41826000D01*
X42480315Y-41893039D01*
X42427511Y-41938794D01*
X42376000Y-41950000D01*
X41250000Y-41950000D01*
X41250000Y-42247844D01*
X41256401Y-42307372D01*
X41258187Y-42314930D01*
X41256542Y-42315318D01*
X41260851Y-42375656D01*
X41255943Y-42392371D01*
X41255908Y-42392520D01*
X41249501Y-42452116D01*
X41249500Y-42452135D01*
X41249501Y-43256750D01*
X41229817Y-43323789D01*
X41177013Y-43369544D01*
X41125501Y-43380750D01*
X40911306Y-43380750D01*
X40737341Y-43415353D01*
X40737332Y-43415356D01*
X40573459Y-43483233D01*
X40573446Y-43483240D01*
X40425965Y-43581785D01*
X40425961Y-43581788D01*
X40300538Y-43707211D01*
X40300535Y-43707215D01*
X40201990Y-43854696D01*
X40201983Y-43854709D01*
X40134106Y-44018582D01*
X40134103Y-44018591D01*
X40099500Y-44192554D01*
X40099500Y-44658561D01*
X40079815Y-44725600D01*
X40074767Y-44732872D01*
X40056204Y-44757668D01*
X40056202Y-44757671D01*
X40005908Y-44892517D01*
X39999501Y-44952116D01*
X39999500Y-44952135D01*
X39999500Y-46047870D01*
X39999501Y-46047876D01*
X40005908Y-46107483D01*
X40056203Y-46242329D01*
X40056204Y-46242331D01*
X40066704Y-46256357D01*
X40074766Y-46267126D01*
X40099184Y-46332590D01*
X40099500Y-46341438D01*
X40099500Y-48963695D01*
X40134103Y-49137658D01*
X40134106Y-49137667D01*
X40201983Y-49301540D01*
X40201990Y-49301553D01*
X40300535Y-49449034D01*
X40300538Y-49449038D01*
X40425961Y-49574461D01*
X40425965Y-49574464D01*
X40573446Y-49673009D01*
X40573459Y-49673016D01*
X40696363Y-49723923D01*
X40737334Y-49740894D01*
X40757191Y-49744844D01*
X40805145Y-49754383D01*
X40867056Y-49786768D01*
X40901630Y-49847484D01*
X40897890Y-49917253D01*
X40857023Y-49973925D01*
X40792005Y-49999507D01*
X40780953Y-50000000D01*
X39035321Y-50000000D01*
X38968282Y-49980315D01*
X38922527Y-49927511D01*
X38912583Y-49858353D01*
X38917612Y-49837005D01*
X38965436Y-49692685D01*
X38975500Y-49594174D01*
X38975500Y-49060826D01*
X38965436Y-48962315D01*
X38912549Y-48802713D01*
X38912545Y-48802707D01*
X38912544Y-48802704D01*
X38824283Y-48659612D01*
X38824280Y-48659608D01*
X38792000Y-48627328D01*
X38758515Y-48566005D01*
X38763499Y-48496313D01*
X38792000Y-48451966D01*
X38823885Y-48420080D01*
X38912091Y-48277077D01*
X38912093Y-48277072D01*
X38964942Y-48117583D01*
X38974999Y-48019150D01*
X38975000Y-48019137D01*
X38975000Y-48002500D01*
X38124000Y-48002500D01*
X38056961Y-47982815D01*
X38011206Y-47930011D01*
X38000000Y-47878500D01*
X38000000Y-47752500D01*
X38000000Y-47502500D01*
X38250000Y-47502500D01*
X38974999Y-47502500D01*
X38974999Y-47485864D01*
X38974998Y-47485847D01*
X38964943Y-47387416D01*
X38912093Y-47227927D01*
X38912091Y-47227922D01*
X38823885Y-47084919D01*
X38705080Y-46966114D01*
X38562077Y-46877908D01*
X38562072Y-46877906D01*
X38402583Y-46825057D01*
X38304150Y-46815000D01*
X38250000Y-46815000D01*
X38250000Y-47502500D01*
X38000000Y-47502500D01*
X38000000Y-46256357D01*
X38000445Y-46248440D01*
X38000305Y-46248433D01*
X38000500Y-46244959D01*
X38000500Y-42755045D01*
X38000305Y-42751572D01*
X38000444Y-42751564D01*
X38000000Y-42743645D01*
X38000000Y-42404134D01*
X38019685Y-42337095D01*
X38060333Y-42299249D01*
X38060231Y-42299112D01*
X38061510Y-42298154D01*
X38064576Y-42295300D01*
X38067323Y-42293798D01*
X38067331Y-42293796D01*
X38182546Y-42207546D01*
X38268796Y-42092331D01*
X38319091Y-41957483D01*
X38325500Y-41897873D01*
X38325500Y-41152155D01*
X41250000Y-41152155D01*
X41250000Y-41450000D01*
X42250000Y-41450000D01*
X42250000Y-40700000D01*
X41702155Y-40700000D01*
X41642627Y-40706401D01*
X41642620Y-40706403D01*
X41507913Y-40756645D01*
X41507906Y-40756649D01*
X41392812Y-40842809D01*
X41392809Y-40842812D01*
X41306649Y-40957906D01*
X41306645Y-40957913D01*
X41256403Y-41092620D01*
X41256401Y-41092627D01*
X41250000Y-41152155D01*
X38325500Y-41152155D01*
X38325499Y-40023914D01*
X38325499Y-38372129D01*
X38325498Y-38372123D01*
X38319091Y-38312516D01*
X38268797Y-38177671D01*
X38268793Y-38177664D01*
X38182547Y-38062455D01*
X38182544Y-38062452D01*
X38067329Y-37976202D01*
X38064568Y-37974694D01*
X38062343Y-37972469D01*
X38060231Y-37970888D01*
X38060458Y-37970584D01*
X38015165Y-37925287D01*
X38000000Y-37865865D01*
X38000000Y-37500000D01*
X37432844Y-36932844D01*
X39930000Y-36932844D01*
X39936401Y-36992372D01*
X39936403Y-36992379D01*
X39986645Y-37127086D01*
X39986649Y-37127093D01*
X40072809Y-37242187D01*
X40072812Y-37242190D01*
X40187906Y-37328350D01*
X40187913Y-37328354D01*
X40322620Y-37378596D01*
X40322627Y-37378598D01*
X40382155Y-37384999D01*
X40382172Y-37385000D01*
X41450000Y-37385000D01*
X41450000Y-36500000D01*
X39930000Y-36500000D01*
X39930000Y-36932844D01*
X37432844Y-36932844D01*
X36536319Y-36036319D01*
X36502834Y-35974996D01*
X36500000Y-35948638D01*
X36500000Y-35567155D01*
X39930000Y-35567155D01*
X39930000Y-36000000D01*
X41450000Y-36000000D01*
X41450000Y-35115000D01*
X40382155Y-35115000D01*
X40322627Y-35121401D01*
X40322620Y-35121403D01*
X40187913Y-35171645D01*
X40187906Y-35171649D01*
X40072812Y-35257809D01*
X40072809Y-35257812D01*
X39986649Y-35372906D01*
X39986645Y-35372913D01*
X39936403Y-35507620D01*
X39936401Y-35507627D01*
X39930000Y-35567155D01*
X36500000Y-35567155D01*
X36500000Y-34704499D01*
X36519685Y-34637460D01*
X36572489Y-34591705D01*
X36623996Y-34580499D01*
X37872872Y-34580499D01*
X37932483Y-34574091D01*
X38067331Y-34523796D01*
X38182546Y-34437546D01*
X38268796Y-34322331D01*
X38319091Y-34187483D01*
X38325500Y-34127873D01*
X38325499Y-30624499D01*
X38345184Y-30557461D01*
X38397988Y-30511706D01*
X38449499Y-30500500D01*
X43376000Y-30500500D01*
X43443039Y-30520185D01*
G37*
%TD.AperFunction*%
%TD*%
%TA.AperFunction,Conductor*%
%TO.N,Net-(J1-Pin_1)*%
G36*
X35617539Y-30520185D02*
G01*
X35663294Y-30572989D01*
X35674500Y-30624500D01*
X35674500Y-34127870D01*
X35674501Y-34127876D01*
X35680908Y-34187483D01*
X35731202Y-34322328D01*
X35731206Y-34322335D01*
X35817452Y-34437544D01*
X35817454Y-34437546D01*
X35932669Y-34523796D01*
X35932671Y-34523796D01*
X35938525Y-34526994D01*
X35987930Y-34576399D01*
X36002782Y-34644672D01*
X36001836Y-34653471D01*
X35994500Y-34704495D01*
X35994500Y-35948640D01*
X35997397Y-36002688D01*
X35997397Y-36002689D01*
X36000229Y-36029022D01*
X36000232Y-36029049D01*
X36008885Y-36082445D01*
X36008885Y-36082447D01*
X36059166Y-36217252D01*
X36059168Y-36217257D01*
X36092653Y-36278580D01*
X36178877Y-36393761D01*
X36178881Y-36393765D01*
X36178886Y-36393771D01*
X37458181Y-37673065D01*
X37472884Y-37699992D01*
X37489477Y-37725811D01*
X37490368Y-37732011D01*
X37491666Y-37734388D01*
X37494500Y-37760746D01*
X37494500Y-37796000D01*
X37474815Y-37863039D01*
X37422011Y-37908794D01*
X37370500Y-37920000D01*
X37250000Y-37920000D01*
X37250000Y-40011000D01*
X37230315Y-40078039D01*
X37177511Y-40123794D01*
X37126000Y-40135000D01*
X37000000Y-40135000D01*
X37000000Y-40261000D01*
X36980315Y-40328039D01*
X36927511Y-40373794D01*
X36876000Y-40385000D01*
X35675000Y-40385000D01*
X35675000Y-41897827D01*
X35675178Y-41901153D01*
X35673512Y-41901242D01*
X35662270Y-41963563D01*
X35614660Y-42014701D01*
X35592339Y-42025102D01*
X35450698Y-42074663D01*
X35298051Y-42170577D01*
X35170577Y-42298051D01*
X35074663Y-42450698D01*
X35015122Y-42620858D01*
X35001913Y-42738084D01*
X35021450Y-42747492D01*
X35090109Y-42752403D01*
X35134456Y-42780904D01*
X36589095Y-44235543D01*
X36622580Y-44296866D01*
X36617596Y-44366558D01*
X36589095Y-44410905D01*
X36500000Y-44500000D01*
X36589095Y-44589095D01*
X36622580Y-44650418D01*
X36617596Y-44720110D01*
X36589095Y-44764457D01*
X35134457Y-46219094D01*
X35073134Y-46252579D01*
X35027999Y-46249351D01*
X35001913Y-46261913D01*
X35013204Y-46362116D01*
X35001150Y-46430938D01*
X34953801Y-46482317D01*
X34889984Y-46500000D01*
X34124000Y-46500000D01*
X34115314Y-46497449D01*
X34106353Y-46498738D01*
X34082312Y-46487759D01*
X34056961Y-46480315D01*
X34051033Y-46473474D01*
X34042797Y-46469713D01*
X34028507Y-46447478D01*
X34011206Y-46427511D01*
X34008918Y-46416996D01*
X34005023Y-46410935D01*
X34000000Y-46376000D01*
X34000000Y-46256357D01*
X34000445Y-46248440D01*
X34000305Y-46248433D01*
X34000500Y-46244959D01*
X34000500Y-45646448D01*
X35000000Y-45646448D01*
X36146448Y-44500000D01*
X36146448Y-44499999D01*
X35000000Y-43353551D01*
X35000000Y-45646448D01*
X34000500Y-45646448D01*
X34000500Y-42755045D01*
X34000305Y-42751572D01*
X34000444Y-42751564D01*
X34000000Y-42743645D01*
X34000000Y-42000000D01*
X33256355Y-42000000D01*
X33248435Y-41999555D01*
X33248428Y-41999695D01*
X33244955Y-41999500D01*
X33244954Y-41999500D01*
X31755046Y-41999500D01*
X31755045Y-41999500D01*
X31751572Y-41999695D01*
X31751564Y-41999555D01*
X31743645Y-42000000D01*
X30624500Y-42000000D01*
X30557461Y-41980315D01*
X30511706Y-41927511D01*
X30500500Y-41876000D01*
X30500500Y-38372155D01*
X35675000Y-38372155D01*
X35675000Y-39885000D01*
X36750000Y-39885000D01*
X36750000Y-37920000D01*
X36127155Y-37920000D01*
X36067627Y-37926401D01*
X36067620Y-37926403D01*
X35932913Y-37976645D01*
X35932906Y-37976649D01*
X35817812Y-38062809D01*
X35817809Y-38062812D01*
X35731649Y-38177906D01*
X35731645Y-38177913D01*
X35681403Y-38312620D01*
X35681401Y-38312627D01*
X35675000Y-38372155D01*
X30500500Y-38372155D01*
X30500500Y-37360919D01*
X30520185Y-37293880D01*
X30572989Y-37248125D01*
X30642147Y-37238181D01*
X30698811Y-37261653D01*
X30787906Y-37328350D01*
X30787913Y-37328354D01*
X30922620Y-37378596D01*
X30922627Y-37378598D01*
X30982155Y-37384999D01*
X30982172Y-37385000D01*
X32050000Y-37385000D01*
X32550000Y-37385000D01*
X33617828Y-37385000D01*
X33617844Y-37384999D01*
X33677372Y-37378598D01*
X33677379Y-37378596D01*
X33812086Y-37328354D01*
X33812093Y-37328350D01*
X33927187Y-37242190D01*
X33927190Y-37242187D01*
X34013350Y-37127093D01*
X34013354Y-37127086D01*
X34063596Y-36992379D01*
X34063598Y-36992372D01*
X34069999Y-36932844D01*
X34070000Y-36932827D01*
X34070000Y-36500000D01*
X32550000Y-36500000D01*
X32550000Y-37385000D01*
X32050000Y-37385000D01*
X32050000Y-36000000D01*
X32550000Y-36000000D01*
X34070000Y-36000000D01*
X34070000Y-35567172D01*
X34069999Y-35567155D01*
X34063598Y-35507627D01*
X34063596Y-35507620D01*
X34013354Y-35372913D01*
X34013350Y-35372906D01*
X33927190Y-35257812D01*
X33927187Y-35257809D01*
X33812093Y-35171649D01*
X33812086Y-35171645D01*
X33677379Y-35121403D01*
X33677372Y-35121401D01*
X33617844Y-35115000D01*
X32550000Y-35115000D01*
X32550000Y-36000000D01*
X32050000Y-36000000D01*
X32050000Y-35115000D01*
X30982155Y-35115000D01*
X30922627Y-35121401D01*
X30922620Y-35121403D01*
X30787913Y-35171645D01*
X30787910Y-35171647D01*
X30698811Y-35238347D01*
X30633347Y-35262764D01*
X30565074Y-35247912D01*
X30515668Y-35198507D01*
X30500500Y-35139080D01*
X30500500Y-30624500D01*
X30520185Y-30557461D01*
X30572989Y-30511706D01*
X30624500Y-30500500D01*
X35550500Y-30500500D01*
X35617539Y-30520185D01*
G37*
%TD.AperFunction*%
%TD*%
M02*
