%TF.GenerationSoftware,KiCad,Pcbnew,9.0.3-9.0.3-0~ubuntu24.04.1*%
%TF.CreationDate,2025-08-28T18:21:02-04:00*%
%TF.ProjectId,pcb-heater,7063622d-6865-4617-9465-722e6b696361,rev?*%
%TF.SameCoordinates,Original*%
%TF.FileFunction,Legend,Top*%
%TF.FilePolarity,Positive*%
%FSLAX46Y46*%
G04 Gerber Fmt 4.6, Leading zero omitted, Abs format (unit mm)*
G04 Created by KiCad (PCBNEW 9.0.3-9.0.3-0~ubuntu24.04.1) date 2025-08-28 18:21:02*
%MOMM*%
%LPD*%
G01*
G04 APERTURE LIST*
%ADD10C,0.200000*%
%ADD11C,0.100000*%
%ADD12C,0.300000*%
%ADD13C,1.000000*%
%ADD14C,0.125000*%
%ADD15C,0.187500*%
%ADD16C,0.150000*%
%ADD17C,0.120000*%
%ADD18C,0.010000*%
G04 APERTURE END LIST*
D10*
X100000000Y-100000000D02*
X110000000Y-100000000D01*
X110000000Y-110000000D01*
X100000000Y-110000000D01*
X100000000Y-100000000D01*
D11*
X30500000Y-171500000D02*
X38500000Y-171500000D01*
X38500000Y-179500000D01*
X30500000Y-179500000D01*
X30500000Y-171500000D01*
G36*
X30500000Y-171500000D02*
G01*
X38500000Y-171500000D01*
X38500000Y-179500000D01*
X30500000Y-179500000D01*
X30500000Y-171500000D01*
G37*
D10*
X71500000Y-80000000D02*
X78000000Y-80000000D01*
X78000000Y-86500000D01*
X71500000Y-86500000D01*
X71500000Y-80000000D01*
X80000000Y-80000000D02*
X130000000Y-80000000D01*
X130000000Y-130000000D01*
X80000000Y-130000000D01*
X80000000Y-80000000D01*
D12*
X31229400Y-33945489D02*
X31229400Y-32802632D01*
X31800828Y-33374060D02*
X30657971Y-33374060D01*
D13*
X94976190Y-151089400D02*
X94976190Y-143089400D01*
X94976190Y-146898924D02*
X99547619Y-146898924D01*
X99547619Y-151089400D02*
X99547619Y-143089400D01*
X104880952Y-143089400D02*
X106404761Y-143089400D01*
X106404761Y-143089400D02*
X107166666Y-143470352D01*
X107166666Y-143470352D02*
X107928571Y-144232257D01*
X107928571Y-144232257D02*
X108309523Y-145756067D01*
X108309523Y-145756067D02*
X108309523Y-148422733D01*
X108309523Y-148422733D02*
X107928571Y-149946543D01*
X107928571Y-149946543D02*
X107166666Y-150708448D01*
X107166666Y-150708448D02*
X106404761Y-151089400D01*
X106404761Y-151089400D02*
X104880952Y-151089400D01*
X104880952Y-151089400D02*
X104119047Y-150708448D01*
X104119047Y-150708448D02*
X103357142Y-149946543D01*
X103357142Y-149946543D02*
X102976190Y-148422733D01*
X102976190Y-148422733D02*
X102976190Y-145756067D01*
X102976190Y-145756067D02*
X103357142Y-144232257D01*
X103357142Y-144232257D02*
X104119047Y-143470352D01*
X104119047Y-143470352D02*
X104880952Y-143089400D01*
X110595237Y-143089400D02*
X115166666Y-143089400D01*
X112880952Y-151089400D02*
X112880952Y-143089400D01*
X61071429Y-163968952D02*
X61071429Y-155968952D01*
X61071429Y-155968952D02*
X62976191Y-155968952D01*
X62976191Y-155968952D02*
X64119048Y-156349904D01*
X64119048Y-156349904D02*
X64880953Y-157111809D01*
X64880953Y-157111809D02*
X65261906Y-157873714D01*
X65261906Y-157873714D02*
X65642858Y-159397523D01*
X65642858Y-159397523D02*
X65642858Y-160540380D01*
X65642858Y-160540380D02*
X65261906Y-162064190D01*
X65261906Y-162064190D02*
X64880953Y-162826095D01*
X64880953Y-162826095D02*
X64119048Y-163588000D01*
X64119048Y-163588000D02*
X62976191Y-163968952D01*
X62976191Y-163968952D02*
X61071429Y-163968952D01*
X70595239Y-155968952D02*
X72119048Y-155968952D01*
X72119048Y-155968952D02*
X72880953Y-156349904D01*
X72880953Y-156349904D02*
X73642858Y-157111809D01*
X73642858Y-157111809D02*
X74023810Y-158635619D01*
X74023810Y-158635619D02*
X74023810Y-161302285D01*
X74023810Y-161302285D02*
X73642858Y-162826095D01*
X73642858Y-162826095D02*
X72880953Y-163588000D01*
X72880953Y-163588000D02*
X72119048Y-163968952D01*
X72119048Y-163968952D02*
X70595239Y-163968952D01*
X70595239Y-163968952D02*
X69833334Y-163588000D01*
X69833334Y-163588000D02*
X69071429Y-162826095D01*
X69071429Y-162826095D02*
X68690477Y-161302285D01*
X68690477Y-161302285D02*
X68690477Y-158635619D01*
X68690477Y-158635619D02*
X69071429Y-157111809D01*
X69071429Y-157111809D02*
X69833334Y-156349904D01*
X69833334Y-156349904D02*
X70595239Y-155968952D01*
X83547619Y-163968952D02*
X83547619Y-155968952D01*
X83547619Y-155968952D02*
X88119048Y-163968952D01*
X88119048Y-163968952D02*
X88119048Y-155968952D01*
X93452381Y-155968952D02*
X94976190Y-155968952D01*
X94976190Y-155968952D02*
X95738095Y-156349904D01*
X95738095Y-156349904D02*
X96500000Y-157111809D01*
X96500000Y-157111809D02*
X96880952Y-158635619D01*
X96880952Y-158635619D02*
X96880952Y-161302285D01*
X96880952Y-161302285D02*
X96500000Y-162826095D01*
X96500000Y-162826095D02*
X95738095Y-163588000D01*
X95738095Y-163588000D02*
X94976190Y-163968952D01*
X94976190Y-163968952D02*
X93452381Y-163968952D01*
X93452381Y-163968952D02*
X92690476Y-163588000D01*
X92690476Y-163588000D02*
X91928571Y-162826095D01*
X91928571Y-162826095D02*
X91547619Y-161302285D01*
X91547619Y-161302285D02*
X91547619Y-158635619D01*
X91547619Y-158635619D02*
X91928571Y-157111809D01*
X91928571Y-157111809D02*
X92690476Y-156349904D01*
X92690476Y-156349904D02*
X93452381Y-155968952D01*
X99166666Y-155968952D02*
X103738095Y-155968952D01*
X101452381Y-163968952D02*
X101452381Y-155968952D01*
X111357142Y-155968952D02*
X115928571Y-155968952D01*
X113642857Y-163968952D02*
X113642857Y-155968952D01*
X120119047Y-155968952D02*
X121642856Y-155968952D01*
X121642856Y-155968952D02*
X122404761Y-156349904D01*
X122404761Y-156349904D02*
X123166666Y-157111809D01*
X123166666Y-157111809D02*
X123547618Y-158635619D01*
X123547618Y-158635619D02*
X123547618Y-161302285D01*
X123547618Y-161302285D02*
X123166666Y-162826095D01*
X123166666Y-162826095D02*
X122404761Y-163588000D01*
X122404761Y-163588000D02*
X121642856Y-163968952D01*
X121642856Y-163968952D02*
X120119047Y-163968952D01*
X120119047Y-163968952D02*
X119357142Y-163588000D01*
X119357142Y-163588000D02*
X118595237Y-162826095D01*
X118595237Y-162826095D02*
X118214285Y-161302285D01*
X118214285Y-161302285D02*
X118214285Y-158635619D01*
X118214285Y-158635619D02*
X118595237Y-157111809D01*
X118595237Y-157111809D02*
X119357142Y-156349904D01*
X119357142Y-156349904D02*
X120119047Y-155968952D01*
X126976189Y-155968952D02*
X126976189Y-162445142D01*
X126976189Y-162445142D02*
X127357142Y-163207047D01*
X127357142Y-163207047D02*
X127738094Y-163588000D01*
X127738094Y-163588000D02*
X128499999Y-163968952D01*
X128499999Y-163968952D02*
X130023808Y-163968952D01*
X130023808Y-163968952D02*
X130785713Y-163588000D01*
X130785713Y-163588000D02*
X131166666Y-163207047D01*
X131166666Y-163207047D02*
X131547618Y-162445142D01*
X131547618Y-162445142D02*
X131547618Y-155968952D01*
X139928570Y-163207047D02*
X139547618Y-163588000D01*
X139547618Y-163588000D02*
X138404760Y-163968952D01*
X138404760Y-163968952D02*
X137642856Y-163968952D01*
X137642856Y-163968952D02*
X136499999Y-163588000D01*
X136499999Y-163588000D02*
X135738094Y-162826095D01*
X135738094Y-162826095D02*
X135357141Y-162064190D01*
X135357141Y-162064190D02*
X134976189Y-160540380D01*
X134976189Y-160540380D02*
X134976189Y-159397523D01*
X134976189Y-159397523D02*
X135357141Y-157873714D01*
X135357141Y-157873714D02*
X135738094Y-157111809D01*
X135738094Y-157111809D02*
X136499999Y-156349904D01*
X136499999Y-156349904D02*
X137642856Y-155968952D01*
X137642856Y-155968952D02*
X138404760Y-155968952D01*
X138404760Y-155968952D02*
X139547618Y-156349904D01*
X139547618Y-156349904D02*
X139928570Y-156730857D01*
X143357141Y-163968952D02*
X143357141Y-155968952D01*
X143357141Y-159778476D02*
X147928570Y-159778476D01*
X147928570Y-163968952D02*
X147928570Y-155968952D01*
D14*
X162844140Y-179371119D02*
X162272712Y-179371119D01*
X162558426Y-179371119D02*
X162558426Y-178371119D01*
X162558426Y-178371119D02*
X162463188Y-178513976D01*
X162463188Y-178513976D02*
X162367950Y-178609214D01*
X162367950Y-178609214D02*
X162272712Y-178656833D01*
X163748902Y-178371119D02*
X163272712Y-178371119D01*
X163272712Y-178371119D02*
X163225093Y-178847309D01*
X163225093Y-178847309D02*
X163272712Y-178799690D01*
X163272712Y-178799690D02*
X163367950Y-178752071D01*
X163367950Y-178752071D02*
X163606045Y-178752071D01*
X163606045Y-178752071D02*
X163701283Y-178799690D01*
X163701283Y-178799690D02*
X163748902Y-178847309D01*
X163748902Y-178847309D02*
X163796521Y-178942547D01*
X163796521Y-178942547D02*
X163796521Y-179180642D01*
X163796521Y-179180642D02*
X163748902Y-179275880D01*
X163748902Y-179275880D02*
X163701283Y-179323500D01*
X163701283Y-179323500D02*
X163606045Y-179371119D01*
X163606045Y-179371119D02*
X163367950Y-179371119D01*
X163367950Y-179371119D02*
X163272712Y-179323500D01*
X163272712Y-179323500D02*
X163225093Y-179275880D01*
X164415569Y-178371119D02*
X164510807Y-178371119D01*
X164510807Y-178371119D02*
X164606045Y-178418738D01*
X164606045Y-178418738D02*
X164653664Y-178466357D01*
X164653664Y-178466357D02*
X164701283Y-178561595D01*
X164701283Y-178561595D02*
X164748902Y-178752071D01*
X164748902Y-178752071D02*
X164748902Y-178990166D01*
X164748902Y-178990166D02*
X164701283Y-179180642D01*
X164701283Y-179180642D02*
X164653664Y-179275880D01*
X164653664Y-179275880D02*
X164606045Y-179323500D01*
X164606045Y-179323500D02*
X164510807Y-179371119D01*
X164510807Y-179371119D02*
X164415569Y-179371119D01*
X164415569Y-179371119D02*
X164320331Y-179323500D01*
X164320331Y-179323500D02*
X164272712Y-179275880D01*
X164272712Y-179275880D02*
X164225093Y-179180642D01*
X164225093Y-179180642D02*
X164177474Y-178990166D01*
X164177474Y-178990166D02*
X164177474Y-178752071D01*
X164177474Y-178752071D02*
X164225093Y-178561595D01*
X164225093Y-178561595D02*
X164272712Y-178466357D01*
X164272712Y-178466357D02*
X164320331Y-178418738D01*
X164320331Y-178418738D02*
X164415569Y-178371119D01*
X165177474Y-179371119D02*
X165177474Y-178704452D01*
X165177474Y-178799690D02*
X165225093Y-178752071D01*
X165225093Y-178752071D02*
X165320331Y-178704452D01*
X165320331Y-178704452D02*
X165463188Y-178704452D01*
X165463188Y-178704452D02*
X165558426Y-178752071D01*
X165558426Y-178752071D02*
X165606045Y-178847309D01*
X165606045Y-178847309D02*
X165606045Y-179371119D01*
X165606045Y-178847309D02*
X165653664Y-178752071D01*
X165653664Y-178752071D02*
X165748902Y-178704452D01*
X165748902Y-178704452D02*
X165891759Y-178704452D01*
X165891759Y-178704452D02*
X165986998Y-178752071D01*
X165986998Y-178752071D02*
X166034617Y-178847309D01*
X166034617Y-178847309D02*
X166034617Y-179371119D01*
X166510807Y-179371119D02*
X166510807Y-178704452D01*
X166510807Y-178799690D02*
X166558426Y-178752071D01*
X166558426Y-178752071D02*
X166653664Y-178704452D01*
X166653664Y-178704452D02*
X166796521Y-178704452D01*
X166796521Y-178704452D02*
X166891759Y-178752071D01*
X166891759Y-178752071D02*
X166939378Y-178847309D01*
X166939378Y-178847309D02*
X166939378Y-179371119D01*
X166939378Y-178847309D02*
X166986997Y-178752071D01*
X166986997Y-178752071D02*
X167082235Y-178704452D01*
X167082235Y-178704452D02*
X167225092Y-178704452D01*
X167225092Y-178704452D02*
X167320331Y-178752071D01*
X167320331Y-178752071D02*
X167367950Y-178847309D01*
X167367950Y-178847309D02*
X167367950Y-179371119D01*
X168510807Y-179371119D02*
X169034616Y-178704452D01*
X168510807Y-178704452D02*
X169034616Y-179371119D01*
X170701283Y-179371119D02*
X170129855Y-179371119D01*
X170415569Y-179371119D02*
X170415569Y-178371119D01*
X170415569Y-178371119D02*
X170320331Y-178513976D01*
X170320331Y-178513976D02*
X170225093Y-178609214D01*
X170225093Y-178609214D02*
X170129855Y-178656833D01*
X171606045Y-178371119D02*
X171129855Y-178371119D01*
X171129855Y-178371119D02*
X171082236Y-178847309D01*
X171082236Y-178847309D02*
X171129855Y-178799690D01*
X171129855Y-178799690D02*
X171225093Y-178752071D01*
X171225093Y-178752071D02*
X171463188Y-178752071D01*
X171463188Y-178752071D02*
X171558426Y-178799690D01*
X171558426Y-178799690D02*
X171606045Y-178847309D01*
X171606045Y-178847309D02*
X171653664Y-178942547D01*
X171653664Y-178942547D02*
X171653664Y-179180642D01*
X171653664Y-179180642D02*
X171606045Y-179275880D01*
X171606045Y-179275880D02*
X171558426Y-179323500D01*
X171558426Y-179323500D02*
X171463188Y-179371119D01*
X171463188Y-179371119D02*
X171225093Y-179371119D01*
X171225093Y-179371119D02*
X171129855Y-179323500D01*
X171129855Y-179323500D02*
X171082236Y-179275880D01*
X172272712Y-178371119D02*
X172367950Y-178371119D01*
X172367950Y-178371119D02*
X172463188Y-178418738D01*
X172463188Y-178418738D02*
X172510807Y-178466357D01*
X172510807Y-178466357D02*
X172558426Y-178561595D01*
X172558426Y-178561595D02*
X172606045Y-178752071D01*
X172606045Y-178752071D02*
X172606045Y-178990166D01*
X172606045Y-178990166D02*
X172558426Y-179180642D01*
X172558426Y-179180642D02*
X172510807Y-179275880D01*
X172510807Y-179275880D02*
X172463188Y-179323500D01*
X172463188Y-179323500D02*
X172367950Y-179371119D01*
X172367950Y-179371119D02*
X172272712Y-179371119D01*
X172272712Y-179371119D02*
X172177474Y-179323500D01*
X172177474Y-179323500D02*
X172129855Y-179275880D01*
X172129855Y-179275880D02*
X172082236Y-179180642D01*
X172082236Y-179180642D02*
X172034617Y-178990166D01*
X172034617Y-178990166D02*
X172034617Y-178752071D01*
X172034617Y-178752071D02*
X172082236Y-178561595D01*
X172082236Y-178561595D02*
X172129855Y-178466357D01*
X172129855Y-178466357D02*
X172177474Y-178418738D01*
X172177474Y-178418738D02*
X172272712Y-178371119D01*
X173034617Y-179371119D02*
X173034617Y-178704452D01*
X173034617Y-178799690D02*
X173082236Y-178752071D01*
X173082236Y-178752071D02*
X173177474Y-178704452D01*
X173177474Y-178704452D02*
X173320331Y-178704452D01*
X173320331Y-178704452D02*
X173415569Y-178752071D01*
X173415569Y-178752071D02*
X173463188Y-178847309D01*
X173463188Y-178847309D02*
X173463188Y-179371119D01*
X173463188Y-178847309D02*
X173510807Y-178752071D01*
X173510807Y-178752071D02*
X173606045Y-178704452D01*
X173606045Y-178704452D02*
X173748902Y-178704452D01*
X173748902Y-178704452D02*
X173844141Y-178752071D01*
X173844141Y-178752071D02*
X173891760Y-178847309D01*
X173891760Y-178847309D02*
X173891760Y-179371119D01*
X174367950Y-179371119D02*
X174367950Y-178704452D01*
X174367950Y-178799690D02*
X174415569Y-178752071D01*
X174415569Y-178752071D02*
X174510807Y-178704452D01*
X174510807Y-178704452D02*
X174653664Y-178704452D01*
X174653664Y-178704452D02*
X174748902Y-178752071D01*
X174748902Y-178752071D02*
X174796521Y-178847309D01*
X174796521Y-178847309D02*
X174796521Y-179371119D01*
X174796521Y-178847309D02*
X174844140Y-178752071D01*
X174844140Y-178752071D02*
X174939378Y-178704452D01*
X174939378Y-178704452D02*
X175082235Y-178704452D01*
X175082235Y-178704452D02*
X175177474Y-178752071D01*
X175177474Y-178752071D02*
X175225093Y-178847309D01*
X175225093Y-178847309D02*
X175225093Y-179371119D01*
X176320331Y-178704452D02*
X176701283Y-178704452D01*
X176463188Y-178371119D02*
X176463188Y-179228261D01*
X176463188Y-179228261D02*
X176510807Y-179323500D01*
X176510807Y-179323500D02*
X176606045Y-179371119D01*
X176606045Y-179371119D02*
X176701283Y-179371119D01*
X177034617Y-179371119D02*
X177034617Y-178704452D01*
X177034617Y-178371119D02*
X176986998Y-178418738D01*
X176986998Y-178418738D02*
X177034617Y-178466357D01*
X177034617Y-178466357D02*
X177082236Y-178418738D01*
X177082236Y-178418738D02*
X177034617Y-178371119D01*
X177034617Y-178371119D02*
X177034617Y-178466357D01*
X177653664Y-179371119D02*
X177558426Y-179323500D01*
X177558426Y-179323500D02*
X177510807Y-179228261D01*
X177510807Y-179228261D02*
X177510807Y-178371119D01*
X178415569Y-179323500D02*
X178320331Y-179371119D01*
X178320331Y-179371119D02*
X178129855Y-179371119D01*
X178129855Y-179371119D02*
X178034617Y-179323500D01*
X178034617Y-179323500D02*
X177986998Y-179228261D01*
X177986998Y-179228261D02*
X177986998Y-178847309D01*
X177986998Y-178847309D02*
X178034617Y-178752071D01*
X178034617Y-178752071D02*
X178129855Y-178704452D01*
X178129855Y-178704452D02*
X178320331Y-178704452D01*
X178320331Y-178704452D02*
X178415569Y-178752071D01*
X178415569Y-178752071D02*
X178463188Y-178847309D01*
X178463188Y-178847309D02*
X178463188Y-178942547D01*
X178463188Y-178942547D02*
X177986998Y-179037785D01*
X45153664Y-31347309D02*
X44820331Y-31347309D01*
X44820331Y-31871119D02*
X44820331Y-30871119D01*
X44820331Y-30871119D02*
X45296521Y-30871119D01*
X45677474Y-30871119D02*
X45677474Y-31680642D01*
X45677474Y-31680642D02*
X45725093Y-31775880D01*
X45725093Y-31775880D02*
X45772712Y-31823500D01*
X45772712Y-31823500D02*
X45867950Y-31871119D01*
X45867950Y-31871119D02*
X46058426Y-31871119D01*
X46058426Y-31871119D02*
X46153664Y-31823500D01*
X46153664Y-31823500D02*
X46201283Y-31775880D01*
X46201283Y-31775880D02*
X46248902Y-31680642D01*
X46248902Y-31680642D02*
X46248902Y-30871119D01*
X46677474Y-31823500D02*
X46820331Y-31871119D01*
X46820331Y-31871119D02*
X47058426Y-31871119D01*
X47058426Y-31871119D02*
X47153664Y-31823500D01*
X47153664Y-31823500D02*
X47201283Y-31775880D01*
X47201283Y-31775880D02*
X47248902Y-31680642D01*
X47248902Y-31680642D02*
X47248902Y-31585404D01*
X47248902Y-31585404D02*
X47201283Y-31490166D01*
X47201283Y-31490166D02*
X47153664Y-31442547D01*
X47153664Y-31442547D02*
X47058426Y-31394928D01*
X47058426Y-31394928D02*
X46867950Y-31347309D01*
X46867950Y-31347309D02*
X46772712Y-31299690D01*
X46772712Y-31299690D02*
X46725093Y-31252071D01*
X46725093Y-31252071D02*
X46677474Y-31156833D01*
X46677474Y-31156833D02*
X46677474Y-31061595D01*
X46677474Y-31061595D02*
X46725093Y-30966357D01*
X46725093Y-30966357D02*
X46772712Y-30918738D01*
X46772712Y-30918738D02*
X46867950Y-30871119D01*
X46867950Y-30871119D02*
X47106045Y-30871119D01*
X47106045Y-30871119D02*
X47248902Y-30918738D01*
X47677474Y-31347309D02*
X48010807Y-31347309D01*
X48153664Y-31871119D02*
X47677474Y-31871119D01*
X47677474Y-31871119D02*
X47677474Y-30871119D01*
X47677474Y-30871119D02*
X48153664Y-30871119D01*
X49201284Y-30871119D02*
X49772712Y-30871119D01*
X49486998Y-31871119D02*
X49486998Y-30871119D01*
X50677474Y-31871119D02*
X50344141Y-31394928D01*
X50106046Y-31871119D02*
X50106046Y-30871119D01*
X50106046Y-30871119D02*
X50486998Y-30871119D01*
X50486998Y-30871119D02*
X50582236Y-30918738D01*
X50582236Y-30918738D02*
X50629855Y-30966357D01*
X50629855Y-30966357D02*
X50677474Y-31061595D01*
X50677474Y-31061595D02*
X50677474Y-31204452D01*
X50677474Y-31204452D02*
X50629855Y-31299690D01*
X50629855Y-31299690D02*
X50582236Y-31347309D01*
X50582236Y-31347309D02*
X50486998Y-31394928D01*
X50486998Y-31394928D02*
X50106046Y-31394928D01*
X51106046Y-31871119D02*
X51106046Y-30871119D01*
X51582236Y-31871119D02*
X51582236Y-30871119D01*
X51582236Y-30871119D02*
X51963188Y-30871119D01*
X51963188Y-30871119D02*
X52058426Y-30918738D01*
X52058426Y-30918738D02*
X52106045Y-30966357D01*
X52106045Y-30966357D02*
X52153664Y-31061595D01*
X52153664Y-31061595D02*
X52153664Y-31204452D01*
X52153664Y-31204452D02*
X52106045Y-31299690D01*
X52106045Y-31299690D02*
X52058426Y-31347309D01*
X52058426Y-31347309D02*
X51963188Y-31394928D01*
X51963188Y-31394928D02*
X51582236Y-31394928D01*
X52534617Y-31823500D02*
X52677474Y-31871119D01*
X52677474Y-31871119D02*
X52915569Y-31871119D01*
X52915569Y-31871119D02*
X53010807Y-31823500D01*
X53010807Y-31823500D02*
X53058426Y-31775880D01*
X53058426Y-31775880D02*
X53106045Y-31680642D01*
X53106045Y-31680642D02*
X53106045Y-31585404D01*
X53106045Y-31585404D02*
X53058426Y-31490166D01*
X53058426Y-31490166D02*
X53010807Y-31442547D01*
X53010807Y-31442547D02*
X52915569Y-31394928D01*
X52915569Y-31394928D02*
X52725093Y-31347309D01*
X52725093Y-31347309D02*
X52629855Y-31299690D01*
X52629855Y-31299690D02*
X52582236Y-31252071D01*
X52582236Y-31252071D02*
X52534617Y-31156833D01*
X52534617Y-31156833D02*
X52534617Y-31061595D01*
X52534617Y-31061595D02*
X52582236Y-30966357D01*
X52582236Y-30966357D02*
X52629855Y-30918738D01*
X52629855Y-30918738D02*
X52725093Y-30871119D01*
X52725093Y-30871119D02*
X52963188Y-30871119D01*
X52963188Y-30871119D02*
X53106045Y-30918738D01*
X54915569Y-31394928D02*
X54867950Y-31347309D01*
X54867950Y-31347309D02*
X54772712Y-31299690D01*
X54772712Y-31299690D02*
X54677474Y-31299690D01*
X54677474Y-31299690D02*
X54582236Y-31347309D01*
X54582236Y-31347309D02*
X54534617Y-31394928D01*
X54534617Y-31394928D02*
X54486998Y-31490166D01*
X54486998Y-31490166D02*
X54486998Y-31585404D01*
X54486998Y-31585404D02*
X54534617Y-31680642D01*
X54534617Y-31680642D02*
X54582236Y-31728261D01*
X54582236Y-31728261D02*
X54677474Y-31775880D01*
X54677474Y-31775880D02*
X54772712Y-31775880D01*
X54772712Y-31775880D02*
X54867950Y-31728261D01*
X54867950Y-31728261D02*
X54915569Y-31680642D01*
X54915569Y-31299690D02*
X54915569Y-31680642D01*
X54915569Y-31680642D02*
X54963188Y-31728261D01*
X54963188Y-31728261D02*
X55010807Y-31728261D01*
X55010807Y-31728261D02*
X55106046Y-31680642D01*
X55106046Y-31680642D02*
X55153665Y-31585404D01*
X55153665Y-31585404D02*
X55153665Y-31347309D01*
X55153665Y-31347309D02*
X55058427Y-31204452D01*
X55058427Y-31204452D02*
X54915569Y-31109214D01*
X54915569Y-31109214D02*
X54725093Y-31061595D01*
X54725093Y-31061595D02*
X54534617Y-31109214D01*
X54534617Y-31109214D02*
X54391760Y-31204452D01*
X54391760Y-31204452D02*
X54296522Y-31347309D01*
X54296522Y-31347309D02*
X54248903Y-31537785D01*
X54248903Y-31537785D02*
X54296522Y-31728261D01*
X54296522Y-31728261D02*
X54391760Y-31871119D01*
X54391760Y-31871119D02*
X54534617Y-31966357D01*
X54534617Y-31966357D02*
X54725093Y-32013976D01*
X54725093Y-32013976D02*
X54915569Y-31966357D01*
X54915569Y-31966357D02*
X55058427Y-31871119D01*
X56867950Y-31871119D02*
X56296522Y-31871119D01*
X56582236Y-31871119D02*
X56582236Y-30871119D01*
X56582236Y-30871119D02*
X56486998Y-31013976D01*
X56486998Y-31013976D02*
X56391760Y-31109214D01*
X56391760Y-31109214D02*
X56296522Y-31156833D01*
X57248903Y-30966357D02*
X57296522Y-30918738D01*
X57296522Y-30918738D02*
X57391760Y-30871119D01*
X57391760Y-30871119D02*
X57629855Y-30871119D01*
X57629855Y-30871119D02*
X57725093Y-30918738D01*
X57725093Y-30918738D02*
X57772712Y-30966357D01*
X57772712Y-30966357D02*
X57820331Y-31061595D01*
X57820331Y-31061595D02*
X57820331Y-31156833D01*
X57820331Y-31156833D02*
X57772712Y-31299690D01*
X57772712Y-31299690D02*
X57201284Y-31871119D01*
X57201284Y-31871119D02*
X57820331Y-31871119D01*
X58725093Y-30871119D02*
X58248903Y-30871119D01*
X58248903Y-30871119D02*
X58201284Y-31347309D01*
X58201284Y-31347309D02*
X58248903Y-31299690D01*
X58248903Y-31299690D02*
X58344141Y-31252071D01*
X58344141Y-31252071D02*
X58582236Y-31252071D01*
X58582236Y-31252071D02*
X58677474Y-31299690D01*
X58677474Y-31299690D02*
X58725093Y-31347309D01*
X58725093Y-31347309D02*
X58772712Y-31442547D01*
X58772712Y-31442547D02*
X58772712Y-31680642D01*
X58772712Y-31680642D02*
X58725093Y-31775880D01*
X58725093Y-31775880D02*
X58677474Y-31823500D01*
X58677474Y-31823500D02*
X58582236Y-31871119D01*
X58582236Y-31871119D02*
X58344141Y-31871119D01*
X58344141Y-31871119D02*
X58248903Y-31823500D01*
X58248903Y-31823500D02*
X58201284Y-31775880D01*
X59772712Y-31775880D02*
X59725093Y-31823500D01*
X59725093Y-31823500D02*
X59582236Y-31871119D01*
X59582236Y-31871119D02*
X59486998Y-31871119D01*
X59486998Y-31871119D02*
X59344141Y-31823500D01*
X59344141Y-31823500D02*
X59248903Y-31728261D01*
X59248903Y-31728261D02*
X59201284Y-31633023D01*
X59201284Y-31633023D02*
X59153665Y-31442547D01*
X59153665Y-31442547D02*
X59153665Y-31299690D01*
X59153665Y-31299690D02*
X59201284Y-31109214D01*
X59201284Y-31109214D02*
X59248903Y-31013976D01*
X59248903Y-31013976D02*
X59344141Y-30918738D01*
X59344141Y-30918738D02*
X59486998Y-30871119D01*
X59486998Y-30871119D02*
X59582236Y-30871119D01*
X59582236Y-30871119D02*
X59725093Y-30918738D01*
X59725093Y-30918738D02*
X59772712Y-30966357D01*
X60963189Y-31871119D02*
X60963189Y-30871119D01*
X60963189Y-30871119D02*
X61296522Y-31585404D01*
X61296522Y-31585404D02*
X61629855Y-30871119D01*
X61629855Y-30871119D02*
X61629855Y-31871119D01*
X62058427Y-31585404D02*
X62534617Y-31585404D01*
X61963189Y-31871119D02*
X62296522Y-30871119D01*
X62296522Y-30871119D02*
X62629855Y-31871119D01*
X62867951Y-30871119D02*
X63534617Y-31871119D01*
X63534617Y-30871119D02*
X62867951Y-31871119D01*
X65153665Y-30871119D02*
X64677475Y-30871119D01*
X64677475Y-30871119D02*
X64629856Y-31347309D01*
X64629856Y-31347309D02*
X64677475Y-31299690D01*
X64677475Y-31299690D02*
X64772713Y-31252071D01*
X64772713Y-31252071D02*
X65010808Y-31252071D01*
X65010808Y-31252071D02*
X65106046Y-31299690D01*
X65106046Y-31299690D02*
X65153665Y-31347309D01*
X65153665Y-31347309D02*
X65201284Y-31442547D01*
X65201284Y-31442547D02*
X65201284Y-31680642D01*
X65201284Y-31680642D02*
X65153665Y-31775880D01*
X65153665Y-31775880D02*
X65106046Y-31823500D01*
X65106046Y-31823500D02*
X65010808Y-31871119D01*
X65010808Y-31871119D02*
X64772713Y-31871119D01*
X64772713Y-31871119D02*
X64677475Y-31823500D01*
X64677475Y-31823500D02*
X64629856Y-31775880D01*
X65582237Y-31585404D02*
X66058427Y-31585404D01*
X65486999Y-31871119D02*
X65820332Y-30871119D01*
X65820332Y-30871119D02*
X66153665Y-31871119D01*
D15*
X98266212Y-110806678D02*
X99123355Y-110806678D01*
X98694783Y-112306678D02*
X98694783Y-110806678D01*
X99623354Y-112306678D02*
X99623354Y-110806678D01*
X99623354Y-111520964D02*
X100480497Y-111520964D01*
X100480497Y-112306678D02*
X100480497Y-110806678D01*
X101194783Y-111520964D02*
X101694783Y-111520964D01*
X101909069Y-112306678D02*
X101194783Y-112306678D01*
X101194783Y-112306678D02*
X101194783Y-110806678D01*
X101194783Y-110806678D02*
X101909069Y-110806678D01*
X103409069Y-112306678D02*
X102909069Y-111592392D01*
X102551926Y-112306678D02*
X102551926Y-110806678D01*
X102551926Y-110806678D02*
X103123355Y-110806678D01*
X103123355Y-110806678D02*
X103266212Y-110878107D01*
X103266212Y-110878107D02*
X103337641Y-110949535D01*
X103337641Y-110949535D02*
X103409069Y-111092392D01*
X103409069Y-111092392D02*
X103409069Y-111306678D01*
X103409069Y-111306678D02*
X103337641Y-111449535D01*
X103337641Y-111449535D02*
X103266212Y-111520964D01*
X103266212Y-111520964D02*
X103123355Y-111592392D01*
X103123355Y-111592392D02*
X102551926Y-111592392D01*
X104051926Y-112306678D02*
X104051926Y-110806678D01*
X104051926Y-110806678D02*
X104551926Y-111878107D01*
X104551926Y-111878107D02*
X105051926Y-110806678D01*
X105051926Y-110806678D02*
X105051926Y-112306678D01*
X105766212Y-112306678D02*
X105766212Y-110806678D01*
X106409070Y-112235250D02*
X106623356Y-112306678D01*
X106623356Y-112306678D02*
X106980498Y-112306678D01*
X106980498Y-112306678D02*
X107123356Y-112235250D01*
X107123356Y-112235250D02*
X107194784Y-112163821D01*
X107194784Y-112163821D02*
X107266213Y-112020964D01*
X107266213Y-112020964D02*
X107266213Y-111878107D01*
X107266213Y-111878107D02*
X107194784Y-111735250D01*
X107194784Y-111735250D02*
X107123356Y-111663821D01*
X107123356Y-111663821D02*
X106980498Y-111592392D01*
X106980498Y-111592392D02*
X106694784Y-111520964D01*
X106694784Y-111520964D02*
X106551927Y-111449535D01*
X106551927Y-111449535D02*
X106480498Y-111378107D01*
X106480498Y-111378107D02*
X106409070Y-111235250D01*
X106409070Y-111235250D02*
X106409070Y-111092392D01*
X106409070Y-111092392D02*
X106480498Y-110949535D01*
X106480498Y-110949535D02*
X106551927Y-110878107D01*
X106551927Y-110878107D02*
X106694784Y-110806678D01*
X106694784Y-110806678D02*
X107051927Y-110806678D01*
X107051927Y-110806678D02*
X107266213Y-110878107D01*
X107694784Y-110806678D02*
X108551927Y-110806678D01*
X108123355Y-112306678D02*
X108123355Y-110806678D01*
X109337641Y-110806678D02*
X109623355Y-110806678D01*
X109623355Y-110806678D02*
X109766212Y-110878107D01*
X109766212Y-110878107D02*
X109909069Y-111020964D01*
X109909069Y-111020964D02*
X109980498Y-111306678D01*
X109980498Y-111306678D02*
X109980498Y-111806678D01*
X109980498Y-111806678D02*
X109909069Y-112092392D01*
X109909069Y-112092392D02*
X109766212Y-112235250D01*
X109766212Y-112235250D02*
X109623355Y-112306678D01*
X109623355Y-112306678D02*
X109337641Y-112306678D01*
X109337641Y-112306678D02*
X109194784Y-112235250D01*
X109194784Y-112235250D02*
X109051926Y-112092392D01*
X109051926Y-112092392D02*
X108980498Y-111806678D01*
X108980498Y-111806678D02*
X108980498Y-111306678D01*
X108980498Y-111306678D02*
X109051926Y-111020964D01*
X109051926Y-111020964D02*
X109194784Y-110878107D01*
X109194784Y-110878107D02*
X109337641Y-110806678D01*
X111480498Y-112306678D02*
X110980498Y-111592392D01*
X110623355Y-112306678D02*
X110623355Y-110806678D01*
X110623355Y-110806678D02*
X111194784Y-110806678D01*
X111194784Y-110806678D02*
X111337641Y-110878107D01*
X111337641Y-110878107D02*
X111409070Y-110949535D01*
X111409070Y-110949535D02*
X111480498Y-111092392D01*
X111480498Y-111092392D02*
X111480498Y-111306678D01*
X111480498Y-111306678D02*
X111409070Y-111449535D01*
X111409070Y-111449535D02*
X111337641Y-111520964D01*
X111337641Y-111520964D02*
X111194784Y-111592392D01*
X111194784Y-111592392D02*
X110623355Y-111592392D01*
D14*
X47272712Y-178466357D02*
X47320331Y-178418738D01*
X47320331Y-178418738D02*
X47415569Y-178371119D01*
X47415569Y-178371119D02*
X47653664Y-178371119D01*
X47653664Y-178371119D02*
X47748902Y-178418738D01*
X47748902Y-178418738D02*
X47796521Y-178466357D01*
X47796521Y-178466357D02*
X47844140Y-178561595D01*
X47844140Y-178561595D02*
X47844140Y-178656833D01*
X47844140Y-178656833D02*
X47796521Y-178799690D01*
X47796521Y-178799690D02*
X47225093Y-179371119D01*
X47225093Y-179371119D02*
X47844140Y-179371119D01*
X48463188Y-178371119D02*
X48558426Y-178371119D01*
X48558426Y-178371119D02*
X48653664Y-178418738D01*
X48653664Y-178418738D02*
X48701283Y-178466357D01*
X48701283Y-178466357D02*
X48748902Y-178561595D01*
X48748902Y-178561595D02*
X48796521Y-178752071D01*
X48796521Y-178752071D02*
X48796521Y-178990166D01*
X48796521Y-178990166D02*
X48748902Y-179180642D01*
X48748902Y-179180642D02*
X48701283Y-179275880D01*
X48701283Y-179275880D02*
X48653664Y-179323500D01*
X48653664Y-179323500D02*
X48558426Y-179371119D01*
X48558426Y-179371119D02*
X48463188Y-179371119D01*
X48463188Y-179371119D02*
X48367950Y-179323500D01*
X48367950Y-179323500D02*
X48320331Y-179275880D01*
X48320331Y-179275880D02*
X48272712Y-179180642D01*
X48272712Y-179180642D02*
X48225093Y-178990166D01*
X48225093Y-178990166D02*
X48225093Y-178752071D01*
X48225093Y-178752071D02*
X48272712Y-178561595D01*
X48272712Y-178561595D02*
X48320331Y-178466357D01*
X48320331Y-178466357D02*
X48367950Y-178418738D01*
X48367950Y-178418738D02*
X48463188Y-178371119D01*
X49177474Y-178466357D02*
X49225093Y-178418738D01*
X49225093Y-178418738D02*
X49320331Y-178371119D01*
X49320331Y-178371119D02*
X49558426Y-178371119D01*
X49558426Y-178371119D02*
X49653664Y-178418738D01*
X49653664Y-178418738D02*
X49701283Y-178466357D01*
X49701283Y-178466357D02*
X49748902Y-178561595D01*
X49748902Y-178561595D02*
X49748902Y-178656833D01*
X49748902Y-178656833D02*
X49701283Y-178799690D01*
X49701283Y-178799690D02*
X49129855Y-179371119D01*
X49129855Y-179371119D02*
X49748902Y-179371119D01*
X50653664Y-178371119D02*
X50177474Y-178371119D01*
X50177474Y-178371119D02*
X50129855Y-178847309D01*
X50129855Y-178847309D02*
X50177474Y-178799690D01*
X50177474Y-178799690D02*
X50272712Y-178752071D01*
X50272712Y-178752071D02*
X50510807Y-178752071D01*
X50510807Y-178752071D02*
X50606045Y-178799690D01*
X50606045Y-178799690D02*
X50653664Y-178847309D01*
X50653664Y-178847309D02*
X50701283Y-178942547D01*
X50701283Y-178942547D02*
X50701283Y-179180642D01*
X50701283Y-179180642D02*
X50653664Y-179275880D01*
X50653664Y-179275880D02*
X50606045Y-179323500D01*
X50606045Y-179323500D02*
X50510807Y-179371119D01*
X50510807Y-179371119D02*
X50272712Y-179371119D01*
X50272712Y-179371119D02*
X50177474Y-179323500D01*
X50177474Y-179323500D02*
X50129855Y-179275880D01*
X51844140Y-178323500D02*
X50986998Y-179609214D01*
X52367950Y-178371119D02*
X52463188Y-178371119D01*
X52463188Y-178371119D02*
X52558426Y-178418738D01*
X52558426Y-178418738D02*
X52606045Y-178466357D01*
X52606045Y-178466357D02*
X52653664Y-178561595D01*
X52653664Y-178561595D02*
X52701283Y-178752071D01*
X52701283Y-178752071D02*
X52701283Y-178990166D01*
X52701283Y-178990166D02*
X52653664Y-179180642D01*
X52653664Y-179180642D02*
X52606045Y-179275880D01*
X52606045Y-179275880D02*
X52558426Y-179323500D01*
X52558426Y-179323500D02*
X52463188Y-179371119D01*
X52463188Y-179371119D02*
X52367950Y-179371119D01*
X52367950Y-179371119D02*
X52272712Y-179323500D01*
X52272712Y-179323500D02*
X52225093Y-179275880D01*
X52225093Y-179275880D02*
X52177474Y-179180642D01*
X52177474Y-179180642D02*
X52129855Y-178990166D01*
X52129855Y-178990166D02*
X52129855Y-178752071D01*
X52129855Y-178752071D02*
X52177474Y-178561595D01*
X52177474Y-178561595D02*
X52225093Y-178466357D01*
X52225093Y-178466357D02*
X52272712Y-178418738D01*
X52272712Y-178418738D02*
X52367950Y-178371119D01*
X53272712Y-178799690D02*
X53177474Y-178752071D01*
X53177474Y-178752071D02*
X53129855Y-178704452D01*
X53129855Y-178704452D02*
X53082236Y-178609214D01*
X53082236Y-178609214D02*
X53082236Y-178561595D01*
X53082236Y-178561595D02*
X53129855Y-178466357D01*
X53129855Y-178466357D02*
X53177474Y-178418738D01*
X53177474Y-178418738D02*
X53272712Y-178371119D01*
X53272712Y-178371119D02*
X53463188Y-178371119D01*
X53463188Y-178371119D02*
X53558426Y-178418738D01*
X53558426Y-178418738D02*
X53606045Y-178466357D01*
X53606045Y-178466357D02*
X53653664Y-178561595D01*
X53653664Y-178561595D02*
X53653664Y-178609214D01*
X53653664Y-178609214D02*
X53606045Y-178704452D01*
X53606045Y-178704452D02*
X53558426Y-178752071D01*
X53558426Y-178752071D02*
X53463188Y-178799690D01*
X53463188Y-178799690D02*
X53272712Y-178799690D01*
X53272712Y-178799690D02*
X53177474Y-178847309D01*
X53177474Y-178847309D02*
X53129855Y-178894928D01*
X53129855Y-178894928D02*
X53082236Y-178990166D01*
X53082236Y-178990166D02*
X53082236Y-179180642D01*
X53082236Y-179180642D02*
X53129855Y-179275880D01*
X53129855Y-179275880D02*
X53177474Y-179323500D01*
X53177474Y-179323500D02*
X53272712Y-179371119D01*
X53272712Y-179371119D02*
X53463188Y-179371119D01*
X53463188Y-179371119D02*
X53558426Y-179323500D01*
X53558426Y-179323500D02*
X53606045Y-179275880D01*
X53606045Y-179275880D02*
X53653664Y-179180642D01*
X53653664Y-179180642D02*
X53653664Y-178990166D01*
X53653664Y-178990166D02*
X53606045Y-178894928D01*
X53606045Y-178894928D02*
X53558426Y-178847309D01*
X53558426Y-178847309D02*
X53463188Y-178799690D01*
X54796521Y-178323500D02*
X53939379Y-179609214D01*
X55320331Y-178371119D02*
X55415569Y-178371119D01*
X55415569Y-178371119D02*
X55510807Y-178418738D01*
X55510807Y-178418738D02*
X55558426Y-178466357D01*
X55558426Y-178466357D02*
X55606045Y-178561595D01*
X55606045Y-178561595D02*
X55653664Y-178752071D01*
X55653664Y-178752071D02*
X55653664Y-178990166D01*
X55653664Y-178990166D02*
X55606045Y-179180642D01*
X55606045Y-179180642D02*
X55558426Y-179275880D01*
X55558426Y-179275880D02*
X55510807Y-179323500D01*
X55510807Y-179323500D02*
X55415569Y-179371119D01*
X55415569Y-179371119D02*
X55320331Y-179371119D01*
X55320331Y-179371119D02*
X55225093Y-179323500D01*
X55225093Y-179323500D02*
X55177474Y-179275880D01*
X55177474Y-179275880D02*
X55129855Y-179180642D01*
X55129855Y-179180642D02*
X55082236Y-178990166D01*
X55082236Y-178990166D02*
X55082236Y-178752071D01*
X55082236Y-178752071D02*
X55129855Y-178561595D01*
X55129855Y-178561595D02*
X55177474Y-178466357D01*
X55177474Y-178466357D02*
X55225093Y-178418738D01*
X55225093Y-178418738D02*
X55320331Y-178371119D01*
X55986998Y-178371119D02*
X56653664Y-178371119D01*
X56653664Y-178371119D02*
X56225093Y-179371119D01*
X97772712Y-178466357D02*
X97820331Y-178418738D01*
X97820331Y-178418738D02*
X97915569Y-178371119D01*
X97915569Y-178371119D02*
X98153664Y-178371119D01*
X98153664Y-178371119D02*
X98248902Y-178418738D01*
X98248902Y-178418738D02*
X98296521Y-178466357D01*
X98296521Y-178466357D02*
X98344140Y-178561595D01*
X98344140Y-178561595D02*
X98344140Y-178656833D01*
X98344140Y-178656833D02*
X98296521Y-178799690D01*
X98296521Y-178799690D02*
X97725093Y-179371119D01*
X97725093Y-179371119D02*
X98344140Y-179371119D01*
X99201283Y-178704452D02*
X99201283Y-179371119D01*
X98963188Y-178323500D02*
X98725093Y-179037785D01*
X98725093Y-179037785D02*
X99344140Y-179037785D01*
X99582236Y-178371119D02*
X99915569Y-179371119D01*
X99915569Y-179371119D02*
X100248902Y-178371119D01*
X101867950Y-179371119D02*
X101296522Y-179371119D01*
X101582236Y-179371119D02*
X101582236Y-178371119D01*
X101582236Y-178371119D02*
X101486998Y-178513976D01*
X101486998Y-178513976D02*
X101391760Y-178609214D01*
X101391760Y-178609214D02*
X101296522Y-178656833D01*
X102486998Y-178371119D02*
X102582236Y-178371119D01*
X102582236Y-178371119D02*
X102677474Y-178418738D01*
X102677474Y-178418738D02*
X102725093Y-178466357D01*
X102725093Y-178466357D02*
X102772712Y-178561595D01*
X102772712Y-178561595D02*
X102820331Y-178752071D01*
X102820331Y-178752071D02*
X102820331Y-178990166D01*
X102820331Y-178990166D02*
X102772712Y-179180642D01*
X102772712Y-179180642D02*
X102725093Y-179275880D01*
X102725093Y-179275880D02*
X102677474Y-179323500D01*
X102677474Y-179323500D02*
X102582236Y-179371119D01*
X102582236Y-179371119D02*
X102486998Y-179371119D01*
X102486998Y-179371119D02*
X102391760Y-179323500D01*
X102391760Y-179323500D02*
X102344141Y-179275880D01*
X102344141Y-179275880D02*
X102296522Y-179180642D01*
X102296522Y-179180642D02*
X102248903Y-178990166D01*
X102248903Y-178990166D02*
X102248903Y-178752071D01*
X102248903Y-178752071D02*
X102296522Y-178561595D01*
X102296522Y-178561595D02*
X102344141Y-178466357D01*
X102344141Y-178466357D02*
X102391760Y-178418738D01*
X102391760Y-178418738D02*
X102486998Y-178371119D01*
X103439379Y-178371119D02*
X103534617Y-178371119D01*
X103534617Y-178371119D02*
X103629855Y-178418738D01*
X103629855Y-178418738D02*
X103677474Y-178466357D01*
X103677474Y-178466357D02*
X103725093Y-178561595D01*
X103725093Y-178561595D02*
X103772712Y-178752071D01*
X103772712Y-178752071D02*
X103772712Y-178990166D01*
X103772712Y-178990166D02*
X103725093Y-179180642D01*
X103725093Y-179180642D02*
X103677474Y-179275880D01*
X103677474Y-179275880D02*
X103629855Y-179323500D01*
X103629855Y-179323500D02*
X103534617Y-179371119D01*
X103534617Y-179371119D02*
X103439379Y-179371119D01*
X103439379Y-179371119D02*
X103344141Y-179323500D01*
X103344141Y-179323500D02*
X103296522Y-179275880D01*
X103296522Y-179275880D02*
X103248903Y-179180642D01*
X103248903Y-179180642D02*
X103201284Y-178990166D01*
X103201284Y-178990166D02*
X103201284Y-178752071D01*
X103201284Y-178752071D02*
X103248903Y-178561595D01*
X103248903Y-178561595D02*
X103296522Y-178466357D01*
X103296522Y-178466357D02*
X103344141Y-178418738D01*
X103344141Y-178418738D02*
X103439379Y-178371119D01*
X104106046Y-178371119D02*
X104344141Y-179371119D01*
X104344141Y-179371119D02*
X104534617Y-178656833D01*
X104534617Y-178656833D02*
X104725093Y-179371119D01*
X104725093Y-179371119D02*
X104963189Y-178371119D01*
X106106046Y-179371119D02*
X106106046Y-178371119D01*
X106106046Y-178371119D02*
X106439379Y-179085404D01*
X106439379Y-179085404D02*
X106772712Y-178371119D01*
X106772712Y-178371119D02*
X106772712Y-179371119D01*
X107201284Y-179085404D02*
X107677474Y-179085404D01*
X107106046Y-179371119D02*
X107439379Y-178371119D01*
X107439379Y-178371119D02*
X107772712Y-179371119D01*
X108010808Y-178371119D02*
X108677474Y-179371119D01*
X108677474Y-178371119D02*
X108010808Y-179371119D01*
X110296522Y-178371119D02*
X109820332Y-178371119D01*
X109820332Y-178371119D02*
X109772713Y-178847309D01*
X109772713Y-178847309D02*
X109820332Y-178799690D01*
X109820332Y-178799690D02*
X109915570Y-178752071D01*
X109915570Y-178752071D02*
X110153665Y-178752071D01*
X110153665Y-178752071D02*
X110248903Y-178799690D01*
X110248903Y-178799690D02*
X110296522Y-178847309D01*
X110296522Y-178847309D02*
X110344141Y-178942547D01*
X110344141Y-178942547D02*
X110344141Y-179180642D01*
X110344141Y-179180642D02*
X110296522Y-179275880D01*
X110296522Y-179275880D02*
X110248903Y-179323500D01*
X110248903Y-179323500D02*
X110153665Y-179371119D01*
X110153665Y-179371119D02*
X109915570Y-179371119D01*
X109915570Y-179371119D02*
X109820332Y-179323500D01*
X109820332Y-179323500D02*
X109772713Y-179275880D01*
X110725094Y-179085404D02*
X111201284Y-179085404D01*
X110629856Y-179371119D02*
X110963189Y-178371119D01*
X110963189Y-178371119D02*
X111296522Y-179371119D01*
X165344140Y-30918738D02*
X165248902Y-30871119D01*
X165248902Y-30871119D02*
X165106045Y-30871119D01*
X165106045Y-30871119D02*
X164963188Y-30918738D01*
X164963188Y-30918738D02*
X164867950Y-31013976D01*
X164867950Y-31013976D02*
X164820331Y-31109214D01*
X164820331Y-31109214D02*
X164772712Y-31299690D01*
X164772712Y-31299690D02*
X164772712Y-31442547D01*
X164772712Y-31442547D02*
X164820331Y-31633023D01*
X164820331Y-31633023D02*
X164867950Y-31728261D01*
X164867950Y-31728261D02*
X164963188Y-31823500D01*
X164963188Y-31823500D02*
X165106045Y-31871119D01*
X165106045Y-31871119D02*
X165201283Y-31871119D01*
X165201283Y-31871119D02*
X165344140Y-31823500D01*
X165344140Y-31823500D02*
X165391759Y-31775880D01*
X165391759Y-31775880D02*
X165391759Y-31442547D01*
X165391759Y-31442547D02*
X165201283Y-31442547D01*
X166201283Y-31823500D02*
X166106045Y-31871119D01*
X166106045Y-31871119D02*
X165915569Y-31871119D01*
X165915569Y-31871119D02*
X165820331Y-31823500D01*
X165820331Y-31823500D02*
X165772712Y-31728261D01*
X165772712Y-31728261D02*
X165772712Y-31347309D01*
X165772712Y-31347309D02*
X165820331Y-31252071D01*
X165820331Y-31252071D02*
X165915569Y-31204452D01*
X165915569Y-31204452D02*
X166106045Y-31204452D01*
X166106045Y-31204452D02*
X166201283Y-31252071D01*
X166201283Y-31252071D02*
X166248902Y-31347309D01*
X166248902Y-31347309D02*
X166248902Y-31442547D01*
X166248902Y-31442547D02*
X165772712Y-31537785D01*
X167058426Y-31823500D02*
X166963188Y-31871119D01*
X166963188Y-31871119D02*
X166772712Y-31871119D01*
X166772712Y-31871119D02*
X166677474Y-31823500D01*
X166677474Y-31823500D02*
X166629855Y-31728261D01*
X166629855Y-31728261D02*
X166629855Y-31347309D01*
X166629855Y-31347309D02*
X166677474Y-31252071D01*
X166677474Y-31252071D02*
X166772712Y-31204452D01*
X166772712Y-31204452D02*
X166963188Y-31204452D01*
X166963188Y-31204452D02*
X167058426Y-31252071D01*
X167058426Y-31252071D02*
X167106045Y-31347309D01*
X167106045Y-31347309D02*
X167106045Y-31442547D01*
X167106045Y-31442547D02*
X166629855Y-31537785D01*
X167534617Y-31204452D02*
X167534617Y-31871119D01*
X167534617Y-31299690D02*
X167582236Y-31252071D01*
X167582236Y-31252071D02*
X167677474Y-31204452D01*
X167677474Y-31204452D02*
X167820331Y-31204452D01*
X167820331Y-31204452D02*
X167915569Y-31252071D01*
X167915569Y-31252071D02*
X167963188Y-31347309D01*
X167963188Y-31347309D02*
X167963188Y-31871119D01*
X168439379Y-31871119D02*
X168439379Y-30871119D01*
X168534617Y-31490166D02*
X168820331Y-31871119D01*
X168820331Y-31204452D02*
X168439379Y-31585404D01*
X170010808Y-31347309D02*
X170344141Y-31347309D01*
X170486998Y-31871119D02*
X170010808Y-31871119D01*
X170010808Y-31871119D02*
X170010808Y-30871119D01*
X170010808Y-30871119D02*
X170486998Y-30871119D01*
X170915570Y-31204452D02*
X170915570Y-31871119D01*
X170915570Y-31299690D02*
X170963189Y-31252071D01*
X170963189Y-31252071D02*
X171058427Y-31204452D01*
X171058427Y-31204452D02*
X171201284Y-31204452D01*
X171201284Y-31204452D02*
X171296522Y-31252071D01*
X171296522Y-31252071D02*
X171344141Y-31347309D01*
X171344141Y-31347309D02*
X171344141Y-31871119D01*
X172248903Y-31204452D02*
X172248903Y-32013976D01*
X172248903Y-32013976D02*
X172201284Y-32109214D01*
X172201284Y-32109214D02*
X172153665Y-32156833D01*
X172153665Y-32156833D02*
X172058427Y-32204452D01*
X172058427Y-32204452D02*
X171915570Y-32204452D01*
X171915570Y-32204452D02*
X171820332Y-32156833D01*
X172248903Y-31823500D02*
X172153665Y-31871119D01*
X172153665Y-31871119D02*
X171963189Y-31871119D01*
X171963189Y-31871119D02*
X171867951Y-31823500D01*
X171867951Y-31823500D02*
X171820332Y-31775880D01*
X171820332Y-31775880D02*
X171772713Y-31680642D01*
X171772713Y-31680642D02*
X171772713Y-31394928D01*
X171772713Y-31394928D02*
X171820332Y-31299690D01*
X171820332Y-31299690D02*
X171867951Y-31252071D01*
X171867951Y-31252071D02*
X171963189Y-31204452D01*
X171963189Y-31204452D02*
X172153665Y-31204452D01*
X172153665Y-31204452D02*
X172248903Y-31252071D01*
X172725094Y-31871119D02*
X172725094Y-31204452D01*
X172725094Y-30871119D02*
X172677475Y-30918738D01*
X172677475Y-30918738D02*
X172725094Y-30966357D01*
X172725094Y-30966357D02*
X172772713Y-30918738D01*
X172772713Y-30918738D02*
X172725094Y-30871119D01*
X172725094Y-30871119D02*
X172725094Y-30966357D01*
X173201284Y-31204452D02*
X173201284Y-31871119D01*
X173201284Y-31299690D02*
X173248903Y-31252071D01*
X173248903Y-31252071D02*
X173344141Y-31204452D01*
X173344141Y-31204452D02*
X173486998Y-31204452D01*
X173486998Y-31204452D02*
X173582236Y-31252071D01*
X173582236Y-31252071D02*
X173629855Y-31347309D01*
X173629855Y-31347309D02*
X173629855Y-31871119D01*
X174486998Y-31823500D02*
X174391760Y-31871119D01*
X174391760Y-31871119D02*
X174201284Y-31871119D01*
X174201284Y-31871119D02*
X174106046Y-31823500D01*
X174106046Y-31823500D02*
X174058427Y-31728261D01*
X174058427Y-31728261D02*
X174058427Y-31347309D01*
X174058427Y-31347309D02*
X174106046Y-31252071D01*
X174106046Y-31252071D02*
X174201284Y-31204452D01*
X174201284Y-31204452D02*
X174391760Y-31204452D01*
X174391760Y-31204452D02*
X174486998Y-31252071D01*
X174486998Y-31252071D02*
X174534617Y-31347309D01*
X174534617Y-31347309D02*
X174534617Y-31442547D01*
X174534617Y-31442547D02*
X174058427Y-31537785D01*
X175344141Y-31823500D02*
X175248903Y-31871119D01*
X175248903Y-31871119D02*
X175058427Y-31871119D01*
X175058427Y-31871119D02*
X174963189Y-31823500D01*
X174963189Y-31823500D02*
X174915570Y-31728261D01*
X174915570Y-31728261D02*
X174915570Y-31347309D01*
X174915570Y-31347309D02*
X174963189Y-31252071D01*
X174963189Y-31252071D02*
X175058427Y-31204452D01*
X175058427Y-31204452D02*
X175248903Y-31204452D01*
X175248903Y-31204452D02*
X175344141Y-31252071D01*
X175344141Y-31252071D02*
X175391760Y-31347309D01*
X175391760Y-31347309D02*
X175391760Y-31442547D01*
X175391760Y-31442547D02*
X174915570Y-31537785D01*
X175820332Y-31871119D02*
X175820332Y-31204452D01*
X175820332Y-31394928D02*
X175867951Y-31299690D01*
X175867951Y-31299690D02*
X175915570Y-31252071D01*
X175915570Y-31252071D02*
X176010808Y-31204452D01*
X176010808Y-31204452D02*
X176106046Y-31204452D01*
X176439380Y-31871119D02*
X176439380Y-31204452D01*
X176439380Y-30871119D02*
X176391761Y-30918738D01*
X176391761Y-30918738D02*
X176439380Y-30966357D01*
X176439380Y-30966357D02*
X176486999Y-30918738D01*
X176486999Y-30918738D02*
X176439380Y-30871119D01*
X176439380Y-30871119D02*
X176439380Y-30966357D01*
X176915570Y-31204452D02*
X176915570Y-31871119D01*
X176915570Y-31299690D02*
X176963189Y-31252071D01*
X176963189Y-31252071D02*
X177058427Y-31204452D01*
X177058427Y-31204452D02*
X177201284Y-31204452D01*
X177201284Y-31204452D02*
X177296522Y-31252071D01*
X177296522Y-31252071D02*
X177344141Y-31347309D01*
X177344141Y-31347309D02*
X177344141Y-31871119D01*
X178248903Y-31204452D02*
X178248903Y-32013976D01*
X178248903Y-32013976D02*
X178201284Y-32109214D01*
X178201284Y-32109214D02*
X178153665Y-32156833D01*
X178153665Y-32156833D02*
X178058427Y-32204452D01*
X178058427Y-32204452D02*
X177915570Y-32204452D01*
X177915570Y-32204452D02*
X177820332Y-32156833D01*
X178248903Y-31823500D02*
X178153665Y-31871119D01*
X178153665Y-31871119D02*
X177963189Y-31871119D01*
X177963189Y-31871119D02*
X177867951Y-31823500D01*
X177867951Y-31823500D02*
X177820332Y-31775880D01*
X177820332Y-31775880D02*
X177772713Y-31680642D01*
X177772713Y-31680642D02*
X177772713Y-31394928D01*
X177772713Y-31394928D02*
X177820332Y-31299690D01*
X177820332Y-31299690D02*
X177867951Y-31252071D01*
X177867951Y-31252071D02*
X177963189Y-31204452D01*
X177963189Y-31204452D02*
X178153665Y-31204452D01*
X178153665Y-31204452D02*
X178248903Y-31252071D01*
X39891759Y-179371119D02*
X39558426Y-178894928D01*
X39320331Y-179371119D02*
X39320331Y-178371119D01*
X39320331Y-178371119D02*
X39701283Y-178371119D01*
X39701283Y-178371119D02*
X39796521Y-178418738D01*
X39796521Y-178418738D02*
X39844140Y-178466357D01*
X39844140Y-178466357D02*
X39891759Y-178561595D01*
X39891759Y-178561595D02*
X39891759Y-178704452D01*
X39891759Y-178704452D02*
X39844140Y-178799690D01*
X39844140Y-178799690D02*
X39796521Y-178847309D01*
X39796521Y-178847309D02*
X39701283Y-178894928D01*
X39701283Y-178894928D02*
X39320331Y-178894928D01*
X40320331Y-178847309D02*
X40653664Y-178847309D01*
X40796521Y-179371119D02*
X40320331Y-179371119D01*
X40320331Y-179371119D02*
X40320331Y-178371119D01*
X40320331Y-178371119D02*
X40796521Y-178371119D01*
X41082236Y-178371119D02*
X41415569Y-179371119D01*
X41415569Y-179371119D02*
X41748902Y-178371119D01*
X43367950Y-179371119D02*
X42796522Y-179371119D01*
X43082236Y-179371119D02*
X43082236Y-178371119D01*
X43082236Y-178371119D02*
X42986998Y-178513976D01*
X42986998Y-178513976D02*
X42891760Y-178609214D01*
X42891760Y-178609214D02*
X42796522Y-178656833D01*
X43748903Y-179085404D02*
X44225093Y-179085404D01*
X43653665Y-179371119D02*
X43986998Y-178371119D01*
X43986998Y-178371119D02*
X44320331Y-179371119D01*
D15*
X72730497Y-88020964D02*
X72230497Y-88020964D01*
X72230497Y-88806678D02*
X72230497Y-87306678D01*
X72230497Y-87306678D02*
X72944783Y-87306678D01*
X73516211Y-87306678D02*
X73516211Y-88520964D01*
X73516211Y-88520964D02*
X73587640Y-88663821D01*
X73587640Y-88663821D02*
X73659069Y-88735250D01*
X73659069Y-88735250D02*
X73801926Y-88806678D01*
X73801926Y-88806678D02*
X74087640Y-88806678D01*
X74087640Y-88806678D02*
X74230497Y-88735250D01*
X74230497Y-88735250D02*
X74301926Y-88663821D01*
X74301926Y-88663821D02*
X74373354Y-88520964D01*
X74373354Y-88520964D02*
X74373354Y-87306678D01*
X75016212Y-88735250D02*
X75230498Y-88806678D01*
X75230498Y-88806678D02*
X75587640Y-88806678D01*
X75587640Y-88806678D02*
X75730498Y-88735250D01*
X75730498Y-88735250D02*
X75801926Y-88663821D01*
X75801926Y-88663821D02*
X75873355Y-88520964D01*
X75873355Y-88520964D02*
X75873355Y-88378107D01*
X75873355Y-88378107D02*
X75801926Y-88235250D01*
X75801926Y-88235250D02*
X75730498Y-88163821D01*
X75730498Y-88163821D02*
X75587640Y-88092392D01*
X75587640Y-88092392D02*
X75301926Y-88020964D01*
X75301926Y-88020964D02*
X75159069Y-87949535D01*
X75159069Y-87949535D02*
X75087640Y-87878107D01*
X75087640Y-87878107D02*
X75016212Y-87735250D01*
X75016212Y-87735250D02*
X75016212Y-87592392D01*
X75016212Y-87592392D02*
X75087640Y-87449535D01*
X75087640Y-87449535D02*
X75159069Y-87378107D01*
X75159069Y-87378107D02*
X75301926Y-87306678D01*
X75301926Y-87306678D02*
X75659069Y-87306678D01*
X75659069Y-87306678D02*
X75873355Y-87378107D01*
X76516211Y-88020964D02*
X77016211Y-88020964D01*
X77230497Y-88806678D02*
X76516211Y-88806678D01*
X76516211Y-88806678D02*
X76516211Y-87306678D01*
X76516211Y-87306678D02*
X77230497Y-87306678D01*
D10*
X31953006Y-41093409D02*
X31619673Y-41093409D01*
X31619673Y-41617219D02*
X31619673Y-40617219D01*
X31619673Y-40617219D02*
X32095863Y-40617219D01*
X32476816Y-40617219D02*
X32476816Y-41426742D01*
X32476816Y-41426742D02*
X32524435Y-41521980D01*
X32524435Y-41521980D02*
X32572054Y-41569600D01*
X32572054Y-41569600D02*
X32667292Y-41617219D01*
X32667292Y-41617219D02*
X32857768Y-41617219D01*
X32857768Y-41617219D02*
X32953006Y-41569600D01*
X32953006Y-41569600D02*
X33000625Y-41521980D01*
X33000625Y-41521980D02*
X33048244Y-41426742D01*
X33048244Y-41426742D02*
X33048244Y-40617219D01*
X33476816Y-41569600D02*
X33619673Y-41617219D01*
X33619673Y-41617219D02*
X33857768Y-41617219D01*
X33857768Y-41617219D02*
X33953006Y-41569600D01*
X33953006Y-41569600D02*
X34000625Y-41521980D01*
X34000625Y-41521980D02*
X34048244Y-41426742D01*
X34048244Y-41426742D02*
X34048244Y-41331504D01*
X34048244Y-41331504D02*
X34000625Y-41236266D01*
X34000625Y-41236266D02*
X33953006Y-41188647D01*
X33953006Y-41188647D02*
X33857768Y-41141028D01*
X33857768Y-41141028D02*
X33667292Y-41093409D01*
X33667292Y-41093409D02*
X33572054Y-41045790D01*
X33572054Y-41045790D02*
X33524435Y-40998171D01*
X33524435Y-40998171D02*
X33476816Y-40902933D01*
X33476816Y-40902933D02*
X33476816Y-40807695D01*
X33476816Y-40807695D02*
X33524435Y-40712457D01*
X33524435Y-40712457D02*
X33572054Y-40664838D01*
X33572054Y-40664838D02*
X33667292Y-40617219D01*
X33667292Y-40617219D02*
X33905387Y-40617219D01*
X33905387Y-40617219D02*
X34048244Y-40664838D01*
X34476816Y-41093409D02*
X34810149Y-41093409D01*
X34953006Y-41617219D02*
X34476816Y-41617219D01*
X34476816Y-41617219D02*
X34476816Y-40617219D01*
X34476816Y-40617219D02*
X34953006Y-40617219D01*
X44414838Y-43106517D02*
X44367219Y-43201755D01*
X44367219Y-43201755D02*
X44367219Y-43344612D01*
X44367219Y-43344612D02*
X44414838Y-43487469D01*
X44414838Y-43487469D02*
X44510076Y-43582707D01*
X44510076Y-43582707D02*
X44605314Y-43630326D01*
X44605314Y-43630326D02*
X44795790Y-43677945D01*
X44795790Y-43677945D02*
X44938647Y-43677945D01*
X44938647Y-43677945D02*
X45129123Y-43630326D01*
X45129123Y-43630326D02*
X45224361Y-43582707D01*
X45224361Y-43582707D02*
X45319600Y-43487469D01*
X45319600Y-43487469D02*
X45367219Y-43344612D01*
X45367219Y-43344612D02*
X45367219Y-43249374D01*
X45367219Y-43249374D02*
X45319600Y-43106517D01*
X45319600Y-43106517D02*
X45271980Y-43058898D01*
X45271980Y-43058898D02*
X44938647Y-43058898D01*
X44938647Y-43058898D02*
X44938647Y-43249374D01*
X45367219Y-42630326D02*
X44367219Y-42630326D01*
X44367219Y-42630326D02*
X45367219Y-42058898D01*
X45367219Y-42058898D02*
X44367219Y-42058898D01*
X45367219Y-41582707D02*
X44367219Y-41582707D01*
X44367219Y-41582707D02*
X44367219Y-41344612D01*
X44367219Y-41344612D02*
X44414838Y-41201755D01*
X44414838Y-41201755D02*
X44510076Y-41106517D01*
X44510076Y-41106517D02*
X44605314Y-41058898D01*
X44605314Y-41058898D02*
X44795790Y-41011279D01*
X44795790Y-41011279D02*
X44938647Y-41011279D01*
X44938647Y-41011279D02*
X45129123Y-41058898D01*
X45129123Y-41058898D02*
X45224361Y-41106517D01*
X45224361Y-41106517D02*
X45319600Y-41201755D01*
X45319600Y-41201755D02*
X45367219Y-41344612D01*
X45367219Y-41344612D02*
X45367219Y-41582707D01*
X33212457Y-52927945D02*
X33164838Y-52880326D01*
X33164838Y-52880326D02*
X33117219Y-52785088D01*
X33117219Y-52785088D02*
X33117219Y-52546993D01*
X33117219Y-52546993D02*
X33164838Y-52451755D01*
X33164838Y-52451755D02*
X33212457Y-52404136D01*
X33212457Y-52404136D02*
X33307695Y-52356517D01*
X33307695Y-52356517D02*
X33402933Y-52356517D01*
X33402933Y-52356517D02*
X33545790Y-52404136D01*
X33545790Y-52404136D02*
X34117219Y-52975564D01*
X34117219Y-52975564D02*
X34117219Y-52356517D01*
X33450552Y-51499374D02*
X34117219Y-51499374D01*
X33069600Y-51737469D02*
X33783885Y-51975564D01*
X33783885Y-51975564D02*
X33783885Y-51356517D01*
X33117219Y-51118421D02*
X34117219Y-50785088D01*
X34117219Y-50785088D02*
X33117219Y-50451755D01*
D12*
X42695489Y-33520600D02*
X41552632Y-33520600D01*
D16*
X65976191Y-139454819D02*
X65976191Y-138454819D01*
X65976191Y-138454819D02*
X66309524Y-139169104D01*
X66309524Y-139169104D02*
X66642857Y-138454819D01*
X66642857Y-138454819D02*
X66642857Y-139454819D01*
X67071429Y-138550057D02*
X67119048Y-138502438D01*
X67119048Y-138502438D02*
X67214286Y-138454819D01*
X67214286Y-138454819D02*
X67452381Y-138454819D01*
X67452381Y-138454819D02*
X67547619Y-138502438D01*
X67547619Y-138502438D02*
X67595238Y-138550057D01*
X67595238Y-138550057D02*
X67642857Y-138645295D01*
X67642857Y-138645295D02*
X67642857Y-138740533D01*
X67642857Y-138740533D02*
X67595238Y-138883390D01*
X67595238Y-138883390D02*
X67023810Y-139454819D01*
X67023810Y-139454819D02*
X67642857Y-139454819D01*
X68071429Y-139359580D02*
X68119048Y-139407200D01*
X68119048Y-139407200D02*
X68071429Y-139454819D01*
X68071429Y-139454819D02*
X68023810Y-139407200D01*
X68023810Y-139407200D02*
X68071429Y-139359580D01*
X68071429Y-139359580D02*
X68071429Y-139454819D01*
X69023809Y-138454819D02*
X68547619Y-138454819D01*
X68547619Y-138454819D02*
X68500000Y-138931009D01*
X68500000Y-138931009D02*
X68547619Y-138883390D01*
X68547619Y-138883390D02*
X68642857Y-138835771D01*
X68642857Y-138835771D02*
X68880952Y-138835771D01*
X68880952Y-138835771D02*
X68976190Y-138883390D01*
X68976190Y-138883390D02*
X69023809Y-138931009D01*
X69023809Y-138931009D02*
X69071428Y-139026247D01*
X69071428Y-139026247D02*
X69071428Y-139264342D01*
X69071428Y-139264342D02*
X69023809Y-139359580D01*
X69023809Y-139359580D02*
X68976190Y-139407200D01*
X68976190Y-139407200D02*
X68880952Y-139454819D01*
X68880952Y-139454819D02*
X68642857Y-139454819D01*
X68642857Y-139454819D02*
X68547619Y-139407200D01*
X68547619Y-139407200D02*
X68500000Y-139359580D01*
X65976191Y-64454819D02*
X65976191Y-63454819D01*
X65976191Y-63454819D02*
X66309524Y-64169104D01*
X66309524Y-64169104D02*
X66642857Y-63454819D01*
X66642857Y-63454819D02*
X66642857Y-64454819D01*
X67071429Y-63550057D02*
X67119048Y-63502438D01*
X67119048Y-63502438D02*
X67214286Y-63454819D01*
X67214286Y-63454819D02*
X67452381Y-63454819D01*
X67452381Y-63454819D02*
X67547619Y-63502438D01*
X67547619Y-63502438D02*
X67595238Y-63550057D01*
X67595238Y-63550057D02*
X67642857Y-63645295D01*
X67642857Y-63645295D02*
X67642857Y-63740533D01*
X67642857Y-63740533D02*
X67595238Y-63883390D01*
X67595238Y-63883390D02*
X67023810Y-64454819D01*
X67023810Y-64454819D02*
X67642857Y-64454819D01*
X68071429Y-64359580D02*
X68119048Y-64407200D01*
X68119048Y-64407200D02*
X68071429Y-64454819D01*
X68071429Y-64454819D02*
X68023810Y-64407200D01*
X68023810Y-64407200D02*
X68071429Y-64359580D01*
X68071429Y-64359580D02*
X68071429Y-64454819D01*
X69023809Y-63454819D02*
X68547619Y-63454819D01*
X68547619Y-63454819D02*
X68500000Y-63931009D01*
X68500000Y-63931009D02*
X68547619Y-63883390D01*
X68547619Y-63883390D02*
X68642857Y-63835771D01*
X68642857Y-63835771D02*
X68880952Y-63835771D01*
X68880952Y-63835771D02*
X68976190Y-63883390D01*
X68976190Y-63883390D02*
X69023809Y-63931009D01*
X69023809Y-63931009D02*
X69071428Y-64026247D01*
X69071428Y-64026247D02*
X69071428Y-64264342D01*
X69071428Y-64264342D02*
X69023809Y-64359580D01*
X69023809Y-64359580D02*
X68976190Y-64407200D01*
X68976190Y-64407200D02*
X68880952Y-64454819D01*
X68880952Y-64454819D02*
X68642857Y-64454819D01*
X68642857Y-64454819D02*
X68547619Y-64407200D01*
X68547619Y-64407200D02*
X68500000Y-64359580D01*
X140976191Y-139454819D02*
X140976191Y-138454819D01*
X140976191Y-138454819D02*
X141309524Y-139169104D01*
X141309524Y-139169104D02*
X141642857Y-138454819D01*
X141642857Y-138454819D02*
X141642857Y-139454819D01*
X142071429Y-138550057D02*
X142119048Y-138502438D01*
X142119048Y-138502438D02*
X142214286Y-138454819D01*
X142214286Y-138454819D02*
X142452381Y-138454819D01*
X142452381Y-138454819D02*
X142547619Y-138502438D01*
X142547619Y-138502438D02*
X142595238Y-138550057D01*
X142595238Y-138550057D02*
X142642857Y-138645295D01*
X142642857Y-138645295D02*
X142642857Y-138740533D01*
X142642857Y-138740533D02*
X142595238Y-138883390D01*
X142595238Y-138883390D02*
X142023810Y-139454819D01*
X142023810Y-139454819D02*
X142642857Y-139454819D01*
X143071429Y-139359580D02*
X143119048Y-139407200D01*
X143119048Y-139407200D02*
X143071429Y-139454819D01*
X143071429Y-139454819D02*
X143023810Y-139407200D01*
X143023810Y-139407200D02*
X143071429Y-139359580D01*
X143071429Y-139359580D02*
X143071429Y-139454819D01*
X144023809Y-138454819D02*
X143547619Y-138454819D01*
X143547619Y-138454819D02*
X143500000Y-138931009D01*
X143500000Y-138931009D02*
X143547619Y-138883390D01*
X143547619Y-138883390D02*
X143642857Y-138835771D01*
X143642857Y-138835771D02*
X143880952Y-138835771D01*
X143880952Y-138835771D02*
X143976190Y-138883390D01*
X143976190Y-138883390D02*
X144023809Y-138931009D01*
X144023809Y-138931009D02*
X144071428Y-139026247D01*
X144071428Y-139026247D02*
X144071428Y-139264342D01*
X144071428Y-139264342D02*
X144023809Y-139359580D01*
X144023809Y-139359580D02*
X143976190Y-139407200D01*
X143976190Y-139407200D02*
X143880952Y-139454819D01*
X143880952Y-139454819D02*
X143642857Y-139454819D01*
X143642857Y-139454819D02*
X143547619Y-139407200D01*
X143547619Y-139407200D02*
X143500000Y-139359580D01*
X140976191Y-64454819D02*
X140976191Y-63454819D01*
X140976191Y-63454819D02*
X141309524Y-64169104D01*
X141309524Y-64169104D02*
X141642857Y-63454819D01*
X141642857Y-63454819D02*
X141642857Y-64454819D01*
X142071429Y-63550057D02*
X142119048Y-63502438D01*
X142119048Y-63502438D02*
X142214286Y-63454819D01*
X142214286Y-63454819D02*
X142452381Y-63454819D01*
X142452381Y-63454819D02*
X142547619Y-63502438D01*
X142547619Y-63502438D02*
X142595238Y-63550057D01*
X142595238Y-63550057D02*
X142642857Y-63645295D01*
X142642857Y-63645295D02*
X142642857Y-63740533D01*
X142642857Y-63740533D02*
X142595238Y-63883390D01*
X142595238Y-63883390D02*
X142023810Y-64454819D01*
X142023810Y-64454819D02*
X142642857Y-64454819D01*
X143071429Y-64359580D02*
X143119048Y-64407200D01*
X143119048Y-64407200D02*
X143071429Y-64454819D01*
X143071429Y-64454819D02*
X143023810Y-64407200D01*
X143023810Y-64407200D02*
X143071429Y-64359580D01*
X143071429Y-64359580D02*
X143071429Y-64454819D01*
X144023809Y-63454819D02*
X143547619Y-63454819D01*
X143547619Y-63454819D02*
X143500000Y-63931009D01*
X143500000Y-63931009D02*
X143547619Y-63883390D01*
X143547619Y-63883390D02*
X143642857Y-63835771D01*
X143642857Y-63835771D02*
X143880952Y-63835771D01*
X143880952Y-63835771D02*
X143976190Y-63883390D01*
X143976190Y-63883390D02*
X144023809Y-63931009D01*
X144023809Y-63931009D02*
X144071428Y-64026247D01*
X144071428Y-64026247D02*
X144071428Y-64264342D01*
X144071428Y-64264342D02*
X144023809Y-64359580D01*
X144023809Y-64359580D02*
X143976190Y-64407200D01*
X143976190Y-64407200D02*
X143880952Y-64454819D01*
X143880952Y-64454819D02*
X143642857Y-64454819D01*
X143642857Y-64454819D02*
X143547619Y-64407200D01*
X143547619Y-64407200D02*
X143500000Y-64359580D01*
D17*
%TO.C,JP2*%
X31500000Y-47100000D02*
X33500000Y-47100000D01*
X31500000Y-49900000D02*
X31500000Y-47100000D01*
X33500000Y-47100000D02*
X33500000Y-49900000D01*
X33500000Y-49900000D02*
X31500000Y-49900000D01*
D18*
%TO.C,REF\u002A\u002A*%
X176391388Y-174437645D02*
X176448865Y-174455206D01*
X176485872Y-174477395D01*
X176497927Y-174494942D01*
X176494609Y-174515742D01*
X176473079Y-174548419D01*
X176454874Y-174571562D01*
X176417344Y-174613402D01*
X176389148Y-174631005D01*
X176365111Y-174629856D01*
X176293808Y-174611710D01*
X176241442Y-174612534D01*
X176198918Y-174633098D01*
X176184642Y-174645134D01*
X176138947Y-174687483D01*
X176138947Y-175240526D01*
X175955131Y-175240526D01*
X175955131Y-174438421D01*
X176047039Y-174438421D01*
X176102219Y-174440603D01*
X176130688Y-174448351D01*
X176138943Y-174463468D01*
X176138947Y-174463916D01*
X176142845Y-174479749D01*
X176160474Y-174477684D01*
X176184901Y-174466261D01*
X176235350Y-174445005D01*
X176276316Y-174432216D01*
X176329028Y-174428938D01*
X176391388Y-174437645D01*
G36*
X176391388Y-174437645D02*
G01*
X176448865Y-174455206D01*
X176485872Y-174477395D01*
X176497927Y-174494942D01*
X176494609Y-174515742D01*
X176473079Y-174548419D01*
X176454874Y-174571562D01*
X176417344Y-174613402D01*
X176389148Y-174631005D01*
X176365111Y-174629856D01*
X176293808Y-174611710D01*
X176241442Y-174612534D01*
X176198918Y-174633098D01*
X176184642Y-174645134D01*
X176138947Y-174687483D01*
X176138947Y-175240526D01*
X175955131Y-175240526D01*
X175955131Y-174438421D01*
X176047039Y-174438421D01*
X176102219Y-174440603D01*
X176130688Y-174448351D01*
X176138943Y-174463468D01*
X176138947Y-174463916D01*
X176142845Y-174479749D01*
X176160474Y-174477684D01*
X176184901Y-174466261D01*
X176235350Y-174445005D01*
X176276316Y-174432216D01*
X176329028Y-174428938D01*
X176391388Y-174437645D01*
G37*
X176173167Y-175691447D02*
X176237408Y-175704112D01*
X176273980Y-175722864D01*
X176312453Y-175754017D01*
X176257717Y-175823127D01*
X176223969Y-175864979D01*
X176201053Y-175885398D01*
X176178279Y-175888517D01*
X176144956Y-175878472D01*
X176129314Y-175872789D01*
X176065542Y-175864404D01*
X176007140Y-175882378D01*
X175964264Y-175922982D01*
X175957299Y-175935929D01*
X175949713Y-175970224D01*
X175943859Y-176033427D01*
X175940011Y-176121060D01*
X175938443Y-176228640D01*
X175938421Y-176243944D01*
X175938421Y-176510526D01*
X175754605Y-176510526D01*
X175754605Y-175691710D01*
X175846513Y-175691710D01*
X175899507Y-175693094D01*
X175927115Y-175699252D01*
X175937324Y-175713194D01*
X175938421Y-175726344D01*
X175938421Y-175760978D01*
X175982450Y-175726344D01*
X176032937Y-175702716D01*
X176100760Y-175691033D01*
X176173167Y-175691447D01*
G36*
X176173167Y-175691447D02*
G01*
X176237408Y-175704112D01*
X176273980Y-175722864D01*
X176312453Y-175754017D01*
X176257717Y-175823127D01*
X176223969Y-175864979D01*
X176201053Y-175885398D01*
X176178279Y-175888517D01*
X176144956Y-175878472D01*
X176129314Y-175872789D01*
X176065542Y-175864404D01*
X176007140Y-175882378D01*
X175964264Y-175922982D01*
X175957299Y-175935929D01*
X175949713Y-175970224D01*
X175943859Y-176033427D01*
X175940011Y-176121060D01*
X175938443Y-176228640D01*
X175938421Y-176243944D01*
X175938421Y-176510526D01*
X175754605Y-176510526D01*
X175754605Y-175691710D01*
X175846513Y-175691710D01*
X175899507Y-175693094D01*
X175927115Y-175699252D01*
X175937324Y-175713194D01*
X175938421Y-175726344D01*
X175938421Y-175760978D01*
X175982450Y-175726344D01*
X176032937Y-175702716D01*
X176100760Y-175691033D01*
X176173167Y-175691447D01*
G37*
X172679881Y-175693486D02*
X172704888Y-175700982D01*
X172712950Y-175717451D01*
X172713289Y-175724886D01*
X172714736Y-175745594D01*
X172724698Y-175748845D01*
X172751612Y-175734648D01*
X172767598Y-175724948D01*
X172818033Y-175704175D01*
X172878272Y-175693904D01*
X172941434Y-175693114D01*
X173000637Y-175700786D01*
X173049002Y-175715898D01*
X173079646Y-175737432D01*
X173085689Y-175764366D01*
X173082639Y-175771660D01*
X173060406Y-175801937D01*
X173025930Y-175839175D01*
X173019694Y-175845195D01*
X172986833Y-175872875D01*
X172958480Y-175881818D01*
X172918827Y-175875576D01*
X172902942Y-175871429D01*
X172853509Y-175861467D01*
X172818752Y-175865947D01*
X172789400Y-175881746D01*
X172762513Y-175902949D01*
X172742710Y-175929614D01*
X172728948Y-175966827D01*
X172720184Y-176019673D01*
X172715374Y-176093237D01*
X172713474Y-176192605D01*
X172713289Y-176252601D01*
X172713289Y-176510526D01*
X172546184Y-176510526D01*
X172546184Y-175691710D01*
X172629736Y-175691710D01*
X172679881Y-175693486D01*
G36*
X172679881Y-175693486D02*
G01*
X172704888Y-175700982D01*
X172712950Y-175717451D01*
X172713289Y-175724886D01*
X172714736Y-175745594D01*
X172724698Y-175748845D01*
X172751612Y-175734648D01*
X172767598Y-175724948D01*
X172818033Y-175704175D01*
X172878272Y-175693904D01*
X172941434Y-175693114D01*
X173000637Y-175700786D01*
X173049002Y-175715898D01*
X173079646Y-175737432D01*
X173085689Y-175764366D01*
X173082639Y-175771660D01*
X173060406Y-175801937D01*
X173025930Y-175839175D01*
X173019694Y-175845195D01*
X172986833Y-175872875D01*
X172958480Y-175881818D01*
X172918827Y-175875576D01*
X172902942Y-175871429D01*
X172853509Y-175861467D01*
X172818752Y-175865947D01*
X172789400Y-175881746D01*
X172762513Y-175902949D01*
X172742710Y-175929614D01*
X172728948Y-175966827D01*
X172720184Y-176019673D01*
X172715374Y-176093237D01*
X172713474Y-176192605D01*
X172713289Y-176252601D01*
X172713289Y-176510526D01*
X172546184Y-176510526D01*
X172546184Y-175691710D01*
X172629736Y-175691710D01*
X172679881Y-175693486D01*
G37*
X175320131Y-174698533D02*
X175321710Y-174821089D01*
X175327481Y-174914179D01*
X175338991Y-174981651D01*
X175357790Y-175027355D01*
X175385426Y-175055139D01*
X175423448Y-175068854D01*
X175470526Y-175072358D01*
X175519832Y-175068432D01*
X175557283Y-175054089D01*
X175584428Y-175025478D01*
X175602815Y-174978751D01*
X175613993Y-174910058D01*
X175619511Y-174815550D01*
X175620921Y-174698533D01*
X175620921Y-174438421D01*
X175804736Y-174438421D01*
X175804736Y-175240526D01*
X175712828Y-175240526D01*
X175657422Y-175238281D01*
X175628891Y-175230396D01*
X175620921Y-175215428D01*
X175616120Y-175202097D01*
X175597014Y-175204917D01*
X175558504Y-175223783D01*
X175470239Y-175252887D01*
X175376623Y-175250825D01*
X175286921Y-175219221D01*
X175244204Y-175194257D01*
X175211621Y-175167226D01*
X175187817Y-175133405D01*
X175171439Y-175088068D01*
X175161131Y-175026489D01*
X175155541Y-174943943D01*
X175153312Y-174835705D01*
X175153026Y-174752004D01*
X175153026Y-174438421D01*
X175320131Y-174438421D01*
X175320131Y-174698533D01*
G36*
X175320131Y-174698533D02*
G01*
X175321710Y-174821089D01*
X175327481Y-174914179D01*
X175338991Y-174981651D01*
X175357790Y-175027355D01*
X175385426Y-175055139D01*
X175423448Y-175068854D01*
X175470526Y-175072358D01*
X175519832Y-175068432D01*
X175557283Y-175054089D01*
X175584428Y-175025478D01*
X175602815Y-174978751D01*
X175613993Y-174910058D01*
X175619511Y-174815550D01*
X175620921Y-174698533D01*
X175620921Y-174438421D01*
X175804736Y-174438421D01*
X175804736Y-175240526D01*
X175712828Y-175240526D01*
X175657422Y-175238281D01*
X175628891Y-175230396D01*
X175620921Y-175215428D01*
X175616120Y-175202097D01*
X175597014Y-175204917D01*
X175558504Y-175223783D01*
X175470239Y-175252887D01*
X175376623Y-175250825D01*
X175286921Y-175219221D01*
X175244204Y-175194257D01*
X175211621Y-175167226D01*
X175187817Y-175133405D01*
X175171439Y-175088068D01*
X175161131Y-175026489D01*
X175155541Y-174943943D01*
X175153312Y-174835705D01*
X175153026Y-174752004D01*
X175153026Y-174438421D01*
X175320131Y-174438421D01*
X175320131Y-174698533D01*
G37*
X172997957Y-174452226D02*
X173039546Y-174472090D01*
X173079825Y-174500784D01*
X173110510Y-174533809D01*
X173132861Y-174575931D01*
X173148136Y-174631915D01*
X173157592Y-174706528D01*
X173162487Y-174804535D01*
X173164081Y-174930702D01*
X173164106Y-174943914D01*
X173164473Y-175240526D01*
X172980657Y-175240526D01*
X172980657Y-174967081D01*
X172980527Y-174865777D01*
X172979621Y-174792353D01*
X172977173Y-174741271D01*
X172972414Y-174706990D01*
X172964574Y-174683971D01*
X172952885Y-174666673D01*
X172936602Y-174649581D01*
X172879634Y-174612857D01*
X172817445Y-174606042D01*
X172758199Y-174629261D01*
X172737595Y-174646543D01*
X172722470Y-174662791D01*
X172711610Y-174680191D01*
X172704310Y-174704212D01*
X172699863Y-174740322D01*
X172697564Y-174793988D01*
X172696704Y-174870680D01*
X172696578Y-174964043D01*
X172696578Y-175240526D01*
X172512763Y-175240526D01*
X172512763Y-174438421D01*
X172604671Y-174438421D01*
X172659851Y-174440603D01*
X172688320Y-174448351D01*
X172696575Y-174463468D01*
X172696578Y-174463916D01*
X172700408Y-174478720D01*
X172717301Y-174477040D01*
X172750888Y-174460773D01*
X172827063Y-174436840D01*
X172914200Y-174434178D01*
X172997957Y-174452226D01*
G36*
X172997957Y-174452226D02*
G01*
X173039546Y-174472090D01*
X173079825Y-174500784D01*
X173110510Y-174533809D01*
X173132861Y-174575931D01*
X173148136Y-174631915D01*
X173157592Y-174706528D01*
X173162487Y-174804535D01*
X173164081Y-174930702D01*
X173164106Y-174943914D01*
X173164473Y-175240526D01*
X172980657Y-175240526D01*
X172980657Y-174967081D01*
X172980527Y-174865777D01*
X172979621Y-174792353D01*
X172977173Y-174741271D01*
X172972414Y-174706990D01*
X172964574Y-174683971D01*
X172952885Y-174666673D01*
X172936602Y-174649581D01*
X172879634Y-174612857D01*
X172817445Y-174606042D01*
X172758199Y-174629261D01*
X172737595Y-174646543D01*
X172722470Y-174662791D01*
X172711610Y-174680191D01*
X172704310Y-174704212D01*
X172699863Y-174740322D01*
X172697564Y-174793988D01*
X172696704Y-174870680D01*
X172696578Y-174964043D01*
X172696578Y-175240526D01*
X172512763Y-175240526D01*
X172512763Y-174438421D01*
X172604671Y-174438421D01*
X172659851Y-174440603D01*
X172688320Y-174448351D01*
X172696575Y-174463468D01*
X172696578Y-174463916D01*
X172700408Y-174478720D01*
X172717301Y-174477040D01*
X172750888Y-174460773D01*
X172827063Y-174436840D01*
X172914200Y-174434178D01*
X172997957Y-174452226D01*
G37*
X176946576Y-174445419D02*
X177043395Y-174486549D01*
X177073890Y-174506571D01*
X177112865Y-174537340D01*
X177137331Y-174561533D01*
X177141578Y-174569413D01*
X177129584Y-174586899D01*
X177098887Y-174616570D01*
X177074312Y-174637279D01*
X177007046Y-174691336D01*
X176953930Y-174646642D01*
X176912884Y-174617789D01*
X176872863Y-174607829D01*
X176827059Y-174610261D01*
X176754324Y-174628345D01*
X176704256Y-174665881D01*
X176673829Y-174726562D01*
X176660017Y-174814081D01*
X176660013Y-174814136D01*
X176661208Y-174911958D01*
X176679772Y-174983730D01*
X176716804Y-175032595D01*
X176742050Y-175049143D01*
X176809097Y-175069749D01*
X176880709Y-175069762D01*
X176943015Y-175049768D01*
X176957763Y-175040000D01*
X176994750Y-175015047D01*
X177023668Y-175010958D01*
X177054856Y-175029530D01*
X177089336Y-175062887D01*
X177143912Y-175119196D01*
X177083318Y-175169142D01*
X176989698Y-175225513D01*
X176884125Y-175253293D01*
X176773798Y-175251282D01*
X176701343Y-175232862D01*
X176616656Y-175187310D01*
X176548927Y-175115650D01*
X176518157Y-175065066D01*
X176493236Y-174992488D01*
X176480766Y-174900569D01*
X176480670Y-174800948D01*
X176492870Y-174705267D01*
X176517290Y-174625169D01*
X176521136Y-174616956D01*
X176578093Y-174536413D01*
X176655209Y-174477771D01*
X176746390Y-174442247D01*
X176845543Y-174431057D01*
X176946576Y-174445419D01*
G36*
X176946576Y-174445419D02*
G01*
X177043395Y-174486549D01*
X177073890Y-174506571D01*
X177112865Y-174537340D01*
X177137331Y-174561533D01*
X177141578Y-174569413D01*
X177129584Y-174586899D01*
X177098887Y-174616570D01*
X177074312Y-174637279D01*
X177007046Y-174691336D01*
X176953930Y-174646642D01*
X176912884Y-174617789D01*
X176872863Y-174607829D01*
X176827059Y-174610261D01*
X176754324Y-174628345D01*
X176704256Y-174665881D01*
X176673829Y-174726562D01*
X176660017Y-174814081D01*
X176660013Y-174814136D01*
X176661208Y-174911958D01*
X176679772Y-174983730D01*
X176716804Y-175032595D01*
X176742050Y-175049143D01*
X176809097Y-175069749D01*
X176880709Y-175069762D01*
X176943015Y-175049768D01*
X176957763Y-175040000D01*
X176994750Y-175015047D01*
X177023668Y-175010958D01*
X177054856Y-175029530D01*
X177089336Y-175062887D01*
X177143912Y-175119196D01*
X177083318Y-175169142D01*
X176989698Y-175225513D01*
X176884125Y-175253293D01*
X176773798Y-175251282D01*
X176701343Y-175232862D01*
X176616656Y-175187310D01*
X176548927Y-175115650D01*
X176518157Y-175065066D01*
X176493236Y-174992488D01*
X176480766Y-174900569D01*
X176480670Y-174800948D01*
X176492870Y-174705267D01*
X176517290Y-174625169D01*
X176521136Y-174616956D01*
X176578093Y-174536413D01*
X176655209Y-174477771D01*
X176746390Y-174442247D01*
X176845543Y-174431057D01*
X176946576Y-174445419D01*
G37*
X174811669Y-174448310D02*
X174896192Y-174494340D01*
X174962321Y-174567006D01*
X174993478Y-174626106D01*
X175006855Y-174678305D01*
X175015522Y-174752719D01*
X175019237Y-174838442D01*
X175017754Y-174924569D01*
X175010831Y-175000193D01*
X175002745Y-175040584D01*
X174975465Y-175095840D01*
X174928220Y-175154530D01*
X174871282Y-175205852D01*
X174814924Y-175239005D01*
X174813550Y-175239531D01*
X174743616Y-175254018D01*
X174660737Y-175254377D01*
X174581977Y-175241188D01*
X174551566Y-175230617D01*
X174473239Y-175186201D01*
X174417143Y-175128007D01*
X174380286Y-175050965D01*
X174359680Y-174950001D01*
X174355018Y-174897116D01*
X174355613Y-174830663D01*
X174534736Y-174830663D01*
X174540770Y-174927630D01*
X174558138Y-175001523D01*
X174585740Y-175048736D01*
X174605404Y-175062237D01*
X174655787Y-175071651D01*
X174715673Y-175068864D01*
X174767449Y-175055316D01*
X174781027Y-175047862D01*
X174816849Y-175004451D01*
X174840493Y-174938014D01*
X174850558Y-174857161D01*
X174845642Y-174770502D01*
X174834655Y-174718349D01*
X174803109Y-174657951D01*
X174753311Y-174620197D01*
X174693337Y-174607143D01*
X174631264Y-174620849D01*
X174583582Y-174654372D01*
X174558525Y-174682031D01*
X174543900Y-174709294D01*
X174536929Y-174746190D01*
X174534833Y-174802750D01*
X174534736Y-174830663D01*
X174355613Y-174830663D01*
X174356282Y-174755994D01*
X174379265Y-174640271D01*
X174423972Y-174549941D01*
X174490405Y-174485000D01*
X174578565Y-174445445D01*
X174597495Y-174440858D01*
X174711266Y-174430090D01*
X174811669Y-174448310D01*
G36*
X174811669Y-174448310D02*
G01*
X174896192Y-174494340D01*
X174962321Y-174567006D01*
X174993478Y-174626106D01*
X175006855Y-174678305D01*
X175015522Y-174752719D01*
X175019237Y-174838442D01*
X175017754Y-174924569D01*
X175010831Y-175000193D01*
X175002745Y-175040584D01*
X174975465Y-175095840D01*
X174928220Y-175154530D01*
X174871282Y-175205852D01*
X174814924Y-175239005D01*
X174813550Y-175239531D01*
X174743616Y-175254018D01*
X174660737Y-175254377D01*
X174581977Y-175241188D01*
X174551566Y-175230617D01*
X174473239Y-175186201D01*
X174417143Y-175128007D01*
X174380286Y-175050965D01*
X174359680Y-174950001D01*
X174355018Y-174897116D01*
X174355613Y-174830663D01*
X174534736Y-174830663D01*
X174540770Y-174927630D01*
X174558138Y-175001523D01*
X174585740Y-175048736D01*
X174605404Y-175062237D01*
X174655787Y-175071651D01*
X174715673Y-175068864D01*
X174767449Y-175055316D01*
X174781027Y-175047862D01*
X174816849Y-175004451D01*
X174840493Y-174938014D01*
X174850558Y-174857161D01*
X174845642Y-174770502D01*
X174834655Y-174718349D01*
X174803109Y-174657951D01*
X174753311Y-174620197D01*
X174693337Y-174607143D01*
X174631264Y-174620849D01*
X174583582Y-174654372D01*
X174558525Y-174682031D01*
X174543900Y-174709294D01*
X174536929Y-174746190D01*
X174534833Y-174802750D01*
X174534736Y-174830663D01*
X174355613Y-174830663D01*
X174356282Y-174755994D01*
X174379265Y-174640271D01*
X174423972Y-174549941D01*
X174490405Y-174485000D01*
X174578565Y-174445445D01*
X174597495Y-174440858D01*
X174711266Y-174430090D01*
X174811669Y-174448310D01*
G37*
X174374130Y-175695104D02*
X174440220Y-175700066D01*
X174526626Y-175959079D01*
X174613031Y-176218092D01*
X174640124Y-176126184D01*
X174656428Y-176069384D01*
X174677875Y-175992625D01*
X174701035Y-175908251D01*
X174713280Y-175862993D01*
X174759344Y-175691710D01*
X174949387Y-175691710D01*
X174892582Y-175871349D01*
X174864607Y-175959704D01*
X174830813Y-176066281D01*
X174795520Y-176177454D01*
X174764013Y-176276579D01*
X174692250Y-176502171D01*
X174537286Y-176512253D01*
X174495270Y-176373528D01*
X174469359Y-176287351D01*
X174441083Y-176192347D01*
X174416369Y-176108441D01*
X174415394Y-176105102D01*
X174396935Y-176048248D01*
X174380649Y-176009456D01*
X174369242Y-175994787D01*
X174366898Y-175996483D01*
X174358671Y-176019225D01*
X174343038Y-176067940D01*
X174321904Y-176136502D01*
X174297170Y-176218785D01*
X174283787Y-176264046D01*
X174211311Y-176510526D01*
X174057495Y-176510526D01*
X173934531Y-176122006D01*
X173899988Y-176013022D01*
X173868521Y-175914048D01*
X173841616Y-175829736D01*
X173820759Y-175764734D01*
X173807438Y-175723692D01*
X173803388Y-175711701D01*
X173806594Y-175699423D01*
X173831765Y-175694046D01*
X173884146Y-175694584D01*
X173892345Y-175694990D01*
X173989482Y-175700066D01*
X174053100Y-175934013D01*
X174076484Y-176019333D01*
X174097381Y-176094335D01*
X174113951Y-176152507D01*
X174124354Y-176187337D01*
X174126276Y-176193016D01*
X174134241Y-176186486D01*
X174150304Y-176152654D01*
X174172621Y-176096127D01*
X174199345Y-176021510D01*
X174221937Y-175954107D01*
X174308041Y-175690143D01*
X174374130Y-175695104D01*
G36*
X174374130Y-175695104D02*
G01*
X174440220Y-175700066D01*
X174526626Y-175959079D01*
X174613031Y-176218092D01*
X174640124Y-176126184D01*
X174656428Y-176069384D01*
X174677875Y-175992625D01*
X174701035Y-175908251D01*
X174713280Y-175862993D01*
X174759344Y-175691710D01*
X174949387Y-175691710D01*
X174892582Y-175871349D01*
X174864607Y-175959704D01*
X174830813Y-176066281D01*
X174795520Y-176177454D01*
X174764013Y-176276579D01*
X174692250Y-176502171D01*
X174537286Y-176512253D01*
X174495270Y-176373528D01*
X174469359Y-176287351D01*
X174441083Y-176192347D01*
X174416369Y-176108441D01*
X174415394Y-176105102D01*
X174396935Y-176048248D01*
X174380649Y-176009456D01*
X174369242Y-175994787D01*
X174366898Y-175996483D01*
X174358671Y-176019225D01*
X174343038Y-176067940D01*
X174321904Y-176136502D01*
X174297170Y-176218785D01*
X174283787Y-176264046D01*
X174211311Y-176510526D01*
X174057495Y-176510526D01*
X173934531Y-176122006D01*
X173899988Y-176013022D01*
X173868521Y-175914048D01*
X173841616Y-175829736D01*
X173820759Y-175764734D01*
X173807438Y-175723692D01*
X173803388Y-175711701D01*
X173806594Y-175699423D01*
X173831765Y-175694046D01*
X173884146Y-175694584D01*
X173892345Y-175694990D01*
X173989482Y-175700066D01*
X174053100Y-175934013D01*
X174076484Y-176019333D01*
X174097381Y-176094335D01*
X174113951Y-176152507D01*
X174124354Y-176187337D01*
X174126276Y-176193016D01*
X174134241Y-176186486D01*
X174150304Y-176152654D01*
X174172621Y-176096127D01*
X174199345Y-176021510D01*
X174221937Y-175954107D01*
X174308041Y-175690143D01*
X174374130Y-175695104D01*
G37*
X170626784Y-174447104D02*
X170714205Y-174485754D01*
X170780570Y-174550290D01*
X170825976Y-174640812D01*
X170850518Y-174757418D01*
X170852277Y-174775624D01*
X170853656Y-174903984D01*
X170835784Y-175016496D01*
X170799750Y-175107688D01*
X170780455Y-175137022D01*
X170713245Y-175199106D01*
X170627650Y-175239316D01*
X170531890Y-175256003D01*
X170434187Y-175247517D01*
X170359917Y-175221380D01*
X170296047Y-175177335D01*
X170243846Y-175119587D01*
X170242943Y-175118236D01*
X170221744Y-175082593D01*
X170207967Y-175046752D01*
X170199624Y-175001519D01*
X170194727Y-174937701D01*
X170192569Y-174885368D01*
X170191671Y-174837910D01*
X170358743Y-174837910D01*
X170360376Y-174885154D01*
X170366304Y-174948046D01*
X170376761Y-174988407D01*
X170395619Y-175017122D01*
X170413281Y-175033896D01*
X170475894Y-175069016D01*
X170541408Y-175073710D01*
X170602421Y-175048440D01*
X170632928Y-175020124D01*
X170654911Y-174991589D01*
X170667769Y-174964284D01*
X170673412Y-174928750D01*
X170673751Y-174875524D01*
X170672012Y-174826506D01*
X170668271Y-174756482D01*
X170662341Y-174711064D01*
X170651653Y-174681440D01*
X170633639Y-174658797D01*
X170619363Y-174645855D01*
X170559651Y-174611860D01*
X170495234Y-174610165D01*
X170441219Y-174630301D01*
X170395140Y-174672352D01*
X170367689Y-174741428D01*
X170358743Y-174837910D01*
X170191671Y-174837910D01*
X170190599Y-174781299D01*
X170193964Y-174703468D01*
X170204045Y-174644930D01*
X170222226Y-174598737D01*
X170249890Y-174557942D01*
X170260146Y-174545828D01*
X170324278Y-174485474D01*
X170393066Y-174450220D01*
X170477189Y-174435450D01*
X170518209Y-174434243D01*
X170626784Y-174447104D01*
G36*
X170626784Y-174447104D02*
G01*
X170714205Y-174485754D01*
X170780570Y-174550290D01*
X170825976Y-174640812D01*
X170850518Y-174757418D01*
X170852277Y-174775624D01*
X170853656Y-174903984D01*
X170835784Y-175016496D01*
X170799750Y-175107688D01*
X170780455Y-175137022D01*
X170713245Y-175199106D01*
X170627650Y-175239316D01*
X170531890Y-175256003D01*
X170434187Y-175247517D01*
X170359917Y-175221380D01*
X170296047Y-175177335D01*
X170243846Y-175119587D01*
X170242943Y-175118236D01*
X170221744Y-175082593D01*
X170207967Y-175046752D01*
X170199624Y-175001519D01*
X170194727Y-174937701D01*
X170192569Y-174885368D01*
X170191671Y-174837910D01*
X170358743Y-174837910D01*
X170360376Y-174885154D01*
X170366304Y-174948046D01*
X170376761Y-174988407D01*
X170395619Y-175017122D01*
X170413281Y-175033896D01*
X170475894Y-175069016D01*
X170541408Y-175073710D01*
X170602421Y-175048440D01*
X170632928Y-175020124D01*
X170654911Y-174991589D01*
X170667769Y-174964284D01*
X170673412Y-174928750D01*
X170673751Y-174875524D01*
X170672012Y-174826506D01*
X170668271Y-174756482D01*
X170662341Y-174711064D01*
X170651653Y-174681440D01*
X170633639Y-174658797D01*
X170619363Y-174645855D01*
X170559651Y-174611860D01*
X170495234Y-174610165D01*
X170441219Y-174630301D01*
X170395140Y-174672352D01*
X170367689Y-174741428D01*
X170358743Y-174837910D01*
X170191671Y-174837910D01*
X170190599Y-174781299D01*
X170193964Y-174703468D01*
X170204045Y-174644930D01*
X170222226Y-174598737D01*
X170249890Y-174557942D01*
X170260146Y-174545828D01*
X170324278Y-174485474D01*
X170393066Y-174450220D01*
X170477189Y-174435450D01*
X170518209Y-174434243D01*
X170626784Y-174447104D01*
G37*
X173732631Y-176510526D02*
X173640723Y-176510526D01*
X173587377Y-176508962D01*
X173559593Y-176502485D01*
X173549590Y-176488418D01*
X173548815Y-176478906D01*
X173547128Y-176459832D01*
X173536490Y-176456174D01*
X173508535Y-176467932D01*
X173486795Y-176478906D01*
X173403332Y-176504911D01*
X173312604Y-176506416D01*
X173238842Y-176487021D01*
X173170154Y-176440165D01*
X173117794Y-176371004D01*
X173089122Y-176289427D01*
X173088392Y-176284866D01*
X173084132Y-176235101D01*
X173082014Y-176163659D01*
X173082184Y-176109626D01*
X173264720Y-176109626D01*
X173268949Y-176181441D01*
X173278568Y-176240634D01*
X173291590Y-176274060D01*
X173340856Y-176319740D01*
X173399350Y-176336115D01*
X173459671Y-176322873D01*
X173511217Y-176283373D01*
X173530738Y-176256807D01*
X173542152Y-176225106D01*
X173547498Y-176178832D01*
X173548815Y-176109328D01*
X173546458Y-176040499D01*
X173540233Y-175980026D01*
X173531408Y-175939556D01*
X173529937Y-175935929D01*
X173494347Y-175892802D01*
X173442400Y-175869124D01*
X173384278Y-175865301D01*
X173330160Y-175881738D01*
X173290226Y-175918840D01*
X173286083Y-175926222D01*
X173273116Y-175971239D01*
X173266052Y-176035967D01*
X173264720Y-176109626D01*
X173082184Y-176109626D01*
X173082271Y-176082230D01*
X173083472Y-176038405D01*
X173091645Y-175929988D01*
X173108630Y-175848588D01*
X173136887Y-175788412D01*
X173178872Y-175743666D01*
X173219632Y-175717400D01*
X173276581Y-175698935D01*
X173347411Y-175692602D01*
X173419941Y-175697760D01*
X173481986Y-175713769D01*
X173514768Y-175732920D01*
X173548815Y-175763732D01*
X173548815Y-175374210D01*
X173732631Y-175374210D01*
X173732631Y-176510526D01*
G36*
X173732631Y-176510526D02*
G01*
X173640723Y-176510526D01*
X173587377Y-176508962D01*
X173559593Y-176502485D01*
X173549590Y-176488418D01*
X173548815Y-176478906D01*
X173547128Y-176459832D01*
X173536490Y-176456174D01*
X173508535Y-176467932D01*
X173486795Y-176478906D01*
X173403332Y-176504911D01*
X173312604Y-176506416D01*
X173238842Y-176487021D01*
X173170154Y-176440165D01*
X173117794Y-176371004D01*
X173089122Y-176289427D01*
X173088392Y-176284866D01*
X173084132Y-176235101D01*
X173082014Y-176163659D01*
X173082184Y-176109626D01*
X173264720Y-176109626D01*
X173268949Y-176181441D01*
X173278568Y-176240634D01*
X173291590Y-176274060D01*
X173340856Y-176319740D01*
X173399350Y-176336115D01*
X173459671Y-176322873D01*
X173511217Y-176283373D01*
X173530738Y-176256807D01*
X173542152Y-176225106D01*
X173547498Y-176178832D01*
X173548815Y-176109328D01*
X173546458Y-176040499D01*
X173540233Y-175980026D01*
X173531408Y-175939556D01*
X173529937Y-175935929D01*
X173494347Y-175892802D01*
X173442400Y-175869124D01*
X173384278Y-175865301D01*
X173330160Y-175881738D01*
X173290226Y-175918840D01*
X173286083Y-175926222D01*
X173273116Y-175971239D01*
X173266052Y-176035967D01*
X173264720Y-176109626D01*
X173082184Y-176109626D01*
X173082271Y-176082230D01*
X173083472Y-176038405D01*
X173091645Y-175929988D01*
X173108630Y-175848588D01*
X173136887Y-175788412D01*
X173178872Y-175743666D01*
X173219632Y-175717400D01*
X173276581Y-175698935D01*
X173347411Y-175692602D01*
X173419941Y-175697760D01*
X173481986Y-175713769D01*
X173514768Y-175732920D01*
X173548815Y-175763732D01*
X173548815Y-175374210D01*
X173732631Y-175374210D01*
X173732631Y-176510526D01*
G37*
X177558784Y-174435554D02*
X177601574Y-174445949D01*
X177683609Y-174484013D01*
X177753757Y-174542149D01*
X177802305Y-174611852D01*
X177808975Y-174627502D01*
X177818124Y-174668496D01*
X177824529Y-174729138D01*
X177826710Y-174790430D01*
X177826710Y-174906316D01*
X177584407Y-174906316D01*
X177484471Y-174906693D01*
X177414069Y-174908987D01*
X177369313Y-174914938D01*
X177346315Y-174926285D01*
X177341189Y-174944771D01*
X177350048Y-174972136D01*
X177365917Y-175004155D01*
X177410184Y-175057592D01*
X177471699Y-175084215D01*
X177546885Y-175083347D01*
X177632053Y-175054371D01*
X177705659Y-175018611D01*
X177766734Y-175066904D01*
X177827810Y-175115197D01*
X177770351Y-175168285D01*
X177693641Y-175218445D01*
X177599302Y-175248688D01*
X177497827Y-175257151D01*
X177399711Y-175241974D01*
X177383881Y-175236824D01*
X177297647Y-175191791D01*
X177233501Y-175124652D01*
X177190091Y-175033405D01*
X177166064Y-174916044D01*
X177165784Y-174913529D01*
X177163633Y-174785627D01*
X177172329Y-174739997D01*
X177342105Y-174739997D01*
X177357697Y-174747013D01*
X177400029Y-174752388D01*
X177462434Y-174755457D01*
X177501981Y-174755921D01*
X177575728Y-174755630D01*
X177621840Y-174753783D01*
X177646100Y-174748912D01*
X177654294Y-174739555D01*
X177652206Y-174724245D01*
X177650455Y-174718322D01*
X177620560Y-174662668D01*
X177573542Y-174617815D01*
X177532049Y-174598105D01*
X177476926Y-174599295D01*
X177421068Y-174623875D01*
X177374212Y-174664570D01*
X177346094Y-174714108D01*
X177342105Y-174739997D01*
X177172329Y-174739997D01*
X177185074Y-174673133D01*
X177227611Y-174578727D01*
X177288747Y-174505088D01*
X177365985Y-174454893D01*
X177456830Y-174430822D01*
X177558784Y-174435554D01*
G36*
X177558784Y-174435554D02*
G01*
X177601574Y-174445949D01*
X177683609Y-174484013D01*
X177753757Y-174542149D01*
X177802305Y-174611852D01*
X177808975Y-174627502D01*
X177818124Y-174668496D01*
X177824529Y-174729138D01*
X177826710Y-174790430D01*
X177826710Y-174906316D01*
X177584407Y-174906316D01*
X177484471Y-174906693D01*
X177414069Y-174908987D01*
X177369313Y-174914938D01*
X177346315Y-174926285D01*
X177341189Y-174944771D01*
X177350048Y-174972136D01*
X177365917Y-175004155D01*
X177410184Y-175057592D01*
X177471699Y-175084215D01*
X177546885Y-175083347D01*
X177632053Y-175054371D01*
X177705659Y-175018611D01*
X177766734Y-175066904D01*
X177827810Y-175115197D01*
X177770351Y-175168285D01*
X177693641Y-175218445D01*
X177599302Y-175248688D01*
X177497827Y-175257151D01*
X177399711Y-175241974D01*
X177383881Y-175236824D01*
X177297647Y-175191791D01*
X177233501Y-175124652D01*
X177190091Y-175033405D01*
X177166064Y-174916044D01*
X177165784Y-174913529D01*
X177163633Y-174785627D01*
X177172329Y-174739997D01*
X177342105Y-174739997D01*
X177357697Y-174747013D01*
X177400029Y-174752388D01*
X177462434Y-174755457D01*
X177501981Y-174755921D01*
X177575728Y-174755630D01*
X177621840Y-174753783D01*
X177646100Y-174748912D01*
X177654294Y-174739555D01*
X177652206Y-174724245D01*
X177650455Y-174718322D01*
X177620560Y-174662668D01*
X177573542Y-174617815D01*
X177532049Y-174598105D01*
X177476926Y-174599295D01*
X177421068Y-174623875D01*
X177374212Y-174664570D01*
X177346094Y-174714108D01*
X177342105Y-174739997D01*
X177172329Y-174739997D01*
X177185074Y-174673133D01*
X177227611Y-174578727D01*
X177288747Y-174505088D01*
X177365985Y-174454893D01*
X177456830Y-174430822D01*
X177558784Y-174435554D01*
G37*
X174018628Y-174435547D02*
X174081908Y-174447548D01*
X174147557Y-174472648D01*
X174154572Y-174475848D01*
X174204356Y-174502026D01*
X174238834Y-174526353D01*
X174249978Y-174541937D01*
X174239366Y-174567353D01*
X174213588Y-174604853D01*
X174202146Y-174618852D01*
X174154992Y-174673954D01*
X174094201Y-174638086D01*
X174036347Y-174614192D01*
X173969500Y-174601420D01*
X173905394Y-174600613D01*
X173855764Y-174612615D01*
X173843854Y-174620105D01*
X173821172Y-174654450D01*
X173818416Y-174694013D01*
X173835388Y-174724920D01*
X173845427Y-174730913D01*
X173875510Y-174738357D01*
X173928389Y-174747106D01*
X173993575Y-174755467D01*
X174005600Y-174756778D01*
X174110297Y-174774888D01*
X174186232Y-174805651D01*
X174236592Y-174851907D01*
X174264564Y-174916497D01*
X174273278Y-174995387D01*
X174261240Y-175085065D01*
X174222151Y-175155486D01*
X174155855Y-175206777D01*
X174062194Y-175239067D01*
X173958223Y-175251807D01*
X173873438Y-175251654D01*
X173804665Y-175240083D01*
X173757697Y-175224109D01*
X173698350Y-175196275D01*
X173643506Y-175163973D01*
X173624013Y-175149755D01*
X173573881Y-175108835D01*
X173694803Y-174986477D01*
X173763543Y-175031967D01*
X173832488Y-175066133D01*
X173906111Y-175084004D01*
X173976883Y-175085889D01*
X174037274Y-175072101D01*
X174079757Y-175042949D01*
X174093474Y-175018352D01*
X174091417Y-174978904D01*
X174057330Y-174948737D01*
X173991308Y-174927906D01*
X173918974Y-174918279D01*
X173807652Y-174899910D01*
X173724952Y-174865254D01*
X173669765Y-174813297D01*
X173640988Y-174743023D01*
X173637001Y-174659707D01*
X173656693Y-174572681D01*
X173701589Y-174506902D01*
X173772091Y-174462068D01*
X173868601Y-174437879D01*
X173940100Y-174433137D01*
X174018628Y-174435547D01*
G36*
X174018628Y-174435547D02*
G01*
X174081908Y-174447548D01*
X174147557Y-174472648D01*
X174154572Y-174475848D01*
X174204356Y-174502026D01*
X174238834Y-174526353D01*
X174249978Y-174541937D01*
X174239366Y-174567353D01*
X174213588Y-174604853D01*
X174202146Y-174618852D01*
X174154992Y-174673954D01*
X174094201Y-174638086D01*
X174036347Y-174614192D01*
X173969500Y-174601420D01*
X173905394Y-174600613D01*
X173855764Y-174612615D01*
X173843854Y-174620105D01*
X173821172Y-174654450D01*
X173818416Y-174694013D01*
X173835388Y-174724920D01*
X173845427Y-174730913D01*
X173875510Y-174738357D01*
X173928389Y-174747106D01*
X173993575Y-174755467D01*
X174005600Y-174756778D01*
X174110297Y-174774888D01*
X174186232Y-174805651D01*
X174236592Y-174851907D01*
X174264564Y-174916497D01*
X174273278Y-174995387D01*
X174261240Y-175085065D01*
X174222151Y-175155486D01*
X174155855Y-175206777D01*
X174062194Y-175239067D01*
X173958223Y-175251807D01*
X173873438Y-175251654D01*
X173804665Y-175240083D01*
X173757697Y-175224109D01*
X173698350Y-175196275D01*
X173643506Y-175163973D01*
X173624013Y-175149755D01*
X173573881Y-175108835D01*
X173694803Y-174986477D01*
X173763543Y-175031967D01*
X173832488Y-175066133D01*
X173906111Y-175084004D01*
X173976883Y-175085889D01*
X174037274Y-175072101D01*
X174079757Y-175042949D01*
X174093474Y-175018352D01*
X174091417Y-174978904D01*
X174057330Y-174948737D01*
X173991308Y-174927906D01*
X173918974Y-174918279D01*
X173807652Y-174899910D01*
X173724952Y-174865254D01*
X173669765Y-174813297D01*
X173640988Y-174743023D01*
X173637001Y-174659707D01*
X173656693Y-174572681D01*
X173701589Y-174506902D01*
X173772091Y-174462068D01*
X173868601Y-174437879D01*
X173940100Y-174433137D01*
X174018628Y-174435547D01*
G37*
X176701193Y-175696078D02*
X176781068Y-175716845D01*
X176847962Y-175759705D01*
X176880351Y-175791723D01*
X176933445Y-175867413D01*
X176963873Y-175955216D01*
X176974327Y-176063150D01*
X176974380Y-176071875D01*
X176974473Y-176159605D01*
X176469534Y-176159605D01*
X176480298Y-176205559D01*
X176499732Y-176247178D01*
X176533745Y-176290544D01*
X176540860Y-176297467D01*
X176602003Y-176334935D01*
X176671729Y-176341289D01*
X176751987Y-176316638D01*
X176765592Y-176310000D01*
X176807319Y-176289819D01*
X176835268Y-176278321D01*
X176840145Y-176277258D01*
X176857168Y-176287583D01*
X176889633Y-176312845D01*
X176906114Y-176326650D01*
X176940264Y-176358361D01*
X176951478Y-176379299D01*
X176943695Y-176398560D01*
X176939535Y-176403827D01*
X176911357Y-176426878D01*
X176864862Y-176454892D01*
X176832434Y-176471246D01*
X176740385Y-176500059D01*
X176638476Y-176509395D01*
X176541963Y-176498332D01*
X176514934Y-176490412D01*
X176431276Y-176445581D01*
X176369266Y-176376598D01*
X176328545Y-176282794D01*
X176308755Y-176163498D01*
X176306582Y-176101118D01*
X176312926Y-176010298D01*
X176473157Y-176010298D01*
X176488655Y-176017012D01*
X176530312Y-176022280D01*
X176590876Y-176025389D01*
X176631907Y-176025921D01*
X176705711Y-176025408D01*
X176752293Y-176023006D01*
X176777848Y-176017422D01*
X176788569Y-176007361D01*
X176790657Y-175992763D01*
X176776331Y-175947796D01*
X176740262Y-175903353D01*
X176692815Y-175869242D01*
X176645349Y-175855288D01*
X176580879Y-175867666D01*
X176525070Y-175903452D01*
X176486374Y-175955033D01*
X176473157Y-176010298D01*
X176312926Y-176010298D01*
X176315821Y-175968866D01*
X176344336Y-175863498D01*
X176392729Y-175784178D01*
X176461604Y-175730071D01*
X176551565Y-175700343D01*
X176600300Y-175694618D01*
X176701193Y-175696078D01*
G36*
X176701193Y-175696078D02*
G01*
X176781068Y-175716845D01*
X176847962Y-175759705D01*
X176880351Y-175791723D01*
X176933445Y-175867413D01*
X176963873Y-175955216D01*
X176974327Y-176063150D01*
X176974380Y-176071875D01*
X176974473Y-176159605D01*
X176469534Y-176159605D01*
X176480298Y-176205559D01*
X176499732Y-176247178D01*
X176533745Y-176290544D01*
X176540860Y-176297467D01*
X176602003Y-176334935D01*
X176671729Y-176341289D01*
X176751987Y-176316638D01*
X176765592Y-176310000D01*
X176807319Y-176289819D01*
X176835268Y-176278321D01*
X176840145Y-176277258D01*
X176857168Y-176287583D01*
X176889633Y-176312845D01*
X176906114Y-176326650D01*
X176940264Y-176358361D01*
X176951478Y-176379299D01*
X176943695Y-176398560D01*
X176939535Y-176403827D01*
X176911357Y-176426878D01*
X176864862Y-176454892D01*
X176832434Y-176471246D01*
X176740385Y-176500059D01*
X176638476Y-176509395D01*
X176541963Y-176498332D01*
X176514934Y-176490412D01*
X176431276Y-176445581D01*
X176369266Y-176376598D01*
X176328545Y-176282794D01*
X176308755Y-176163498D01*
X176306582Y-176101118D01*
X176312926Y-176010298D01*
X176473157Y-176010298D01*
X176488655Y-176017012D01*
X176530312Y-176022280D01*
X176590876Y-176025389D01*
X176631907Y-176025921D01*
X176705711Y-176025408D01*
X176752293Y-176023006D01*
X176777848Y-176017422D01*
X176788569Y-176007361D01*
X176790657Y-175992763D01*
X176776331Y-175947796D01*
X176740262Y-175903353D01*
X176692815Y-175869242D01*
X176645349Y-175855288D01*
X176580879Y-175867666D01*
X176525070Y-175903452D01*
X176486374Y-175955033D01*
X176473157Y-176010298D01*
X176312926Y-176010298D01*
X176315821Y-175968866D01*
X176344336Y-175863498D01*
X176392729Y-175784178D01*
X176461604Y-175730071D01*
X176551565Y-175700343D01*
X176600300Y-175694618D01*
X176701193Y-175696078D01*
G37*
X172197018Y-174457027D02*
X172213670Y-174464866D01*
X172271305Y-174507086D01*
X172325805Y-174568700D01*
X172366499Y-174636543D01*
X172378074Y-174667734D01*
X172388634Y-174723449D01*
X172394931Y-174790781D01*
X172395696Y-174818585D01*
X172395789Y-174906316D01*
X171890850Y-174906316D01*
X171901613Y-174952270D01*
X171928033Y-175006620D01*
X171974222Y-175053591D01*
X172029172Y-175083848D01*
X172064189Y-175090131D01*
X172111677Y-175082506D01*
X172168335Y-175063383D01*
X172187582Y-175054584D01*
X172258759Y-175019036D01*
X172319502Y-175065367D01*
X172354552Y-175096703D01*
X172373202Y-175122567D01*
X172374147Y-175130158D01*
X172357485Y-175148556D01*
X172320970Y-175176515D01*
X172287828Y-175198327D01*
X172198393Y-175237537D01*
X172098129Y-175255285D01*
X171998754Y-175250670D01*
X171919539Y-175226551D01*
X171837880Y-175174884D01*
X171779849Y-175106856D01*
X171743546Y-175018843D01*
X171727072Y-174907216D01*
X171725611Y-174856138D01*
X171731457Y-174739091D01*
X171732175Y-174735686D01*
X171899489Y-174735686D01*
X171904097Y-174746662D01*
X171923036Y-174752715D01*
X171962098Y-174755310D01*
X172027077Y-174755910D01*
X172052097Y-174755921D01*
X172128221Y-174755014D01*
X172176496Y-174751720D01*
X172202460Y-174745181D01*
X172211648Y-174734537D01*
X172211973Y-174731119D01*
X172201487Y-174703956D01*
X172175242Y-174665903D01*
X172163959Y-174652579D01*
X172122072Y-174614896D01*
X172078409Y-174600080D01*
X172054885Y-174598842D01*
X171991243Y-174614329D01*
X171937873Y-174655930D01*
X171904019Y-174716353D01*
X171903419Y-174718322D01*
X171899489Y-174735686D01*
X171732175Y-174735686D01*
X171750899Y-174646928D01*
X171785922Y-174573190D01*
X171828756Y-174520848D01*
X171907948Y-174464092D01*
X172001040Y-174433762D01*
X172100055Y-174431021D01*
X172197018Y-174457027D01*
G36*
X172197018Y-174457027D02*
G01*
X172213670Y-174464866D01*
X172271305Y-174507086D01*
X172325805Y-174568700D01*
X172366499Y-174636543D01*
X172378074Y-174667734D01*
X172388634Y-174723449D01*
X172394931Y-174790781D01*
X172395696Y-174818585D01*
X172395789Y-174906316D01*
X171890850Y-174906316D01*
X171901613Y-174952270D01*
X171928033Y-175006620D01*
X171974222Y-175053591D01*
X172029172Y-175083848D01*
X172064189Y-175090131D01*
X172111677Y-175082506D01*
X172168335Y-175063383D01*
X172187582Y-175054584D01*
X172258759Y-175019036D01*
X172319502Y-175065367D01*
X172354552Y-175096703D01*
X172373202Y-175122567D01*
X172374147Y-175130158D01*
X172357485Y-175148556D01*
X172320970Y-175176515D01*
X172287828Y-175198327D01*
X172198393Y-175237537D01*
X172098129Y-175255285D01*
X171998754Y-175250670D01*
X171919539Y-175226551D01*
X171837880Y-175174884D01*
X171779849Y-175106856D01*
X171743546Y-175018843D01*
X171727072Y-174907216D01*
X171725611Y-174856138D01*
X171731457Y-174739091D01*
X171732175Y-174735686D01*
X171899489Y-174735686D01*
X171904097Y-174746662D01*
X171923036Y-174752715D01*
X171962098Y-174755310D01*
X172027077Y-174755910D01*
X172052097Y-174755921D01*
X172128221Y-174755014D01*
X172176496Y-174751720D01*
X172202460Y-174745181D01*
X172211648Y-174734537D01*
X172211973Y-174731119D01*
X172201487Y-174703956D01*
X172175242Y-174665903D01*
X172163959Y-174652579D01*
X172122072Y-174614896D01*
X172078409Y-174600080D01*
X172054885Y-174598842D01*
X171991243Y-174614329D01*
X171937873Y-174655930D01*
X171904019Y-174716353D01*
X171903419Y-174718322D01*
X171899489Y-174735686D01*
X171732175Y-174735686D01*
X171750899Y-174646928D01*
X171785922Y-174573190D01*
X171828756Y-174520848D01*
X171907948Y-174464092D01*
X172001040Y-174433762D01*
X172100055Y-174431021D01*
X172197018Y-174457027D01*
G37*
X175379992Y-175696673D02*
X175450427Y-175713780D01*
X175470787Y-175722844D01*
X175510253Y-175746583D01*
X175540541Y-175773321D01*
X175562952Y-175807699D01*
X175578786Y-175854360D01*
X175589343Y-175917946D01*
X175595924Y-176003099D01*
X175599828Y-176114462D01*
X175601310Y-176188849D01*
X175606765Y-176510526D01*
X175513580Y-176510526D01*
X175457047Y-176508156D01*
X175427922Y-176500055D01*
X175420394Y-176486451D01*
X175416420Y-176471741D01*
X175398652Y-176474554D01*
X175374440Y-176486348D01*
X175313828Y-176504427D01*
X175235929Y-176509299D01*
X175153995Y-176501330D01*
X175081281Y-176480889D01*
X175074759Y-176478051D01*
X175008302Y-176431365D01*
X174964491Y-176366464D01*
X174944332Y-176290600D01*
X174945872Y-176263344D01*
X175110345Y-176263344D01*
X175124837Y-176300024D01*
X175167805Y-176326309D01*
X175237129Y-176340417D01*
X175274177Y-176342290D01*
X175335919Y-176337494D01*
X175376960Y-176318858D01*
X175386973Y-176310000D01*
X175414100Y-176261806D01*
X175420394Y-176218092D01*
X175420394Y-176159605D01*
X175338930Y-176159605D01*
X175244234Y-176164432D01*
X175177813Y-176179613D01*
X175135846Y-176206200D01*
X175126449Y-176218052D01*
X175110345Y-176263344D01*
X174945872Y-176263344D01*
X174948829Y-176211026D01*
X174978985Y-176134995D01*
X175020131Y-176083612D01*
X175045052Y-176061397D01*
X175069448Y-176046798D01*
X175101191Y-176037897D01*
X175148152Y-176032775D01*
X175218204Y-176029515D01*
X175245990Y-176028577D01*
X175420394Y-176022879D01*
X175420138Y-175970091D01*
X175413384Y-175914603D01*
X175388964Y-175881052D01*
X175339630Y-175859618D01*
X175338306Y-175859236D01*
X175268360Y-175850808D01*
X175199914Y-175861816D01*
X175149047Y-175888585D01*
X175128637Y-175901803D01*
X175106654Y-175899974D01*
X175072826Y-175880824D01*
X175052961Y-175867308D01*
X175014106Y-175838432D01*
X174990038Y-175816786D01*
X174986176Y-175810589D01*
X175002079Y-175778519D01*
X175049065Y-175740219D01*
X175069473Y-175727297D01*
X175128143Y-175705041D01*
X175207212Y-175692432D01*
X175295041Y-175689600D01*
X175379992Y-175696673D01*
G36*
X175379992Y-175696673D02*
G01*
X175450427Y-175713780D01*
X175470787Y-175722844D01*
X175510253Y-175746583D01*
X175540541Y-175773321D01*
X175562952Y-175807699D01*
X175578786Y-175854360D01*
X175589343Y-175917946D01*
X175595924Y-176003099D01*
X175599828Y-176114462D01*
X175601310Y-176188849D01*
X175606765Y-176510526D01*
X175513580Y-176510526D01*
X175457047Y-176508156D01*
X175427922Y-176500055D01*
X175420394Y-176486451D01*
X175416420Y-176471741D01*
X175398652Y-176474554D01*
X175374440Y-176486348D01*
X175313828Y-176504427D01*
X175235929Y-176509299D01*
X175153995Y-176501330D01*
X175081281Y-176480889D01*
X175074759Y-176478051D01*
X175008302Y-176431365D01*
X174964491Y-176366464D01*
X174944332Y-176290600D01*
X174945872Y-176263344D01*
X175110345Y-176263344D01*
X175124837Y-176300024D01*
X175167805Y-176326309D01*
X175237129Y-176340417D01*
X175274177Y-176342290D01*
X175335919Y-176337494D01*
X175376960Y-176318858D01*
X175386973Y-176310000D01*
X175414100Y-176261806D01*
X175420394Y-176218092D01*
X175420394Y-176159605D01*
X175338930Y-176159605D01*
X175244234Y-176164432D01*
X175177813Y-176179613D01*
X175135846Y-176206200D01*
X175126449Y-176218052D01*
X175110345Y-176263344D01*
X174945872Y-176263344D01*
X174948829Y-176211026D01*
X174978985Y-176134995D01*
X175020131Y-176083612D01*
X175045052Y-176061397D01*
X175069448Y-176046798D01*
X175101191Y-176037897D01*
X175148152Y-176032775D01*
X175218204Y-176029515D01*
X175245990Y-176028577D01*
X175420394Y-176022879D01*
X175420138Y-175970091D01*
X175413384Y-175914603D01*
X175388964Y-175881052D01*
X175339630Y-175859618D01*
X175338306Y-175859236D01*
X175268360Y-175850808D01*
X175199914Y-175861816D01*
X175149047Y-175888585D01*
X175128637Y-175901803D01*
X175106654Y-175899974D01*
X175072826Y-175880824D01*
X175052961Y-175867308D01*
X175014106Y-175838432D01*
X174990038Y-175816786D01*
X174986176Y-175810589D01*
X175002079Y-175778519D01*
X175049065Y-175740219D01*
X175069473Y-175727297D01*
X175128143Y-175705041D01*
X175207212Y-175692432D01*
X175295041Y-175689600D01*
X175379992Y-175696673D01*
G37*
X172160457Y-175698184D02*
X172239070Y-175719160D01*
X172298916Y-175757180D01*
X172341147Y-175806978D01*
X172354275Y-175828230D01*
X172363968Y-175850492D01*
X172370744Y-175878970D01*
X172375123Y-175918871D01*
X172377624Y-175975401D01*
X172378768Y-176053767D01*
X172379072Y-176159176D01*
X172379078Y-176187142D01*
X172379078Y-176510526D01*
X172298868Y-176510526D01*
X172247706Y-176506943D01*
X172209877Y-176497866D01*
X172200399Y-176492268D01*
X172174488Y-176482606D01*
X172148024Y-176492268D01*
X172104452Y-176504330D01*
X172041160Y-176509185D01*
X171971010Y-176507078D01*
X171906860Y-176498256D01*
X171869407Y-176486937D01*
X171796933Y-176440412D01*
X171751640Y-176375846D01*
X171731278Y-176290000D01*
X171731088Y-176287796D01*
X171732875Y-176249713D01*
X171894473Y-176249713D01*
X171908601Y-176293030D01*
X171931612Y-176317408D01*
X171977804Y-176335845D01*
X172038775Y-176343205D01*
X172100949Y-176339583D01*
X172150751Y-176325074D01*
X172164703Y-176315765D01*
X172189085Y-176272753D01*
X172195263Y-176223857D01*
X172195263Y-176159605D01*
X172102818Y-176159605D01*
X172014995Y-176166366D01*
X171948418Y-176185520D01*
X171907002Y-176215376D01*
X171894473Y-176249713D01*
X171732875Y-176249713D01*
X171735490Y-176194004D01*
X171766424Y-176119847D01*
X171824581Y-176063767D01*
X171832620Y-176058665D01*
X171867163Y-176042055D01*
X171909918Y-176031996D01*
X171969686Y-176027107D01*
X172040690Y-176025983D01*
X172195263Y-176025921D01*
X172195263Y-175961125D01*
X172188706Y-175910850D01*
X172171975Y-175877169D01*
X172170016Y-175875376D01*
X172132783Y-175860642D01*
X172076580Y-175854931D01*
X172014467Y-175857737D01*
X171959510Y-175868556D01*
X171926899Y-175884782D01*
X171909228Y-175897780D01*
X171890569Y-175900262D01*
X171864819Y-175889613D01*
X171825873Y-175863218D01*
X171767630Y-175818465D01*
X171762284Y-175814273D01*
X171765023Y-175798760D01*
X171787876Y-175772960D01*
X171822609Y-175744289D01*
X171860990Y-175720166D01*
X171873048Y-175714470D01*
X171917034Y-175703103D01*
X171981487Y-175694995D01*
X172053497Y-175691743D01*
X172056864Y-175691736D01*
X172160457Y-175698184D01*
G36*
X172160457Y-175698184D02*
G01*
X172239070Y-175719160D01*
X172298916Y-175757180D01*
X172341147Y-175806978D01*
X172354275Y-175828230D01*
X172363968Y-175850492D01*
X172370744Y-175878970D01*
X172375123Y-175918871D01*
X172377624Y-175975401D01*
X172378768Y-176053767D01*
X172379072Y-176159176D01*
X172379078Y-176187142D01*
X172379078Y-176510526D01*
X172298868Y-176510526D01*
X172247706Y-176506943D01*
X172209877Y-176497866D01*
X172200399Y-176492268D01*
X172174488Y-176482606D01*
X172148024Y-176492268D01*
X172104452Y-176504330D01*
X172041160Y-176509185D01*
X171971010Y-176507078D01*
X171906860Y-176498256D01*
X171869407Y-176486937D01*
X171796933Y-176440412D01*
X171751640Y-176375846D01*
X171731278Y-176290000D01*
X171731088Y-176287796D01*
X171732875Y-176249713D01*
X171894473Y-176249713D01*
X171908601Y-176293030D01*
X171931612Y-176317408D01*
X171977804Y-176335845D01*
X172038775Y-176343205D01*
X172100949Y-176339583D01*
X172150751Y-176325074D01*
X172164703Y-176315765D01*
X172189085Y-176272753D01*
X172195263Y-176223857D01*
X172195263Y-176159605D01*
X172102818Y-176159605D01*
X172014995Y-176166366D01*
X171948418Y-176185520D01*
X171907002Y-176215376D01*
X171894473Y-176249713D01*
X171732875Y-176249713D01*
X171735490Y-176194004D01*
X171766424Y-176119847D01*
X171824581Y-176063767D01*
X171832620Y-176058665D01*
X171867163Y-176042055D01*
X171909918Y-176031996D01*
X171969686Y-176027107D01*
X172040690Y-176025983D01*
X172195263Y-176025921D01*
X172195263Y-175961125D01*
X172188706Y-175910850D01*
X172171975Y-175877169D01*
X172170016Y-175875376D01*
X172132783Y-175860642D01*
X172076580Y-175854931D01*
X172014467Y-175857737D01*
X171959510Y-175868556D01*
X171926899Y-175884782D01*
X171909228Y-175897780D01*
X171890569Y-175900262D01*
X171864819Y-175889613D01*
X171825873Y-175863218D01*
X171767630Y-175818465D01*
X171762284Y-175814273D01*
X171765023Y-175798760D01*
X171787876Y-175772960D01*
X171822609Y-175744289D01*
X171860990Y-175720166D01*
X171873048Y-175714470D01*
X171917034Y-175703103D01*
X171981487Y-175694995D01*
X172053497Y-175691743D01*
X172056864Y-175691736D01*
X172160457Y-175698184D01*
G37*
X171463360Y-174452468D02*
X171498592Y-174469874D01*
X171542040Y-174500206D01*
X171573706Y-174533283D01*
X171595394Y-174574817D01*
X171608903Y-174630522D01*
X171616038Y-174706111D01*
X171618600Y-174807296D01*
X171618750Y-174850797D01*
X171618312Y-174946135D01*
X171616496Y-175014271D01*
X171612545Y-175061418D01*
X171605702Y-175093790D01*
X171595211Y-175117600D01*
X171584296Y-175133843D01*
X171514619Y-175202952D01*
X171432566Y-175244521D01*
X171344050Y-175257023D01*
X171254981Y-175238934D01*
X171226763Y-175226142D01*
X171159210Y-175190931D01*
X171159210Y-175742700D01*
X171208512Y-175717205D01*
X171273473Y-175697480D01*
X171353320Y-175692427D01*
X171433052Y-175701756D01*
X171493265Y-175722714D01*
X171543208Y-175762627D01*
X171585881Y-175819741D01*
X171589090Y-175825605D01*
X171602622Y-175853227D01*
X171612505Y-175881068D01*
X171619309Y-175914794D01*
X171623601Y-175960071D01*
X171625951Y-176022562D01*
X171626928Y-176107935D01*
X171627105Y-176204010D01*
X171627105Y-176510526D01*
X171443289Y-176510526D01*
X171443289Y-175945339D01*
X171391875Y-175902077D01*
X171338466Y-175867472D01*
X171287888Y-175861180D01*
X171237030Y-175877372D01*
X171209925Y-175893227D01*
X171189751Y-175915810D01*
X171175403Y-175949940D01*
X171165776Y-176000434D01*
X171159763Y-176072111D01*
X171156260Y-176169788D01*
X171155026Y-176234802D01*
X171150855Y-176502171D01*
X171063125Y-176507222D01*
X170975394Y-176512273D01*
X170975394Y-174853101D01*
X171159210Y-174853101D01*
X171163896Y-174945600D01*
X171179688Y-175009809D01*
X171209183Y-175049759D01*
X171254980Y-175069480D01*
X171301250Y-175073421D01*
X171353628Y-175068892D01*
X171388390Y-175051069D01*
X171410128Y-175027519D01*
X171427240Y-175002189D01*
X171437427Y-174973969D01*
X171441960Y-174934431D01*
X171442109Y-174875142D01*
X171440584Y-174825498D01*
X171437081Y-174750710D01*
X171431867Y-174701611D01*
X171423087Y-174670467D01*
X171408886Y-174649545D01*
X171395484Y-174637452D01*
X171339487Y-174611081D01*
X171273211Y-174606822D01*
X171235156Y-174615906D01*
X171197477Y-174648196D01*
X171172519Y-174711006D01*
X171160422Y-174803894D01*
X171159210Y-174853101D01*
X170975394Y-174853101D01*
X170975394Y-174438421D01*
X171067302Y-174438421D01*
X171122483Y-174440603D01*
X171150952Y-174448351D01*
X171159206Y-174463468D01*
X171159210Y-174463916D01*
X171163040Y-174478720D01*
X171179933Y-174477039D01*
X171213519Y-174460772D01*
X171291778Y-174435887D01*
X171379827Y-174433271D01*
X171463360Y-174452468D01*
G36*
X171463360Y-174452468D02*
G01*
X171498592Y-174469874D01*
X171542040Y-174500206D01*
X171573706Y-174533283D01*
X171595394Y-174574817D01*
X171608903Y-174630522D01*
X171616038Y-174706111D01*
X171618600Y-174807296D01*
X171618750Y-174850797D01*
X171618312Y-174946135D01*
X171616496Y-175014271D01*
X171612545Y-175061418D01*
X171605702Y-175093790D01*
X171595211Y-175117600D01*
X171584296Y-175133843D01*
X171514619Y-175202952D01*
X171432566Y-175244521D01*
X171344050Y-175257023D01*
X171254981Y-175238934D01*
X171226763Y-175226142D01*
X171159210Y-175190931D01*
X171159210Y-175742700D01*
X171208512Y-175717205D01*
X171273473Y-175697480D01*
X171353320Y-175692427D01*
X171433052Y-175701756D01*
X171493265Y-175722714D01*
X171543208Y-175762627D01*
X171585881Y-175819741D01*
X171589090Y-175825605D01*
X171602622Y-175853227D01*
X171612505Y-175881068D01*
X171619309Y-175914794D01*
X171623601Y-175960071D01*
X171625951Y-176022562D01*
X171626928Y-176107935D01*
X171627105Y-176204010D01*
X171627105Y-176510526D01*
X171443289Y-176510526D01*
X171443289Y-175945339D01*
X171391875Y-175902077D01*
X171338466Y-175867472D01*
X171287888Y-175861180D01*
X171237030Y-175877372D01*
X171209925Y-175893227D01*
X171189751Y-175915810D01*
X171175403Y-175949940D01*
X171165776Y-176000434D01*
X171159763Y-176072111D01*
X171156260Y-176169788D01*
X171155026Y-176234802D01*
X171150855Y-176502171D01*
X171063125Y-176507222D01*
X170975394Y-176512273D01*
X170975394Y-174853101D01*
X171159210Y-174853101D01*
X171163896Y-174945600D01*
X171179688Y-175009809D01*
X171209183Y-175049759D01*
X171254980Y-175069480D01*
X171301250Y-175073421D01*
X171353628Y-175068892D01*
X171388390Y-175051069D01*
X171410128Y-175027519D01*
X171427240Y-175002189D01*
X171437427Y-174973969D01*
X171441960Y-174934431D01*
X171442109Y-174875142D01*
X171440584Y-174825498D01*
X171437081Y-174750710D01*
X171431867Y-174701611D01*
X171423087Y-174670467D01*
X171408886Y-174649545D01*
X171395484Y-174637452D01*
X171339487Y-174611081D01*
X171273211Y-174606822D01*
X171235156Y-174615906D01*
X171197477Y-174648196D01*
X171172519Y-174711006D01*
X171160422Y-174803894D01*
X171159210Y-174853101D01*
X170975394Y-174853101D01*
X170975394Y-174438421D01*
X171067302Y-174438421D01*
X171122483Y-174440603D01*
X171150952Y-174448351D01*
X171159206Y-174463468D01*
X171159210Y-174463916D01*
X171163040Y-174478720D01*
X171179933Y-174477039D01*
X171213519Y-174460772D01*
X171291778Y-174435887D01*
X171379827Y-174433271D01*
X171463360Y-174452468D01*
G37*
X174500964Y-168898576D02*
X174576513Y-169299322D01*
X175134041Y-169529154D01*
X175468465Y-169301748D01*
X175562122Y-169238431D01*
X175646782Y-169181896D01*
X175718495Y-169134727D01*
X175773311Y-169099502D01*
X175807280Y-169078805D01*
X175816530Y-169074342D01*
X175833195Y-169085820D01*
X175868806Y-169117551D01*
X175919371Y-169165483D01*
X175980900Y-169225562D01*
X176049399Y-169293733D01*
X176120879Y-169365945D01*
X176191347Y-169438142D01*
X176256811Y-169506273D01*
X176313280Y-169566283D01*
X176356763Y-169614119D01*
X176383268Y-169645727D01*
X176389605Y-169656305D01*
X176380486Y-169675806D01*
X176354920Y-169718531D01*
X176315597Y-169780298D01*
X176265203Y-169856931D01*
X176206427Y-169944248D01*
X176172368Y-169994052D01*
X176110289Y-170084993D01*
X176055126Y-170167059D01*
X176009554Y-170236163D01*
X175976250Y-170288222D01*
X175957890Y-170319150D01*
X175955131Y-170325650D01*
X175961385Y-170344121D01*
X175978434Y-170387172D01*
X176003703Y-170448749D01*
X176034622Y-170522799D01*
X176068618Y-170603270D01*
X176103118Y-170684107D01*
X176135551Y-170759258D01*
X176163343Y-170822671D01*
X176183923Y-170868293D01*
X176194719Y-170890069D01*
X176195356Y-170890926D01*
X176212307Y-170895084D01*
X176257451Y-170904361D01*
X176326110Y-170917844D01*
X176413602Y-170934621D01*
X176515250Y-170953781D01*
X176574556Y-170964830D01*
X176683172Y-170985510D01*
X176781277Y-171005189D01*
X176863909Y-171022789D01*
X176926104Y-171037233D01*
X176962899Y-171047446D01*
X176970296Y-171050686D01*
X176977540Y-171072617D01*
X176983385Y-171122147D01*
X176987835Y-171193485D01*
X176990893Y-171280839D01*
X176992565Y-171378417D01*
X176992853Y-171480426D01*
X176991761Y-171581075D01*
X176989294Y-171674572D01*
X176985456Y-171755125D01*
X176980250Y-171816942D01*
X176973681Y-171854230D01*
X176969741Y-171861993D01*
X176946188Y-171871298D01*
X176896282Y-171884600D01*
X176826623Y-171900337D01*
X176743813Y-171916946D01*
X176714905Y-171922319D01*
X176575531Y-171947848D01*
X176465436Y-171968408D01*
X176380982Y-171984815D01*
X176318530Y-171997887D01*
X176274444Y-172008441D01*
X176245085Y-172017294D01*
X176226815Y-172025263D01*
X176215998Y-172033165D01*
X176214485Y-172034727D01*
X176199377Y-172059886D01*
X176176329Y-172108850D01*
X176147644Y-172175621D01*
X176115622Y-172254205D01*
X176082565Y-172338607D01*
X176050773Y-172422830D01*
X176022549Y-172500879D01*
X176000193Y-172566759D01*
X175986007Y-172614473D01*
X175982293Y-172638027D01*
X175982602Y-172638852D01*
X175995189Y-172658104D01*
X176023744Y-172700463D01*
X176065267Y-172761521D01*
X176116756Y-172836868D01*
X176175211Y-172922096D01*
X176191858Y-172946315D01*
X176251215Y-173034123D01*
X176303447Y-173114238D01*
X176345708Y-173182062D01*
X176375153Y-173232993D01*
X176388937Y-173262431D01*
X176389605Y-173266048D01*
X176378024Y-173285057D01*
X176346024Y-173322714D01*
X176297718Y-173374973D01*
X176237220Y-173437786D01*
X176168644Y-173507106D01*
X176096104Y-173578885D01*
X176023712Y-173649077D01*
X175955584Y-173713635D01*
X175895832Y-173768510D01*
X175848571Y-173809656D01*
X175817913Y-173833026D01*
X175809432Y-173836842D01*
X175789691Y-173827855D01*
X175749274Y-173803616D01*
X175694763Y-173768209D01*
X175652823Y-173739711D01*
X175576829Y-173687418D01*
X175486834Y-173625845D01*
X175396564Y-173564370D01*
X175348032Y-173531469D01*
X175183762Y-173420359D01*
X175045869Y-173494916D01*
X174983049Y-173527578D01*
X174929629Y-173552966D01*
X174893484Y-173567446D01*
X174884284Y-173569460D01*
X174873221Y-173554584D01*
X174851394Y-173512547D01*
X174820434Y-173447227D01*
X174781970Y-173362500D01*
X174737632Y-173262245D01*
X174689047Y-173150339D01*
X174637846Y-173030659D01*
X174585659Y-172907084D01*
X174534113Y-172783491D01*
X174484840Y-172663757D01*
X174439467Y-172551759D01*
X174399625Y-172451377D01*
X174366942Y-172366486D01*
X174343049Y-172300965D01*
X174329574Y-172258690D01*
X174327406Y-172244172D01*
X174344583Y-172225653D01*
X174382190Y-172195590D01*
X174432366Y-172160232D01*
X174436578Y-172157434D01*
X174566264Y-172053625D01*
X174670834Y-171932515D01*
X174749381Y-171797976D01*
X174800999Y-171653882D01*
X174824782Y-171504105D01*
X174819823Y-171352517D01*
X174785217Y-171202992D01*
X174720057Y-171059400D01*
X174700886Y-171027984D01*
X174601174Y-170901125D01*
X174483377Y-170799255D01*
X174351571Y-170722904D01*
X174209833Y-170672602D01*
X174062242Y-170648879D01*
X173912873Y-170652265D01*
X173765803Y-170683288D01*
X173625111Y-170742480D01*
X173494873Y-170830369D01*
X173454586Y-170866042D01*
X173352055Y-170977706D01*
X173277341Y-171095257D01*
X173226090Y-171227020D01*
X173197546Y-171357507D01*
X173190500Y-171504216D01*
X173213996Y-171651653D01*
X173265649Y-171794834D01*
X173343071Y-171928777D01*
X173443875Y-172048498D01*
X173565676Y-172149014D01*
X173581684Y-172159609D01*
X173632398Y-172194306D01*
X173670950Y-172224370D01*
X173689381Y-172243565D01*
X173689649Y-172244172D01*
X173685692Y-172264936D01*
X173670007Y-172312062D01*
X173644222Y-172381673D01*
X173609969Y-172469893D01*
X173568877Y-172572844D01*
X173522576Y-172686650D01*
X173472696Y-172807435D01*
X173420867Y-172931321D01*
X173368719Y-173054432D01*
X173317882Y-173172891D01*
X173269987Y-173282823D01*
X173226662Y-173380349D01*
X173189538Y-173461593D01*
X173160244Y-173522679D01*
X173140412Y-173559730D01*
X173132426Y-173569460D01*
X173108021Y-173561883D01*
X173062358Y-173541560D01*
X173003310Y-173512125D01*
X172970840Y-173494916D01*
X172832947Y-173420359D01*
X172668677Y-173531469D01*
X172584821Y-173588390D01*
X172493013Y-173651030D01*
X172406980Y-173710011D01*
X172363887Y-173739711D01*
X172303277Y-173780410D01*
X172251955Y-173812663D01*
X172216615Y-173832384D01*
X172205137Y-173836554D01*
X172188430Y-173825307D01*
X172151454Y-173793911D01*
X172097795Y-173745624D01*
X172031038Y-173683708D01*
X171954766Y-173611421D01*
X171906527Y-173565008D01*
X171822133Y-173482087D01*
X171749197Y-173407920D01*
X171690669Y-173345680D01*
X171649497Y-173298541D01*
X171628628Y-173269673D01*
X171626626Y-173263815D01*
X171635917Y-173241532D01*
X171661591Y-173196477D01*
X171700800Y-173133211D01*
X171750697Y-173056295D01*
X171808433Y-172970292D01*
X171824851Y-172946315D01*
X171884677Y-172859170D01*
X171938350Y-172780710D01*
X171982870Y-172715345D01*
X172015235Y-172667484D01*
X172032445Y-172641535D01*
X172034107Y-172638852D01*
X172031621Y-172618172D01*
X172018423Y-172572704D01*
X171996814Y-172508444D01*
X171969096Y-172431387D01*
X171937570Y-172347529D01*
X171904537Y-172262866D01*
X171872299Y-172183392D01*
X171843157Y-172115104D01*
X171819412Y-172063997D01*
X171803365Y-172036067D01*
X171802225Y-172034727D01*
X171792412Y-172026745D01*
X171775839Y-172018851D01*
X171748868Y-172010229D01*
X171707861Y-172000062D01*
X171649180Y-171987531D01*
X171569187Y-171971821D01*
X171464245Y-171952113D01*
X171330715Y-171927592D01*
X171301804Y-171922319D01*
X171216118Y-171905764D01*
X171141418Y-171889569D01*
X171084306Y-171875296D01*
X171051383Y-171864508D01*
X171046969Y-171861993D01*
X171039694Y-171839696D01*
X171033781Y-171789869D01*
X171029234Y-171718304D01*
X171026055Y-171630793D01*
X171024251Y-171533128D01*
X171023823Y-171431101D01*
X171024777Y-171330503D01*
X171027116Y-171237127D01*
X171030844Y-171156765D01*
X171035966Y-171095209D01*
X171042484Y-171058250D01*
X171046414Y-171050686D01*
X171068292Y-171043056D01*
X171118109Y-171030642D01*
X171190903Y-171014522D01*
X171281711Y-170995773D01*
X171385569Y-170975471D01*
X171442154Y-170964830D01*
X171549514Y-170944760D01*
X171645254Y-170926580D01*
X171724694Y-170911199D01*
X171783154Y-170899531D01*
X171815955Y-170892488D01*
X171821354Y-170890926D01*
X171830478Y-170873322D01*
X171849765Y-170830918D01*
X171876645Y-170769772D01*
X171908546Y-170695943D01*
X171942898Y-170615489D01*
X171977129Y-170534468D01*
X172008669Y-170458937D01*
X172034946Y-170394955D01*
X172053389Y-170348580D01*
X172061429Y-170325869D01*
X172061578Y-170324876D01*
X172052465Y-170306961D01*
X172026914Y-170265733D01*
X171987612Y-170205291D01*
X171937243Y-170129731D01*
X171878494Y-170043152D01*
X171844342Y-169993421D01*
X171782110Y-169902236D01*
X171726836Y-169819449D01*
X171681218Y-169749249D01*
X171647952Y-169695824D01*
X171629736Y-169663361D01*
X171627105Y-169656083D01*
X171638414Y-169639145D01*
X171669681Y-169602978D01*
X171716910Y-169551635D01*
X171776108Y-169489167D01*
X171843281Y-169419626D01*
X171914434Y-169347065D01*
X171985574Y-169275535D01*
X172052707Y-169209087D01*
X172111839Y-169151774D01*
X172158975Y-169107647D01*
X172190123Y-169080759D01*
X172200543Y-169074342D01*
X172217509Y-169083365D01*
X172258089Y-169108715D01*
X172318337Y-169147810D01*
X172394307Y-169198071D01*
X172482054Y-169256917D01*
X172548244Y-169301748D01*
X172882668Y-169529154D01*
X173161433Y-169414238D01*
X173440197Y-169299322D01*
X173515746Y-168898576D01*
X173591294Y-168497829D01*
X174425415Y-168497829D01*
X174500964Y-168898576D01*
G36*
X174500964Y-168898576D02*
G01*
X174576513Y-169299322D01*
X175134041Y-169529154D01*
X175468465Y-169301748D01*
X175562122Y-169238431D01*
X175646782Y-169181896D01*
X175718495Y-169134727D01*
X175773311Y-169099502D01*
X175807280Y-169078805D01*
X175816530Y-169074342D01*
X175833195Y-169085820D01*
X175868806Y-169117551D01*
X175919371Y-169165483D01*
X175980900Y-169225562D01*
X176049399Y-169293733D01*
X176120879Y-169365945D01*
X176191347Y-169438142D01*
X176256811Y-169506273D01*
X176313280Y-169566283D01*
X176356763Y-169614119D01*
X176383268Y-169645727D01*
X176389605Y-169656305D01*
X176380486Y-169675806D01*
X176354920Y-169718531D01*
X176315597Y-169780298D01*
X176265203Y-169856931D01*
X176206427Y-169944248D01*
X176172368Y-169994052D01*
X176110289Y-170084993D01*
X176055126Y-170167059D01*
X176009554Y-170236163D01*
X175976250Y-170288222D01*
X175957890Y-170319150D01*
X175955131Y-170325650D01*
X175961385Y-170344121D01*
X175978434Y-170387172D01*
X176003703Y-170448749D01*
X176034622Y-170522799D01*
X176068618Y-170603270D01*
X176103118Y-170684107D01*
X176135551Y-170759258D01*
X176163343Y-170822671D01*
X176183923Y-170868293D01*
X176194719Y-170890069D01*
X176195356Y-170890926D01*
X176212307Y-170895084D01*
X176257451Y-170904361D01*
X176326110Y-170917844D01*
X176413602Y-170934621D01*
X176515250Y-170953781D01*
X176574556Y-170964830D01*
X176683172Y-170985510D01*
X176781277Y-171005189D01*
X176863909Y-171022789D01*
X176926104Y-171037233D01*
X176962899Y-171047446D01*
X176970296Y-171050686D01*
X176977540Y-171072617D01*
X176983385Y-171122147D01*
X176987835Y-171193485D01*
X176990893Y-171280839D01*
X176992565Y-171378417D01*
X176992853Y-171480426D01*
X176991761Y-171581075D01*
X176989294Y-171674572D01*
X176985456Y-171755125D01*
X176980250Y-171816942D01*
X176973681Y-171854230D01*
X176969741Y-171861993D01*
X176946188Y-171871298D01*
X176896282Y-171884600D01*
X176826623Y-171900337D01*
X176743813Y-171916946D01*
X176714905Y-171922319D01*
X176575531Y-171947848D01*
X176465436Y-171968408D01*
X176380982Y-171984815D01*
X176318530Y-171997887D01*
X176274444Y-172008441D01*
X176245085Y-172017294D01*
X176226815Y-172025263D01*
X176215998Y-172033165D01*
X176214485Y-172034727D01*
X176199377Y-172059886D01*
X176176329Y-172108850D01*
X176147644Y-172175621D01*
X176115622Y-172254205D01*
X176082565Y-172338607D01*
X176050773Y-172422830D01*
X176022549Y-172500879D01*
X176000193Y-172566759D01*
X175986007Y-172614473D01*
X175982293Y-172638027D01*
X175982602Y-172638852D01*
X175995189Y-172658104D01*
X176023744Y-172700463D01*
X176065267Y-172761521D01*
X176116756Y-172836868D01*
X176175211Y-172922096D01*
X176191858Y-172946315D01*
X176251215Y-173034123D01*
X176303447Y-173114238D01*
X176345708Y-173182062D01*
X176375153Y-173232993D01*
X176388937Y-173262431D01*
X176389605Y-173266048D01*
X176378024Y-173285057D01*
X176346024Y-173322714D01*
X176297718Y-173374973D01*
X176237220Y-173437786D01*
X176168644Y-173507106D01*
X176096104Y-173578885D01*
X176023712Y-173649077D01*
X175955584Y-173713635D01*
X175895832Y-173768510D01*
X175848571Y-173809656D01*
X175817913Y-173833026D01*
X175809432Y-173836842D01*
X175789691Y-173827855D01*
X175749274Y-173803616D01*
X175694763Y-173768209D01*
X175652823Y-173739711D01*
X175576829Y-173687418D01*
X175486834Y-173625845D01*
X175396564Y-173564370D01*
X175348032Y-173531469D01*
X175183762Y-173420359D01*
X175045869Y-173494916D01*
X174983049Y-173527578D01*
X174929629Y-173552966D01*
X174893484Y-173567446D01*
X174884284Y-173569460D01*
X174873221Y-173554584D01*
X174851394Y-173512547D01*
X174820434Y-173447227D01*
X174781970Y-173362500D01*
X174737632Y-173262245D01*
X174689047Y-173150339D01*
X174637846Y-173030659D01*
X174585659Y-172907084D01*
X174534113Y-172783491D01*
X174484840Y-172663757D01*
X174439467Y-172551759D01*
X174399625Y-172451377D01*
X174366942Y-172366486D01*
X174343049Y-172300965D01*
X174329574Y-172258690D01*
X174327406Y-172244172D01*
X174344583Y-172225653D01*
X174382190Y-172195590D01*
X174432366Y-172160232D01*
X174436578Y-172157434D01*
X174566264Y-172053625D01*
X174670834Y-171932515D01*
X174749381Y-171797976D01*
X174800999Y-171653882D01*
X174824782Y-171504105D01*
X174819823Y-171352517D01*
X174785217Y-171202992D01*
X174720057Y-171059400D01*
X174700886Y-171027984D01*
X174601174Y-170901125D01*
X174483377Y-170799255D01*
X174351571Y-170722904D01*
X174209833Y-170672602D01*
X174062242Y-170648879D01*
X173912873Y-170652265D01*
X173765803Y-170683288D01*
X173625111Y-170742480D01*
X173494873Y-170830369D01*
X173454586Y-170866042D01*
X173352055Y-170977706D01*
X173277341Y-171095257D01*
X173226090Y-171227020D01*
X173197546Y-171357507D01*
X173190500Y-171504216D01*
X173213996Y-171651653D01*
X173265649Y-171794834D01*
X173343071Y-171928777D01*
X173443875Y-172048498D01*
X173565676Y-172149014D01*
X173581684Y-172159609D01*
X173632398Y-172194306D01*
X173670950Y-172224370D01*
X173689381Y-172243565D01*
X173689649Y-172244172D01*
X173685692Y-172264936D01*
X173670007Y-172312062D01*
X173644222Y-172381673D01*
X173609969Y-172469893D01*
X173568877Y-172572844D01*
X173522576Y-172686650D01*
X173472696Y-172807435D01*
X173420867Y-172931321D01*
X173368719Y-173054432D01*
X173317882Y-173172891D01*
X173269987Y-173282823D01*
X173226662Y-173380349D01*
X173189538Y-173461593D01*
X173160244Y-173522679D01*
X173140412Y-173559730D01*
X173132426Y-173569460D01*
X173108021Y-173561883D01*
X173062358Y-173541560D01*
X173003310Y-173512125D01*
X172970840Y-173494916D01*
X172832947Y-173420359D01*
X172668677Y-173531469D01*
X172584821Y-173588390D01*
X172493013Y-173651030D01*
X172406980Y-173710011D01*
X172363887Y-173739711D01*
X172303277Y-173780410D01*
X172251955Y-173812663D01*
X172216615Y-173832384D01*
X172205137Y-173836554D01*
X172188430Y-173825307D01*
X172151454Y-173793911D01*
X172097795Y-173745624D01*
X172031038Y-173683708D01*
X171954766Y-173611421D01*
X171906527Y-173565008D01*
X171822133Y-173482087D01*
X171749197Y-173407920D01*
X171690669Y-173345680D01*
X171649497Y-173298541D01*
X171628628Y-173269673D01*
X171626626Y-173263815D01*
X171635917Y-173241532D01*
X171661591Y-173196477D01*
X171700800Y-173133211D01*
X171750697Y-173056295D01*
X171808433Y-172970292D01*
X171824851Y-172946315D01*
X171884677Y-172859170D01*
X171938350Y-172780710D01*
X171982870Y-172715345D01*
X172015235Y-172667484D01*
X172032445Y-172641535D01*
X172034107Y-172638852D01*
X172031621Y-172618172D01*
X172018423Y-172572704D01*
X171996814Y-172508444D01*
X171969096Y-172431387D01*
X171937570Y-172347529D01*
X171904537Y-172262866D01*
X171872299Y-172183392D01*
X171843157Y-172115104D01*
X171819412Y-172063997D01*
X171803365Y-172036067D01*
X171802225Y-172034727D01*
X171792412Y-172026745D01*
X171775839Y-172018851D01*
X171748868Y-172010229D01*
X171707861Y-172000062D01*
X171649180Y-171987531D01*
X171569187Y-171971821D01*
X171464245Y-171952113D01*
X171330715Y-171927592D01*
X171301804Y-171922319D01*
X171216118Y-171905764D01*
X171141418Y-171889569D01*
X171084306Y-171875296D01*
X171051383Y-171864508D01*
X171046969Y-171861993D01*
X171039694Y-171839696D01*
X171033781Y-171789869D01*
X171029234Y-171718304D01*
X171026055Y-171630793D01*
X171024251Y-171533128D01*
X171023823Y-171431101D01*
X171024777Y-171330503D01*
X171027116Y-171237127D01*
X171030844Y-171156765D01*
X171035966Y-171095209D01*
X171042484Y-171058250D01*
X171046414Y-171050686D01*
X171068292Y-171043056D01*
X171118109Y-171030642D01*
X171190903Y-171014522D01*
X171281711Y-170995773D01*
X171385569Y-170975471D01*
X171442154Y-170964830D01*
X171549514Y-170944760D01*
X171645254Y-170926580D01*
X171724694Y-170911199D01*
X171783154Y-170899531D01*
X171815955Y-170892488D01*
X171821354Y-170890926D01*
X171830478Y-170873322D01*
X171849765Y-170830918D01*
X171876645Y-170769772D01*
X171908546Y-170695943D01*
X171942898Y-170615489D01*
X171977129Y-170534468D01*
X172008669Y-170458937D01*
X172034946Y-170394955D01*
X172053389Y-170348580D01*
X172061429Y-170325869D01*
X172061578Y-170324876D01*
X172052465Y-170306961D01*
X172026914Y-170265733D01*
X171987612Y-170205291D01*
X171937243Y-170129731D01*
X171878494Y-170043152D01*
X171844342Y-169993421D01*
X171782110Y-169902236D01*
X171726836Y-169819449D01*
X171681218Y-169749249D01*
X171647952Y-169695824D01*
X171629736Y-169663361D01*
X171627105Y-169656083D01*
X171638414Y-169639145D01*
X171669681Y-169602978D01*
X171716910Y-169551635D01*
X171776108Y-169489167D01*
X171843281Y-169419626D01*
X171914434Y-169347065D01*
X171985574Y-169275535D01*
X172052707Y-169209087D01*
X172111839Y-169151774D01*
X172158975Y-169107647D01*
X172190123Y-169080759D01*
X172200543Y-169074342D01*
X172217509Y-169083365D01*
X172258089Y-169108715D01*
X172318337Y-169147810D01*
X172394307Y-169198071D01*
X172482054Y-169256917D01*
X172548244Y-169301748D01*
X172882668Y-169529154D01*
X173161433Y-169414238D01*
X173440197Y-169299322D01*
X173515746Y-168898576D01*
X173591294Y-168497829D01*
X174425415Y-168497829D01*
X174500964Y-168898576D01*
G37*
D17*
%TO.C,TP1*%
X30800000Y-51550000D02*
X32200000Y-51550000D01*
X30800000Y-52950000D02*
X30800000Y-51550000D01*
X32200000Y-51550000D02*
X32200000Y-52950000D01*
X32200000Y-52950000D02*
X30800000Y-52950000D01*
%TO.C,R1*%
X34977500Y-48262742D02*
X34977500Y-48737258D01*
X36022500Y-48262742D02*
X36022500Y-48737258D01*
%TO.C,TP2*%
X40300000Y-44800000D02*
X41700000Y-44800000D01*
X40300000Y-46200000D02*
X40300000Y-44800000D01*
X41700000Y-44800000D02*
X41700000Y-46200000D01*
X41700000Y-46200000D02*
X40300000Y-46200000D01*
%TO.C,JP1*%
X41500000Y-40950000D02*
X43500000Y-40950000D01*
X41500000Y-43750000D02*
X41500000Y-40950000D01*
X43500000Y-40950000D02*
X43500000Y-43750000D01*
X43500000Y-43750000D02*
X41500000Y-43750000D01*
%TO.C,J1*%
X32950000Y-32565000D02*
X32950000Y-33985000D01*
X32950000Y-33985000D02*
X33450000Y-33985000D01*
X32950000Y-38515000D02*
X33450000Y-38515000D01*
X32950000Y-39935000D02*
X32950000Y-38515000D01*
X33450000Y-33985000D02*
X33450000Y-35355000D01*
X33450000Y-37145000D02*
X31030000Y-37145000D01*
X33450000Y-38515000D02*
X33450000Y-37145000D01*
X35915000Y-32565000D02*
X32950000Y-32565000D01*
X35915000Y-39935000D02*
X32950000Y-39935000D01*
X38085000Y-32565000D02*
X40540000Y-32565000D01*
X38085000Y-39935000D02*
X40540000Y-39935000D01*
X40540000Y-32565000D02*
X40540000Y-35355000D01*
X40540000Y-39935000D02*
X40540000Y-37145000D01*
%TO.C,D1*%
X37265000Y-47055000D02*
X37265000Y-49340000D01*
X38735000Y-47055000D02*
X37265000Y-47055000D01*
X38735000Y-49340000D02*
X38735000Y-47055000D01*
%TD*%
M02*
